<svg width="192" height="166" viewBox="0 0 192 166" fill="none" xmlns="http://www.w3.org/2000/svg">
<rect x="53" y="38.7334" width="85.5333" height="125.933" rx="9" stroke="url(#paint0_linear_0_1)" stroke-width="2"/>
<g filter="url(#filter0_d_0_1)">
<rect x="4" width="100" height="140" rx="10" fill="white"/>
<rect x="19.5" y="15.5" width="69" height="109" rx="4.5" stroke="black"/>
<rect x="101" y="137" width="25" height="25" rx="12.5" transform="rotate(-180 101 137)" fill="white"/>
<path d="M94.126 119L89.758 128.8L87.518 128.8L83.136 119L85.516 119L89.1 127.652L88.204 127.652L91.802 119L94.126 119ZM91.942 121.1L91.34 122.822L86.3 122.822L85.684 121.1L91.942 121.1Z" fill="black"/>
<rect x="101" y="29" width="25" height="25" rx="12.5" transform="rotate(-180 101 29)" fill="white"/>
<path d="M84.3715 18.4127C85.4452 19.4066 87.5686 21.1424 88.5 22.5605C89.4314 21.1424 91.5548 19.4066 92.6285 18.4127C93.8133 17.3145 93.7675 15.4115 92.6285 14.2648C91.6899 13.3218 90.2735 13.1569 89.166 13.7654C89.3156 12.6963 89.6293 11.6539 90.095 10.6745L90.206 10.4393L88.5 10.4393L86.7941 10.4393L86.905 10.6745C87.3707 11.6539 87.6844 12.6963 87.834 13.7654C86.7265 13.1569 85.3101 13.3242 84.3715 14.2648C83.2326 15.4115 83.1867 17.3145 84.3715 18.4127Z" fill="black"/>
<rect x="7" y="4" width="25" height="25" rx="12.5" fill="white"/>
<path d="M13.874 22L18.242 12.2H20.482L24.864 22H22.484L18.9 13.348H19.796L16.198 22H13.874ZM16.058 19.9L16.66 18.178H21.7L22.316 19.9H16.058Z" fill="black"/>
<rect x="7" y="112" width="25" height="25" rx="12.5" fill="white"/>
<path d="M23.6285 122.587C22.5548 121.593 20.4314 119.858 19.5 118.439C18.5686 119.858 16.4452 121.593 15.3715 122.587C14.1867 123.686 14.2325 125.589 15.3715 126.735C16.3101 127.678 17.7265 127.843 18.834 127.235C18.6844 128.304 18.3707 129.346 17.905 130.326L17.7941 130.561H19.5H21.2059L21.095 130.326C20.6293 129.346 20.3156 128.304 20.166 127.235C21.2735 127.843 22.6899 127.676 23.6285 126.735C24.7674 125.589 24.8133 123.686 23.6285 122.587Z" fill="black"/>
<path d="M64.8214 66.3697C62.137 63.8848 56.8285 59.5455 54.5 56C52.1715 59.5455 46.863 63.8848 44.1786 66.3697C41.2168 69.1152 41.3314 73.8727 44.1786 76.7394C46.5252 79.097 50.0662 79.5091 52.8351 77.9879C52.4611 80.6606 51.6769 83.2667 50.5126 85.7152L50.2351 86.303H54.5H58.7649L58.4874 85.7152C57.3231 83.2667 56.5389 80.6606 56.1649 77.9879C58.9338 79.5091 62.4748 79.0909 64.8214 76.7394C67.6686 73.8727 67.7832 69.1152 64.8214 66.3697Z" stroke="black"/>
</g>
<g filter="url(#filter1_d_0_1)">
<rect x="31.6042" width="100" height="140" rx="10" fill="white"/>
<rect x="47.1042" y="15.5" width="69" height="109" rx="4.5" stroke="#C90022"/>
<rect x="128.604" y="137" width="25" height="25" rx="12.5" transform="rotate(-180 128.604 137)" fill="white"/>
<path d="M121.73 119L117.362 128.8L115.122 128.8L110.74 119L113.12 119L116.704 127.652L115.808 127.652L119.406 119L121.73 119ZM119.546 121.1L118.944 122.822L113.904 122.822L113.288 121.1L119.546 121.1Z" fill="#C90022"/>
<rect x="128.604" y="28" width="25" height="25" rx="12.5" transform="rotate(-180 128.604 28)" fill="white"/>
<path d="M111.809 17.9205L111.81 17.9235L111.81 17.9235C111.936 18.2166 112.124 18.4843 112.36 18.7148C112.592 18.9417 112.868 19.123 113.17 19.2476C113.487 19.376 113.827 19.4431 114.165 19.4431C114.644 19.4431 115.112 19.3115 115.515 19.0666L115.523 19.0614L115.523 19.0615C115.611 19.0106 115.698 18.947 115.794 18.8707L116.106 18.62L116.419 18.8707C116.506 18.9409 116.598 19.0051 116.699 19.0672C117.101 19.3118 117.569 19.4431 118.047 19.4431C118.397 19.4431 118.727 19.3788 119.04 19.2487L119.043 19.2474L119.043 19.2474C119.346 19.1237 119.619 18.9432 119.853 18.7148L119.856 18.7122L119.856 18.7122C120.087 18.4887 120.275 18.2187 120.402 17.9235L120.404 17.9205L120.404 17.9205C120.537 17.6165 120.604 17.2877 120.604 16.9492C120.604 16.6353 120.541 16.2953 120.404 15.9426L120.403 15.9405L120.403 15.9405C120.29 15.6457 120.119 15.3262 119.897 14.9978C119.545 14.4764 119.051 13.9198 118.425 13.3449C117.904 12.8688 117.386 12.4641 116.991 12.1753C116.794 12.031 116.628 11.9165 116.511 11.8373C116.452 11.7977 116.405 11.7673 116.373 11.7468C116.356 11.7358 116.346 11.7296 116.341 11.7267L116.335 11.7234L116.314 11.7101L116.104 11.5787L115.896 11.7093C115.896 11.7094 115.896 11.7095 115.896 11.7097C115.853 11.7366 114.823 12.3948 113.783 13.3448C113.157 13.9197 112.664 14.4764 112.311 14.9978L111.809 17.9205ZM111.809 17.9205C111.676 17.6169 111.608 17.2914 111.604 16.9468C111.605 16.6299 111.668 16.2947 111.805 15.9426L111.806 15.9405M111.809 17.9205L111.806 15.9405M111.806 15.9405C111.919 15.6457 112.089 15.3263 112.311 14.9981L111.806 15.9405Z" fill="#C90022" stroke="#C90022"/>
<rect x="34.6042" y="3" width="25" height="25" rx="12.5" fill="white"/>
<path d="M41.4782 21L45.8462 11.2H48.0862L52.4682 21H50.0882L46.5042 12.348H47.4002L43.8022 21H41.4782ZM43.6622 18.9L44.2642 17.178H49.3042L49.9202 18.9H43.6622Z" fill="#C90022"/>
<rect x="34.6042" y="112" width="25" height="25" rx="12.5" fill="white"/>
<path d="M51.3996 122.08L51.3983 122.076L51.3983 122.076C51.2722 121.783 51.0845 121.516 50.8488 121.285C50.6169 121.058 50.34 120.877 50.0387 120.752C49.7215 120.624 49.3814 120.557 49.0432 120.557C48.5642 120.557 48.0962 120.688 47.6938 120.933L47.6853 120.939L47.6852 120.939C47.5978 120.989 47.5101 121.053 47.415 121.129L47.1022 121.38L46.7895 121.129C46.702 121.059 46.6102 120.995 46.5095 120.933C46.1074 120.688 45.6398 120.557 45.1613 120.557C44.8119 120.557 44.4812 120.621 44.1686 120.751L44.1654 120.753L44.1654 120.753C43.8623 120.876 43.5891 121.057 43.3556 121.285L43.353 121.288L43.3529 121.288C43.121 121.511 42.9331 121.781 42.8062 122.076L42.8049 122.08L42.8048 122.08C42.6717 122.384 42.6042 122.712 42.6042 123.051C42.6042 123.365 42.6675 123.705 42.8048 124.057L42.8056 124.059L42.8056 124.059C42.9187 124.354 43.0893 124.674 43.3111 125.002C43.6639 125.524 44.1571 126.08 44.7833 126.655C45.304 127.131 45.8227 127.536 46.2176 127.825C46.4148 127.969 46.5801 128.083 46.6978 128.163C46.7567 128.202 46.8031 128.233 46.8352 128.253C46.8523 128.264 46.8624 128.27 46.867 128.273L46.8737 128.277L46.8949 128.29L47.1042 128.421L47.3124 128.291C47.3125 128.291 47.3127 128.29 47.3129 128.29C47.3554 128.263 48.3859 127.605 49.4252 126.655C50.0514 126.08 50.5446 125.524 50.8974 125.002L51.3996 122.08ZM51.3996 122.08C51.5326 122.383 51.6005 122.709 51.6042 123.053C51.6039 123.37 51.5407 123.705 51.4037 124.057L51.4029 124.059M51.3996 122.08L51.4029 124.059M51.4029 124.059C51.2898 124.354 51.1193 124.674 50.8976 125.002L51.4029 124.059Z" fill="#C90022" stroke="#C90022"/>
<path d="M93.5296 63.7557L93.5283 63.7526C93.1717 62.9237 92.6444 62.1745 91.9902 61.5346C91.3397 60.8984 90.5655 60.392 89.7243 60.0447C88.8431 59.6875 87.8964 59.5 86.9516 59.5C85.6174 59.5 84.3123 59.8664 83.1882 60.5508L83.1796 60.556L83.1796 60.5559C82.9162 60.7091 82.6648 60.8931 82.4119 61.0958L82.0992 61.3464L81.7865 61.0958C81.5413 60.8992 81.2857 60.7206 81.0091 60.5501C79.8852 59.8661 78.5806 59.5 77.2468 59.5C76.2787 59.5 75.3536 59.6787 74.4769 60.0435L74.4737 60.0449L74.4737 60.0449C73.6247 60.3913 72.8602 60.8969 72.2082 61.5346L72.2056 61.5372L72.2056 61.5372C71.5551 62.164 71.0276 62.9217 70.6701 63.7526L70.6688 63.7557L70.6688 63.7557C70.293 64.6135 70.1042 65.5382 70.1042 66.4847C70.1042 67.3705 70.2828 68.3125 70.6566 69.2732L70.6574 69.2753C70.9646 70.0758 71.4203 70.925 71.9999 71.7831L93.5296 63.7557ZM93.5296 63.7557C93.9052 64.6131 94.0945 65.5285 94.1042 66.4871C94.1039 67.3819 93.9255 68.3131 93.5519 69.2732L93.5511 69.2753M93.5296 63.7557L93.5511 69.2753M81.161 80.2046L81.1822 80.2178L81.8696 80.6493L81.8699 80.6495C82.0105 80.7378 82.198 80.7378 82.3386 80.6495L82.3389 80.6493L83.0251 80.2186L81.161 80.2046ZM81.161 80.2046L81.1387 80.1935M81.161 80.2046L81.1387 80.1935M81.1387 80.1935C81.146 80.1971 81.1438 80.1957 81.1285 80.1863C81.1117 80.1759 81.0794 80.1559 81.027 80.1224C80.9414 80.0675 80.8207 79.9884 80.6695 79.8868C80.3673 79.6835 79.9462 79.3916 79.445 79.025C78.442 78.2915 77.1228 77.2622 75.7953 76.0488M81.1387 80.1935L75.7953 76.0488M93.5511 69.2753C93.2439 70.0757 92.7883 70.9249 92.2087 71.7829L93.5511 69.2753ZM75.7953 76.0488C74.1986 74.5829 72.9229 73.1473 72 71.7832L75.7953 76.0488Z" stroke="#C90022"/>
</g>
<g filter="url(#filter2_d_0_1)">
<rect x="59.6042" width="100" height="140" rx="10" fill="white"/>
<rect x="75.1042" y="15.5" width="69" height="109" rx="4.5" stroke="black"/>
<rect x="156.604" y="137" width="25" height="25" rx="12.5" transform="rotate(-180 156.604 137)" fill="white"/>
<path d="M149.73 119L145.362 128.8L143.122 128.8L138.74 119L141.12 119L144.704 127.652L143.808 127.652L147.406 119L149.73 119ZM147.546 121.1L146.944 122.822L141.904 122.822L141.288 121.1L147.546 121.1Z" fill="black"/>
<rect x="156.604" y="28" width="25" height="25" rx="12.5" transform="rotate(-180 156.604 28)" fill="white"/>
<path d="M141.599 16.9856C141.801 16.9856 141.997 16.961 142.184 16.9141C141.819 17.3567 141.599 17.9248 141.599 18.5485C141.599 19.95 142.72 21.0881 144.102 21.0881C145.484 21.0881 146.603 19.95 146.603 18.5485C146.603 17.9271 146.383 17.3567 146.018 16.9141C146.205 16.961 146.401 16.9856 146.603 16.9856C147.983 16.9856 149.104 15.8475 149.104 14.4456C149.104 13.0415 147.983 11.9059 146.603 11.9059C145.853 11.9059 145.181 12.2412 144.723 12.7732C144.866 11.859 145.137 10.9645 145.533 10.124L145.634 9.91169L144.104 9.91169L142.574 9.91169L142.675 10.124C143.072 10.9645 143.342 11.8568 143.485 12.7732C143.028 12.2435 142.354 11.9059 141.605 11.9059C140.222 11.9059 139.104 13.0441 139.104 14.4456C139.098 15.8475 140.218 16.9856 141.599 16.9856Z" fill="black"/>
<rect x="62.6042" y="3" width="25" height="25" rx="12.5" fill="white"/>
<path d="M69.4782 21L73.8462 11.2H76.0862L80.4682 21H78.0882L74.5042 12.348H75.4002L71.8022 21H69.4782ZM71.6622 18.9L72.2642 17.178H77.3042L77.9202 18.9H71.6622Z" fill="black"/>
<rect x="62.6042" y="112" width="25" height="25" rx="12.5" fill="white"/>
<path d="M77.6095 123.014C77.407 123.014 77.2111 123.039 77.024 123.086C77.3894 122.643 77.6095 122.075 77.6095 121.452C77.6095 120.05 76.4888 118.912 75.1064 118.912C73.7241 118.912 72.6052 120.05 72.6052 121.452C72.6052 122.073 72.8253 122.643 73.1907 123.086C73.0036 123.039 72.8077 123.014 72.6052 123.014C71.225 123.014 70.1042 124.152 70.1042 125.554C70.1042 126.959 71.225 128.094 72.6052 128.094C73.3558 128.094 74.0275 127.759 74.4853 127.227C74.3423 128.141 74.0715 129.035 73.6753 129.876L73.574 130.088H75.1042H76.6344L76.5332 129.876C76.137 129.035 75.8662 128.143 75.7231 127.227C76.181 127.757 76.8549 128.094 77.6033 128.094C78.986 128.094 80.1042 126.956 80.1042 125.554C80.1105 124.152 78.9901 123.014 77.6095 123.014Z" fill="black"/>
<path d="M116.367 66.2562C115.861 66.2562 115.371 66.3177 114.904 66.4351C115.817 65.3286 116.367 63.9083 116.367 62.3492C116.367 58.8453 113.566 56 110.11 56C106.654 56 103.857 58.8453 103.857 62.3492C103.857 63.9027 104.407 65.3286 105.32 66.4351C104.853 66.3177 104.363 66.2562 103.857 66.2562C100.406 66.2562 97.6042 69.1016 97.6042 72.6063C97.6042 76.1167 100.406 78.9555 103.857 78.9555C105.733 78.9555 107.412 78.1172 108.557 76.7872C108.199 79.0728 107.522 81.3091 106.532 83.4102L106.279 83.9411H110.104H113.93L113.677 83.4102C112.686 81.3091 112.009 79.0784 111.651 76.7872C112.796 78.1117 114.481 78.9555 116.352 78.9555C119.809 78.9555 122.604 76.1101 122.604 72.6063C122.62 69.1016 119.819 66.2562 116.367 66.2562Z" stroke="black"/>
</g>
<g filter="url(#filter3_d_0_1)">
<rect x="87.6042" width="100" height="140" rx="10" fill="white"/>
<rect x="103.104" y="15.5" width="69" height="109" rx="4.5" stroke="#C90022"/>
<rect x="184.604" y="137" width="25" height="25" rx="12.5" transform="rotate(-180 184.604 137)" fill="white"/>
<path d="M177.73 119L173.362 128.8L171.122 128.8L166.74 119L169.12 119L172.704 127.652L171.808 127.652L175.406 119L177.73 119ZM175.546 121.1L174.944 122.822L169.904 122.822L169.288 121.1L175.546 121.1Z" fill="#C90022"/>
<rect x="159.604" y="3" width="25" height="25" rx="12.5" fill="white"/>
<path d="M172.104 8.42896L176.378 15.5L172.104 22.5711L167.831 15.5L172.104 8.42896Z" fill="#C90022"/>
<rect x="90.6042" y="3" width="25" height="25" rx="12.5" fill="white"/>
<path d="M97.4782 21L101.846 11.2H104.086L108.468 21H106.088L102.504 12.348H103.4L99.8022 21H97.4782ZM99.6622 18.9L100.264 17.178H105.304L105.92 18.9H99.6622Z" fill="#C90022"/>
<rect x="90.6042" y="112" width="25" height="25" rx="12.5" fill="white"/>
<path d="M103.104 117.429L107.378 124.5L103.104 131.571L98.8306 124.5L103.104 117.429Z" fill="#C90022"/>
<path d="M128.061 70.6777L138.161 53.9666L148.261 70.6777L138.161 87.3887L128.061 70.6777Z" stroke="#C90022"/>
</g>
<defs>
<filter id="filter0_d_0_1" x="0" y="0" width="108" height="148" filterUnits="userSpaceOnUse" color-interpolation-filters="sRGB">
<feFlood flood-opacity="0" result="BackgroundImageFix"/>
<feColorMatrix in="SourceAlpha" type="matrix" values="0 0 0 0 0 0 0 0 0 0 0 0 0 0 0 0 0 0 127 0" result="hardAlpha"/>
<feOffset dy="4"/>
<feGaussianBlur stdDeviation="2"/>
<feComposite in2="hardAlpha" operator="out"/>
<feColorMatrix type="matrix" values="0 0 0 0 0 0 0 0 0 0 0 0 0 0 0 0 0 0 0.25 0"/>
<feBlend mode="normal" in2="BackgroundImageFix" result="effect1_dropShadow_0_1"/>
<feBlend mode="normal" in="SourceGraphic" in2="effect1_dropShadow_0_1" result="shape"/>
</filter>
<filter id="filter1_d_0_1" x="27.6042" y="0" width="108" height="148" filterUnits="userSpaceOnUse" color-interpolation-filters="sRGB">
<feFlood flood-opacity="0" result="BackgroundImageFix"/>
<feColorMatrix in="SourceAlpha" type="matrix" values="0 0 0 0 0 0 0 0 0 0 0 0 0 0 0 0 0 0 127 0" result="hardAlpha"/>
<feOffset dy="4"/>
<feGaussianBlur stdDeviation="2"/>
<feComposite in2="hardAlpha" operator="out"/>
<feColorMatrix type="matrix" values="0 0 0 0 0 0 0 0 0 0 0 0 0 0 0 0 0 0 0.25 0"/>
<feBlend mode="normal" in2="BackgroundImageFix" result="effect1_dropShadow_0_1"/>
<feBlend mode="normal" in="SourceGraphic" in2="effect1_dropShadow_0_1" result="shape"/>
</filter>
<filter id="filter2_d_0_1" x="55.6042" y="0" width="108" height="148" filterUnits="userSpaceOnUse" color-interpolation-filters="sRGB">
<feFlood flood-opacity="0" result="BackgroundImageFix"/>
<feColorMatrix in="SourceAlpha" type="matrix" values="0 0 0 0 0 0 0 0 0 0 0 0 0 0 0 0 0 0 127 0" result="hardAlpha"/>
<feOffset dy="4"/>
<feGaussianBlur stdDeviation="2"/>
<feComposite in2="hardAlpha" operator="out"/>
<feColorMatrix type="matrix" values="0 0 0 0 0 0 0 0 0 0 0 0 0 0 0 0 0 0 0.25 0"/>
<feBlend mode="normal" in2="BackgroundImageFix" result="effect1_dropShadow_0_1"/>
<feBlend mode="normal" in="SourceGraphic" in2="effect1_dropShadow_0_1" result="shape"/>
</filter>
<filter id="filter3_d_0_1" x="83.6042" y="0" width="108" height="148" filterUnits="userSpaceOnUse" color-interpolation-filters="sRGB">
<feFlood flood-opacity="0" result="BackgroundImageFix"/>
<feColorMatrix in="SourceAlpha" type="matrix" values="0 0 0 0 0 0 0 0 0 0 0 0 0 0 0 0 0 0 127 0" result="hardAlpha"/>
<feOffset dy="4"/>
<feGaussianBlur stdDeviation="2"/>
<feComposite in2="hardAlpha" operator="out"/>
<feColorMatrix type="matrix" values="0 0 0 0 0 0 0 0 0 0 0 0 0 0 0 0 0 0 0.25 0"/>
<feBlend mode="normal" in2="BackgroundImageFix" result="effect1_dropShadow_0_1"/>
<feBlend mode="normal" in="SourceGraphic" in2="effect1_dropShadow_0_1" result="shape"/>
</filter>
<linearGradient id="paint0_linear_0_1" x1="95.7667" y1="37.7334" x2="95.7667" y2="165.667" gradientUnits="userSpaceOnUse">
<stop stop-color="#FF0074"/>
<stop offset="1" stop-color="#9000E6"/>
</linearGradient>
</defs>
</svg>
