<svg width="465" height="141" viewBox="0 0 465 141" fill="none" xmlns="http://www.w3.org/2000/svg">
<path d="M35.28 34.92V31.92H32.28V34.92H35.28ZM35.28 61.56H32.28V64.56H35.28V61.56ZM81.936 61.56H84.936V58.56H81.936V61.56ZM81.936 80.28V83.28H84.936V80.28H81.936ZM35.28 80.28V77.28H32.28V80.28H35.28ZM35.28 117V120H38.28V117H35.28ZM11.952 117H8.952V120H11.952V117ZM11.952 16.2V13.2H8.952V16.2H11.952ZM88.128 16.2H91.128V13.2H88.128V16.2ZM88.128 34.92V37.92H91.128V34.92H88.128ZM32.28 34.92V61.56H38.28V34.92H32.28ZM35.28 64.56H81.936V58.56H35.28V64.56ZM78.936 61.56V80.28H84.936V61.56H78.936ZM81.936 77.28H35.28V83.28H81.936V77.28ZM32.28 80.28V117H38.28V80.28H32.28ZM35.28 114H11.952V120H35.28V114ZM14.952 117V16.2H8.952V117H14.952ZM11.952 19.2H88.128V13.2H11.952V19.2ZM85.128 16.2V34.92H91.128V16.2H85.128ZM88.128 31.92H35.28V37.92H88.128V31.92ZM166.086 95.4L168.859 94.254L168.092 92.4H166.086V95.4ZM119.286 95.4V92.4H117.28L116.514 94.254L119.286 95.4ZM110.358 117V120H112.364L113.131 118.146L110.358 117ZM86.454 117L83.7139 115.779L81.8324 120H86.454V117ZM131.382 16.2V13.2H129.435L128.642 14.9787L131.382 16.2ZM154.422 16.2L157.161 14.9754L156.367 13.2H154.422V16.2ZM199.494 117V120H204.122L202.233 115.775L199.494 117ZM175.014 117L172.242 118.146L173.008 120H175.014V117ZM158.742 77.688V80.688H163.232L161.514 76.54L158.742 77.688ZM142.758 39.096L145.53 37.948L142.758 31.2561L139.986 37.948L142.758 39.096ZM126.774 77.688L124.002 76.54L122.284 80.688H126.774V77.688ZM166.086 92.4H119.286V98.4H166.086V92.4ZM116.514 94.254L107.586 115.854L113.131 118.146L122.059 96.546L116.514 94.254ZM110.358 114H86.454V120H110.358V114ZM89.1941 118.221L134.122 17.4213L128.642 14.9787L83.7139 115.779L89.1941 118.221ZM131.382 19.2H154.422V13.2H131.382V19.2ZM151.683 17.4246L196.755 118.225L202.233 115.775L157.161 14.9754L151.683 17.4246ZM199.494 114H175.014V120H199.494V114ZM177.786 115.854L168.859 94.254L163.314 96.546L172.242 118.146L177.786 115.854ZM161.514 76.54L145.53 37.948L139.986 40.244L155.97 78.836L161.514 76.54ZM139.986 37.948L124.002 76.54L129.546 78.836L145.53 40.244L139.986 37.948ZM126.774 80.688H158.742V74.688H126.774V80.688ZM317.554 127.8L319.885 129.688L321.439 127.768L319.854 125.874L317.554 127.8ZM305.602 137.016L304.373 134.279L304.362 134.284L304.352 134.289L305.602 137.016ZM270.034 135.288L271.459 132.648L271.442 132.639L271.426 132.631L270.034 135.288ZM249.298 118.296L251.47 116.226L250.733 115.453L249.674 115.32L249.298 118.296ZM224.818 109.512L223.161 112.013L223.169 112.018L223.177 112.023L224.818 109.512ZM208.114 91.368L205.458 92.7638L205.469 92.7843L205.48 92.8046L208.114 91.368ZM209.266 39.96L206.696 38.4119L206.691 38.4211L209.266 39.96ZM228.994 21.24L227.58 18.5938L227.574 18.5971L227.568 18.6005L228.994 21.24ZM305.314 39.96L302.744 41.508L302.748 41.5149L302.752 41.5218L305.314 39.96ZM302.578 97.416L300.178 95.616L300.171 95.6244L300.165 95.6328L302.578 97.416ZM276.514 115.848L275.603 112.99L271.01 114.453L274.351 117.927L276.514 115.848ZM283.426 121.176L284.767 118.493L284.744 118.481L284.72 118.47L283.426 121.176ZM307.186 115.416L309.486 113.49L307.318 110.901L305.002 113.359L307.186 115.416ZM229.858 83.304L227.228 84.7478L227.239 84.7674L227.25 84.7869L229.858 83.304ZM241.234 94.824L239.729 97.4191L239.748 97.4305L239.768 97.4415L241.234 94.824ZM273.49 94.824L274.956 97.4415L274.975 97.4305L274.995 97.4191L273.49 94.824ZM284.722 83.304L282.114 81.8211L282.103 81.8406L282.092 81.8602L284.722 83.304ZM284.722 49.896L282.092 51.3398L282.103 51.3594L282.114 51.3789L284.722 49.896ZM273.49 38.52L271.985 41.1151L272.004 41.1265L272.024 41.1375L273.49 38.52ZM241.234 38.52L242.7 41.1375L242.719 41.1265L242.739 41.1151L241.234 38.52ZM229.858 49.896L227.25 48.4131L227.239 48.4326L227.228 48.4522L229.858 49.896ZM315.222 125.912C312.252 129.581 308.645 132.361 304.373 134.279L306.831 139.753C311.966 137.447 316.327 134.083 319.885 129.688L315.222 125.912ZM304.352 134.289C300.173 136.204 295.517 137.184 290.338 137.184V143.184C296.294 143.184 301.814 142.052 306.852 139.743L304.352 134.289ZM290.338 137.184C283.302 137.184 277.03 135.655 271.459 132.648L268.609 137.928C275.133 141.449 282.398 143.184 290.338 143.184V137.184ZM271.426 132.631C265.796 129.681 259.147 124.283 251.47 116.226L247.126 120.366C255.001 128.629 262.176 134.559 268.642 137.945L271.426 132.631ZM249.674 115.32C240.973 114.221 233.252 111.439 226.459 107.001L223.177 112.023C230.784 116.993 239.382 120.067 248.922 121.272L249.674 115.32ZM226.474 107.011C219.773 102.573 214.542 96.8889 210.747 89.9314L205.48 92.8046C209.749 100.631 215.655 107.043 223.161 112.013L226.474 107.011ZM210.769 89.9722C207.075 82.9432 205.21 75.171 205.21 66.6H199.21C199.21 76.077 201.281 84.8168 205.458 92.7638L210.769 89.9722ZM205.21 66.6C205.21 57.21 207.437 48.8694 211.841 41.4989L206.691 38.4211C201.687 46.7946 199.21 56.214 199.21 66.6H205.21ZM211.835 41.508C216.353 34.0094 222.53 28.142 230.42 23.8795L227.568 18.6005C218.754 23.362 211.779 29.9746 206.696 38.412L211.835 41.508ZM230.407 23.8862C238.381 19.6275 247.344 17.472 257.362 17.472V11.472C246.451 11.472 236.503 13.8285 227.58 18.5938L230.407 23.8862ZM257.362 17.472C267.38 17.472 276.289 19.6276 284.16 23.8795L287.012 18.6005C278.178 13.8284 268.272 11.472 257.362 11.472V17.472ZM284.16 23.8795C292.05 28.142 298.227 34.0094 302.744 41.508L307.884 38.412C302.801 29.9746 295.826 23.362 287.012 18.6005L284.16 23.8795ZM302.752 41.5218C307.245 48.8892 309.514 57.2215 309.514 66.6H315.514C315.514 56.2025 312.983 46.7748 307.875 38.3982L302.752 41.5218ZM309.514 66.6C309.514 77.705 306.388 87.336 300.178 95.616L304.978 99.216C312.016 89.832 315.514 78.919 315.514 66.6H309.514ZM300.165 95.6328C294.027 103.938 285.873 109.718 275.603 112.99L277.424 118.706C288.85 115.066 298.073 108.558 304.99 99.1992L300.165 95.6328ZM274.351 117.927C276.905 120.584 279.494 122.621 282.131 123.882L284.72 118.47C282.941 117.619 280.922 116.104 278.676 113.769L274.351 117.927ZM282.084 123.859C284.807 125.221 287.715 125.904 290.77 125.904V119.904C288.64 119.904 286.652 119.435 284.767 118.493L282.084 123.859ZM290.77 125.904C297.923 125.904 304.161 123.001 309.369 117.473L305.002 113.359C300.803 117.815 296.096 119.904 290.77 119.904V125.904ZM304.885 117.342L315.253 129.726L319.854 125.874L309.486 113.49L304.885 117.342ZM222.826 66.6C222.826 73.2845 224.27 79.3594 227.228 84.7478L232.487 81.8602C230.07 77.4566 228.826 72.3955 228.826 66.6H222.826ZM227.25 84.7869C230.292 90.1375 234.462 94.3644 239.729 97.4191L242.739 92.2289C238.406 89.7156 234.991 86.2625 232.466 81.8211L227.25 84.7869ZM239.768 97.4415C245.052 100.401 250.94 101.856 257.362 101.856V95.856C251.88 95.856 247.015 94.6234 242.7 92.2065L239.768 97.4415ZM257.362 101.856C263.784 101.856 269.671 100.401 274.956 97.4415L272.024 92.2065C267.708 94.6234 262.844 95.856 257.362 95.856V101.856ZM274.995 97.4191C280.271 94.359 284.402 90.1195 287.352 84.7478L282.092 81.8602C279.665 86.2805 276.309 89.721 271.985 92.2289L274.995 97.4191ZM287.33 84.7869C290.398 79.3915 291.898 73.3025 291.898 66.6H285.898C285.898 72.3775 284.614 77.4245 282.114 81.8211L287.33 84.7869ZM291.898 66.6C291.898 59.8975 290.398 53.8085 287.33 48.4131L282.114 51.3789C284.614 55.7755 285.898 60.8225 285.898 66.6H291.898ZM287.352 48.4522C284.397 43.0716 280.254 38.8694 274.956 35.9025L272.024 41.1375C276.326 43.5466 279.67 46.9284 282.092 51.3398L287.352 48.4522ZM274.995 35.9249C269.704 32.8564 263.803 31.344 257.362 31.344V37.344C262.825 37.344 267.675 38.6156 271.985 41.1151L274.995 35.9249ZM257.362 31.344C250.921 31.344 245.019 32.8564 239.729 35.9249L242.739 41.1151C247.048 38.6156 251.899 37.344 257.362 37.344V31.344ZM239.768 35.9025C234.479 38.8642 230.297 43.0538 227.25 48.4131L232.466 51.3789C234.986 46.9462 238.388 43.5518 242.7 41.1375L239.768 35.9025ZM227.228 48.4522C224.27 53.8406 222.826 59.9155 222.826 66.6H228.826C228.826 60.8045 230.07 55.7434 232.487 51.3398L227.228 48.4522Z" fill="url(#paint0_linear_577_1747)" fill-opacity="0.16"/>
<path d="M89.264 94.192V101.892H99.4V103.684H89.264V112H87.192V92.4H100.632V94.192H89.264ZM123.273 106.764H112.353L110.001 112H107.845L116.805 92.4H118.849L127.809 112H125.625L123.273 106.764ZM122.517 105.084L117.813 94.556L113.109 105.084H122.517ZM157.518 113.652C156.921 114.38 156.211 114.931 155.39 115.304C154.587 115.696 153.71 115.892 152.758 115.892C151.601 115.892 150.499 115.603 149.454 115.024C148.427 114.464 147.27 113.512 145.982 112.168C144.097 112.112 142.398 111.645 140.886 110.768C139.374 109.891 138.189 108.705 137.33 107.212C136.471 105.719 136.042 104.048 136.042 102.2C136.042 100.315 136.481 98.616 137.358 97.104C138.254 95.592 139.486 94.4067 141.054 93.548C142.641 92.6707 144.405 92.232 146.346 92.232C148.287 92.232 150.033 92.6613 151.582 93.52C153.15 94.3787 154.382 95.5733 155.278 97.104C156.174 98.616 156.622 100.315 156.622 102.2C156.622 103.843 156.277 105.355 155.586 106.736C154.914 108.099 153.962 109.237 152.73 110.152C151.517 111.067 150.117 111.673 148.53 111.972C149.967 113.484 151.386 114.24 152.786 114.24C154.242 114.24 155.483 113.643 156.51 112.448L157.518 113.652ZM138.086 102.2C138.086 103.731 138.441 105.112 139.15 106.344C139.878 107.576 140.867 108.547 142.118 109.256C143.387 109.965 144.797 110.32 146.346 110.32C147.895 110.32 149.295 109.965 150.546 109.256C151.797 108.547 152.777 107.576 153.486 106.344C154.195 105.112 154.55 103.731 154.55 102.2C154.55 100.669 154.195 99.288 153.486 98.056C152.777 96.824 151.797 95.8533 150.546 95.144C149.295 94.4347 147.895 94.08 146.346 94.08C144.797 94.08 143.387 94.4347 142.118 95.144C140.867 95.8533 139.878 96.824 139.15 98.056C138.441 99.288 138.086 100.669 138.086 102.2Z" fill="white"/>
<defs>
<linearGradient id="paint0_linear_577_1747" x1="232.5" y1="-1.12686e-06" x2="237.847" y2="118.062" gradientUnits="userSpaceOnUse">
<stop stop-color="#ABFC4F"/>
<stop offset="1" stop-color="#3DBF69" stop-opacity="0.47"/>
</linearGradient>
</defs>
</svg>
