<svg width="850" height="255" viewBox="0 0 850 255" fill="none" xmlns="http://www.w3.org/2000/svg">
<path d="M104.4 16.2H107.4V13.2H104.4V16.2ZM104.4 117V120H107.4V117H104.4ZM81.072 117H78.072V120H81.072V117ZM81.072 75.672H84.072V72.672H81.072V75.672ZM35.28 75.672V72.672H32.28V75.672H35.28ZM35.28 117V120H38.28V117H35.28ZM11.952 117H8.952V120H11.952V117ZM11.952 16.2V13.2H8.952V16.2H11.952ZM35.28 16.2H38.28V13.2H35.28V16.2ZM35.28 55.944H32.28V58.944H35.28V55.944ZM81.072 55.944V58.944H84.072V55.944H81.072ZM81.072 16.2V13.2H78.072V16.2H81.072ZM101.4 16.2V117H107.4V16.2H101.4ZM104.4 114H81.072V120H104.4V114ZM84.072 117V75.672H78.072V117H84.072ZM81.072 72.672H35.28V78.672H81.072V72.672ZM32.28 75.672V117H38.28V75.672H32.28ZM35.28 114H11.952V120H35.28V114ZM14.952 117V16.2H8.952V117H14.952ZM11.952 19.2H35.28V13.2H11.952V19.2ZM32.28 16.2V55.944H38.28V16.2H32.28ZM35.28 58.944H81.072V52.944H35.28V58.944ZM84.072 55.944V16.2H78.072V55.944H84.072ZM81.072 19.2H104.4V13.2H81.072V19.2ZM148.697 111.96L147.271 114.599L147.277 114.603L147.284 114.606L148.697 111.96ZM128.969 93.384L126.385 94.9091L126.396 94.9276L126.407 94.9458L128.969 93.384ZM128.969 39.96L126.399 38.4119L126.394 38.4211L128.969 39.96ZM148.697 21.24L147.284 18.5938L147.277 18.5971L147.271 18.6005L148.697 21.24ZM225.017 39.96L222.447 41.508L222.451 41.5149L222.455 41.5218L225.017 39.96ZM225.017 93.384L227.578 94.9458L227.582 94.9389L227.587 94.932L225.017 93.384ZM205.289 111.96L206.715 114.599L205.289 111.96ZM193.193 94.824L194.659 97.4415L194.678 97.4305L194.698 97.4191L193.193 94.824ZM204.425 83.304L201.817 81.8211L201.806 81.8406L201.795 81.8602L204.425 83.304ZM204.425 49.896L201.795 51.3398L201.806 51.3594L201.817 51.3789L204.425 49.896ZM193.193 38.52L191.688 41.1151L191.707 41.1265L191.727 41.1375L193.193 38.52ZM160.937 38.52L162.403 41.1375L162.422 41.1265L162.442 41.1151L160.937 38.52ZM149.561 49.896L146.953 48.4131L146.942 48.4326L146.931 48.4522L149.561 49.896ZM149.561 83.304L146.931 84.7478L146.942 84.7674L146.953 84.7869L149.561 83.304ZM160.937 94.824L159.432 97.4191L159.451 97.4305L159.471 97.4415L160.937 94.824ZM177.065 115.728C167.047 115.728 158.084 113.572 150.11 109.314L147.284 114.606C156.206 119.372 166.155 121.728 177.065 121.728V115.728ZM150.123 109.321C142.224 105.053 136.045 99.227 131.53 91.8222L126.407 94.9458C131.492 103.285 138.466 109.843 147.271 114.599L150.123 109.321ZM131.552 91.8589C127.14 84.3847 124.913 75.9897 124.913 66.6H118.913C118.913 76.9863 121.39 86.4473 126.385 94.9091L131.552 91.8589ZM124.913 66.6C124.913 57.21 127.14 48.8694 131.544 41.4989L126.394 38.4211C121.39 46.7946 118.913 56.214 118.913 66.6H124.913ZM131.539 41.508C136.056 34.0094 142.233 28.142 150.123 23.8795L147.271 18.6005C138.457 23.362 131.482 29.9746 126.399 38.412L131.539 41.508ZM150.11 23.8862C158.084 19.6275 167.047 17.472 177.065 17.472V11.472C166.155 11.472 156.206 13.8285 147.284 18.5938L150.11 23.8862ZM177.065 17.472C187.083 17.472 195.993 19.6276 203.863 23.8795L206.715 18.6005C197.881 13.8284 187.975 11.472 177.065 11.472V17.472ZM203.863 23.8795C211.753 28.142 217.93 34.0094 222.447 41.508L227.587 38.412C222.504 29.9746 215.529 23.362 206.715 18.6005L203.863 23.8795ZM222.455 41.5218C226.948 48.8892 229.217 57.2215 229.217 66.6H235.217C235.217 56.2025 232.686 46.7748 227.578 38.3982L222.455 41.5218ZM229.217 66.6C229.217 75.9782 226.948 84.365 222.447 91.836L227.587 94.932C232.686 86.467 235.217 76.9978 235.217 66.6H229.217ZM222.455 91.8222C217.94 99.227 211.762 105.053 203.863 109.321L206.715 114.599C215.52 109.843 222.493 103.285 227.578 94.9458L222.455 91.8222ZM203.863 109.321C195.993 113.572 187.083 115.728 177.065 115.728V121.728C187.975 121.728 197.881 119.372 206.715 114.599L203.863 109.321ZM177.065 101.856C183.487 101.856 189.375 100.401 194.659 97.4415L191.727 92.2065C187.411 94.6234 182.547 95.856 177.065 95.856V101.856ZM194.698 97.4191C199.974 94.359 204.105 90.1195 207.055 84.7478L201.795 81.8602C199.368 86.2805 196.012 89.721 191.688 92.2289L194.698 97.4191ZM207.033 84.7869C210.101 79.3915 211.601 73.3025 211.601 66.6H205.601C205.601 72.3775 204.317 77.4245 201.817 81.8211L207.033 84.7869ZM211.601 66.6C211.601 59.8975 210.101 53.8085 207.033 48.4131L201.817 51.3789C204.317 55.7755 205.601 60.8225 205.601 66.6H211.601ZM207.055 48.4522C204.101 43.0716 199.957 38.8694 194.659 35.9025L191.727 41.1375C196.029 43.5466 199.373 46.9284 201.795 51.3398L207.055 48.4522ZM194.698 35.9249C189.408 32.8564 183.506 31.344 177.065 31.344V37.344C182.528 37.344 187.378 38.6156 191.688 41.1151L194.698 35.9249ZM177.065 31.344C170.624 31.344 164.722 32.8564 159.432 35.9249L162.442 41.1151C166.752 38.6156 171.602 37.344 177.065 37.344V31.344ZM159.471 35.9025C154.182 38.8642 150 43.0538 146.953 48.4131L152.169 51.3789C154.689 46.9462 158.091 43.5518 162.403 41.1375L159.471 35.9025ZM146.931 48.4522C143.973 53.8406 142.529 59.9155 142.529 66.6H148.529C148.529 60.8045 149.773 55.7434 152.191 51.3398L146.931 48.4522ZM142.529 66.6C142.529 73.2845 143.973 79.3594 146.931 84.7478L152.191 81.8602C149.773 77.4566 148.529 72.3955 148.529 66.6H142.529ZM146.953 84.7869C149.995 90.1375 154.165 94.3644 159.432 97.4191L162.442 92.2289C158.109 89.7156 154.694 86.2625 152.169 81.8211L146.953 84.7869ZM159.471 97.4415C164.755 100.401 170.643 101.856 177.065 101.856V95.856C171.583 95.856 166.719 94.6234 162.403 92.2065L159.471 97.4415ZM398.726 16.2L401.577 17.1328L402.864 13.2H398.726V16.2ZM365.75 117V120H367.925L368.601 117.933L365.75 117ZM340.694 117L337.841 117.927L338.514 120H340.694V117ZM318.518 48.744L321.371 47.817L318.563 39.1752L315.674 47.7899L318.518 48.744ZM295.622 117V120H297.78L298.466 117.954L295.622 117ZM270.71 117L267.86 117.936L268.538 120H270.71V117ZM237.59 16.2V13.2H233.446L234.74 17.1365L237.59 16.2ZM261.782 16.2L264.638 15.2827L263.969 13.2H261.782V16.2ZM284.534 87.048L281.678 87.9653L284.472 96.6673L287.378 88.0019L284.534 87.048ZM308.294 16.2V13.2H306.136L305.45 15.2461L308.294 16.2ZM329.894 16.2L332.749 15.279L332.078 13.2H329.894V16.2ZM352.934 87.624L350.079 88.545L352.907 97.3138L355.784 88.5606L352.934 87.624ZM376.406 16.2V13.2H374.234L373.556 15.2634L376.406 16.2ZM395.875 15.2672L362.899 116.067L368.601 117.933L401.577 17.1328L395.875 15.2672ZM365.75 114H340.694V120H365.75V114ZM343.547 116.073L321.371 47.817L315.665 49.671L337.841 117.927L343.547 116.073ZM315.674 47.7899L292.778 116.046L298.466 117.954L321.362 49.6981L315.674 47.7899ZM295.622 114H270.71V120H295.622V114ZM273.56 116.064L240.44 15.2635L234.74 17.1365L267.86 117.936L273.56 116.064ZM237.59 19.2H261.782V13.2H237.59V19.2ZM258.926 17.1173L281.678 87.9653L287.39 86.1307L264.638 15.2827L258.926 17.1173ZM287.378 88.0019L311.138 17.1539L305.45 15.2461L281.69 86.0941L287.378 88.0019ZM308.294 19.2H329.894V13.2H308.294V19.2ZM327.039 17.121L350.079 88.545L355.789 86.703L332.749 15.279L327.039 17.121ZM355.784 88.5606L379.256 17.1366L373.556 15.2634L350.084 86.6874L355.784 88.5606ZM376.406 19.2H398.726V13.2H376.406V19.2ZM32.832 165.208H35.832V162.208H32.832V165.208ZM0.576 165.208H-2.424V168.208H0.576V165.208ZM0.576 146.2V143.2H-2.424V146.2H0.576ZM88.416 146.2H91.416V143.2H88.416V146.2ZM88.416 165.208V168.208H91.416V165.208H88.416ZM56.16 165.208V162.208H53.16V165.208H56.16ZM56.16 247V250H59.16V247H56.16ZM32.832 247H29.832V250H32.832V247ZM32.832 162.208H0.576V168.208H32.832V162.208ZM3.576 165.208V146.2H-2.424V165.208H3.576ZM0.576 149.2H88.416V143.2H0.576V149.2ZM85.416 146.2V165.208H91.416V146.2H85.416ZM88.416 162.208H56.16V168.208H88.416V162.208ZM53.16 165.208V247H59.16V165.208H53.16ZM56.16 244H32.832V250H56.16V244ZM35.832 247V165.208H29.832V247H35.832ZM120.009 241.96L118.583 244.599L118.59 244.603L118.596 244.606L120.009 241.96ZM100.281 223.384L97.698 224.909L97.7089 224.928L97.72 224.946L100.281 223.384ZM100.281 169.96L97.7116 168.412L97.7061 168.421L100.281 169.96ZM120.009 151.24L118.596 148.594L118.59 148.597L118.583 148.601L120.009 151.24ZM196.329 169.96L193.76 171.508L193.764 171.515L193.768 171.522L196.329 169.96ZM196.329 223.384L198.891 224.946L198.895 224.939L198.899 224.932L196.329 223.384ZM176.601 241.96L178.027 244.599L176.601 241.96ZM164.505 224.824L165.971 227.442L165.991 227.43L166.011 227.419L164.505 224.824ZM175.737 213.304L173.13 211.821L173.118 211.841L173.108 211.86L175.737 213.304ZM175.737 179.896L173.108 181.34L173.118 181.359L173.13 181.379L175.737 179.896ZM164.505 168.52L163 171.115L163.02 171.126L163.04 171.138L164.505 168.52ZM132.249 168.52L133.715 171.138L133.735 171.126L133.755 171.115L132.249 168.52ZM120.873 179.896L118.266 178.413L118.254 178.433L118.244 178.452L120.873 179.896ZM120.873 213.304L118.244 214.748L118.254 214.767L118.266 214.787L120.873 213.304ZM132.249 224.824L130.744 227.419L130.764 227.43L130.784 227.442L132.249 224.824ZM148.377 245.728C138.36 245.728 129.396 243.572 121.423 239.314L118.596 244.606C127.518 249.372 137.467 251.728 148.377 251.728V245.728ZM121.435 239.321C113.536 235.053 107.358 229.227 102.843 221.822L97.72 224.946C102.805 233.285 109.779 239.843 118.583 244.599L121.435 239.321ZM102.865 221.859C98.4523 214.385 96.2254 205.99 96.2254 196.6H90.2254C90.2254 206.986 92.7025 216.447 97.698 224.909L102.865 221.859ZM96.2254 196.6C96.2254 187.21 98.4523 178.869 102.857 171.499L97.7061 168.421C92.7025 176.795 90.2254 186.214 90.2254 196.6H96.2254ZM102.851 171.508C107.368 164.009 113.545 158.142 121.435 153.879L118.583 148.601C109.77 153.362 102.794 159.975 97.7116 168.412L102.851 171.508ZM121.423 153.886C129.396 149.628 138.36 147.472 148.377 147.472V141.472C137.467 141.472 127.518 143.828 118.596 148.594L121.423 153.886ZM148.377 147.472C158.396 147.472 167.305 149.628 175.175 153.879L178.027 148.601C169.194 143.828 159.287 141.472 148.377 141.472V147.472ZM175.175 153.879C183.066 158.142 189.242 164.009 193.76 171.508L198.899 168.412C193.816 159.975 186.841 153.362 178.027 148.601L175.175 153.879ZM193.768 171.522C198.26 178.889 200.529 187.222 200.529 196.6H206.529C206.529 186.202 203.998 176.775 198.891 168.398L193.768 171.522ZM200.529 196.6C200.529 205.978 198.26 214.365 193.76 221.836L198.899 224.932C203.999 216.467 206.529 206.998 206.529 196.6H200.529ZM193.768 221.822C189.253 229.227 183.075 235.053 175.175 239.321L178.027 244.599C186.832 239.843 193.806 233.285 198.891 224.946L193.768 221.822ZM175.175 239.321C167.305 243.572 158.396 245.728 148.377 245.728V251.728C159.287 251.728 169.194 249.372 178.027 244.599L175.175 239.321ZM148.377 231.856C154.799 231.856 160.687 230.401 165.971 227.442L163.04 222.206C158.724 224.623 153.859 225.856 148.377 225.856V231.856ZM166.011 227.419C171.287 224.359 175.418 220.119 178.367 214.748L173.108 211.86C170.681 216.281 167.324 219.721 163 222.229L166.011 227.419ZM178.345 214.787C181.413 209.391 182.913 203.302 182.913 196.6H176.913C176.913 202.378 175.63 207.425 173.13 211.821L178.345 214.787ZM182.913 196.6C182.913 189.898 181.413 183.809 178.345 178.413L173.13 181.379C175.63 185.775 176.913 190.822 176.913 196.6H182.913ZM178.367 178.452C175.413 173.072 171.269 168.869 165.971 165.902L163.04 171.138C167.341 173.547 170.686 176.928 173.108 181.34L178.367 178.452ZM166.011 165.925C160.72 162.856 154.818 161.344 148.377 161.344V167.344C153.84 167.344 158.691 168.616 163 171.115L166.011 165.925ZM148.377 161.344C141.936 161.344 136.035 162.856 130.744 165.925L133.755 171.115C138.064 168.616 142.914 167.344 148.377 167.344V161.344ZM130.784 165.902C125.495 168.864 121.313 173.054 118.266 178.413L123.481 181.379C126.002 176.946 129.404 173.552 133.715 171.138L130.784 165.902ZM118.244 178.452C115.285 183.841 113.841 189.915 113.841 196.6H119.841C119.841 190.804 121.085 185.743 123.503 181.34L118.244 178.452ZM113.841 196.6C113.841 203.284 115.285 209.359 118.244 214.748L123.503 211.86C121.085 207.457 119.841 202.395 119.841 196.6H113.841ZM118.266 214.787C121.308 220.137 125.477 224.364 130.744 227.419L133.755 222.229C129.421 219.716 126.007 216.263 123.481 211.821L118.266 214.787ZM130.784 227.442C136.068 230.401 141.955 231.856 148.377 231.856V225.856C142.895 225.856 138.031 224.623 133.715 222.206L130.784 227.442ZM353.571 247L350.571 247.007L350.578 250H353.571V247ZM353.427 186.52L356.427 186.513L356.401 175.66L350.849 184.985L353.427 186.52ZM323.763 236.344V239.344H325.468L326.34 237.879L323.763 236.344ZM313.251 236.344L310.688 237.903L311.564 239.344H313.251V236.344ZM283.731 187.816L286.294 186.257L280.731 177.112V187.816H283.731ZM283.731 247V250H286.731V247H283.731ZM261.843 247H258.843V250H261.843V247ZM261.843 146.2V143.2H258.843V146.2H261.843ZM281.139 146.2L283.708 144.652L282.834 143.2H281.139V146.2ZM318.867 208.84L316.297 210.388L318.886 214.687L321.447 210.37L318.867 208.84ZM356.019 146.2V143.2H354.31L353.438 144.67L356.019 146.2ZM375.171 146.2L378.171 146.191L378.162 143.2H375.171V146.2ZM375.459 247V250H378.467L378.459 246.991L375.459 247ZM356.571 246.993L356.427 186.513L350.427 186.527L350.571 247.007L356.571 246.993ZM350.849 184.985L321.185 234.809L326.34 237.879L356.004 188.055L350.849 184.985ZM323.763 233.344H313.251V239.344H323.763V233.344ZM315.814 234.785L286.294 186.257L281.168 189.375L310.688 237.903L315.814 234.785ZM280.731 187.816V247H286.731V187.816H280.731ZM283.731 244H261.843V250H283.731V244ZM264.843 247V146.2H258.843V247H264.843ZM261.843 149.2H281.139V143.2H261.843V149.2ZM278.569 147.748L316.297 210.388L321.436 207.292L283.708 144.652L278.569 147.748ZM321.447 210.37L358.599 147.73L353.438 144.67L316.286 207.31L321.447 210.37ZM356.019 149.2H375.171V143.2H356.019V149.2ZM372.171 146.209L372.459 247.009L378.459 246.991L378.171 146.191L372.171 146.209ZM375.459 244H353.571V250H375.459V244ZM399.374 146.2V143.2H396.374V146.2H399.374ZM422.702 146.2H425.702V143.2H422.702V146.2ZM422.702 247V250H425.702V247H422.702ZM399.374 247H396.374V250H399.374V247ZM399.374 149.2H422.702V143.2H399.374V149.2ZM419.702 146.2V247H425.702V146.2H419.702ZM422.702 244H399.374V250H422.702V244ZM402.374 247V146.2H396.374V247H402.374ZM539.072 146.2H542.072V143.2H539.072V146.2ZM539.072 247V250H542.072V247H539.072ZM519.92 247L517.601 248.904L518.502 250H519.92V247ZM469.664 185.8L471.982 183.896L466.664 177.419V185.8H469.664ZM469.664 247V250H472.664V247H469.664ZM446.624 247H443.624V250H446.624V247ZM446.624 146.2V143.2H443.624V146.2H446.624ZM465.92 146.2L468.241 144.299L467.341 143.2H465.92V146.2ZM516.032 207.4L513.711 209.301L519.032 215.799V207.4H516.032ZM516.032 146.2V143.2H513.032V146.2H516.032ZM536.072 146.2V247H542.072V146.2H536.072ZM539.072 244H519.92V250H539.072V244ZM522.238 245.096L471.982 183.896L467.345 187.704L517.601 248.904L522.238 245.096ZM466.664 185.8V247H472.664V185.8H466.664ZM469.664 244H446.624V250H469.664V244ZM449.624 247V146.2H443.624V247H449.624ZM446.624 149.2H465.92V143.2H446.624V149.2ZM463.599 148.101L513.711 209.301L518.353 205.499L468.241 144.299L463.599 148.101ZM519.032 207.4V146.2H513.032V207.4H519.032ZM516.032 149.2H539.072V143.2H516.032V149.2ZM583.801 165.208H586.801V162.208H583.801V165.208ZM551.545 165.208H548.545V168.208H551.545V165.208ZM551.545 146.2V143.2H548.545V146.2H551.545ZM639.385 146.2H642.385V143.2H639.385V146.2ZM639.385 165.208V168.208H642.385V165.208H639.385ZM607.129 165.208V162.208H604.129V165.208H607.129ZM607.129 247V250H610.129V247H607.129ZM583.801 247H580.801V250H583.801V247ZM583.801 162.208H551.545V168.208H583.801V162.208ZM554.545 165.208V146.2H548.545V165.208H554.545ZM551.545 149.2H639.385V143.2H551.545V149.2ZM636.385 146.2V165.208H642.385V146.2H636.385ZM639.385 162.208H607.129V168.208H639.385V162.208ZM604.129 165.208V247H610.129V165.208H604.129ZM607.129 244H583.801V250H607.129V244ZM586.801 247V165.208H580.801V247H586.801Z" fill="url(#paint0_linear_526_4215)" fill-opacity="0.24"/>
<path d="M100.572 187.4V207H98.528V197.956H86.264V207H84.192V187.4H86.264V196.136H98.528V187.4H100.572ZM122.537 207.168C120.596 207.168 118.832 206.739 117.245 205.88C115.677 205.003 114.445 203.808 113.549 202.296C112.672 200.784 112.233 199.085 112.233 197.2C112.233 195.315 112.672 193.616 113.549 192.104C114.445 190.592 115.677 189.407 117.245 188.548C118.832 187.671 120.596 187.232 122.537 187.232C124.479 187.232 126.224 187.661 127.773 188.52C129.341 189.379 130.573 190.573 131.469 192.104C132.365 193.616 132.813 195.315 132.813 197.2C132.813 199.085 132.365 200.793 131.469 202.324C130.573 203.836 129.341 205.021 127.773 205.88C126.224 206.739 124.479 207.168 122.537 207.168ZM122.537 205.32C124.087 205.32 125.487 204.975 126.737 204.284C127.988 203.575 128.968 202.604 129.677 201.372C130.387 200.121 130.741 198.731 130.741 197.2C130.741 195.669 130.387 194.288 129.677 193.056C128.968 191.805 127.988 190.835 126.737 190.144C125.487 189.435 124.087 189.08 122.537 189.08C120.988 189.08 119.579 189.435 118.309 190.144C117.059 190.835 116.069 191.805 115.341 193.056C114.632 194.288 114.277 195.669 114.277 197.2C114.277 198.731 114.632 200.121 115.341 201.372C116.069 202.604 117.059 203.575 118.309 204.284C119.579 204.975 120.988 205.32 122.537 205.32ZM170.764 187.4L164.156 207H161.972L156.232 190.284L150.464 207H148.308L141.7 187.4H143.828L149.484 204.256L155.336 187.4H157.268L163.036 204.34L168.776 187.4H170.764ZM200.109 189.192H193.221V187.4H209.069V189.192H202.181V207H200.109V189.192ZM227.674 207.168C225.733 207.168 223.969 206.739 222.382 205.88C220.814 205.003 219.582 203.808 218.686 202.296C217.809 200.784 217.37 199.085 217.37 197.2C217.37 195.315 217.809 193.616 218.686 192.104C219.582 190.592 220.814 189.407 222.382 188.548C223.969 187.671 225.733 187.232 227.674 187.232C229.615 187.232 231.361 187.661 232.91 188.52C234.478 189.379 235.71 190.573 236.606 192.104C237.502 193.616 237.95 195.315 237.95 197.2C237.95 199.085 237.502 200.793 236.606 202.324C235.71 203.836 234.478 205.021 232.91 205.88C231.361 206.739 229.615 207.168 227.674 207.168ZM227.674 205.32C229.223 205.32 230.623 204.975 231.874 204.284C233.125 203.575 234.105 202.604 234.814 201.372C235.523 200.121 235.878 198.731 235.878 197.2C235.878 195.669 235.523 194.288 234.814 193.056C234.105 191.805 233.125 190.835 231.874 190.144C230.623 189.435 229.223 189.08 227.674 189.08C226.125 189.08 224.715 189.435 223.446 190.144C222.195 190.835 221.206 191.805 220.478 193.056C219.769 194.288 219.414 195.669 219.414 197.2C219.414 198.731 219.769 200.121 220.478 201.372C221.206 202.604 222.195 203.575 223.446 204.284C224.715 204.975 226.125 205.32 227.674 205.32ZM284.278 187.4V207H282.29V191.32L274.59 204.508H273.61L265.91 191.404V207H263.922V187.4H265.63L274.142 201.932L282.57 187.4H284.278ZM297.665 187.4H299.737V207H297.665V187.4ZM329.494 187.4V207H327.786L315.186 191.096V207H313.114V187.4H314.822L327.45 203.304V187.4H329.494ZM346.699 189.192H339.811V187.4H355.659V189.192H348.771V207H346.699V189.192Z" fill="white"/>
<defs>
<linearGradient id="paint0_linear_526_4215" x1="425" y1="-2.21037e-06" x2="436.251" y2="231.512" gradientUnits="userSpaceOnUse">
<stop stop-color="#ABFC4F"/>
<stop offset="1" stop-color="#3DBF69" stop-opacity="0.47"/>
</linearGradient>
</defs>
</svg>
