<svg width="279" height="157" viewBox="0 0 279 157" fill="none" xmlns="http://www.w3.org/2000/svg">
<path d="M3 -87.2645C3 -94.0727 6.64269 -100.36 12.5488 -103.747L130.049 -171.122C135.903 -174.479 143.097 -174.479 148.951 -171.122L266.451 -103.747C272.357 -100.36 276 -94.0727 276 -87.2645V48.2645C276 55.0727 272.357 61.3605 266.451 64.7471L148.951 132.122C143.097 135.479 135.903 135.479 130.049 132.122L12.5488 64.7471C6.64271 61.3605 3 55.0727 3 48.2645V-87.2645Z" stroke="#FF0074" stroke-width="6"/>
<path d="M30 -22.1653C30 -29.307 33.8081 -35.9067 39.9911 -39.4807L129.491 -91.2146C135.684 -94.794 143.316 -94.794 149.509 -91.2146L239.009 -39.4807C245.192 -35.9067 249 -29.307 249 -22.1653V82.1653C249 89.307 245.192 95.9067 239.009 99.4807L149.509 151.215C143.316 154.794 135.684 154.794 129.491 151.215L39.9912 99.4807C33.8081 95.9067 30 89.307 30 82.1653V-22.1653Z" fill="white"/>
<path d="M50.2288 71.0785H49V79.1242H50.2288V71.0785Z" fill="#7C8B9B"/>
<path d="M64.6914 77.1128L59.6815 71.0785H58.7362V79.1242H59.965V73.0899L64.8804 79.1242H65.9202V71.0785H64.6914V77.1128Z" fill="#7C8B9B"/>
<path d="M81.3279 72.1756C80.9498 71.8099 80.4772 71.5356 79.9101 71.3528C79.4374 71.0785 78.8703 70.9871 78.2086 70.9871C77.5469 70.9871 76.9797 71.0785 76.4126 71.2613C75.8454 71.4442 75.3728 71.7185 74.9947 72.1756C74.6166 72.5413 74.333 72.9985 74.0494 73.4556C73.7659 73.9128 73.6713 74.4614 73.6713 75.1014C73.6713 75.7414 73.7659 76.1985 74.0494 76.7471C74.2385 77.2042 74.6166 77.6614 74.9947 78.0271C75.3728 78.3928 75.8454 78.6671 76.4126 78.9414C76.9797 79.2156 77.5469 79.2156 78.2086 79.2156C78.8703 79.2156 79.4374 79.1242 80.0046 78.9414C80.5717 78.7585 81.0444 78.4842 81.4225 78.1185C81.8006 77.7528 82.1787 77.2956 82.3677 76.8385C82.5568 76.3814 82.6513 75.8328 82.6513 75.1928C82.6513 74.5528 82.5568 74.0042 82.3677 73.5471C82.0842 72.9985 81.8006 72.5413 81.3279 72.1756ZM81.2334 76.3814C81.0444 76.7471 80.8553 77.1128 80.5717 77.3871C80.2882 77.6614 79.9101 77.8442 79.5319 78.0271C79.1538 78.2099 78.6812 78.3014 78.2086 78.3014C77.736 78.3014 77.2633 78.2099 76.8852 78.0271C76.5071 77.8442 76.129 77.6614 75.8454 77.3871C75.5618 77.1128 75.2783 76.7471 75.1837 76.3814C74.9947 76.0156 74.9002 75.5585 74.9002 75.1928C74.9002 74.7356 74.9947 74.3699 75.1837 74.0042C75.3728 73.6385 75.5618 73.2728 75.8454 72.9985C76.129 72.7242 76.5071 72.5413 76.8852 72.3585C77.2633 72.1756 77.736 72.0842 78.2086 72.0842C78.6812 72.0842 79.0593 72.1756 79.5319 72.3585C79.9101 72.5413 80.2882 72.7242 80.5717 72.9985C80.8553 73.2728 81.0444 73.6385 81.2334 74.0042C81.4225 74.3699 81.517 74.8271 81.517 75.1928C81.4225 75.5585 81.3279 75.9242 81.2334 76.3814Z" fill="#7C8B9B"/>
<path d="M93.2382 77.6614L90.2134 71.0785H88.9846L92.6711 79.1242H93.8054L97.4919 71.0785H96.2631L93.2382 77.6614Z" fill="#7C8B9B"/>
<path d="M106.85 71.0785L103.069 79.1242H104.298L105.243 77.1128H109.686L110.631 79.1242H111.86L108.079 71.0785H106.85ZM105.621 76.1985L107.417 72.2671L109.213 76.1985H105.621Z" fill="#7C8B9B"/>
<path d="M116.681 72.0842H119.517V79.1242H120.745V72.0842H123.581V71.0785H116.681V72.0842Z" fill="#7C8B9B"/>
<path d="M132.939 71.0785H131.71V79.1242H132.939V71.0785Z" fill="#7C8B9B"/>
<path d="M148.347 72.1756C147.969 71.8099 147.496 71.5356 146.929 71.3528C146.362 71.1699 145.795 71.0785 145.133 71.0785C144.471 71.0785 143.904 71.1699 143.337 71.3528C142.77 71.5356 142.297 71.8099 141.919 72.2671C141.541 72.6328 141.258 73.0899 140.974 73.5471C140.69 74.0042 140.596 74.5528 140.596 75.1928C140.596 75.8328 140.69 76.2899 140.974 76.8385C141.163 77.2956 141.541 77.7528 141.919 78.1185C142.297 78.4842 142.77 78.7585 143.337 79.0328C143.904 79.3071 144.471 79.3071 145.133 79.3071C145.795 79.3071 146.362 79.2156 146.929 79.0328C147.496 78.8499 147.969 78.5756 148.347 78.2099C148.725 77.8442 149.103 77.3871 149.292 76.9299C149.481 76.4728 149.576 75.9242 149.576 75.2842C149.576 74.6442 149.481 74.0956 149.292 73.6385C149.103 72.9985 148.725 72.5414 148.347 72.1756ZM148.158 76.3814C147.969 76.7471 147.78 77.1128 147.496 77.3871C147.213 77.6614 146.835 77.8442 146.457 78.0271C146.078 78.2099 145.606 78.3014 145.133 78.3014C144.661 78.3014 144.188 78.2099 143.81 78.0271C143.432 77.8442 143.054 77.6614 142.77 77.3871C142.486 77.1128 142.203 76.7471 142.108 76.3814C141.919 76.0156 141.825 75.5585 141.825 75.1928C141.825 74.7356 141.919 74.3699 142.108 74.0042C142.297 73.6385 142.486 73.2728 142.77 72.9985C143.054 72.7242 143.432 72.5414 143.81 72.3585C144.188 72.1756 144.661 72.0842 145.133 72.0842C145.606 72.0842 145.984 72.1756 146.457 72.3585C146.835 72.5414 147.213 72.7242 147.496 72.9985C147.78 73.2728 147.969 73.6385 148.158 74.0042C148.347 74.3699 148.442 74.8271 148.442 75.1928C148.442 75.5585 148.347 75.9242 148.158 76.3814Z" fill="#7C8B9B"/>
<path d="M163.471 77.1128L158.461 71.0785H157.516V79.1242H158.65V73.0899L163.66 79.1242H164.606V71.0785H163.471V77.1128Z" fill="#7C8B9B"/>
<path d="M183.605 71.0785H182.471V79.1242H188.143V78.1185H183.605V71.0785Z" fill="#7C8B9B"/>
<path d="M198.068 71.0785L194.287 79.1242H195.516L196.461 77.1128H200.904L201.849 79.1242H203.078L199.297 71.0785H198.068ZM196.839 76.1985L198.635 72.2671L200.431 76.1985H196.839Z" fill="#7C8B9B"/>
<path d="M216.311 75.1014C216.217 75.0099 216.028 75.0099 215.933 75.0099C216.311 74.8271 216.5 74.6442 216.784 74.2785C216.973 74.0042 217.068 73.6385 217.068 73.1814C217.068 72.5414 216.784 71.9928 216.311 71.6271C215.839 71.2613 215.083 71.0785 214.137 71.0785H210.356V79.1242H214.326C215.366 79.1242 216.217 78.9414 216.689 78.5756C217.257 78.2099 217.54 77.6614 217.54 76.9299C217.54 76.4728 217.446 76.1071 217.257 75.7414C216.973 75.4671 216.689 75.2842 216.311 75.1014ZM213.948 71.9928C214.515 71.9928 214.988 72.0842 215.366 72.3585C215.744 72.5414 215.839 72.9071 215.839 73.3642C215.839 73.8214 215.65 74.0956 215.366 74.3699C214.988 74.5528 214.61 74.7356 213.948 74.7356H211.491V71.9928H213.948ZM215.744 77.8442C215.366 78.0271 214.893 78.2099 214.232 78.2099H211.491V75.5585H214.232C214.893 75.5585 215.366 75.6499 215.744 75.9242C216.122 76.1071 216.311 76.4728 216.311 76.9299C216.311 77.2956 216.122 77.6614 215.744 77.8442Z" fill="#7C8B9B"/>
<path d="M230.774 75.9242C230.585 75.6499 230.396 75.4671 230.018 75.2842C229.734 75.1014 229.356 75.0099 229.072 74.9185C228.694 74.8271 228.316 74.7356 228.033 74.6442C227.654 74.5528 227.371 74.4614 227.087 74.3699C226.804 74.2785 226.52 74.0956 226.331 74.0042C226.142 73.9128 226.048 73.6385 226.048 73.3642C226.048 73.0899 226.142 72.9071 226.237 72.7242C226.331 72.5414 226.615 72.3585 226.898 72.2671C227.182 72.1756 227.56 72.0842 228.033 72.0842C228.411 72.0842 228.789 72.1756 229.167 72.2671C229.545 72.3585 229.923 72.5414 230.301 72.7242L230.679 71.8099C230.301 71.5356 229.923 71.4442 229.45 71.2613C228.978 71.1699 228.505 71.0785 228.033 71.0785C227.276 71.0785 226.709 71.1699 226.237 71.3528C225.764 71.5356 225.386 71.8099 225.197 72.1756C225.008 72.5414 224.819 72.9071 224.819 73.3642C224.819 73.8214 224.913 74.1871 225.102 74.4614C225.291 74.7356 225.48 74.9185 225.858 75.1014C226.142 75.2842 226.52 75.3756 226.804 75.4671C227.182 75.5585 227.56 75.6499 227.844 75.7414C228.222 75.8328 228.505 75.9242 228.789 76.0156C229.072 76.1071 229.356 76.2899 229.545 76.3814C229.734 76.4728 229.829 76.7471 229.829 77.0214C229.829 77.2956 229.734 77.4785 229.64 77.6614C229.45 77.8442 229.261 78.0271 228.978 78.1185C228.694 78.2099 228.316 78.3014 227.844 78.3014C227.276 78.3014 226.804 78.2099 226.331 78.0271C225.858 77.8442 225.48 77.6614 225.102 77.3871L224.63 78.3014C225.008 78.5756 225.386 78.8499 225.953 79.0328C226.52 79.2156 227.182 79.3071 227.749 79.3071C228.505 79.3071 229.072 79.2156 229.545 79.0328C230.018 78.8499 230.396 78.5756 230.585 78.2099C230.774 77.8442 230.963 77.4785 230.963 77.1128C231.057 76.4728 230.963 76.1985 230.774 75.9242Z" fill="#7C8B9B"/>
<path d="M49 30.2317V58.0413C49 59.1268 49.8749 60.0314 50.9813 60.0314H54.944C56.0247 60.0314 56.9253 59.1526 56.9253 58.0413V30.2317C56.9253 29.1462 56.0505 28.2416 54.944 28.2416H50.9813C49.8749 28.2675 49 29.1462 49 30.2317Z" fill="#121E30"/>
<path d="M145.931 28.2675H169.681C170.762 28.2675 171.663 29.1462 171.663 30.2575C171.663 31.343 172.538 32.2476 173.644 32.2476C174.725 32.2476 175.625 33.1264 175.625 34.2377V58.093C175.625 59.1785 174.751 60.083 173.644 60.083H169.681C168.601 60.083 167.7 59.2043 167.7 58.093V38.1921C167.7 37.1066 166.825 36.202 165.719 36.202H153.857C152.776 36.202 151.875 37.0807 151.875 38.1921V58.0671C151.875 59.1526 151 60.0572 149.894 60.0572H145.931C144.85 60.0572 143.95 59.1785 143.95 58.0671V30.2317C143.95 29.1462 144.85 28.2675 145.931 28.2675Z" fill="#121E30"/>
<path d="M94.4936 28.2675H70.769C69.6882 28.2675 68.7876 29.1462 68.7876 30.2575C68.7876 31.343 67.9127 32.2476 66.8063 32.2476C65.7256 32.2476 64.825 33.1264 64.825 34.2377V54.1128C64.825 55.1983 65.6998 56.1029 66.8063 56.1029C67.887 56.1029 68.7876 56.9816 68.7876 58.093C68.7876 59.1785 69.6625 60.083 70.769 60.083H94.5193C95.6 60.083 96.5006 59.2043 96.5006 58.093V54.1128C96.5006 53.0273 95.6257 52.1227 94.5193 52.1227H74.7059C73.6252 52.1227 72.7246 51.2439 72.7246 50.1326V38.1921C72.7246 37.1066 73.5994 36.202 74.7059 36.202H94.4936C95.5743 36.202 96.4749 35.3232 96.4749 34.2119V30.2317C96.4749 29.1462 95.6 28.2675 94.4936 28.2675Z" fill="#121E30"/>
<path d="M183.525 30.2317V58.0413C183.525 59.1268 184.4 60.0314 185.506 60.0314H189.469C190.55 60.0314 191.45 59.1526 191.45 58.0413V30.2317C191.45 29.1462 190.576 28.2416 189.469 28.2416H185.506C184.4 28.2675 183.525 29.1462 183.525 30.2317Z" fill="#121E30"/>
<path d="M229.019 28.2675H205.268C204.188 28.2675 203.287 29.1462 203.287 30.2575C203.287 31.343 202.412 32.2476 201.306 32.2476C200.225 32.2476 199.324 33.1264 199.324 34.2377V54.1128C199.324 55.1983 200.199 56.1029 201.306 56.1029C202.386 56.1029 203.287 56.9816 203.287 58.093C203.287 59.1785 204.162 60.083 205.268 60.083H229.019C230.099 60.083 231 59.2043 231 58.093V54.1128C231 53.0273 230.125 52.1227 229.019 52.1227H209.231C208.15 52.1227 207.25 51.2439 207.25 50.1326V38.1921C207.25 37.1066 208.125 36.202 209.231 36.202H229.019C230.099 36.202 231 35.3232 231 34.2119V30.2317C231 29.1462 230.125 28.2675 229.019 28.2675Z" fill="#121E30"/>
<path d="M135.561 41.8363L138.109 40.3631C139.087 39.7945 139.704 38.7348 139.704 37.5977V34.6254C139.704 33.4882 139.087 32.4286 138.109 31.86L135.561 30.3868C134.583 29.8182 133.374 29.8182 132.396 30.3868L129.849 31.86C129.72 31.9375 129.566 32.0409 129.463 32.1443L125.989 30.1025C126.015 29.9474 126.041 29.7665 126.041 29.6114V26.6651C126.041 25.5279 125.423 24.4682 124.445 23.8996L121.898 22.4264C120.92 21.8579 119.711 21.8579 118.733 22.4264L116.185 23.8996C115.208 24.4682 114.59 25.5279 114.59 26.6651V29.6373C114.59 29.7924 114.616 29.9733 114.641 30.1284L111.013 32.1443C110.885 32.0409 110.756 31.9375 110.602 31.86L108.054 30.3868C107.076 29.8182 105.867 29.8182 104.889 30.3868L102.342 31.86C101.364 32.4286 100.746 33.4882 100.746 34.6254V37.5977C100.746 38.7348 101.364 39.7945 102.342 40.3631L104.889 41.8363C105.044 41.9138 105.172 41.9914 105.327 42.043V46.1266C105.172 46.1783 105.018 46.2558 104.889 46.3334L102.342 47.8066C101.364 48.3751 100.746 49.4348 100.746 50.572V53.5442C100.746 54.6814 101.364 55.7411 102.342 56.3097L104.889 57.7828C105.378 58.0671 105.918 58.1964 106.485 58.1964C107.051 58.1964 107.591 58.0671 108.08 57.7828L110.627 56.3097C110.756 56.2321 110.885 56.1287 111.013 56.0512L114.59 58.2222C114.564 58.3773 114.539 58.5582 114.539 58.7133V61.6855C114.539 62.8227 115.156 63.8823 116.134 64.4509L118.681 65.9241C119.17 66.2084 119.711 66.3376 120.277 66.3376C120.817 66.3376 121.383 66.2084 121.872 65.9241L124.419 64.4509C125.397 63.8823 126.015 62.8227 126.015 61.6855V58.6874C126.015 58.5065 125.989 58.3514 125.963 58.1705L129.437 55.9995C129.566 56.1029 129.694 56.1804 129.823 56.258L132.371 57.7312C132.859 58.0155 133.4 58.1447 133.966 58.1447C134.506 58.1447 135.072 58.0155 135.561 57.7312L138.109 56.258C139.087 55.6894 139.704 54.6297 139.704 53.4925V50.5203C139.704 49.3831 139.087 48.3235 138.109 47.7549L135.561 46.2817C135.407 46.2041 135.278 46.1266 135.124 46.0749V42.043C135.253 41.9655 135.407 41.9138 135.561 41.8363ZM132.834 46.1266C132.679 46.1783 132.525 46.2558 132.396 46.3334L129.849 47.8066C128.871 48.3751 128.254 49.4348 128.254 50.572V53.5442C128.254 53.7251 128.279 53.8802 128.305 54.0611L124.831 56.2321C124.703 56.1287 124.574 56.0512 124.445 55.9737L121.898 54.5005C121.743 54.423 121.615 54.3454 121.46 54.2937V50.0551C121.615 50.0034 121.769 49.9259 121.898 49.8483L124.445 48.3751C125.423 47.8065 126.041 46.7469 126.041 45.6097V42.5858C126.041 42.4307 126.015 42.2498 125.989 42.0947L129.463 40.053C129.592 40.1563 129.72 40.2597 129.849 40.3373L132.396 41.8104C132.551 41.888 132.679 41.9655 132.834 42.0172V46.1266ZM115.748 56.2063L112.171 54.0353C112.197 53.8802 112.223 53.6993 112.223 53.5442V50.572C112.223 49.4348 111.605 48.3751 110.627 47.8066L108.08 46.3334C107.925 46.2558 107.797 46.1783 107.642 46.1266V42.043C107.797 41.9914 107.951 41.9138 108.08 41.8363L110.627 40.3631C110.782 40.2856 110.91 40.1822 111.039 40.0788L114.616 42.1206C114.59 42.2757 114.564 42.4307 114.564 42.6116V45.5839C114.564 46.721 115.182 47.7807 116.16 48.3493L118.707 49.8225C118.861 49.9 118.99 49.9776 119.145 50.0292V54.2679C118.99 54.3196 118.836 54.3971 118.707 54.4746L116.16 55.9478C115.98 56.0254 115.851 56.1029 115.748 56.2063ZM115.722 32.0926C115.851 32.196 115.98 32.2994 116.134 32.3769L118.681 33.8501C119.17 34.1344 119.711 34.2636 120.277 34.2636C120.817 34.2636 121.383 34.1344 121.872 33.8501L124.419 32.3769C124.548 32.2994 124.703 32.196 124.805 32.0926L128.279 34.1344C128.254 34.2894 128.228 34.4704 128.228 34.6254V37.5977C128.228 37.7527 128.254 37.9336 128.279 38.0887L124.805 40.1305C124.677 40.0271 124.548 39.9237 124.419 39.8462L121.872 38.373C120.894 37.8044 119.685 37.8044 118.707 38.373L116.16 39.8462C116.005 39.9237 115.877 40.0271 115.748 40.1305L112.171 38.0887C112.197 37.9336 112.223 37.7786 112.223 37.5977V34.6254C112.223 34.4704 112.197 34.2894 112.171 34.1344L115.722 32.0926ZM120.714 47.8066C120.431 47.9616 120.097 47.9616 119.839 47.8066L117.292 46.3334C117.009 46.1783 116.854 45.894 116.854 45.558V42.5858C116.854 42.2757 117.035 41.9655 117.292 41.8104L119.839 40.3373C119.968 40.2597 120.122 40.208 120.277 40.208C120.431 40.208 120.585 40.2597 120.714 40.3373L123.262 41.8104C123.545 41.9655 123.699 42.2498 123.699 42.5858V45.558C123.699 45.8682 123.519 46.1783 123.262 46.3334L120.714 47.8066ZM130.518 34.6254C130.518 34.3153 130.698 34.0052 130.955 33.8501L133.503 32.3769C133.631 32.2994 133.786 32.2477 133.94 32.2477C134.095 32.2477 134.249 32.2994 134.378 32.3769L136.925 33.8501C137.208 34.0052 137.363 34.2894 137.363 34.6254V37.5977C137.363 37.9078 137.182 38.2179 136.925 38.373L134.378 39.8462C134.095 40.0013 133.76 40.0013 133.503 39.8462L130.955 38.373C130.672 38.2179 130.518 37.9336 130.518 37.5977V34.6254ZM116.829 26.6651C116.829 26.3549 117.009 26.0448 117.266 25.8897L119.814 24.4165C119.942 24.339 120.097 24.2873 120.251 24.2873C120.405 24.2873 120.56 24.339 120.688 24.4165L123.236 25.8897C123.519 26.0448 123.673 26.3291 123.673 26.6651V29.6373C123.673 29.9474 123.493 30.2576 123.236 30.4127L120.688 31.8858C120.405 32.0409 120.071 32.0409 119.814 31.8858L117.266 30.4127C116.983 30.2576 116.829 29.9733 116.829 29.6373V26.6651ZM103.474 38.3472C103.191 38.1921 103.036 37.9078 103.036 37.5718V34.6254C103.036 34.3153 103.217 34.0052 103.474 33.8501L106.021 32.3769C106.15 32.2994 106.304 32.2477 106.459 32.2477C106.613 32.2477 106.768 32.2994 106.896 32.3769L109.444 33.8501C109.727 34.0052 109.881 34.2894 109.881 34.6254V37.5977C109.881 37.9078 109.701 38.2179 109.444 38.373L106.896 39.8462C106.613 40.0013 106.279 40.0013 106.021 39.8462L103.474 38.3472ZM109.907 53.5442C109.907 53.8544 109.727 54.1645 109.469 54.3196L106.922 55.7928C106.639 55.9478 106.304 55.9478 106.047 55.7928L103.5 54.3196C103.217 54.1645 103.062 53.8802 103.062 53.5442V50.572C103.062 50.2619 103.242 49.9517 103.5 49.7966L106.047 48.3235C106.176 48.2459 106.33 48.1942 106.485 48.1942C106.639 48.1942 106.793 48.2459 106.922 48.3235L109.469 49.7966C109.752 49.9517 109.907 50.236 109.907 50.572V53.5442ZM123.699 61.6596C123.699 61.9698 123.519 62.2799 123.262 62.435L120.714 63.9082C120.431 64.0633 120.097 64.0633 119.839 63.9082L117.292 62.435C117.009 62.2799 116.854 61.9956 116.854 61.6596V58.6874C116.854 58.3773 117.035 58.0671 117.292 57.9121L119.839 56.4389C119.968 56.3614 120.122 56.3097 120.277 56.3097C120.431 56.3097 120.585 56.3614 120.714 56.4389L123.262 57.9121C123.545 58.0671 123.699 58.3514 123.699 58.6874V61.6596ZM136.951 49.7966C137.234 49.9517 137.388 50.236 137.388 50.572V53.5442C137.388 53.8544 137.208 54.1645 136.951 54.3196L134.403 55.7928C134.12 55.9478 133.786 55.9478 133.528 55.7928L130.981 54.3196C130.698 54.1645 130.544 53.8802 130.544 53.5442V50.572C130.544 50.2619 130.724 49.9517 130.981 49.7966L133.528 48.3235C133.657 48.2459 133.812 48.1942 133.966 48.1942C134.12 48.1942 134.275 48.2459 134.403 48.3235L136.951 49.7966Z" fill="#FF0074"/>
</svg>
