<svg width="149" height="18" viewBox="0 0 149 18" fill="none" xmlns="http://www.w3.org/2000/svg">
<path d="M107.959 5.34953C108.191 4.88068 108.253 4.56577 108.178 3.71904C108.135 3.11256 107.659 2.2425 106.105 2.21451C104.55 2.18652 104.061 3.08923 104.011 3.71904C104.004 4.41182 104.018 4.86668 104.222 5.27955C104.652 6.15428 104.625 6.57415 104.107 7.057C103.95 7.20395 103.732 7.44887 103.616 7.60982C103.418 7.89673 103.411 7.91773 103.411 8.75747C103.309 9.87712 103.547 9.73716 102.763 10.6469C101.904 11.3816 100.806 11.3886 100.479 11.4166C100.07 11.4516 99.7967 11.9415 100.649 11.9765C101.371 12.0061 102.199 11.7805 102.531 11.5846C103.363 11.1857 103.861 10.4439 103.936 9.49923C103.977 8.9744 104.072 8.79246 104.304 8.79246C104.468 8.79246 104.707 9.03038 104.707 9.19133C104.7 9.95409 104.304 10.9828 103.786 11.5776C103.152 12.2984 102.422 12.6413 101.372 12.7042C100.799 12.7392 100.649 12.7672 100.588 12.8652C100.533 12.9562 100.533 13.0261 100.588 13.1101C100.656 13.2221 100.772 13.2361 101.406 13.2291C102.027 13.2221 102.224 13.1871 102.613 13.0401C103.834 12.5573 104.754 11.5216 105.082 10.262C105.116 10.0567 105.282 9.70917 105.559 9.70917C105.866 9.70917 105.866 9.99141 105.866 10.101C105.766 10.6889 105.344 12.0436 104.454 12.7602C103.936 13.2781 103.152 13.7049 102.402 13.8869C101.829 14.0198 101.672 14.1738 101.883 14.3977C102.006 14.5167 102.047 14.5167 102.456 14.4327C103.984 14.0968 105.102 13.2081 105.866 11.7175L105.985 11.4862C106.038 11.3848 106.18 11.3875 106.229 11.4908L106.302 11.6476C106.998 13.1031 108.225 14.1038 109.719 14.4187C110.169 14.5167 110.339 14.4957 110.394 14.3417C110.476 14.1318 110.312 14.0058 109.814 13.8869C108.082 13.2571 106.752 12.0115 106.446 10.101C106.446 10.101 106.384 9.9401 106.514 9.80714C106.609 9.70917 106.808 9.61276 106.991 9.91211C107.243 10.325 107.298 11.1717 108.178 12.0814C108.901 12.9212 109.91 13.299 110.987 13.2571C111.431 13.2431 111.56 13.2081 111.621 13.1101C111.676 13.0261 111.676 12.9562 111.621 12.8652C111.56 12.7672 111.41 12.7392 110.837 12.7042C110.06 12.6622 109.644 12.5293 109.071 12.1514C108.307 11.6476 107.707 10.6679 107.564 9.70917C107.475 9.11436 107.537 8.89042 107.803 8.82045C108.13 8.73647 108.225 8.87643 108.273 9.46425C108.341 10.4369 108.839 11.3677 109.685 11.7735C110.23 12.0324 110.994 12.0324 111.54 11.7735C111.925 11.6406 111.867 11.0667 111.321 11.2767C110.885 11.4446 110.549 11.44 110.435 11.4166C109.719 11.3537 109.098 10.6469 108.901 9.95409C108.832 9.73016 108.798 9.3033 108.798 8.77846C108.798 7.80576 108.771 7.72179 108.219 7.18296C108 6.97302 107.789 6.70011 107.741 6.58814C107.625 6.31523 107.707 5.84637 107.959 5.34953Z" fill="black"/>
<path d="M107.959 5.34953C108.191 4.88068 108.253 4.56577 108.178 3.71904C108.135 3.11256 107.659 2.2425 106.105 2.21451C104.55 2.18652 104.061 3.08923 104.011 3.71904C104.004 4.41182 104.018 4.86668 104.222 5.27955C104.652 6.15428 104.625 6.57415 104.107 7.057C103.95 7.20395 103.732 7.44887 103.616 7.60982C103.418 7.89673 103.411 7.91773 103.411 8.75747C103.309 9.87712 103.547 9.73716 102.763 10.6469C101.904 11.3816 100.806 11.3886 100.479 11.4166C100.07 11.4516 99.7967 11.9415 100.649 11.9765C101.371 12.0061 102.199 11.7805 102.531 11.5846C103.363 11.1857 103.861 10.4439 103.936 9.49923C103.977 8.9744 104.072 8.79246 104.304 8.79246C104.468 8.79246 104.707 9.03038 104.707 9.19133C104.7 9.95409 104.304 10.9828 103.786 11.5776C103.152 12.2984 102.422 12.6413 101.372 12.7042C100.799 12.7392 100.649 12.7672 100.588 12.8652C100.533 12.9562 100.533 13.0261 100.588 13.1101C100.656 13.2221 100.772 13.2361 101.406 13.2291C102.027 13.2221 102.224 13.1871 102.613 13.0401C103.834 12.5573 104.754 11.5216 105.082 10.262C105.116 10.0567 105.282 9.70917 105.559 9.70917C105.866 9.70917 105.866 9.99141 105.866 10.101C105.766 10.6889 105.344 12.0436 104.454 12.7602C103.936 13.2781 103.152 13.7049 102.402 13.8869C101.829 14.0198 101.672 14.1738 101.883 14.3977C102.006 14.5167 102.047 14.5167 102.456 14.4327C103.984 14.0968 105.102 13.2081 105.866 11.7175L105.985 11.4862C106.038 11.3848 106.18 11.3875 106.229 11.4908L106.302 11.6476C106.998 13.1031 108.225 14.1038 109.719 14.4187C110.169 14.5167 110.339 14.4957 110.394 14.3417C110.476 14.1318 110.312 14.0058 109.814 13.8869C108.082 13.2571 106.752 12.0115 106.446 10.101C106.446 10.101 106.384 9.9401 106.514 9.80714C106.609 9.70917 106.808 9.61276 106.991 9.91211C107.243 10.325 107.298 11.1717 108.178 12.0814C108.901 12.9212 109.91 13.299 110.987 13.2571C111.431 13.2431 111.56 13.2081 111.621 13.1101C111.676 13.0261 111.676 12.9562 111.621 12.8652C111.56 12.7672 111.41 12.7392 110.837 12.7042C110.06 12.6622 109.644 12.5293 109.071 12.1514C108.307 11.6476 107.707 10.6679 107.564 9.70917C107.475 9.11436 107.537 8.89042 107.803 8.82045C108.13 8.73647 108.225 8.87643 108.273 9.46425C108.341 10.4369 108.839 11.3677 109.685 11.7735C110.23 12.0324 110.994 12.0324 111.54 11.7735C111.925 11.6406 111.867 11.0667 111.321 11.2767C110.885 11.4446 110.549 11.44 110.435 11.4166C109.719 11.3537 109.098 10.6469 108.901 9.95409C108.832 9.73016 108.798 9.3033 108.798 8.77846C108.798 7.80576 108.771 7.72179 108.219 7.18296C108 6.97302 107.789 6.70011 107.741 6.58814C107.625 6.31523 107.707 5.84637 107.959 5.34953Z" fill="url(#paint0_linear_161_96)"/>
<path fill-rule="evenodd" clip-rule="evenodd" d="M105.963 16.77C110.295 16.77 113.806 13.167 113.806 8.72246C113.806 4.27796 110.295 0.674973 105.963 0.674973C101.632 0.674973 98.1211 4.27796 98.1211 8.72246C98.1211 13.167 101.632 16.77 105.963 16.77ZM105.963 17.3298C110.596 17.3298 114.351 13.4762 114.351 8.72246C114.351 3.96877 110.596 0.115148 105.963 0.115148C101.331 0.115148 97.5756 3.96877 97.5756 8.72246C97.5756 13.4762 101.331 17.3298 105.963 17.3298Z" fill="black"/>
<path fill-rule="evenodd" clip-rule="evenodd" d="M105.963 16.77C110.295 16.77 113.806 13.167 113.806 8.72246C113.806 4.27796 110.295 0.674973 105.963 0.674973C101.632 0.674973 98.1211 4.27796 98.1211 8.72246C98.1211 13.167 101.632 16.77 105.963 16.77ZM105.963 17.3298C110.596 17.3298 114.351 13.4762 114.351 8.72246C114.351 3.96877 110.596 0.115148 105.963 0.115148C101.331 0.115148 97.5756 3.96877 97.5756 8.72246C97.5756 13.4762 101.331 17.3298 105.963 17.3298Z" fill="url(#paint1_linear_161_96)"/>
<path fill-rule="evenodd" clip-rule="evenodd" d="M104.011 3.71904C104.061 3.08923 104.55 2.18652 106.105 2.21451C107.659 2.2425 108.135 3.11256 108.178 3.71904C108.253 4.56577 108.191 4.88068 107.959 5.34953C107.707 5.84637 107.625 6.31523 107.741 6.58814C107.789 6.70011 108 6.97302 108.219 7.18296C108.771 7.72179 108.798 7.80576 108.798 8.77846C108.798 9.3033 108.832 9.73016 108.901 9.95409C109.098 10.6469 109.719 11.3537 110.435 11.4166C110.549 11.44 110.885 11.4446 111.321 11.2767C111.867 11.0667 111.925 11.6406 111.54 11.7735C110.994 12.0324 110.23 12.0324 109.685 11.7735C108.839 11.3677 108.341 10.4369 108.273 9.46425C108.225 8.87643 108.13 8.73647 107.803 8.82045C107.537 8.89042 107.475 9.11436 107.564 9.70917C107.707 10.6679 108.307 11.6476 109.071 12.1514C109.644 12.5293 110.06 12.6622 110.837 12.7042C111.41 12.7392 111.56 12.7672 111.621 12.8652C111.676 12.9562 111.676 13.0261 111.621 13.1101C111.56 13.2081 111.431 13.2431 110.987 13.2571C109.91 13.299 108.901 12.9212 108.178 12.0814C107.566 11.4483 107.353 10.8457 107.195 10.3986C107.126 10.2033 107.068 10.0376 106.991 9.91211C106.808 9.61276 106.609 9.70917 106.514 9.80714C106.384 9.9401 106.446 10.101 106.446 10.101C106.752 12.0115 108.082 13.2571 109.814 13.8869C110.312 14.0058 110.476 14.1318 110.394 14.3417C110.339 14.4957 110.169 14.5167 109.719 14.4187C108.225 14.1038 106.998 13.1031 106.302 11.6476L106.229 11.4908C106.18 11.3875 106.038 11.3848 105.985 11.4862L105.866 11.7175C105.102 13.2081 103.984 14.0968 102.456 14.4327C102.047 14.5167 102.006 14.5167 101.883 14.3977C101.672 14.1738 101.829 14.0198 102.402 13.8869C103.152 13.7049 103.936 13.2781 104.454 12.7602C105.344 12.0436 105.766 10.6889 105.866 10.101C105.866 9.99141 105.866 9.70917 105.559 9.70917C105.282 9.70917 105.116 10.0567 105.082 10.262C104.754 11.5216 103.834 12.5573 102.613 13.0401C102.224 13.1871 102.027 13.2221 101.406 13.2291C100.772 13.2361 100.656 13.2221 100.588 13.1101C100.533 13.0261 100.533 12.9562 100.588 12.8652C100.649 12.7672 100.799 12.7392 101.372 12.7042C102.422 12.6413 103.152 12.2984 103.786 11.5776C104.304 10.9828 104.7 9.95409 104.707 9.19133C104.707 9.03038 104.468 8.79246 104.304 8.79246C104.072 8.79246 103.977 8.9744 103.936 9.49923C103.861 10.4439 103.363 11.1857 102.531 11.5846C102.199 11.7805 101.371 12.0061 100.649 11.9765C99.7967 11.9415 100.07 11.4516 100.479 11.4166C100.508 11.4142 100.542 11.4119 100.583 11.4092C100.998 11.3817 101.98 11.3168 102.763 10.6469C103.362 9.95197 103.364 9.86955 103.378 9.37032C103.382 9.21599 103.387 9.02185 103.411 8.75747C103.411 7.91773 103.418 7.89673 103.616 7.60982C103.732 7.44887 103.95 7.20395 104.107 7.057C104.625 6.57415 104.652 6.15428 104.222 5.27955C104.018 4.86668 104.004 4.41182 104.011 3.71904ZM104.122 5.33152C103.904 4.88974 103.892 4.40643 103.899 3.71787L103.899 3.71377L103.899 3.70969C103.926 3.37038 104.071 2.95838 104.418 2.63487C104.766 2.31014 105.307 2.08498 106.107 2.09938C106.904 2.11374 107.44 2.34482 107.783 2.6646C108.126 2.98337 108.266 3.38089 108.29 3.70957C108.327 4.13521 108.332 4.43616 108.295 4.69279C108.257 4.95241 108.179 5.16061 108.06 5.40164L108.059 5.40219L108.059 5.40274C107.937 5.64311 107.858 5.87349 107.823 6.07324C107.787 6.27513 107.799 6.43472 107.844 6.54199C107.861 6.58218 107.917 6.66774 108.003 6.77609C108.086 6.88107 108.19 6.99793 108.295 7.09895L108.296 7.0995C108.569 7.36601 108.734 7.53908 108.821 7.77797C108.905 8.01142 108.91 8.29902 108.91 8.77846C108.91 9.30374 108.945 9.71446 109.008 9.91975L109.008 9.92073L109.008 9.92172C109.102 10.2485 109.296 10.5815 109.552 10.8393C109.808 11.0974 110.119 11.2733 110.444 11.3019L110.451 11.3025L110.457 11.3037C110.546 11.322 110.861 11.3308 111.282 11.1689C111.433 11.1107 111.567 11.1003 111.676 11.1379C111.788 11.1768 111.861 11.2634 111.888 11.367C111.94 11.5666 111.818 11.796 111.581 11.8806C111.006 12.1511 110.211 12.1503 109.638 11.878L109.637 11.8778C108.746 11.4502 108.232 10.4763 108.161 9.47316C108.15 9.32843 108.135 9.21584 108.116 9.12921C108.097 9.04131 108.075 8.9893 108.053 8.95898C108.034 8.93304 108.015 8.92134 107.987 8.91621C107.955 8.91006 107.906 8.91275 107.83 8.93208C107.777 8.94618 107.742 8.96581 107.717 8.98924C107.693 9.01227 107.673 9.04553 107.658 9.09871C107.628 9.21193 107.631 9.39484 107.675 9.69172C107.814 10.6199 108.397 11.5697 109.132 12.0545C109.412 12.2397 109.65 12.3619 109.91 12.4437C110.171 12.5256 110.459 12.5685 110.843 12.5892L110.844 12.5893C111.129 12.6067 111.317 12.6227 111.443 12.6481C111.569 12.6735 111.66 12.7136 111.716 12.8029L111.716 12.8039L111.717 12.8048C111.751 12.861 111.775 12.9222 111.775 12.9903C111.775 13.0588 111.75 13.1191 111.715 13.1732C111.663 13.2555 111.585 13.3006 111.473 13.3272C111.366 13.3528 111.212 13.3652 110.991 13.3721C109.886 13.4151 108.844 13.0273 108.096 12.1602C107.645 11.6933 107.405 11.2416 107.246 10.8552C107.184 10.7045 107.134 10.5626 107.089 10.4364C107.077 10.4021 107.065 10.3689 107.054 10.3371C106.999 10.1849 106.952 10.0651 106.896 9.97328C106.817 9.84429 106.752 9.8262 106.718 9.82577C106.676 9.82523 106.63 9.85095 106.593 9.88856C106.553 9.92959 106.544 9.97212 106.543 10.0057C106.543 10.0233 106.545 10.0384 106.548 10.0488C106.549 10.0539 106.55 10.0575 106.55 10.0594C106.55 10.0598 106.551 10.0601 106.551 10.0604L106.554 10.0704L106.556 10.0823C106.854 11.9381 108.144 13.1555 109.846 13.7762C110.092 13.8353 110.277 13.9003 110.39 13.9886C110.449 14.0353 110.496 14.0939 110.516 14.1682C110.536 14.2418 110.525 14.315 110.499 14.3828C110.479 14.4392 110.445 14.4894 110.393 14.5267C110.342 14.5633 110.282 14.5816 110.217 14.5891C110.092 14.6036 109.921 14.5804 109.696 14.5314C108.167 14.2089 106.912 13.184 106.202 11.6983L106.201 11.6976L106.128 11.5409C106.119 11.5226 106.094 11.5221 106.084 11.5401L105.965 11.7711L105.965 11.7713C105.187 13.2903 104.042 14.2019 102.48 14.5453L102.479 14.5455L102.478 14.5456C102.28 14.5863 102.151 14.6117 102.056 14.6063C102.003 14.6033 101.957 14.5908 101.913 14.5662C101.872 14.5432 101.838 14.5121 101.806 14.4814L101.805 14.4797L101.803 14.4778C101.743 14.4147 101.694 14.341 101.683 14.2569C101.672 14.1643 101.71 14.0855 101.771 14.0251C101.829 13.9681 101.911 13.9227 102.009 13.8839C102.108 13.8445 102.231 13.8086 102.376 13.7747C103.108 13.597 103.874 13.1796 104.376 12.6777L104.38 12.6734L104.385 12.6697C104.811 12.3267 105.129 11.8264 105.355 11.3335C105.577 10.8468 105.704 10.3762 105.754 10.0911C105.753 10.0352 105.751 9.9673 105.726 9.91273C105.714 9.88649 105.698 9.8664 105.676 9.85214C105.654 9.83784 105.619 9.82432 105.559 9.82432C105.471 9.82432 105.389 9.87925 105.32 9.9767C105.25 10.0736 105.207 10.1948 105.192 10.2813L105.191 10.2866L105.19 10.2917C104.853 11.5881 103.906 12.6519 102.653 13.1476L102.653 13.1479L102.652 13.1482C102.454 13.223 102.3 13.2712 102.114 13.3009C101.93 13.3302 101.718 13.3407 101.407 13.3442C101.093 13.3477 100.896 13.3463 100.769 13.3283C100.705 13.3191 100.649 13.3045 100.602 13.2781C100.552 13.2502 100.519 13.2134 100.494 13.1726C100.459 13.1186 100.435 13.0586 100.435 12.9903C100.435 12.9222 100.459 12.861 100.492 12.8048L100.493 12.8039L100.493 12.8029C100.549 12.7136 100.641 12.6735 100.766 12.6481C100.892 12.6227 101.08 12.6067 101.365 12.5893L101.365 12.5893C102.389 12.5279 103.09 12.1964 103.703 11.5006C103.951 11.2157 104.173 10.8225 104.334 10.4051C104.495 9.98763 104.591 9.55431 104.594 9.19096C104.594 9.17797 104.589 9.15312 104.569 9.11808C104.55 9.08409 104.523 9.04774 104.489 9.01427C104.455 8.98082 104.418 8.95283 104.383 8.93377C104.347 8.91407 104.32 8.9076 104.304 8.9076C104.261 8.9076 104.232 8.91606 104.211 8.92855C104.191 8.94088 104.169 8.96234 104.148 9.00338C104.102 9.09142 104.068 9.24657 104.048 9.50842L104.048 9.50859C103.97 10.4923 103.449 11.2698 102.583 11.6869C102.403 11.7924 102.102 11.8998 101.761 11.9775C101.415 12.0563 101.017 12.1068 100.645 12.0915C100.424 12.0825 100.26 12.0438 100.15 11.9792C100.035 11.9121 99.9672 11.8082 99.9792 11.6851C99.99 11.574 100.063 11.4822 100.147 11.4204C100.234 11.3566 100.347 11.3123 100.469 11.3019C100.499 11.2993 100.535 11.2969 100.576 11.2942C100.992 11.2662 101.933 11.203 102.685 10.564C103.076 10.1094 103.19 9.93897 103.234 9.75402C103.256 9.65838 103.26 9.55473 103.265 9.39394C103.265 9.38509 103.265 9.3761 103.265 9.36695C103.27 9.21336 103.275 9.0176 103.299 8.7521C103.299 8.3411 103.3 8.11382 103.329 7.95532C103.36 7.78228 103.425 7.68735 103.524 7.54333L103.525 7.54235L103.525 7.54138C103.646 7.37372 103.869 7.12332 104.031 6.97196L104.031 6.97174C104.279 6.74087 104.393 6.54088 104.408 6.30754C104.424 6.06559 104.336 5.76565 104.122 5.33152ZM105.963 16.6548C110.233 16.6548 113.693 13.1034 113.693 8.72246C113.693 4.34155 110.233 0.790121 105.963 0.790121C101.694 0.790121 98.2333 4.34155 98.2333 8.72246C98.2333 13.1034 101.694 16.6548 105.963 16.6548ZM114.463 8.72246C114.463 13.5397 110.658 17.4449 105.963 17.4449C101.269 17.4449 97.4634 13.5397 97.4634 8.72246C97.4634 3.90518 101.269 0 105.963 0C110.658 0 114.463 3.90518 114.463 8.72246ZM113.806 8.72246C113.806 13.167 110.295 16.77 105.963 16.77C101.632 16.77 98.1211 13.167 98.1211 8.72246C98.1211 4.27796 101.632 0.674973 105.963 0.674973C110.295 0.674973 113.806 4.27796 113.806 8.72246ZM114.351 8.72246C114.351 13.4762 110.596 17.3298 105.963 17.3298C101.331 17.3298 97.5756 13.4762 97.5756 8.72246C97.5756 3.96877 101.331 0.115148 105.963 0.115148C110.596 0.115148 114.351 3.96877 114.351 8.72246Z" fill="black"/>
<path fill-rule="evenodd" clip-rule="evenodd" d="M104.011 3.71904C104.061 3.08923 104.55 2.18652 106.105 2.21451C107.659 2.2425 108.135 3.11256 108.178 3.71904C108.253 4.56577 108.191 4.88068 107.959 5.34953C107.707 5.84637 107.625 6.31523 107.741 6.58814C107.789 6.70011 108 6.97302 108.219 7.18296C108.771 7.72179 108.798 7.80576 108.798 8.77846C108.798 9.3033 108.832 9.73016 108.901 9.95409C109.098 10.6469 109.719 11.3537 110.435 11.4166C110.549 11.44 110.885 11.4446 111.321 11.2767C111.867 11.0667 111.925 11.6406 111.54 11.7735C110.994 12.0324 110.23 12.0324 109.685 11.7735C108.839 11.3677 108.341 10.4369 108.273 9.46425C108.225 8.87643 108.13 8.73647 107.803 8.82045C107.537 8.89042 107.475 9.11436 107.564 9.70917C107.707 10.6679 108.307 11.6476 109.071 12.1514C109.644 12.5293 110.06 12.6622 110.837 12.7042C111.41 12.7392 111.56 12.7672 111.621 12.8652C111.676 12.9562 111.676 13.0261 111.621 13.1101C111.56 13.2081 111.431 13.2431 110.987 13.2571C109.91 13.299 108.901 12.9212 108.178 12.0814C107.566 11.4483 107.353 10.8457 107.195 10.3986C107.126 10.2033 107.068 10.0376 106.991 9.91211C106.808 9.61276 106.609 9.70917 106.514 9.80714C106.384 9.9401 106.446 10.101 106.446 10.101C106.752 12.0115 108.082 13.2571 109.814 13.8869C110.312 14.0058 110.476 14.1318 110.394 14.3417C110.339 14.4957 110.169 14.5167 109.719 14.4187C108.225 14.1038 106.998 13.1031 106.302 11.6476L106.229 11.4908C106.18 11.3875 106.038 11.3848 105.985 11.4862L105.866 11.7175C105.102 13.2081 103.984 14.0968 102.456 14.4327C102.047 14.5167 102.006 14.5167 101.883 14.3977C101.672 14.1738 101.829 14.0198 102.402 13.8869C103.152 13.7049 103.936 13.2781 104.454 12.7602C105.344 12.0436 105.766 10.6889 105.866 10.101C105.866 9.99141 105.866 9.70917 105.559 9.70917C105.282 9.70917 105.116 10.0567 105.082 10.262C104.754 11.5216 103.834 12.5573 102.613 13.0401C102.224 13.1871 102.027 13.2221 101.406 13.2291C100.772 13.2361 100.656 13.2221 100.588 13.1101C100.533 13.0261 100.533 12.9562 100.588 12.8652C100.649 12.7672 100.799 12.7392 101.372 12.7042C102.422 12.6413 103.152 12.2984 103.786 11.5776C104.304 10.9828 104.7 9.95409 104.707 9.19133C104.707 9.03038 104.468 8.79246 104.304 8.79246C104.072 8.79246 103.977 8.9744 103.936 9.49923C103.861 10.4439 103.363 11.1857 102.531 11.5846C102.199 11.7805 101.371 12.0061 100.649 11.9765C99.7967 11.9415 100.07 11.4516 100.479 11.4166C100.508 11.4142 100.542 11.4119 100.583 11.4092C100.998 11.3817 101.98 11.3168 102.763 10.6469C103.362 9.95197 103.364 9.86955 103.378 9.37032C103.382 9.21599 103.387 9.02185 103.411 8.75747C103.411 7.91773 103.418 7.89673 103.616 7.60982C103.732 7.44887 103.95 7.20395 104.107 7.057C104.625 6.57415 104.652 6.15428 104.222 5.27955C104.018 4.86668 104.004 4.41182 104.011 3.71904ZM104.122 5.33152C103.904 4.88974 103.892 4.40643 103.899 3.71787L103.899 3.71377L103.899 3.70969C103.926 3.37038 104.071 2.95838 104.418 2.63487C104.766 2.31014 105.307 2.08498 106.107 2.09938C106.904 2.11374 107.44 2.34482 107.783 2.6646C108.126 2.98337 108.266 3.38089 108.29 3.70957C108.327 4.13521 108.332 4.43616 108.295 4.69279C108.257 4.95241 108.179 5.16061 108.06 5.40164L108.059 5.40219L108.059 5.40274C107.937 5.64311 107.858 5.87349 107.823 6.07324C107.787 6.27513 107.799 6.43472 107.844 6.54199C107.861 6.58218 107.917 6.66774 108.003 6.77609C108.086 6.88107 108.19 6.99793 108.295 7.09895L108.296 7.0995C108.569 7.36601 108.734 7.53908 108.821 7.77797C108.905 8.01142 108.91 8.29902 108.91 8.77846C108.91 9.30374 108.945 9.71446 109.008 9.91975L109.008 9.92073L109.008 9.92172C109.102 10.2485 109.296 10.5815 109.552 10.8393C109.808 11.0974 110.119 11.2733 110.444 11.3019L110.451 11.3025L110.457 11.3037C110.546 11.322 110.861 11.3308 111.282 11.1689C111.433 11.1107 111.567 11.1003 111.676 11.1379C111.788 11.1768 111.861 11.2634 111.888 11.367C111.94 11.5666 111.818 11.796 111.581 11.8806C111.006 12.1511 110.211 12.1503 109.638 11.878L109.637 11.8778C108.746 11.4502 108.232 10.4763 108.161 9.47316C108.15 9.32843 108.135 9.21584 108.116 9.12921C108.097 9.04131 108.075 8.9893 108.053 8.95898C108.034 8.93304 108.015 8.92134 107.987 8.91621C107.955 8.91006 107.906 8.91275 107.83 8.93208C107.777 8.94618 107.742 8.96581 107.717 8.98924C107.693 9.01227 107.673 9.04553 107.658 9.09871C107.628 9.21193 107.631 9.39484 107.675 9.69172C107.814 10.6199 108.397 11.5697 109.132 12.0545C109.412 12.2397 109.65 12.3619 109.91 12.4437C110.171 12.5256 110.459 12.5685 110.843 12.5892L110.844 12.5893C111.129 12.6067 111.317 12.6227 111.443 12.6481C111.569 12.6735 111.66 12.7136 111.716 12.8029L111.716 12.8039L111.717 12.8048C111.751 12.861 111.775 12.9222 111.775 12.9903C111.775 13.0588 111.75 13.1191 111.715 13.1732C111.663 13.2555 111.585 13.3006 111.473 13.3272C111.366 13.3528 111.212 13.3652 110.991 13.3721C109.886 13.4151 108.844 13.0273 108.096 12.1602C107.645 11.6933 107.405 11.2416 107.246 10.8552C107.184 10.7045 107.134 10.5626 107.089 10.4364C107.077 10.4021 107.065 10.3689 107.054 10.3371C106.999 10.1849 106.952 10.0651 106.896 9.97328C106.817 9.84429 106.752 9.8262 106.718 9.82577C106.676 9.82523 106.63 9.85095 106.593 9.88856C106.553 9.92959 106.544 9.97212 106.543 10.0057C106.543 10.0233 106.545 10.0384 106.548 10.0488C106.549 10.0539 106.55 10.0575 106.55 10.0594C106.55 10.0598 106.551 10.0601 106.551 10.0604L106.554 10.0704L106.556 10.0823C106.854 11.9381 108.144 13.1555 109.846 13.7762C110.092 13.8353 110.277 13.9003 110.39 13.9886C110.449 14.0353 110.496 14.0939 110.516 14.1682C110.536 14.2418 110.525 14.315 110.499 14.3828C110.479 14.4392 110.445 14.4894 110.393 14.5267C110.342 14.5633 110.282 14.5816 110.217 14.5891C110.092 14.6036 109.921 14.5804 109.696 14.5314C108.167 14.2089 106.912 13.184 106.202 11.6983L106.201 11.6976L106.128 11.5409C106.119 11.5226 106.094 11.5221 106.084 11.5401L105.965 11.7711L105.965 11.7713C105.187 13.2903 104.042 14.2019 102.48 14.5453L102.479 14.5455L102.478 14.5456C102.28 14.5863 102.151 14.6117 102.056 14.6063C102.003 14.6033 101.957 14.5908 101.913 14.5662C101.872 14.5432 101.838 14.5121 101.806 14.4814L101.805 14.4797L101.803 14.4778C101.743 14.4147 101.694 14.341 101.683 14.2569C101.672 14.1643 101.71 14.0855 101.771 14.0251C101.829 13.9681 101.911 13.9227 102.009 13.8839C102.108 13.8445 102.231 13.8086 102.376 13.7747C103.108 13.597 103.874 13.1796 104.376 12.6777L104.38 12.6734L104.385 12.6697C104.811 12.3267 105.129 11.8264 105.355 11.3335C105.577 10.8468 105.704 10.3762 105.754 10.0911C105.753 10.0352 105.751 9.9673 105.726 9.91273C105.714 9.88649 105.698 9.8664 105.676 9.85214C105.654 9.83784 105.619 9.82432 105.559 9.82432C105.471 9.82432 105.389 9.87925 105.32 9.9767C105.25 10.0736 105.207 10.1948 105.192 10.2813L105.191 10.2866L105.19 10.2917C104.853 11.5881 103.906 12.6519 102.653 13.1476L102.653 13.1479L102.652 13.1482C102.454 13.223 102.3 13.2712 102.114 13.3009C101.93 13.3302 101.718 13.3407 101.407 13.3442C101.093 13.3477 100.896 13.3463 100.769 13.3283C100.705 13.3191 100.649 13.3045 100.602 13.2781C100.552 13.2502 100.519 13.2134 100.494 13.1726C100.459 13.1186 100.435 13.0586 100.435 12.9903C100.435 12.9222 100.459 12.861 100.492 12.8048L100.493 12.8039L100.493 12.8029C100.549 12.7136 100.641 12.6735 100.766 12.6481C100.892 12.6227 101.08 12.6067 101.365 12.5893L101.365 12.5893C102.389 12.5279 103.09 12.1964 103.703 11.5006C103.951 11.2157 104.173 10.8225 104.334 10.4051C104.495 9.98763 104.591 9.55431 104.594 9.19096C104.594 9.17797 104.589 9.15312 104.569 9.11808C104.55 9.08409 104.523 9.04774 104.489 9.01427C104.455 8.98082 104.418 8.95283 104.383 8.93377C104.347 8.91407 104.32 8.9076 104.304 8.9076C104.261 8.9076 104.232 8.91606 104.211 8.92855C104.191 8.94088 104.169 8.96234 104.148 9.00338C104.102 9.09142 104.068 9.24657 104.048 9.50842L104.048 9.50859C103.97 10.4923 103.449 11.2698 102.583 11.6869C102.403 11.7924 102.102 11.8998 101.761 11.9775C101.415 12.0563 101.017 12.1068 100.645 12.0915C100.424 12.0825 100.26 12.0438 100.15 11.9792C100.035 11.9121 99.9672 11.8082 99.9792 11.6851C99.99 11.574 100.063 11.4822 100.147 11.4204C100.234 11.3566 100.347 11.3123 100.469 11.3019C100.499 11.2993 100.535 11.2969 100.576 11.2942C100.992 11.2662 101.933 11.203 102.685 10.564C103.076 10.1094 103.19 9.93897 103.234 9.75402C103.256 9.65838 103.26 9.55473 103.265 9.39394C103.265 9.38509 103.265 9.3761 103.265 9.36695C103.27 9.21336 103.275 9.0176 103.299 8.7521C103.299 8.3411 103.3 8.11382 103.329 7.95532C103.36 7.78228 103.425 7.68735 103.524 7.54333L103.525 7.54235L103.525 7.54138C103.646 7.37372 103.869 7.12332 104.031 6.97196L104.031 6.97174C104.279 6.74087 104.393 6.54088 104.408 6.30754C104.424 6.06559 104.336 5.76565 104.122 5.33152ZM105.963 16.6548C110.233 16.6548 113.693 13.1034 113.693 8.72246C113.693 4.34155 110.233 0.790121 105.963 0.790121C101.694 0.790121 98.2333 4.34155 98.2333 8.72246C98.2333 13.1034 101.694 16.6548 105.963 16.6548ZM114.463 8.72246C114.463 13.5397 110.658 17.4449 105.963 17.4449C101.269 17.4449 97.4634 13.5397 97.4634 8.72246C97.4634 3.90518 101.269 0 105.963 0C110.658 0 114.463 3.90518 114.463 8.72246ZM113.806 8.72246C113.806 13.167 110.295 16.77 105.963 16.77C101.632 16.77 98.1211 13.167 98.1211 8.72246C98.1211 4.27796 101.632 0.674973 105.963 0.674973C110.295 0.674973 113.806 4.27796 113.806 8.72246ZM114.351 8.72246C114.351 13.4762 110.596 17.3298 105.963 17.3298C101.331 17.3298 97.5756 13.4762 97.5756 8.72246C97.5756 3.96877 101.331 0.115148 105.963 0.115148C110.596 0.115148 114.351 3.96877 114.351 8.72246Z" fill="url(#paint2_linear_161_96)"/>
<path d="M7.42532 17.4426C6.35539 17.4426 5.36392 17.245 4.45091 16.8497C3.55217 16.4544 2.76755 15.8982 2.09706 15.1808C1.44084 14.4635 0.927273 13.6145 0.556364 12.6336C0.185455 11.6382 0 10.5476 0 9.3618C0 8.17604 0.185455 7.09274 0.556364 6.11192C0.927273 5.1311 1.44084 4.28203 2.09706 3.56472C2.76755 2.8474 3.55217 2.29112 4.45091 1.89586C5.36392 1.50061 6.35539 1.30298 7.42532 1.30298C8.49525 1.30298 9.47958 1.50061 10.3783 1.89586C11.2913 2.29112 12.0759 2.8474 12.7322 3.56472C13.4027 4.28203 13.9234 5.1311 14.2943 6.11192C14.6652 7.09274 14.8506 8.17604 14.8506 9.3618C14.8506 10.5476 14.6652 11.6382 14.2943 12.6336C13.9234 13.6145 13.4027 14.4635 12.7322 15.1808C12.0759 15.8982 11.2913 16.4544 10.3783 16.8497C9.47958 17.245 8.49525 17.4426 7.42532 17.4426ZM7.42532 16.7838C8.66643 16.7838 9.67217 16.4837 10.4425 15.8835C11.2129 15.2833 11.7764 14.4342 12.133 13.3363C12.4897 12.2237 12.668 10.8989 12.668 9.3618C12.668 7.8247 12.4897 6.50718 12.133 5.40925C11.7764 4.29667 11.2129 3.44761 10.4425 2.86204C9.67217 2.26184 8.66643 1.96174 7.42532 1.96174C6.19846 1.96174 5.19273 2.26184 4.40811 2.86204C3.63776 3.44761 3.07427 4.29667 2.71762 5.40925C2.36098 6.50718 2.18266 7.8247 2.18266 9.3618C2.18266 10.8989 2.36098 12.2237 2.71762 13.3363C3.07427 14.4342 3.63776 15.2833 4.40811 15.8835C5.19273 16.4837 6.19846 16.7838 7.42532 16.7838Z" fill="white"/>
<path d="M27.7403 17.4426C26.2852 17.4426 25.0298 17.0986 23.9741 16.4105C22.9327 15.7225 22.1267 14.7783 21.5561 13.5779C20.9997 12.3628 20.7215 10.9721 20.7215 9.40572C20.7215 8.23459 20.907 7.15862 21.2779 6.1778C21.6488 5.19698 22.1624 4.34059 22.8186 3.60864C23.4748 2.87668 24.2309 2.31308 25.0869 1.91782C25.9571 1.50793 26.8843 1.30298 27.8687 1.30298C28.7389 1.30298 29.4522 1.40545 30.0085 1.6104C30.5792 1.80071 31.0071 1.96906 31.2924 2.11545C31.4779 2.20328 31.6491 2.2838 31.806 2.35699C31.9629 2.41555 32.0699 2.44483 32.127 2.44483C32.2839 2.44483 32.4123 2.38627 32.5122 2.26916C32.612 2.13741 32.6762 1.91782 32.7048 1.6104H33.2397L33.1969 4.17956L33.2397 6.74872H32.7048C32.4908 5.22626 31.9772 4.04781 31.1641 3.21338C30.3509 2.37895 29.2738 1.96174 27.9329 1.96174C26.9913 1.96174 26.1996 2.15937 25.5576 2.55462C24.9157 2.93524 24.4021 3.46957 24.0169 4.1576C23.6317 4.831 23.3464 5.62151 23.161 6.52914C22.9898 7.42212 22.9042 8.38098 22.9042 9.40572C22.9042 10.9428 23.0611 12.2603 23.375 13.3583C23.7031 14.4562 24.2309 15.3053 24.9585 15.9055C25.7003 16.491 26.6917 16.7838 27.9329 16.7838C28.8601 16.7838 29.6662 16.5642 30.3509 16.1251C31.0357 15.6859 31.5849 15.1003 31.9986 14.3684C32.4266 13.6364 32.6834 12.8313 32.7689 11.9529H33.2825L33.2397 14.6319L33.3039 17.201H32.7904L32.7262 16.9595C32.6691 16.7692 32.5978 16.5935 32.5122 16.4325C32.4408 16.2568 32.3124 16.169 32.127 16.169C32.0271 16.169 31.9059 16.1983 31.7632 16.2568C31.6348 16.3154 31.485 16.3886 31.3138 16.4764C30.9429 16.6667 30.4579 16.879 29.8587 17.1132C29.2596 17.3328 28.5534 17.4426 27.7403 17.4426Z" fill="white"/>
<path d="M42.4139 17.2669V16.7179L42.8846 16.674C43.4695 16.6155 43.9118 16.5423 44.2113 16.4544C44.5252 16.352 44.7392 16.147 44.8533 15.8396C44.9817 15.5175 45.0459 14.9979 45.0459 14.2805V2.20328H42.0287C41.3725 2.20328 40.8518 2.33504 40.4666 2.59854C40.0957 2.8474 39.7676 3.2573 39.4823 3.82822C39.2112 4.39915 38.8902 5.16038 38.5193 6.11192L38.07 6.00213L38.6049 3.30122L38.8403 1.54452L44.9389 1.6104H46.9718L53.0918 1.54452L53.3272 3.30122L53.8621 6.00213L53.3913 6.13388C53.0632 5.28481 52.7565 4.5675 52.4712 3.98193C52.2002 3.39637 51.8792 2.9572 51.5083 2.66441C51.1374 2.35699 50.6452 2.20328 50.0318 2.20328H46.8648V14.2805C46.8648 14.9979 46.9218 15.5175 47.036 15.8396C47.1644 16.147 47.3855 16.352 47.6993 16.4544C48.0132 16.5423 48.4554 16.6155 49.026 16.674L49.4968 16.7179V17.2669L46.0088 17.201L42.4139 17.2669Z" fill="white"/>
<path d="M65.8911 17.4426C64.8212 17.4426 63.8297 17.245 62.9167 16.8497C62.018 16.4544 61.2334 15.8982 60.5629 15.1808C59.9067 14.4635 59.3931 13.6145 59.0222 12.6336C58.6513 11.6382 58.4658 10.5476 58.4658 9.3618C58.4658 8.17604 58.6513 7.09274 59.0222 6.11192C59.3931 5.1311 59.9067 4.28203 60.5629 3.56472C61.2334 2.8474 62.018 2.29112 62.9167 1.89586C63.8297 1.50061 64.8212 1.30298 65.8911 1.30298C66.9611 1.30298 67.9454 1.50061 68.8441 1.89586C69.7572 2.29112 70.5418 2.8474 71.198 3.56472C71.8685 4.28203 72.3892 5.1311 72.7601 6.11192C73.131 7.09274 73.3165 8.17604 73.3165 9.3618C73.3165 10.5476 73.131 11.6382 72.7601 12.6336C72.3892 13.6145 71.8685 14.4635 71.198 15.1808C70.5418 15.8982 69.7572 16.4544 68.8441 16.8497C67.9454 17.245 66.9611 17.4426 65.8911 17.4426ZM65.8911 16.7838C67.1323 16.7838 68.138 16.4837 68.9083 15.8835C69.6787 15.2833 70.2422 14.4342 70.5988 13.3363C70.9555 12.2237 71.1338 10.8989 71.1338 9.3618C71.1338 7.8247 70.9555 6.50718 70.5988 5.40925C70.2422 4.29667 69.6787 3.44761 68.9083 2.86204C68.138 2.26184 67.1323 1.96174 65.8911 1.96174C64.6643 1.96174 63.6586 2.26184 62.8739 2.86204C62.1036 3.44761 61.5401 4.29667 61.1834 5.40925C60.8268 6.50718 60.6485 7.8247 60.6485 9.3618C60.6485 10.8989 60.8268 12.2237 61.1834 13.3363C61.5401 14.4342 62.1036 15.2833 62.8739 15.8835C63.6586 16.4837 64.6643 16.7838 65.8911 16.7838Z" fill="white"/>
<path d="M86.2917 17.4426C84.9793 17.4426 83.7809 17.1132 82.6967 16.4544C81.6268 15.7957 80.7709 14.8661 80.1289 13.6657C79.5012 12.4653 79.1874 11.0453 79.1874 9.40572C79.1874 8.21995 79.38 7.12934 79.7651 6.13388C80.1503 5.13842 80.6781 4.28203 81.3486 3.56472C82.0191 2.8474 82.7895 2.29112 83.6597 1.89586C84.5299 1.50061 85.45 1.30298 86.4201 1.30298C87.0478 1.30298 87.6113 1.38349 88.1106 1.54452C88.6099 1.70555 89.0165 1.85926 89.3303 2.00566C89.7012 2.16669 89.958 2.27648 90.1006 2.33503C90.2576 2.39359 90.4288 2.42287 90.6142 2.42287C90.8139 2.42287 90.9495 2.33503 91.0208 2.15937C91.1064 1.96906 91.1492 1.78607 91.1492 1.6104H91.6842L91.6413 4.13564L91.6842 6.70481H91.1492C91.1207 5.70935 90.8639 4.86028 90.3788 4.1576C89.9081 3.44029 89.3089 2.89864 88.5814 2.53266C87.8681 2.15205 87.1262 1.96174 86.3559 1.96174C84.6868 1.96174 83.4386 2.60586 82.6111 3.8941C81.7837 5.18234 81.37 7.01955 81.37 9.40572C81.37 11.9236 81.8123 13.7828 82.6967 14.9832C83.5812 16.1836 84.8223 16.7838 86.4201 16.7838C87.219 16.7838 87.9251 16.6521 88.5386 16.3886C89.152 16.1251 89.637 15.781 89.9937 15.3565C90.3503 14.9173 90.5286 14.4635 90.5286 13.9951V13.3802C90.5286 12.7361 90.3788 12.275 90.0793 11.9968C89.7939 11.7187 89.259 11.543 88.4744 11.4698L87.5542 11.382V10.855L91.1064 10.9428L94.4018 10.855V11.382L93.4388 11.4698C93.0537 11.4991 92.7398 11.6528 92.4973 11.931C92.2548 12.2091 92.1335 12.6922 92.1335 13.3802V13.7755C92.1335 14.1122 92.1834 14.4269 92.2833 14.7197C92.3974 15.0125 92.5044 15.2614 92.6043 15.4663L92.9039 16.0153L92.4117 16.3447C92.2262 16.0372 92.0408 15.8323 91.8553 15.7298C91.6842 15.6127 91.5344 15.5541 91.406 15.5541C91.1777 15.5541 90.9709 15.6127 90.7854 15.7298C90.6 15.8469 90.4002 15.986 90.1862 16.147C89.9437 16.3227 89.6513 16.513 89.3089 16.7179C88.9808 16.9229 88.5742 17.0912 88.0892 17.223C87.6042 17.3694 87.005 17.4426 86.2917 17.4426Z" fill="white"/>
<path d="M116.432 17.2669V16.7179L116.86 16.674C117.359 16.6155 117.737 16.5423 117.994 16.4544C118.265 16.352 118.45 16.147 118.55 15.8396C118.664 15.5175 118.721 14.9979 118.721 14.2805V4.5309C118.721 3.79894 118.671 3.27926 118.571 2.97184C118.472 2.66442 118.286 2.46679 118.015 2.37895C117.758 2.27648 117.38 2.19596 116.881 2.13741L116.453 2.09349V1.54452L119.62 1.6104H122.637C124.563 1.6104 126.189 1.8739 127.516 2.40091C128.857 2.92792 129.877 3.76235 130.576 4.9042C131.275 6.03141 131.625 7.50996 131.625 9.33984C131.625 10.6427 131.411 11.7846 130.983 12.7654C130.555 13.7462 129.97 14.566 129.228 15.2248C128.486 15.8835 127.637 16.3812 126.682 16.7179C125.74 17.04 124.749 17.201 123.707 17.201H119.599L116.432 17.2669ZM121.974 16.5423H123.793C125.533 16.5423 126.931 15.964 127.987 14.8075C129.043 13.6364 129.57 11.8285 129.57 9.38376C129.57 7.89057 129.364 6.61697 128.95 5.56296C128.55 4.4943 127.887 3.68183 126.96 3.12555C126.047 2.55462 124.813 2.26916 123.258 2.26916H120.562V13.9951C120.562 14.4196 120.59 14.8295 120.647 15.2248C120.704 15.6054 120.833 15.9201 121.032 16.169C121.232 16.4178 121.546 16.5423 121.974 16.5423Z" fill="white"/>
<path d="M147.919 17.2669L143.511 17.201H135.957V16.6301L145.693 2.26916L141.499 2.31308C140.529 2.32772 139.759 2.39359 139.188 2.5107C138.618 2.62782 138.182 2.81081 137.883 3.05967C137.598 3.30853 137.391 3.64523 137.262 4.06977C137.148 4.4943 137.048 5.02131 136.963 5.65079H136.449L136.685 2.73029L136.727 1.56648L143.04 1.6104L147.833 1.54452V2.29112L138.182 16.5423L143.404 16.4984C144.488 16.4837 145.301 16.2788 145.843 15.8835C146.4 15.4883 146.799 14.91 147.041 14.1488C147.284 13.3876 147.477 12.4507 147.619 11.3381H148.133L147.919 15.0052V17.2669Z" fill="white"/>
<path d="M5.68727 9.14954C5.68727 9.01479 5.79372 8.90555 5.92503 8.90555H8.89706C9.02838 8.90555 9.13482 9.01479 9.13482 9.14954V10.0035C9.13482 10.1382 9.02837 10.2475 8.89706 10.2475H5.92503C5.79372 10.2475 5.68727 10.1382 5.68727 10.0035V9.14954Z" fill="white"/>
<path d="M64.0579 9.14954C64.0579 9.01479 64.1644 8.90555 64.2957 8.90555H67.2677C67.399 8.90555 67.5055 9.01479 67.5055 9.14954V10.0035C67.5055 10.1382 67.399 10.2475 67.2677 10.2475H64.2957C64.1644 10.2475 64.0579 10.1382 64.0579 10.0035V9.14954Z" fill="white"/>
<defs>
<linearGradient id="paint0_linear_161_96" x1="101.5" y1="2.61011" x2="111" y2="17.1101" gradientUnits="userSpaceOnUse">
<stop stop-color="#ABFC4F"/>
<stop offset="0.995489"/>
<stop offset="1" stop-color="#ABFC4F"/>
</linearGradient>
<linearGradient id="paint1_linear_161_96" x1="101.5" y1="2.61011" x2="111" y2="17.1101" gradientUnits="userSpaceOnUse">
<stop stop-color="#ABFC4F"/>
<stop offset="0.995489"/>
<stop offset="1" stop-color="#ABFC4F"/>
</linearGradient>
<linearGradient id="paint2_linear_161_96" x1="101.5" y1="2.61011" x2="111" y2="17.1101" gradientUnits="userSpaceOnUse">
<stop stop-color="#ABFC4F"/>
<stop offset="0.995489"/>
<stop offset="1" stop-color="#ABFC4F"/>
</linearGradient>
</defs>
</svg>
