<svg width="1030" height="255" viewBox="0 0 1030 255" fill="none" xmlns="http://www.w3.org/2000/svg">
<path d="M105.68 117L102.68 117.007L102.687 120H105.68V117ZM105.536 56.52L108.536 56.5129L108.51 45.6603L102.958 54.9853L105.536 56.52ZM75.872 106.344V109.344H77.5773L78.4497 107.879L75.872 106.344ZM65.36 106.344L62.797 107.903L63.6735 109.344H65.36V106.344ZM35.84 57.816L38.403 56.2569L32.84 47.1118V57.816H35.84ZM35.84 117V120H38.84V117H35.84ZM13.952 117H10.952V120H13.952V117ZM13.952 16.2V13.2H10.952V16.2H13.952ZM33.248 16.2L35.8179 14.6522L34.9432 13.2H33.248V16.2ZM70.976 78.84L68.4061 80.3878L70.9958 84.6875L73.5563 80.3704L70.976 78.84ZM108.128 16.2V13.2H106.419L105.548 14.6696L108.128 16.2ZM127.28 16.2L130.28 16.1914L130.271 13.2H127.28V16.2ZM127.568 117V120H130.577L130.568 116.991L127.568 117ZM108.68 116.993L108.536 56.5129L102.536 56.5271L102.68 117.007L108.68 116.993ZM102.958 54.9853L73.2943 104.809L78.4497 107.879L108.114 58.0547L102.958 54.9853ZM75.872 103.344H65.36V109.344H75.872V103.344ZM67.923 104.785L38.403 56.2569L33.277 59.3751L62.797 107.903L67.923 104.785ZM32.84 57.816V117H38.84V57.816H32.84ZM35.84 114H13.952V120H35.84V114ZM16.952 117V16.2H10.952V117H16.952ZM13.952 19.2H33.248V13.2H13.952V19.2ZM30.6781 17.7478L68.4061 80.3878L73.5459 77.2922L35.8179 14.6522L30.6781 17.7478ZM73.5563 80.3704L110.708 17.7304L105.548 14.6696L68.3957 77.3096L73.5563 80.3704ZM108.128 19.2H127.28V13.2H108.128V19.2ZM124.28 16.2086L124.568 117.009L130.568 116.991L130.28 16.1914L124.28 16.2086ZM127.568 114H105.68V120H127.568V114ZM151.483 16.2V13.2H148.483V16.2H151.483ZM174.811 16.2H177.811V13.2H174.811V16.2ZM174.811 117V120H177.811V117H174.811ZM151.483 117H148.483V120H151.483V117ZM151.483 19.2H174.811V13.2H151.483V19.2ZM171.811 16.2V117H177.811V16.2H171.811ZM174.811 114H151.483V120H174.811V114ZM154.483 117V16.2H148.483V117H154.483ZM291.181 16.2H294.181V13.2H291.181V16.2ZM291.181 117V120H294.181V117H291.181ZM272.029 117L269.711 118.904L270.611 120H272.029V117ZM221.773 55.8L224.092 53.8961L218.773 47.4195V55.8H221.773ZM221.773 117V120H224.773V117H221.773ZM198.733 117H195.733V120H198.733V117ZM198.733 16.2V13.2H195.733V16.2H198.733ZM218.029 16.2L220.35 14.2994L219.45 13.2H218.029V16.2ZM268.141 77.4L265.82 79.3006L271.141 85.7991V77.4H268.141ZM268.141 16.2V13.2H265.141V16.2H268.141ZM288.181 16.2V117H294.181V16.2H288.181ZM291.181 114H272.029V120H291.181V114ZM274.348 115.096L224.092 53.8961L219.455 57.7039L269.711 118.904L274.348 115.096ZM218.773 55.8V117H224.773V55.8H218.773ZM221.773 114H198.733V120H221.773V114ZM201.733 117V16.2H195.733V117H201.733ZM198.733 19.2H218.029V13.2H198.733V19.2ZM215.708 18.1006L265.82 79.3006L270.462 75.4994L220.35 14.2994L215.708 18.1006ZM271.141 77.4V16.2H265.141V77.4H271.141ZM268.141 19.2H291.181V13.2H268.141V19.2ZM335.91 35.208H338.91V32.208H335.91V35.208ZM303.654 35.208H300.654V38.208H303.654V35.208ZM303.654 16.2V13.2H300.654V16.2H303.654ZM391.494 16.2H394.494V13.2H391.494V16.2ZM391.494 35.208V38.208H394.494V35.208H391.494ZM359.238 35.208V32.208H356.238V35.208H359.238ZM359.238 117V120H362.238V117H359.238ZM335.91 117H332.91V120H335.91V117ZM335.91 32.208H303.654V38.208H335.91V32.208ZM306.654 35.208V16.2H300.654V35.208H306.654ZM303.654 19.2H391.494V13.2H303.654V19.2ZM388.494 16.2V35.208H394.494V16.2H388.494ZM391.494 32.208H359.238V38.208H391.494V32.208ZM356.238 35.208V117H362.238V35.208H356.238ZM359.238 114H335.91V120H359.238V114ZM338.91 117V35.208H332.91V117H338.91ZM80.336 225.4L83.1085 224.254L82.3422 222.4H80.336V225.4ZM33.536 225.4V222.4H31.5298L30.7635 224.254L33.536 225.4ZM24.608 247V250H26.6142L27.3805 248.146L24.608 247ZM0.704 247L-2.03614 245.779L-3.91764 250H0.704V247ZM45.632 146.2V143.2H43.6846L42.8919 144.979L45.632 146.2ZM68.672 146.2L71.4107 144.975L70.6168 143.2H68.672V146.2ZM113.744 247V250H118.372L116.483 245.775L113.744 247ZM89.264 247L86.4915 248.146L87.2578 250H89.264V247ZM72.992 207.688V210.688H77.4817L75.7637 206.54L72.992 207.688ZM57.008 169.096L59.7797 167.948L57.008 161.256L54.2363 167.948L57.008 169.096ZM41.024 207.688L38.2523 206.54L36.5343 210.688H41.024V207.688ZM80.336 222.4H33.536V228.4H80.336V222.4ZM30.7635 224.254L21.8355 245.854L27.3805 248.146L36.3085 226.546L30.7635 224.254ZM24.608 244H0.704V250H24.608V244ZM3.44414 248.221L48.3721 147.421L42.8919 144.979L-2.03614 245.779L3.44414 248.221ZM45.632 149.2H68.672V143.2H45.632V149.2ZM65.9333 147.425L111.005 248.225L116.483 245.775L71.4107 144.975L65.9333 147.425ZM113.744 244H89.264V250H113.744V244ZM92.0365 245.854L83.1085 224.254L77.5635 226.546L86.4915 248.146L92.0365 245.854ZM75.7637 206.54L59.7797 167.948L54.2363 170.244L70.2203 208.836L75.7637 206.54ZM54.2363 167.948L38.2523 206.54L43.7957 208.836L59.7797 170.244L54.2363 167.948ZM41.024 210.688H72.992V204.688H41.024V210.688ZM216.65 146.2H219.65V143.2H216.65V146.2ZM216.65 247V250H219.65V247H216.65ZM197.498 247L195.18 248.904L196.08 250H197.498V247ZM147.242 185.8L149.56 183.896L144.242 177.419V185.8H147.242ZM147.242 247V250H150.242V247H147.242ZM124.202 247H121.202V250H124.202V247ZM124.202 146.2V143.2H121.202V146.2H124.202ZM143.498 146.2L145.819 144.299L144.919 143.2H143.498V146.2ZM193.61 207.4L191.289 209.301L196.61 215.799V207.4H193.61ZM193.61 146.2V143.2H190.61V146.2H193.61ZM213.65 146.2V247H219.65V146.2H213.65ZM216.65 244H197.498V250H216.65V244ZM199.816 245.096L149.56 183.896L144.924 187.704L195.18 248.904L199.816 245.096ZM144.242 185.8V247H150.242V185.8H144.242ZM147.242 244H124.202V250H147.242V244ZM127.202 247V146.2H121.202V247H127.202ZM124.202 149.2H143.498V143.2H124.202V149.2ZM141.177 148.101L191.289 209.301L195.931 205.499L145.819 144.299L141.177 148.101ZM196.61 207.4V146.2H190.61V207.4H196.61ZM193.61 149.2H216.65V143.2H193.61V149.2ZM301.728 241.96L300.302 244.599L300.308 244.603L300.315 244.606L301.728 241.96ZM282 223.384L279.417 224.909L279.428 224.928L279.439 224.946L282 223.384ZM282 169.96L279.43 168.412L279.425 168.421L282 169.96ZM301.728 151.24L300.315 148.594L300.308 148.597L300.302 148.601L301.728 151.24ZM378.048 169.96L375.478 171.508L375.483 171.515L375.487 171.522L378.048 169.96ZM378.048 223.384L380.61 224.946L380.614 224.939L380.618 224.932L378.048 223.384ZM358.32 241.96L359.746 244.599L358.32 241.96ZM346.224 224.824L347.69 227.442L347.71 227.43L347.729 227.419L346.224 224.824ZM357.456 213.304L354.848 211.821L354.837 211.841L354.826 211.86L357.456 213.304ZM357.456 179.896L354.826 181.34L354.837 181.359L354.848 181.379L357.456 179.896ZM346.224 168.52L344.719 171.115L344.739 171.126L344.758 171.138L346.224 168.52ZM313.968 168.52L315.434 171.138L315.454 171.126L315.473 171.115L313.968 168.52ZM302.592 179.896L299.984 178.413L299.973 178.433L299.962 178.452L302.592 179.896ZM302.592 213.304L299.962 214.748L299.973 214.767L299.984 214.787L302.592 213.304ZM313.968 224.824L312.463 227.419L312.483 227.43L312.502 227.442L313.968 224.824ZM330.096 245.728C320.078 245.728 311.115 243.572 303.141 239.314L300.315 244.606C309.237 249.372 319.186 251.728 330.096 251.728V245.728ZM303.154 239.321C295.255 235.053 289.077 229.227 284.562 221.822L279.439 224.946C284.524 233.285 291.497 239.843 300.302 244.599L303.154 239.321ZM284.584 221.859C280.171 214.385 277.944 205.99 277.944 196.6H271.944C271.944 206.986 274.421 216.447 279.417 224.909L284.584 221.859ZM277.944 196.6C277.944 187.21 280.171 178.869 284.575 171.499L279.425 168.421C274.421 176.795 271.944 186.214 271.944 196.6H277.944ZM284.57 171.508C289.087 164.009 295.264 158.142 303.154 153.879L300.302 148.601C291.488 153.362 284.513 159.975 279.43 168.412L284.57 171.508ZM303.141 153.886C311.115 149.628 320.078 147.472 330.096 147.472V141.472C319.186 141.472 309.237 143.828 300.315 148.594L303.141 153.886ZM330.096 147.472C340.114 147.472 349.024 149.628 356.894 153.879L359.746 148.601C350.912 143.828 341.006 141.472 330.096 141.472V147.472ZM356.894 153.879C364.784 158.142 370.961 164.009 375.478 171.508L380.618 168.412C375.535 159.975 368.56 153.362 359.746 148.601L356.894 153.879ZM375.487 171.522C379.979 178.889 382.248 187.222 382.248 196.6H388.248C388.248 186.202 385.717 176.775 380.61 168.398L375.487 171.522ZM382.248 196.6C382.248 205.978 379.979 214.365 375.478 221.836L380.618 224.932C385.717 216.467 388.248 206.998 388.248 196.6H382.248ZM375.487 221.822C370.972 229.227 364.793 235.053 356.894 239.321L359.746 244.599C368.551 239.843 375.525 233.285 380.61 224.946L375.487 221.822ZM356.894 239.321C349.024 243.572 340.114 245.728 330.096 245.728V251.728C341.006 251.728 350.912 249.372 359.746 244.599L356.894 239.321ZM330.096 231.856C336.518 231.856 342.406 230.401 347.69 227.442L344.758 222.206C340.442 224.623 335.578 225.856 330.096 225.856V231.856ZM347.729 227.419C353.005 224.359 357.137 220.119 360.086 214.748L354.826 211.86C352.4 216.281 349.043 219.721 344.719 222.229L347.729 227.419ZM360.064 214.787C363.132 209.391 364.632 203.302 364.632 196.6H358.632C358.632 202.378 357.348 207.425 354.848 211.821L360.064 214.787ZM364.632 196.6C364.632 189.898 363.132 183.809 360.064 178.413L354.848 181.379C357.348 185.775 358.632 190.822 358.632 196.6H364.632ZM360.086 178.452C357.132 173.072 352.988 168.869 347.69 165.902L344.758 171.138C349.06 173.547 352.404 176.928 354.826 181.34L360.086 178.452ZM347.729 165.925C342.439 162.856 336.537 161.344 330.096 161.344V167.344C335.559 167.344 340.409 168.616 344.719 171.115L347.729 165.925ZM330.096 161.344C323.655 161.344 317.753 162.856 312.463 165.925L315.473 171.115C319.783 168.616 324.633 167.344 330.096 167.344V161.344ZM312.502 165.902C307.214 168.864 303.032 173.054 299.984 178.413L305.2 181.379C307.721 176.946 311.123 173.552 315.434 171.138L312.502 165.902ZM299.962 178.452C297.004 183.841 295.56 189.915 295.56 196.6H301.56C301.56 190.804 302.804 185.743 305.222 181.34L299.962 178.452ZM295.56 196.6C295.56 203.284 297.004 209.359 299.962 214.748L305.222 211.86C302.804 207.457 301.56 202.395 301.56 196.6H295.56ZM299.984 214.787C303.027 220.137 307.196 224.364 312.463 227.419L315.473 222.229C311.14 219.716 307.726 216.263 305.2 211.821L299.984 214.787ZM312.502 227.442C317.786 230.401 323.674 231.856 330.096 231.856V225.856C324.614 225.856 319.75 224.623 315.434 222.206L312.502 227.442ZM423.084 242.104L421.645 244.737L421.664 244.746L421.682 244.756L423.084 242.104ZM403.5 223.528L400.917 225.053L400.928 225.072L400.939 225.09L403.5 223.528ZM403.5 169.816L400.93 168.268L400.925 168.277L403.5 169.816ZM423.084 151.24L424.499 153.885L424.51 153.879L423.084 151.24ZM474.78 149.08L473.576 151.828L473.583 151.831L473.589 151.834L474.78 149.08ZM492.636 162.328L494.671 164.532L496.766 162.598L494.941 160.407L492.636 162.328ZM477.66 176.152L475.392 178.116L477.419 180.457L479.695 178.356L477.66 176.152ZM435.612 168.52L437.056 171.15L437.076 171.139L437.095 171.128L435.612 168.52ZM424.092 179.896L421.484 178.413L421.473 178.433L421.462 178.452L424.092 179.896ZM424.092 213.304L421.462 214.748L421.473 214.767L421.484 214.787L424.092 213.304ZM435.612 224.824L434.129 227.432L434.149 227.443L434.168 227.454L435.612 224.824ZM477.66 216.904L479.695 214.7L477.406 212.586L475.38 214.954L477.66 216.904ZM492.636 230.728L494.956 232.63L496.749 230.442L494.671 228.524L492.636 230.728ZM474.78 244.12L473.589 241.366L474.78 244.12ZM451.02 245.728C441.193 245.728 432.369 243.62 424.486 239.452L421.682 244.756C430.503 249.42 440.303 251.728 451.02 251.728V245.728ZM424.523 239.471C416.719 235.206 410.582 229.379 406.062 221.966L400.939 225.09C406.018 233.421 412.938 239.978 421.645 244.737L424.523 239.471ZM406.084 222.003C401.674 214.533 399.444 206.091 399.444 196.6H393.444C393.444 207.077 395.919 216.587 400.917 225.053L406.084 222.003ZM399.444 196.6C399.444 187.108 401.674 178.721 406.075 171.355L400.925 168.277C395.918 176.655 393.444 186.124 393.444 196.6H399.444ZM406.07 171.364C410.589 163.862 416.717 158.048 424.499 153.885L421.669 148.595C412.94 153.264 406.011 159.834 400.93 168.268L406.07 171.364ZM424.51 153.879C432.384 149.625 441.247 147.472 451.164 147.472V141.472C440.345 141.472 430.488 143.831 421.658 148.601L424.51 153.879ZM451.164 147.472C459.544 147.472 466.998 148.944 473.576 151.828L475.985 146.332C468.547 143.072 460.256 141.472 451.164 141.472V147.472ZM473.589 151.834C480.276 154.725 485.842 158.862 490.331 164.249L494.941 160.407C489.83 154.274 483.492 149.579 475.971 146.326L473.589 151.834ZM490.601 160.124L475.625 173.948L479.695 178.356L494.671 164.532L490.601 160.124ZM479.928 174.188C472.564 165.683 463.299 161.344 452.316 161.344V167.344C461.493 167.344 469.124 170.877 475.392 178.116L479.928 174.188ZM452.316 161.344C445.614 161.344 439.525 162.844 434.129 165.912L437.095 171.128C441.492 168.628 446.539 167.344 452.316 167.344V161.344ZM434.168 165.89C428.781 168.848 424.54 173.039 421.484 178.413L426.7 181.379C429.212 176.961 432.651 173.568 437.056 171.15L434.168 165.89ZM421.462 178.452C418.504 183.841 417.06 189.915 417.06 196.6H423.06C423.06 190.804 424.304 185.743 426.722 181.34L421.462 178.452ZM417.06 196.6C417.06 203.284 418.504 209.359 421.462 214.748L426.722 211.86C424.304 207.457 423.06 202.395 423.06 196.6H417.06ZM421.484 214.787C424.535 220.152 428.764 224.381 434.129 227.432L437.095 222.216C432.668 219.699 429.217 216.248 426.7 211.821L421.484 214.787ZM434.168 227.454C439.557 230.412 445.632 231.856 452.316 231.856V225.856C446.521 225.856 441.459 224.612 437.056 222.194L434.168 227.454ZM452.316 231.856C463.313 231.856 472.58 227.458 479.94 218.854L475.38 214.954C469.108 222.286 461.48 225.856 452.316 225.856V231.856ZM475.625 219.108L490.601 232.932L494.671 228.524L479.695 214.7L475.625 219.108ZM490.316 228.826C485.826 234.304 480.265 238.48 473.589 241.366L475.971 246.874C483.504 243.616 489.846 238.864 494.956 232.63L490.316 228.826ZM473.589 241.366C466.907 244.256 459.399 245.728 451.02 245.728V251.728C460.113 251.728 468.445 250.128 475.971 246.874L473.589 241.366ZM528.285 165.208H531.285V162.208H528.285V165.208ZM496.029 165.208H493.029V168.208H496.029V165.208ZM496.029 146.2V143.2H493.029V146.2H496.029ZM583.869 146.2H586.869V143.2H583.869V146.2ZM583.869 165.208V168.208H586.869V165.208H583.869ZM551.613 165.208V162.208H548.613V165.208H551.613ZM551.613 247V250H554.613V247H551.613ZM528.285 247H525.285V250H528.285V247ZM528.285 162.208H496.029V168.208H528.285V162.208ZM499.029 165.208V146.2H493.029V165.208H499.029ZM496.029 149.2H583.869V143.2H496.029V149.2ZM580.869 146.2V165.208H586.869V146.2H580.869ZM583.869 162.208H551.613V168.208H583.869V162.208ZM548.613 165.208V247H554.613V165.208H548.613ZM551.613 244H528.285V250H551.613V244ZM531.285 247V165.208H525.285V247H531.285ZM615.463 241.96L614.037 244.599L614.043 244.603L614.049 244.606L615.463 241.96ZM595.735 223.384L593.151 224.909L593.162 224.928L593.173 224.946L595.735 223.384ZM595.735 169.96L593.165 168.412L593.159 168.421L595.735 169.96ZM615.463 151.24L614.049 148.594L614.043 148.597L614.037 148.601L615.463 151.24ZM691.783 169.96L689.213 171.508L689.217 171.515L689.221 171.522L691.783 169.96ZM691.783 223.384L694.344 224.946L694.348 224.939L694.352 224.932L691.783 223.384ZM672.055 241.96L673.48 244.599L672.055 241.96ZM659.959 224.824L661.424 227.442L661.444 227.43L661.464 227.419L659.959 224.824ZM671.191 213.304L668.583 211.821L668.572 211.841L668.561 211.86L671.191 213.304ZM671.191 179.896L668.561 181.34L668.572 181.359L668.583 181.379L671.191 179.896ZM659.959 168.52L658.453 171.115L658.473 171.126L658.493 171.138L659.959 168.52ZM627.703 168.52L629.168 171.138L629.188 171.126L629.208 171.115L627.703 168.52ZM616.327 179.896L613.719 178.413L613.708 178.433L613.697 178.452L616.327 179.896ZM616.327 213.304L613.697 214.748L613.708 214.767L613.719 214.787L616.327 213.304ZM627.703 224.824L626.197 227.419L626.217 227.43L626.237 227.442L627.703 224.824ZM643.831 245.728C633.813 245.728 624.85 243.572 616.876 239.314L614.049 244.606C622.971 249.372 632.92 251.728 643.831 251.728V245.728ZM616.888 239.321C608.989 235.053 602.811 229.227 598.296 221.822L593.173 224.946C598.258 233.285 605.232 239.843 614.037 244.599L616.888 239.321ZM598.318 221.859C593.905 214.385 591.679 205.99 591.679 196.6H585.679C585.679 206.986 588.156 216.447 593.151 224.909L598.318 221.859ZM591.679 196.6C591.679 187.21 593.905 178.869 598.31 171.499L593.159 168.421C588.156 176.795 585.679 186.214 585.679 196.6H591.679ZM598.304 171.508C602.822 164.009 608.998 158.142 616.888 153.879L614.037 148.601C605.223 153.362 598.247 159.975 593.165 168.412L598.304 171.508ZM616.876 153.886C624.85 149.628 633.813 147.472 643.831 147.472V141.472C632.92 141.472 622.971 143.828 614.049 148.594L616.876 153.886ZM643.831 147.472C653.849 147.472 662.758 149.628 670.629 153.879L673.48 148.601C664.647 143.828 654.74 141.472 643.831 141.472V147.472ZM670.629 153.879C678.519 158.142 684.695 164.009 689.213 171.508L694.352 168.412C689.27 159.975 682.294 153.362 673.48 148.601L670.629 153.879ZM689.221 171.522C693.713 178.889 695.983 187.222 695.983 196.6H701.983C701.983 186.202 699.452 176.775 694.344 168.398L689.221 171.522ZM695.983 196.6C695.983 205.978 693.713 214.365 689.213 221.836L694.352 224.932C699.452 216.467 701.983 206.998 701.983 196.6H695.983ZM689.221 221.822C684.706 229.227 678.528 235.053 670.629 239.321L673.48 244.599C682.285 239.843 689.259 233.285 694.344 224.946L689.221 221.822ZM670.629 239.321C662.758 243.572 653.849 245.728 643.831 245.728V251.728C654.74 251.728 664.647 249.372 673.48 244.599L670.629 239.321ZM643.831 231.856C650.253 231.856 656.14 230.401 661.424 227.442L658.493 222.206C654.177 224.623 649.312 225.856 643.831 225.856V231.856ZM661.464 227.419C666.74 224.359 670.871 220.119 673.82 214.748L668.561 211.86C666.134 216.281 662.777 219.721 658.453 222.229L661.464 227.419ZM673.798 214.787C676.866 209.391 678.367 203.302 678.367 196.6H672.367C672.367 202.378 671.083 207.425 668.583 211.821L673.798 214.787ZM678.367 196.6C678.367 189.898 676.866 183.809 673.798 178.413L668.583 181.379C671.083 185.775 672.367 190.822 672.367 196.6H678.367ZM673.82 178.452C670.866 173.072 666.722 168.869 661.424 165.902L658.493 171.138C662.795 173.547 666.139 176.928 668.561 181.34L673.82 178.452ZM661.464 165.925C656.173 162.856 650.271 161.344 643.831 161.344V167.344C649.294 167.344 654.144 168.616 658.453 171.115L661.464 165.925ZM643.831 161.344C637.39 161.344 631.488 162.856 626.197 165.925L629.208 171.115C633.517 168.616 638.367 167.344 643.831 167.344V161.344ZM626.237 165.902C620.948 168.864 616.766 173.054 613.719 178.413L618.934 181.379C621.455 176.946 624.857 173.552 629.168 171.138L626.237 165.902ZM613.697 178.452C610.738 183.841 609.295 189.915 609.295 196.6H615.295C615.295 190.804 616.539 185.743 618.956 181.34L613.697 178.452ZM609.295 196.6C609.295 203.284 610.738 209.359 613.697 214.748L618.956 211.86C616.539 207.457 615.295 202.395 615.295 196.6H609.295ZM613.719 214.787C616.761 220.137 620.931 224.364 626.197 227.419L629.208 222.229C624.874 219.716 621.46 216.263 618.934 211.821L613.719 214.787ZM626.237 227.442C631.521 230.401 637.408 231.856 643.831 231.856V225.856C638.349 225.856 633.484 224.623 629.168 222.206L626.237 227.442ZM783.331 150.664L782.086 153.394L782.094 153.397L782.101 153.401L783.331 150.664ZM798.595 202.216L801.111 203.849L801.117 203.839L801.124 203.829L798.595 202.216ZM783.331 214.888L784.541 217.633L784.551 217.629L784.56 217.625L783.331 214.888ZM739.843 219.208V216.208H736.843V219.208H739.843ZM739.843 247V250H742.843V247H739.843ZM716.515 247H713.515V250H716.515V247ZM716.515 146.2V143.2H713.515V146.2H716.515ZM774.835 195.736L776.731 198.061L776.749 198.046L776.767 198.031L774.835 195.736ZM774.835 169.816L772.902 172.111L772.92 172.126L772.938 172.141L774.835 169.816ZM739.843 165.208V162.208H736.843V165.208H739.843ZM739.843 200.2H736.843V203.2H739.843V200.2ZM760.147 149.2C768.747 149.2 776.032 150.634 782.086 153.394L784.575 147.934C777.573 144.742 769.402 143.2 760.147 143.2V149.2ZM782.101 153.401C788.261 156.168 792.875 160.035 796.078 164.969L801.111 161.703C797.21 155.693 791.648 151.112 784.56 147.927L782.101 153.401ZM796.078 164.969C799.27 169.886 800.923 175.78 800.923 182.776H806.923C806.923 174.796 805.023 167.73 801.111 161.703L796.078 164.969ZM800.923 182.776C800.923 189.667 799.274 195.573 796.065 200.603L801.124 203.829C805.019 197.723 806.923 190.669 806.923 182.776H800.923ZM796.078 200.583C792.875 205.517 788.261 209.384 782.101 212.151L784.56 217.625C791.648 214.44 797.21 209.859 801.111 203.849L796.078 200.583ZM782.12 212.143C776.056 214.818 768.759 216.208 760.147 216.208V222.208C769.39 222.208 777.549 220.718 784.541 217.633L782.12 212.143ZM760.147 216.208H739.843V222.208H760.147V216.208ZM736.843 219.208V247H742.843V219.208H736.843ZM739.843 244H716.515V250H739.843V244ZM719.515 247V146.2H713.515V247H719.515ZM716.515 149.2H760.147V143.2H716.515V149.2ZM758.851 203.2C766.224 203.2 772.34 201.642 776.731 198.061L772.938 193.411C770.033 195.782 765.493 197.2 758.851 197.2V203.2ZM776.767 198.031C781.208 194.291 783.307 189.064 783.307 182.776H777.307C777.307 187.624 775.757 191.037 772.902 193.441L776.767 198.031ZM783.307 182.776C783.307 176.413 781.22 171.154 776.731 167.491L772.938 172.141C775.745 174.43 777.307 177.811 777.307 182.776H783.307ZM776.767 167.521C772.374 163.822 766.243 162.208 758.851 162.208V168.208C765.474 168.208 769.999 169.666 772.902 172.111L776.767 167.521ZM758.851 162.208H739.843V168.208H758.851V162.208ZM736.843 165.208V200.2H742.843V165.208H736.843ZM739.843 203.2H758.851V197.2H739.843V203.2ZM831.243 236.776L829.122 238.897L829.128 238.904L829.135 238.91L831.243 236.776ZM819.291 146.2V143.2H816.291V146.2H819.291ZM842.619 146.2H845.619V143.2H842.619V146.2ZM881.787 222.376L884.029 224.369L884.04 224.357L884.051 224.345L881.787 222.376ZM887.547 146.2V143.2H884.547V146.2H887.547ZM910.587 146.2H913.587V143.2H910.587V146.2ZM898.491 236.776L896.383 234.642L896.376 234.648L896.37 234.655L898.491 236.776ZM864.939 245.728C851.105 245.728 840.713 241.916 833.352 234.642L829.135 238.91C837.901 247.572 849.973 251.728 864.939 251.728V245.728ZM833.364 234.655C826.118 227.409 822.291 216.894 822.291 202.648H816.291C816.291 217.97 820.432 230.207 829.122 238.897L833.364 234.655ZM822.291 202.648V146.2H816.291V202.648H822.291ZM819.291 149.2H842.619V143.2H819.291V149.2ZM839.619 146.2V201.784H845.619V146.2H839.619ZM839.619 201.784C839.619 211.148 841.55 218.73 845.926 224.004C850.392 229.385 856.97 231.856 865.083 231.856V225.856C858.22 225.856 853.567 223.815 850.544 220.172C847.432 216.422 845.619 210.468 845.619 201.784H839.619ZM865.083 231.856C872.995 231.856 879.477 229.49 884.029 224.369L879.545 220.383C876.417 223.902 871.763 225.856 865.083 225.856V231.856ZM884.051 224.345C888.577 219.14 890.547 211.415 890.547 201.784H884.547C884.547 210.777 882.677 216.78 879.523 220.407L884.051 224.345ZM890.547 201.784V146.2H884.547V201.784H890.547ZM887.547 149.2H910.587V143.2H887.547V149.2ZM907.587 146.2V202.648H913.587V146.2H907.587ZM907.587 202.648C907.587 216.884 903.718 227.394 896.383 234.642L900.6 238.91C909.393 230.222 913.587 217.98 913.587 202.648H907.587ZM896.37 234.655C889.11 241.915 878.775 245.728 864.939 245.728V251.728C879.903 251.728 891.937 247.573 900.612 238.897L896.37 234.655ZM943.576 245.56L942.717 248.435L942.739 248.441L942.761 248.447L943.576 245.56ZM925.72 237.064L922.985 235.831L922.007 237.999L923.895 239.446L925.72 237.064ZM933.64 219.496L935.414 217.077L932.427 214.886L930.905 218.263L933.64 219.496ZM949.048 227.128L949.969 224.273L949.969 224.273L949.048 227.128ZM981.592 227.128L983.146 229.694L983.174 229.677L983.202 229.659L981.592 227.128ZM983.464 213.304L981.463 215.54L981.525 215.595L981.589 215.647L983.464 213.304ZM976.264 209.416L975.315 212.262L975.329 212.267L975.342 212.271L976.264 209.416ZM964.456 206.248L963.762 209.167L963.772 209.169L963.781 209.171L964.456 206.248ZM945.592 200.776L946.639 197.965L946.639 197.965L945.592 200.776ZM932.92 191.992L930.642 193.944L930.655 193.96L930.668 193.975L932.92 191.992ZM932.488 160.024L934.976 161.7L934.984 161.688L934.991 161.677L932.488 160.024ZM946.744 148.648L945.552 145.895L945.544 145.898L945.537 145.901L946.744 148.648ZM989.08 146.776L989.807 143.866L989.807 143.866L989.08 146.776ZM1005.21 153.4L1007.99 154.53L1008.94 152.193L1006.8 150.856L1005.21 153.4ZM998.008 171.112L996.528 173.722L999.5 175.407L1000.79 172.242L998.008 171.112ZM955.528 166.36L953.863 163.864L953.846 163.876L953.828 163.888L955.528 166.36ZM956.248 182.488L954.935 185.186L954.978 185.207L955.022 185.226L956.248 182.488ZM972.808 187.384L973.501 184.465L973.478 184.46L973.454 184.455L972.808 187.384ZM991.672 192.856L992.719 190.045L992.719 190.045L991.672 192.856ZM1004.2 201.496L1001.95 203.475L1001.96 203.491L1001.97 203.506L1004.2 201.496ZM1004.63 233.32L1002.15 231.633L1002.14 231.644L1004.63 233.32ZM990.232 244.552L989.04 241.799L989.04 241.799L990.232 244.552ZM966.76 245.728C959.06 245.728 951.607 244.708 944.39 242.673L942.761 248.447C950.52 250.636 958.523 251.728 966.76 251.728V245.728ZM944.434 242.685C937.275 240.547 931.683 237.853 927.544 234.682L923.895 239.446C928.78 243.187 935.092 246.157 942.717 248.435L944.434 242.685ZM928.454 238.297L936.374 220.729L930.905 218.263L922.985 235.831L928.454 238.297ZM931.865 221.915C936.484 225.302 941.919 227.981 948.126 229.983L949.969 224.273C944.272 222.435 939.435 220.026 935.414 217.077L931.865 221.915ZM948.126 229.983C954.361 231.994 960.623 233.008 966.904 233.008V227.008C961.28 227.008 955.638 226.102 949.969 224.273L948.126 229.983ZM966.904 233.008C973.703 233.008 979.269 232.043 983.146 229.694L980.037 224.562C977.578 226.053 973.352 227.008 966.904 227.008V233.008ZM983.202 229.659C987.083 227.19 989.344 223.667 989.344 219.208H983.344C983.344 221.277 982.436 223.034 979.981 224.597L983.202 229.659ZM989.344 219.208C989.344 215.871 987.949 213.05 985.338 210.961L981.589 215.647C982.818 216.63 983.344 217.745 983.344 219.208H989.344ZM985.464 211.068C983.253 209.09 980.453 207.615 977.185 206.561L975.342 212.271C978.026 213.137 980.026 214.254 981.463 215.54L985.464 211.068ZM977.212 206.57C974.202 205.566 970.161 204.486 965.13 203.325L963.781 209.171C968.734 210.314 972.565 211.346 975.315 212.262L977.212 206.57ZM965.149 203.329C957.535 201.521 951.377 199.73 946.639 197.965L944.544 203.587C949.598 205.47 956.016 207.327 963.762 209.167L965.149 203.329ZM946.639 197.965C942.22 196.318 938.405 193.681 935.171 190.009L930.668 193.975C934.538 198.367 939.171 201.586 944.544 203.587L946.639 197.965ZM935.197 190.04C932.32 186.683 930.736 182.063 930.736 175.864H924.736C924.736 183.105 926.607 189.237 930.642 193.944L935.197 190.04ZM930.736 175.864C930.736 170.584 932.153 165.892 934.976 161.7L929.999 158.348C926.486 163.564 924.736 169.432 924.736 175.864H930.736ZM934.991 161.677C937.782 157.449 942.034 153.994 947.95 151.395L945.537 145.901C938.781 148.87 933.529 152.999 929.984 158.371L934.991 161.677ZM947.935 151.401C953.893 148.823 961.287 147.472 970.216 147.472V141.472C960.712 141.472 952.458 142.905 945.552 145.895L947.935 151.401ZM970.216 147.472C976.406 147.472 982.45 148.211 988.352 149.686L989.807 143.866C983.421 142.269 976.889 141.472 970.216 141.472V147.472ZM988.352 149.686C994.24 151.159 999.316 153.255 1003.62 155.944L1006.8 150.856C1001.88 147.785 996.207 145.465 989.807 143.866L988.352 149.686ZM1002.43 152.27L995.228 169.982L1000.79 172.242L1007.99 154.53L1002.43 152.27ZM999.487 168.502C989.792 163.005 979.975 160.192 970.072 160.192V166.192C978.792 166.192 987.599 168.659 996.528 173.722L999.487 168.502ZM970.072 160.192C963.327 160.192 957.764 161.263 953.863 163.864L957.192 168.856C959.627 167.233 963.76 166.192 970.072 166.192V160.192ZM953.828 163.888C950.017 166.508 947.92 170.18 947.92 174.712H953.92C953.92 172.332 954.894 170.436 957.227 168.832L953.828 163.888ZM947.92 174.712C947.92 176.982 948.513 179.099 949.777 180.944C951.025 182.766 952.81 184.152 954.935 185.186L957.56 179.79C956.133 179.096 955.254 178.322 954.726 177.552C954.214 176.805 953.92 175.898 953.92 174.712H947.92ZM955.022 185.226C958.954 186.985 964.713 188.669 972.161 190.313L973.454 184.455C966.118 182.835 960.837 181.255 957.473 179.75L955.022 185.226ZM972.114 190.303C979.728 192.111 985.886 193.902 990.624 195.667L992.719 190.045C987.665 188.162 981.247 186.305 973.501 184.465L972.114 190.303ZM990.624 195.667C995.054 197.318 998.816 199.911 1001.95 203.475L1006.45 199.517C1002.67 195.209 998.081 192.042 992.719 190.045L990.624 195.667ZM1001.97 203.506C1004.9 206.755 1006.53 211.297 1006.53 217.48H1012.53C1012.53 210.223 1010.6 204.109 1006.43 199.486L1001.97 203.506ZM1006.53 217.48C1006.53 222.633 1005.08 227.326 1002.15 231.633L1007.11 235.007C1010.71 229.714 1012.53 223.847 1012.53 217.48H1006.53ZM1002.14 231.644C999.364 235.771 995.07 239.189 989.04 241.799L991.423 247.305C998.257 244.347 1003.56 240.277 1007.12 234.996L1002.14 231.644ZM989.04 241.799C983.082 244.377 975.688 245.728 966.76 245.728V251.728C976.263 251.728 984.517 250.295 991.423 247.305L989.04 241.799Z" fill="url(#paint0_linear_647_1745)" fill-opacity="0.24"/>
<path d="M106.548 187.4V207H104.56V191.32L96.86 204.508H95.88L88.18 191.404V207H86.192V187.4H87.9L96.412 201.932L104.84 187.4H106.548ZM119.934 187.4H122.006V207H119.934V187.4ZM151.763 187.4V207H150.055L137.455 191.096V207H135.383V187.4H137.091L149.719 203.304V187.4H151.763ZM168.969 189.192H162.081V187.4H177.929V189.192H171.041V207H168.969V189.192ZM214.859 201.764H203.939L201.587 207H199.431L208.391 187.4H210.435L219.395 207H217.211L214.859 201.764ZM214.103 200.084L209.399 189.556L204.695 200.084H214.103ZM246.017 187.4V207H244.309L231.709 191.096V207H229.637V187.4H231.345L243.973 203.304V187.4H246.017ZM282.311 207.168C280.369 207.168 278.605 206.739 277.019 205.88C275.451 205.003 274.219 203.808 273.323 202.296C272.445 200.784 272.007 199.085 272.007 197.2C272.007 195.315 272.445 193.616 273.323 192.104C274.219 190.592 275.451 189.407 277.019 188.548C278.605 187.671 280.369 187.232 282.311 187.232C284.252 187.232 285.997 187.661 287.547 188.52C289.115 189.379 290.347 190.573 291.243 192.104C292.139 193.616 292.587 195.315 292.587 197.2C292.587 199.085 292.139 200.793 291.243 202.324C290.347 203.836 289.115 205.021 287.547 205.88C285.997 206.739 284.252 207.168 282.311 207.168ZM282.311 205.32C283.86 205.32 285.26 204.975 286.511 204.284C287.761 203.575 288.741 202.604 289.451 201.372C290.16 200.121 290.515 198.731 290.515 197.2C290.515 195.669 290.16 194.288 289.451 193.056C288.741 191.805 287.761 190.835 286.511 190.144C285.26 189.435 283.86 189.08 282.311 189.08C280.761 189.08 279.352 189.435 278.083 190.144C276.832 190.835 275.843 191.805 275.115 193.056C274.405 194.288 274.051 195.669 274.051 197.2C274.051 198.731 274.405 200.121 275.115 201.372C275.843 202.604 276.832 203.575 278.083 204.284C279.352 204.975 280.761 205.32 282.311 205.32ZM312.743 207.168C310.802 207.168 309.047 206.739 307.479 205.88C305.93 205.021 304.707 203.836 303.811 202.324C302.934 200.793 302.495 199.085 302.495 197.2C302.495 195.315 302.934 193.616 303.811 192.104C304.707 190.573 305.939 189.379 307.507 188.52C309.075 187.661 310.83 187.232 312.771 187.232C314.227 187.232 315.571 187.475 316.803 187.96C318.035 188.445 319.08 189.155 319.939 190.088L318.623 191.404C317.092 189.855 315.16 189.08 312.827 189.08C311.278 189.08 309.868 189.435 308.599 190.144C307.33 190.853 306.331 191.824 305.603 193.056C304.894 194.288 304.539 195.669 304.539 197.2C304.539 198.731 304.894 200.112 305.603 201.344C306.331 202.576 307.33 203.547 308.599 204.256C309.868 204.965 311.278 205.32 312.827 205.32C315.179 205.32 317.111 204.536 318.623 202.968L319.939 204.284C319.08 205.217 318.026 205.936 316.775 206.44C315.543 206.925 314.199 207.168 312.743 207.168ZM334.918 189.192H328.03V187.4H343.878V189.192H336.99V207H334.918V189.192ZM362.483 207.168C360.541 207.168 358.777 206.739 357.191 205.88C355.623 205.003 354.391 203.808 353.495 202.296C352.617 200.784 352.179 199.085 352.179 197.2C352.179 195.315 352.617 193.616 353.495 192.104C354.391 190.592 355.623 189.407 357.191 188.548C358.777 187.671 360.541 187.232 362.483 187.232C364.424 187.232 366.169 187.661 367.719 188.52C369.287 189.379 370.519 190.573 371.415 192.104C372.311 193.616 372.759 195.315 372.759 197.2C372.759 199.085 372.311 200.793 371.415 202.324C370.519 203.836 369.287 205.021 367.719 205.88C366.169 206.739 364.424 207.168 362.483 207.168ZM362.483 205.32C364.032 205.32 365.432 204.975 366.683 204.284C367.933 203.575 368.913 202.604 369.623 201.372C370.332 200.121 370.687 198.731 370.687 197.2C370.687 195.669 370.332 194.288 369.623 193.056C368.913 191.805 367.933 190.835 366.683 190.144C365.432 189.435 364.032 189.08 362.483 189.08C360.933 189.08 359.524 189.435 358.255 190.144C357.004 190.835 356.015 191.805 355.287 193.056C354.577 194.288 354.223 195.669 354.223 197.2C354.223 198.731 354.577 200.121 355.287 201.372C356.015 202.604 357.004 203.575 358.255 204.284C359.524 204.975 360.933 205.32 362.483 205.32ZM391.739 187.4C394.24 187.4 396.2 187.997 397.619 189.192C399.038 190.387 399.747 192.029 399.747 194.12C399.747 196.211 399.038 197.853 397.619 199.048C396.2 200.224 394.24 200.812 391.739 200.812H386.475V207H384.403V187.4H391.739ZM391.683 198.992C393.624 198.992 395.108 198.572 396.135 197.732C397.162 196.873 397.675 195.669 397.675 194.12C397.675 192.533 397.162 191.32 396.135 190.48C395.108 189.621 393.624 189.192 391.683 189.192H386.475V198.992H391.683ZM419.26 207.168C416.721 207.168 414.743 206.44 413.324 204.984C411.905 203.528 411.196 201.409 411.196 198.628V187.4H413.268V198.544C413.268 200.821 413.781 202.52 414.808 203.64C415.835 204.76 417.319 205.32 419.26 205.32C421.22 205.32 422.713 204.76 423.74 203.64C424.767 202.52 425.28 200.821 425.28 198.544V187.4H427.296V198.628C427.296 201.409 426.587 203.528 425.168 204.984C423.768 206.44 421.799 207.168 419.26 207.168ZM445.944 207.168C444.488 207.168 443.088 206.935 441.744 206.468C440.418 206.001 439.392 205.385 438.664 204.62L439.476 203.024C440.185 203.733 441.128 204.312 442.304 204.76C443.48 205.189 444.693 205.404 445.944 205.404C447.698 205.404 449.014 205.087 449.892 204.452C450.769 203.799 451.208 202.959 451.208 201.932C451.208 201.148 450.965 200.523 450.48 200.056C450.013 199.589 449.434 199.235 448.744 198.992C448.053 198.731 447.092 198.451 445.86 198.152C444.385 197.779 443.209 197.424 442.332 197.088C441.454 196.733 440.698 196.201 440.064 195.492C439.448 194.783 439.14 193.821 439.14 192.608C439.14 191.619 439.401 190.723 439.924 189.92C440.446 189.099 441.249 188.445 442.332 187.96C443.414 187.475 444.758 187.232 446.364 187.232C447.484 187.232 448.576 187.391 449.64 187.708C450.722 188.007 451.656 188.427 452.44 188.968L451.74 190.62C450.918 190.079 450.041 189.677 449.108 189.416C448.174 189.136 447.26 188.996 446.364 188.996C444.646 188.996 443.349 189.332 442.472 190.004C441.613 190.657 441.184 191.507 441.184 192.552C441.184 193.336 441.417 193.971 441.884 194.456C442.369 194.923 442.966 195.287 443.676 195.548C444.404 195.791 445.374 196.061 446.588 196.36C448.025 196.715 449.182 197.069 450.06 197.424C450.956 197.76 451.712 198.283 452.328 198.992C452.944 199.683 453.252 200.625 453.252 201.82C453.252 202.809 452.981 203.715 452.44 204.536C451.917 205.339 451.105 205.983 450.004 206.468C448.902 206.935 447.549 207.168 445.944 207.168Z" fill="white"/>
<defs>
<linearGradient id="paint0_linear_647_1745" x1="516" y1="-2.21037e-06" x2="525.31" y2="231.685" gradientUnits="userSpaceOnUse">
<stop stop-color="#ABFC4F"/>
<stop offset="1" stop-color="#3DBF69" stop-opacity="0.47"/>
</linearGradient>
</defs>
</svg>
