<svg width="1001" height="260" viewBox="0 0 1001 260" fill="none" xmlns="http://www.w3.org/2000/svg">
<path d="M32.4 111.96L30.9741 114.599L30.9804 114.603L30.9867 114.606L32.4 111.96ZM12.672 93.384L10.0886 94.9091L10.0995 94.9276L10.1106 94.9458L12.672 93.384ZM12.672 39.96L10.1022 38.4119L10.0968 38.4211L12.672 39.96ZM32.4 21.24L30.9867 18.5938L30.9804 18.5971L30.9741 18.6005L32.4 21.24ZM108.72 39.96L106.15 41.508L106.154 41.5149L106.159 41.5218L108.72 39.96ZM108.72 93.384L111.281 94.9458L111.286 94.9389L111.29 94.932L108.72 93.384ZM88.992 111.96L90.4179 114.599L88.992 111.96ZM76.896 94.824L78.3618 97.4415L78.3816 97.4305L78.4012 97.4191L76.896 94.824ZM88.128 83.304L85.5201 81.8211L85.5091 81.8406L85.4983 81.8602L88.128 83.304ZM88.128 49.896L85.4983 51.3398L85.5091 51.3594L85.5201 51.3789L88.128 49.896ZM76.896 38.52L75.3909 41.1151L75.4104 41.1265L75.4302 41.1375L76.896 38.52ZM44.64 38.52L46.1058 41.1375L46.1256 41.1265L46.1452 41.1151L44.64 38.52ZM33.264 49.896L30.6561 48.4131L30.6451 48.4326L30.6343 48.4522L33.264 49.896ZM33.264 83.304L30.6343 84.7478L30.6451 84.7674L30.6561 84.7869L33.264 83.304ZM44.64 94.824L43.1348 97.4191L43.1544 97.4305L43.1742 97.4415L44.64 94.824ZM60.768 115.728C50.7504 115.728 41.7871 113.572 33.8133 109.314L30.9867 114.606C39.9089 119.372 49.8577 121.728 60.768 121.728V115.728ZM33.8259 109.321C25.9266 105.053 19.7485 99.227 15.2334 91.8222L10.1106 94.9458C15.1955 103.285 22.1694 109.843 30.9741 114.599L33.8259 109.321ZM15.2554 91.8589C10.8429 84.3847 8.616 75.9897 8.616 66.6H2.616C2.616 76.9863 5.09308 86.4473 10.0886 94.9091L15.2554 91.8589ZM8.616 66.6C8.616 57.21 10.8429 48.8694 15.2472 41.4989L10.0968 38.4211C5.09308 46.7946 2.616 56.214 2.616 66.6H8.616ZM15.2417 41.508C19.759 34.0094 25.9358 28.142 33.8259 23.8795L30.9741 18.6005C22.1602 23.362 15.185 29.9746 10.1023 38.412L15.2417 41.508ZM33.8133 23.8862C41.7871 19.6275 50.7504 17.472 60.768 17.472V11.472C49.8577 11.472 39.9089 13.8285 30.9867 18.5938L33.8133 23.8862ZM60.768 17.472C70.7861 17.472 79.6957 19.6276 87.5661 23.8795L90.4179 18.6005C81.5843 13.8284 71.6779 11.472 60.768 11.472V17.472ZM87.5661 23.8795C95.4563 28.142 101.633 34.0094 106.15 41.508L111.29 38.412C106.207 29.9746 99.2318 23.362 90.4179 18.6005L87.5661 23.8795ZM106.159 41.5218C110.651 48.8892 112.92 57.2215 112.92 66.6H118.92C118.92 56.2025 116.389 46.7748 111.281 38.3982L106.159 41.5218ZM112.92 66.6C112.92 75.9782 110.651 84.365 106.15 91.836L111.29 94.932C116.389 86.467 118.92 76.9978 118.92 66.6H112.92ZM106.159 91.8222C101.644 99.227 95.4654 105.053 87.5661 109.321L90.4179 114.599C99.2226 109.843 106.197 103.285 111.281 94.9458L106.159 91.8222ZM87.5661 109.321C79.6957 113.572 70.7861 115.728 60.768 115.728V121.728C71.6779 121.728 81.5843 119.372 90.4179 114.599L87.5661 109.321ZM60.768 101.856C67.19 101.856 73.0777 100.401 78.3618 97.4415L75.4302 92.2065C71.1143 94.6234 66.25 95.856 60.768 95.856V101.856ZM78.4012 97.4191C83.6772 94.359 87.8086 90.1195 90.7577 84.7478L85.4983 81.8602C83.0714 86.2805 79.7149 89.721 75.3909 92.2289L78.4012 97.4191ZM90.7359 84.7869C93.8039 79.3915 95.304 73.3025 95.304 66.6H89.304C89.304 72.3775 88.0202 77.4245 85.5201 81.8211L90.7359 84.7869ZM95.304 66.6C95.304 59.8975 93.8039 53.8085 90.7359 48.4131L85.5201 51.3789C88.0202 55.7755 89.304 60.8225 89.304 66.6H95.304ZM90.7577 48.4522C87.8037 43.0716 83.6599 38.8694 78.3618 35.9025L75.4302 41.1375C79.7321 43.5466 83.0763 46.9284 85.4983 51.3398L90.7577 48.4522ZM78.4012 35.9249C73.1107 32.8564 67.2089 31.344 60.768 31.344V37.344C66.2311 37.344 71.0813 38.6156 75.3909 41.1151L78.4012 35.9249ZM60.768 31.344C54.3271 31.344 48.4253 32.8564 43.1348 35.9249L46.1452 41.1151C50.4547 38.6156 55.3049 37.344 60.768 37.344V31.344ZM43.1742 35.9025C37.8855 38.8642 33.7036 43.0538 30.6561 48.4131L35.8719 51.3789C38.3924 46.9462 41.7945 43.5518 46.1058 41.1375L43.1742 35.9025ZM30.6343 48.4522C27.6759 53.8406 26.232 59.9155 26.232 66.6H32.232C32.232 60.8045 33.4761 55.7434 35.8937 51.3398L30.6343 48.4522ZM26.232 66.6C26.232 73.2845 27.6759 79.3594 30.6343 84.7478L35.8937 81.8602C33.4761 77.4566 32.232 72.3955 32.232 66.6H26.232ZM30.6561 84.7869C33.6986 90.1375 37.8681 94.3644 43.1348 97.4191L46.1452 92.2289C41.8119 89.7156 38.3974 86.2625 35.8719 81.8211L30.6561 84.7869ZM43.1742 97.4415C48.4583 100.401 54.346 101.856 60.768 101.856V95.856C55.286 95.856 50.4217 94.6234 46.1058 92.2065L43.1742 97.4415ZM144.54 106.776L142.419 108.897L142.425 108.904L142.431 108.91L144.54 106.776ZM132.588 16.2V13.2H129.588V16.2H132.588ZM155.916 16.2H158.916V13.2H155.916V16.2ZM195.084 92.376L197.326 94.3691L197.337 94.3569L197.348 94.3445L195.084 92.376ZM200.844 16.2V13.2H197.844V16.2H200.844ZM223.884 16.2H226.884V13.2H223.884V16.2ZM211.788 106.776L209.679 104.642L209.673 104.648L209.667 104.655L211.788 106.776ZM178.236 115.728C164.402 115.728 154.01 111.916 146.649 104.642L142.431 108.91C151.198 117.572 163.27 121.728 178.236 121.728V115.728ZM146.661 104.655C139.415 97.4086 135.588 86.8943 135.588 72.648H129.588C129.588 87.9697 133.729 100.207 142.419 108.897L146.661 104.655ZM135.588 72.648V16.2H129.588V72.648H135.588ZM132.588 19.2H155.916V13.2H132.588V19.2ZM152.916 16.2V71.784H158.916V16.2H152.916ZM152.916 71.784C152.916 81.1483 154.847 88.7298 159.223 94.0037C163.689 99.3849 170.267 101.856 178.38 101.856V95.856C171.517 95.856 166.863 93.8151 163.841 90.1723C160.729 86.4222 158.916 80.4677 158.916 71.784H152.916ZM178.38 101.856C186.292 101.856 192.774 99.4901 197.326 94.3691L192.842 90.3829C189.714 93.9019 185.06 95.856 178.38 95.856V101.856ZM197.348 94.3445C201.874 89.1398 203.844 81.4151 203.844 71.784H197.844C197.844 80.7769 195.974 86.7802 192.82 90.4075L197.348 94.3445ZM203.844 71.784V16.2H197.844V71.784H203.844ZM200.844 19.2H223.884V13.2H200.844V19.2ZM220.884 16.2V72.648H226.884V16.2H220.884ZM220.884 72.648C220.884 86.8845 217.014 97.3943 209.679 104.642L213.897 108.91C222.69 100.222 226.884 87.9795 226.884 72.648H220.884ZM209.667 104.655C202.406 111.915 192.072 115.728 178.236 115.728V121.728C193.2 121.728 205.234 117.573 213.909 108.897L209.667 104.655ZM311.16 117L308.694 118.708L309.589 120H311.16V117ZM291.72 88.92L294.187 87.2124L293.292 85.92H291.72V88.92ZM270.264 88.92V85.92H267.264V88.92H270.264ZM270.264 117V120H273.264V117H270.264ZM246.936 117H243.936V120H246.936V117ZM246.936 16.2V13.2H243.936V16.2H246.936ZM313.752 20.664L312.508 23.3937L312.515 23.3971L312.523 23.4005L313.752 20.664ZM328.872 72.216L326.376 70.5519L326.369 70.5622L328.872 72.216ZM313.608 84.6L312.412 81.8488L309.05 83.3104L311.148 86.3167L313.608 84.6ZM336.216 117V120H341.968L338.677 115.283L336.216 117ZM305.256 39.816L303.324 42.1107L303.342 42.1258L303.36 42.1406L305.256 39.816ZM270.264 35.208V32.208H267.264V35.208H270.264ZM270.264 70.344H267.264V73.344H270.264V70.344ZM305.256 65.736L307.189 68.0307L305.256 65.736ZM313.627 115.292L294.187 87.2124L289.254 90.6276L308.694 118.708L313.627 115.292ZM291.72 85.92H290.568V91.92H291.72V85.92ZM290.568 85.92H270.264V91.92H290.568V85.92ZM267.264 88.92V117H273.264V88.92H267.264ZM270.264 114H246.936V120H270.264V114ZM249.936 117V16.2H243.936V117H249.936ZM246.936 19.2H290.568V13.2H246.936V19.2ZM290.568 19.2C299.169 19.2 306.454 20.6338 312.508 23.3937L314.997 17.9343C307.995 14.7422 299.824 13.2 290.568 13.2V19.2ZM312.523 23.4005C318.682 26.1678 323.297 30.0348 326.5 34.9694L331.533 31.7026C327.632 25.6932 322.07 21.1122 314.982 17.9275L312.523 23.4005ZM326.5 34.9694C329.692 39.8863 331.344 45.7799 331.344 52.776H337.344C337.344 44.7961 335.445 37.7297 331.533 31.7026L326.5 34.9694ZM331.344 52.776C331.344 59.7564 329.652 65.6387 326.376 70.5519L331.369 73.8801C335.389 67.8493 337.344 60.7716 337.344 52.776H331.344ZM326.369 70.5622C323.175 75.3964 318.57 79.1714 312.412 81.8488L314.805 87.3512C321.895 84.2686 327.465 79.7876 331.375 73.8698L326.369 70.5622ZM311.148 86.3167L333.756 118.717L338.677 115.283L316.069 82.8833L311.148 86.3167ZM336.216 114H311.16V120H336.216V114ZM313.728 52.776C313.728 46.4132 311.642 41.1539 307.153 37.4914L303.36 42.1406C306.167 44.4301 307.728 47.8108 307.728 52.776H313.728ZM307.189 37.5213C302.796 33.822 296.665 32.208 289.272 32.208V38.208C295.896 38.208 300.421 39.666 303.324 42.1107L307.189 37.5213ZM289.272 32.208H270.264V38.208H289.272V32.208ZM267.264 35.208V70.344H273.264V35.208H267.264ZM270.264 73.344H289.272V67.344H270.264V73.344ZM289.272 73.344C296.665 73.344 302.796 71.73 307.189 68.0307L303.324 63.4413C300.421 65.886 295.896 67.344 289.272 67.344V73.344ZM307.189 68.0307C311.63 64.2906 313.728 59.0643 313.728 52.776H307.728C307.728 57.6237 306.179 61.0374 303.324 63.4413L307.189 68.0307ZM32.256 242.104L30.8173 244.737L30.8355 244.746L30.8537 244.756L32.256 242.104ZM12.672 223.528L10.0886 225.053L10.0995 225.072L10.1106 225.09L12.672 223.528ZM12.672 169.816L10.1022 168.268L10.0968 168.277L12.672 169.816ZM32.256 151.24L33.671 153.885L33.6819 153.879L32.256 151.24ZM83.952 149.08L82.7476 151.828L82.7544 151.831L82.7613 151.834L83.952 149.08ZM101.808 162.328L103.843 164.532L105.938 162.598L104.113 160.407L101.808 162.328ZM86.832 176.152L84.564 178.116L86.5912 180.457L88.8668 178.356L86.832 176.152ZM44.784 168.52L46.2278 171.15L46.2474 171.139L46.2669 171.128L44.784 168.52ZM33.264 179.896L30.6561 178.413L30.6451 178.433L30.6343 178.452L33.264 179.896ZM33.264 213.304L30.6343 214.748L30.6451 214.767L30.6561 214.787L33.264 213.304ZM44.784 224.824L43.3011 227.432L43.3206 227.443L43.3402 227.454L44.784 224.824ZM86.832 216.904L88.8668 214.7L86.5775 212.586L84.5523 214.954L86.832 216.904ZM101.808 230.728L104.128 232.63L105.921 230.442L103.843 228.524L101.808 230.728ZM83.952 244.12L82.7613 241.366L83.952 244.12ZM60.192 245.728C50.3651 245.728 41.5412 243.62 33.6583 239.452L30.8537 244.756C39.6748 249.42 49.4749 251.728 60.192 251.728V245.728ZM33.6947 239.471C25.8904 235.206 19.7537 229.379 15.2334 221.966L10.1106 225.09C15.1903 233.421 22.1096 239.978 30.8173 244.737L33.6947 239.471ZM15.2554 222.003C10.8456 214.533 8.616 206.091 8.616 196.6H2.616C2.616 207.077 5.0904 216.587 10.0886 225.053L15.2554 222.003ZM8.616 196.6C8.616 187.108 10.8456 178.721 15.2472 171.355L10.0968 168.277C5.09036 176.655 2.616 186.124 2.616 196.6H8.616ZM15.2417 171.364C19.7608 163.862 25.8885 158.048 33.671 153.885L30.841 148.595C22.1115 153.264 15.1832 159.834 10.1023 168.268L15.2417 171.364ZM33.6819 153.879C41.5563 149.625 50.4189 147.472 60.336 147.472V141.472C49.5171 141.472 39.6597 143.831 30.8301 148.601L33.6819 153.879ZM60.336 147.472C68.7159 147.472 76.1695 148.944 82.7476 151.828L85.1564 146.332C77.7185 143.072 69.4281 141.472 60.336 141.472V147.472ZM82.7613 151.834C89.4482 154.725 95.0141 158.862 99.5033 164.249L104.113 160.407C99.0019 154.274 92.6638 149.579 85.1427 146.326L82.7613 151.834ZM99.7732 160.124L84.7972 173.948L88.8668 178.356L103.843 164.532L99.7732 160.124ZM89.1 174.188C81.7357 165.683 72.4709 161.344 61.488 161.344V167.344C70.6651 167.344 78.2963 170.877 84.564 178.116L89.1 174.188ZM61.488 161.344C54.7855 161.344 48.6965 162.844 43.3011 165.912L46.2669 171.128C50.6635 168.628 55.7105 167.344 61.488 167.344V161.344ZM43.3402 165.89C37.9533 168.848 33.7121 173.039 30.6561 178.413L35.8719 181.379C38.3839 176.961 41.8228 173.568 46.2278 171.15L43.3402 165.89ZM30.6343 178.452C27.6759 183.841 26.232 189.915 26.232 196.6H32.232C32.232 190.805 33.4761 185.743 35.8937 181.34L30.6343 178.452ZM26.232 196.6C26.232 203.285 27.6759 209.359 30.6343 214.748L35.8937 211.86C33.4761 207.457 32.232 202.395 32.232 196.6H26.232ZM30.6561 214.787C33.707 220.152 37.9357 224.381 43.3011 227.432L46.2669 222.216C41.8403 219.699 38.389 216.248 35.8719 211.821L30.6561 214.787ZM43.3402 227.454C48.7286 230.412 54.8035 231.856 61.488 231.856V225.856C55.6925 225.856 50.6314 224.612 46.2278 222.194L43.3402 227.454ZM61.488 231.856C72.4844 231.856 81.752 227.458 89.1117 218.854L84.5523 214.954C78.28 222.286 70.6516 225.856 61.488 225.856V231.856ZM84.7972 219.108L99.7732 232.932L103.843 228.524L88.8668 214.7L84.7972 219.108ZM99.4878 228.826C94.9979 234.304 89.4364 238.48 82.7613 241.366L85.1427 246.874C92.6756 243.616 99.0181 238.864 104.128 232.63L99.4878 228.826ZM82.7613 241.366C76.0787 244.256 68.5711 245.728 60.192 245.728V251.728C69.2849 251.728 77.6173 250.128 85.1427 246.874L82.7613 241.366ZM135.9 241.96L134.474 244.599L134.48 244.603L134.487 244.606L135.9 241.96ZM116.172 223.384L113.589 224.909L113.599 224.928L113.611 224.946L116.172 223.384ZM116.172 169.96L113.602 168.412L113.597 168.421L116.172 169.96ZM135.9 151.24L134.487 148.594L134.48 148.597L134.474 148.601L135.9 151.24ZM212.22 169.96L209.65 171.508L209.654 171.515L209.659 171.522L212.22 169.96ZM212.22 223.384L214.781 224.946L214.786 224.939L214.79 224.932L212.22 223.384ZM192.492 241.96L193.918 244.599L192.492 241.96ZM180.396 224.824L181.862 227.442L181.882 227.43L181.901 227.419L180.396 224.824ZM191.628 213.304L189.02 211.821L189.009 211.841L188.998 211.86L191.628 213.304ZM191.628 179.896L188.998 181.34L189.009 181.359L189.02 181.379L191.628 179.896ZM180.396 168.52L178.891 171.115L178.91 171.126L178.93 171.138L180.396 168.52ZM148.14 168.52L149.606 171.138L149.626 171.126L149.645 171.115L148.14 168.52ZM136.764 179.896L134.156 178.413L134.145 178.433L134.134 178.452L136.764 179.896ZM136.764 213.304L134.134 214.748L134.145 214.767L134.156 214.787L136.764 213.304ZM148.14 224.824L146.635 227.419L146.654 227.43L146.674 227.442L148.14 224.824ZM164.268 245.728C154.25 245.728 145.287 243.572 137.313 239.314L134.487 244.606C143.409 249.372 153.358 251.728 164.268 251.728V245.728ZM137.326 239.321C129.427 235.053 123.249 229.227 118.733 221.822L113.611 224.946C118.695 233.285 125.669 239.843 134.474 244.599L137.326 239.321ZM118.755 221.859C114.343 214.385 112.116 205.99 112.116 196.6H106.116C106.116 206.986 108.593 216.447 113.589 224.909L118.755 221.859ZM112.116 196.6C112.116 187.21 114.343 178.869 118.747 171.499L113.597 168.421C108.593 176.795 106.116 186.214 106.116 196.6H112.116ZM118.742 171.508C123.259 164.009 129.436 158.142 137.326 153.879L134.474 148.601C125.66 153.362 118.685 159.975 113.602 168.412L118.742 171.508ZM137.313 153.886C145.287 149.628 154.25 147.472 164.268 147.472V141.472C153.358 141.472 143.409 143.828 134.487 148.594L137.313 153.886ZM164.268 147.472C174.286 147.472 183.196 149.628 191.066 153.879L193.918 148.601C185.084 143.828 175.178 141.472 164.268 141.472V147.472ZM191.066 153.879C198.956 158.142 205.133 164.009 209.65 171.508L214.79 168.412C209.707 159.975 202.732 153.362 193.918 148.601L191.066 153.879ZM209.659 171.522C214.151 178.889 216.42 187.222 216.42 196.6H222.42C222.42 186.202 219.889 176.775 214.781 168.398L209.659 171.522ZM216.42 196.6C216.42 205.978 214.151 214.365 209.65 221.836L214.79 224.932C219.889 216.467 222.42 206.998 222.42 196.6H216.42ZM209.659 221.822C205.144 229.227 198.965 235.053 191.066 239.321L193.918 244.599C202.723 239.843 209.697 233.285 214.781 224.946L209.659 221.822ZM191.066 239.321C183.196 243.572 174.286 245.728 164.268 245.728V251.728C175.178 251.728 185.084 249.372 193.918 244.599L191.066 239.321ZM164.268 231.856C170.69 231.856 176.578 230.401 181.862 227.442L178.93 222.206C174.614 224.623 169.75 225.856 164.268 225.856V231.856ZM181.901 227.419C187.177 224.359 191.309 220.119 194.258 214.748L188.998 211.86C186.571 216.281 183.215 219.721 178.891 222.229L181.901 227.419ZM194.236 214.787C197.304 209.391 198.804 203.302 198.804 196.6H192.804C192.804 202.378 191.52 207.424 189.02 211.821L194.236 214.787ZM198.804 196.6C198.804 189.898 197.304 183.809 194.236 178.413L189.02 181.379C191.52 185.775 192.804 190.822 192.804 196.6H198.804ZM194.258 178.452C191.304 173.072 187.16 168.869 181.862 165.902L178.93 171.138C183.232 173.547 186.576 176.928 188.998 181.34L194.258 178.452ZM181.901 165.925C176.611 162.856 170.709 161.344 164.268 161.344V167.344C169.731 167.344 174.581 168.616 178.891 171.115L181.901 165.925ZM164.268 161.344C157.827 161.344 151.925 162.856 146.635 165.925L149.645 171.115C153.955 168.616 158.805 167.344 164.268 167.344V161.344ZM146.674 165.902C141.385 168.864 137.204 173.054 134.156 178.413L139.372 181.379C141.892 176.946 145.295 173.552 149.606 171.138L146.674 165.902ZM134.134 178.452C131.176 183.841 129.732 189.915 129.732 196.6H135.732C135.732 190.805 136.976 185.743 139.394 181.34L134.134 178.452ZM129.732 196.6C129.732 203.285 131.176 209.359 134.134 214.748L139.394 211.86C136.976 207.457 135.732 202.395 135.732 196.6H129.732ZM134.156 214.787C137.199 220.137 141.368 224.364 146.635 227.419L149.645 222.229C145.312 219.716 141.897 216.263 139.372 211.821L134.156 214.787ZM146.674 227.442C151.958 230.401 157.846 231.856 164.268 231.856V225.856C158.786 225.856 153.922 224.623 149.606 222.206L146.674 227.442ZM236.952 146.2V143.2H233.952V146.2H236.952ZM260.28 146.2H263.28V143.2H260.28V146.2ZM260.28 227.992H257.28V230.992H260.28V227.992ZM310.824 227.992H313.824V224.992H310.824V227.992ZM310.824 247V250H313.824V247H310.824ZM236.952 247H233.952V250H236.952V247ZM236.952 149.2H260.28V143.2H236.952V149.2ZM257.28 146.2V227.992H263.28V146.2H257.28ZM260.28 230.992H310.824V224.992H260.28V230.992ZM307.824 227.992V247H313.824V227.992H307.824ZM310.824 244H236.952V250H310.824V244ZM239.952 247V146.2H233.952V247H239.952ZM323.858 146.2V143.2H320.858V146.2H323.858ZM347.186 146.2H350.186V143.2H347.186V146.2ZM347.186 227.992H344.186V230.992H347.186V227.992ZM397.73 227.992H400.73V224.992H397.73V227.992ZM397.73 247V250H400.73V247H397.73ZM323.858 247H320.858V250H323.858V247ZM323.858 149.2H347.186V143.2H323.858V149.2ZM344.186 146.2V227.992H350.186V146.2H344.186ZM347.186 230.992H397.73V224.992H347.186V230.992ZM394.73 227.992V247H400.73V227.992H394.73ZM397.73 244H323.858V250H397.73V244ZM326.858 247V146.2H320.858V247H326.858ZM488.812 228.28H491.812V225.28H488.812V228.28ZM488.812 247V250H491.812V247H488.812ZM410.764 247H407.764V250H410.764V247ZM410.764 146.2V143.2H407.764V146.2H410.764ZM486.941 146.2H489.941V143.2H486.941V146.2ZM486.941 164.92V167.92H489.941V164.92H486.941ZM433.949 164.92V161.92H430.949V164.92H433.949ZM433.949 186.808H430.949V189.808H433.949V186.808ZM480.749 186.808H483.749V183.808H480.749V186.808ZM480.749 204.952V207.952H483.749V204.952H480.749ZM433.949 204.952V201.952H430.949V204.952H433.949ZM433.949 228.28H430.949V231.28H433.949V228.28ZM485.812 228.28V247H491.812V228.28H485.812ZM488.812 244H410.764V250H488.812V244ZM413.764 247V146.2H407.764V247H413.764ZM410.764 149.2H486.941V143.2H410.764V149.2ZM483.941 146.2V164.92H489.941V146.2H483.941ZM486.941 161.92H433.949V167.92H486.941V161.92ZM430.949 164.92V186.808H436.949V164.92H430.949ZM433.949 189.808H480.749V183.808H433.949V189.808ZM477.749 186.808V204.952H483.749V186.808H477.749ZM480.749 201.952H433.949V207.952H480.749V201.952ZM430.949 204.952V228.28H436.949V204.952H430.949ZM433.949 231.28H488.812V225.28H433.949V231.28ZM527.397 242.104L525.958 244.737L525.976 244.746L525.994 244.756L527.397 242.104ZM507.813 223.528L505.229 225.053L505.24 225.072L505.251 225.09L507.813 223.528ZM507.813 169.816L505.243 168.268L505.237 168.277L507.813 169.816ZM527.397 151.24L528.812 153.885L528.823 153.879L527.397 151.24ZM579.093 149.08L577.888 151.828L577.895 151.831L577.902 151.834L579.093 149.08ZM596.949 162.328L598.983 164.532L601.079 162.598L599.253 160.407L596.949 162.328ZM581.973 176.152L579.705 178.116L581.732 180.457L584.007 178.356L581.973 176.152ZM539.925 168.52L541.368 171.15L541.388 171.139L541.408 171.128L539.925 168.52ZM528.405 179.896L525.797 178.413L525.786 178.433L525.775 178.452L528.405 179.896ZM528.405 213.304L525.775 214.748L525.786 214.767L525.797 214.787L528.405 213.304ZM539.925 224.824L538.442 227.432L538.461 227.443L538.481 227.454L539.925 224.824ZM581.973 216.904L584.007 214.7L581.718 212.586L579.693 214.954L581.973 216.904ZM596.949 230.728L599.269 232.63L601.062 230.442L598.983 228.524L596.949 230.728ZM579.093 244.12L577.902 241.366L579.093 244.12ZM555.333 245.728C545.506 245.728 536.682 243.62 528.799 239.452L525.994 244.756C534.815 249.42 544.615 251.728 555.333 251.728V245.728ZM528.835 239.471C521.031 235.206 514.894 229.379 510.374 221.966L505.251 225.09C510.331 233.421 517.25 239.978 525.958 244.737L528.835 239.471ZM510.396 222.003C505.986 214.533 503.757 206.091 503.757 196.6H497.757C497.757 207.077 500.231 216.587 505.229 225.053L510.396 222.003ZM503.757 196.6C503.757 187.108 505.986 178.721 510.388 171.355L505.237 168.277C500.231 176.655 497.757 186.124 497.757 196.6H503.757ZM510.382 171.364C514.901 163.862 521.029 158.048 528.812 153.885L525.982 148.595C517.252 153.264 510.324 159.834 505.243 168.268L510.382 171.364ZM528.823 153.879C536.697 149.625 545.56 147.472 555.477 147.472V141.472C544.658 141.472 534.8 143.831 525.971 148.601L528.823 153.879ZM555.477 147.472C563.857 147.472 571.31 148.944 577.888 151.828L580.297 146.332C572.859 143.072 564.569 141.472 555.477 141.472V147.472ZM577.902 151.834C584.589 154.725 590.155 158.862 594.644 164.249L599.253 160.407C594.143 154.274 587.804 149.579 580.283 146.326L577.902 151.834ZM594.914 160.124L579.938 173.948L584.007 178.356L598.983 164.532L594.914 160.124ZM584.241 174.188C576.876 165.683 567.612 161.344 556.629 161.344V167.344C565.806 167.344 573.437 170.877 579.705 178.116L584.241 174.188ZM556.629 161.344C549.926 161.344 543.837 162.844 538.442 165.912L541.408 171.128C545.804 168.628 550.851 167.344 556.629 167.344V161.344ZM538.481 165.89C533.094 168.848 528.853 173.039 525.797 178.413L531.013 181.379C533.524 176.961 536.963 173.568 541.368 171.15L538.481 165.89ZM525.775 178.452C522.817 183.841 521.373 189.915 521.373 196.6H527.373C527.373 190.805 528.617 185.743 531.034 181.34L525.775 178.452ZM521.373 196.6C521.373 203.285 522.817 209.359 525.775 214.748L531.034 211.86C528.617 207.457 527.373 202.395 527.373 196.6H521.373ZM525.797 214.787C528.848 220.152 533.076 224.381 538.442 227.432L541.408 222.216C536.981 219.699 533.53 216.248 531.013 211.821L525.797 214.787ZM538.481 227.454C543.869 230.412 549.944 231.856 556.629 231.856V225.856C550.833 225.856 545.772 224.612 541.368 222.194L538.481 227.454ZM556.629 231.856C567.625 231.856 576.893 227.458 584.252 218.854L579.693 214.954C573.421 222.286 565.792 225.856 556.629 225.856V231.856ZM579.938 219.108L594.914 232.932L598.983 228.524L584.007 214.7L579.938 219.108ZM594.628 228.826C590.139 234.304 584.577 238.48 577.902 241.366L580.283 246.874C587.816 243.616 594.159 238.864 599.269 232.63L594.628 228.826ZM577.902 241.366C571.219 244.256 563.712 245.728 555.333 245.728V251.728C564.426 251.728 572.758 250.128 580.283 246.874L577.902 241.366ZM632.598 165.208H635.598V162.208H632.598V165.208ZM600.342 165.208H597.342V168.208H600.342V165.208ZM600.342 146.2V143.2H597.342V146.2H600.342ZM688.182 146.2H691.182V143.2H688.182V146.2ZM688.182 165.208V168.208H691.182V165.208H688.182ZM655.926 165.208V162.208H652.926V165.208H655.926ZM655.926 247V250H658.926V247H655.926ZM632.598 247H629.598V250H632.598V247ZM632.598 162.208H600.342V168.208H632.598V162.208ZM603.342 165.208V146.2H597.342V165.208H603.342ZM600.342 149.2H688.182V143.2H600.342V149.2ZM685.182 146.2V165.208H691.182V146.2H685.182ZM688.182 162.208H655.926V168.208H688.182V162.208ZM652.926 165.208V247H658.926V165.208H652.926ZM655.926 244H632.598V250H655.926V244ZM635.598 247V165.208H629.598V247H635.598ZM700.733 146.2V143.2H697.733V146.2H700.733ZM724.061 146.2H727.061V143.2H724.061V146.2ZM724.061 247V250H727.061V247H724.061ZM700.733 247H697.733V250H700.733V247ZM700.733 149.2H724.061V143.2H700.733V149.2ZM721.061 146.2V247H727.061V146.2H721.061ZM724.061 244H700.733V250H724.061V244ZM703.733 247V146.2H697.733V247H703.733ZM768.431 241.96L767.005 244.599L767.012 244.603L767.018 244.606L768.431 241.96ZM748.703 223.384L746.12 224.909L746.131 224.928L746.142 224.946L748.703 223.384ZM748.703 169.96L746.133 168.412L746.128 168.421L748.703 169.96ZM768.431 151.24L767.018 148.594L767.012 148.597L767.005 148.601L768.431 151.24ZM844.751 169.96L842.182 171.508L842.186 171.515L842.19 171.522L844.751 169.96ZM844.751 223.384L847.313 224.946L847.317 224.939L847.321 224.932L844.751 223.384ZM825.023 241.96L826.449 244.599L825.023 241.96ZM812.927 224.824L814.393 227.442L814.413 227.43L814.432 227.419L812.927 224.824ZM824.159 213.304L821.551 211.821L821.54 211.841L821.53 211.86L824.159 213.304ZM824.159 179.896L821.53 181.34L821.54 181.359L821.551 181.379L824.159 179.896ZM812.927 168.52L811.422 171.115L811.442 171.126L811.461 171.138L812.927 168.52ZM780.671 168.52L782.137 171.138L782.157 171.126L782.176 171.115L780.671 168.52ZM769.295 179.896L766.687 178.413L766.676 178.433L766.666 178.452L769.295 179.896ZM769.295 213.304L766.666 214.748L766.676 214.767L766.687 214.787L769.295 213.304ZM780.671 224.824L779.166 227.419L779.186 227.43L779.205 227.442L780.671 224.824ZM796.799 245.728C786.782 245.728 777.818 243.572 769.845 239.314L767.018 244.606C775.94 249.372 785.889 251.728 796.799 251.728V245.728ZM769.857 239.321C761.958 235.053 755.78 229.227 751.265 221.822L746.142 224.946C751.227 233.285 758.201 239.843 767.005 244.599L769.857 239.321ZM751.287 221.859C746.874 214.385 744.647 205.99 744.647 196.6H738.647C738.647 206.986 741.124 216.447 746.12 224.909L751.287 221.859ZM744.647 196.6C744.647 187.21 746.874 178.869 751.279 171.499L746.128 168.421C741.124 176.795 738.647 186.214 738.647 196.6H744.647ZM751.273 171.508C755.79 164.009 761.967 158.142 769.857 153.879L767.005 148.601C758.191 153.362 751.216 159.975 746.133 168.412L751.273 171.508ZM769.845 153.886C777.818 149.628 786.782 147.472 796.799 147.472V141.472C785.889 141.472 775.94 143.828 767.018 148.594L769.845 153.886ZM796.799 147.472C806.817 147.472 815.727 149.628 823.597 153.879L826.449 148.601C817.616 143.828 807.709 141.472 796.799 141.472V147.472ZM823.597 153.879C831.487 158.142 837.664 164.009 842.182 171.508L847.321 168.412C842.238 159.975 835.263 153.362 826.449 148.601L823.597 153.879ZM842.19 171.522C846.682 178.889 848.951 187.222 848.951 196.6H854.951C854.951 186.202 852.42 176.775 847.313 168.398L842.19 171.522ZM848.951 196.6C848.951 205.978 846.682 214.365 842.182 221.836L847.321 224.932C852.42 216.467 854.951 206.998 854.951 196.6H848.951ZM842.19 221.822C837.675 229.227 831.497 235.053 823.597 239.321L826.449 244.599C835.254 239.843 842.228 233.285 847.313 224.946L842.19 221.822ZM823.597 239.321C815.727 243.572 806.817 245.728 796.799 245.728V251.728C807.709 251.728 817.616 249.372 826.449 244.599L823.597 239.321ZM796.799 231.856C803.221 231.856 809.109 230.401 814.393 227.442L811.461 222.206C807.146 224.623 802.281 225.856 796.799 225.856V231.856ZM814.432 227.419C819.708 224.359 823.84 220.119 826.789 214.748L821.53 211.86C819.103 216.281 815.746 219.721 811.422 222.229L814.432 227.419ZM826.767 214.787C829.835 209.391 831.335 203.302 831.335 196.6H825.335C825.335 202.378 824.051 207.424 821.551 211.821L826.767 214.787ZM831.335 196.6C831.335 189.898 829.835 183.809 826.767 178.413L821.551 181.379C824.051 185.775 825.335 190.822 825.335 196.6H831.335ZM826.789 178.452C823.835 173.072 819.691 168.869 814.393 165.902L811.461 171.138C815.763 173.547 819.108 176.928 821.53 181.34L826.789 178.452ZM814.432 165.925C809.142 162.856 803.24 161.344 796.799 161.344V167.344C802.262 167.344 807.113 168.616 811.422 171.115L814.432 165.925ZM796.799 161.344C790.358 161.344 784.457 162.856 779.166 165.925L782.176 171.115C786.486 168.616 791.336 167.344 796.799 167.344V161.344ZM779.205 165.902C773.917 168.864 769.735 173.054 766.687 178.413L771.903 181.379C774.424 176.946 777.826 173.552 782.137 171.138L779.205 165.902ZM766.666 178.452C763.707 183.841 762.263 189.915 762.263 196.6H768.263C768.263 190.805 769.507 185.743 771.925 181.34L766.666 178.452ZM762.263 196.6C762.263 203.285 763.707 209.359 766.666 214.748L771.925 211.86C769.507 207.457 768.263 202.395 768.263 196.6H762.263ZM766.687 214.787C769.73 220.137 773.899 224.364 779.166 227.419L782.176 222.229C777.843 219.716 774.429 216.263 771.903 211.821L766.687 214.787ZM779.205 227.442C784.49 230.401 790.377 231.856 796.799 231.856V225.856C791.317 225.856 786.453 224.623 782.137 222.206L779.205 227.442ZM961.931 146.2H964.931V143.2H961.931V146.2ZM961.931 247V250H964.931V247H961.931ZM942.779 247L940.461 248.904L941.361 250H942.779V247ZM892.523 185.8L894.842 183.896L889.523 177.419V185.8H892.523ZM892.523 247V250H895.523V247H892.523ZM869.483 247H866.483V250H869.483V247ZM869.483 146.2V143.2H866.483V146.2H869.483ZM888.779 146.2L891.1 144.299L890.2 143.2H888.779V146.2ZM938.891 207.4L936.57 209.301L941.891 215.799V207.4H938.891ZM938.891 146.2V143.2H935.891V146.2H938.891ZM958.931 146.2V247H964.931V146.2H958.931ZM961.931 244H942.779V250H961.931V244ZM945.098 245.096L894.842 183.896L890.205 187.704L940.461 248.904L945.098 245.096ZM889.523 185.8V247H895.523V185.8H889.523ZM892.523 244H869.483V250H892.523V244ZM872.483 247V146.2H866.483V247H872.483ZM869.483 149.2H888.779V143.2H869.483V149.2ZM886.458 148.101L936.57 209.301L941.212 205.499L891.1 144.299L886.458 148.101ZM941.891 207.4V146.2H935.891V207.4H941.891ZM938.891 149.2H961.931V143.2H938.891V149.2Z" fill="url(#paint0_linear_577_1745)" fill-opacity="0.24"/>
<path d="M97.596 155.168C96.14 155.168 94.74 154.935 93.396 154.468C92.0707 154.001 91.044 153.385 90.316 152.62L91.128 151.024C91.8373 151.733 92.78 152.312 93.956 152.76C95.132 153.189 96.3453 153.404 97.596 153.404C99.3507 153.404 100.667 153.087 101.544 152.452C102.421 151.799 102.86 150.959 102.86 149.932C102.86 149.148 102.617 148.523 102.132 148.056C101.665 147.589 101.087 147.235 100.396 146.992C99.7053 146.731 98.744 146.451 97.512 146.152C96.0373 145.779 94.8613 145.424 93.984 145.088C93.1067 144.733 92.3507 144.201 91.716 143.492C91.1 142.783 90.792 141.821 90.792 140.608C90.792 139.619 91.0533 138.723 91.576 137.92C92.0987 137.099 92.9013 136.445 93.984 135.96C95.0667 135.475 96.4107 135.232 98.016 135.232C99.136 135.232 100.228 135.391 101.292 135.708C102.375 136.007 103.308 136.427 104.092 136.968L103.392 138.62C102.571 138.079 101.693 137.677 100.76 137.416C99.8267 137.136 98.912 136.996 98.016 136.996C96.2987 136.996 95.0013 137.332 94.124 138.004C93.2653 138.657 92.836 139.507 92.836 140.552C92.836 141.336 93.0693 141.971 93.536 142.456C94.0213 142.923 94.6187 143.287 95.328 143.548C96.056 143.791 97.0267 144.061 98.24 144.36C99.6773 144.715 100.835 145.069 101.712 145.424C102.608 145.76 103.364 146.283 103.98 146.992C104.596 147.683 104.904 148.625 104.904 149.82C104.904 150.809 104.633 151.715 104.092 152.536C103.569 153.339 102.757 153.983 101.656 154.468C100.555 154.935 99.2013 155.168 97.596 155.168ZM130.279 153.208V155H116.419V135.4H129.859V137.192H118.491V144.164H128.627V145.928H118.491V153.208H130.279ZM156.009 153.208V155H142.149V135.4H155.589V137.192H144.221V144.164H154.357V145.928H144.221V153.208H156.009ZM190.776 155.168C188.834 155.168 187.07 154.739 185.484 153.88C183.916 153.003 182.684 151.808 181.788 150.296C180.91 148.784 180.472 147.085 180.472 145.2C180.472 143.315 180.91 141.616 181.788 140.104C182.684 138.592 183.916 137.407 185.484 136.548C187.07 135.671 188.834 135.232 190.776 135.232C192.717 135.232 194.462 135.661 196.012 136.52C197.58 137.379 198.812 138.573 199.708 140.104C200.604 141.616 201.052 143.315 201.052 145.2C201.052 147.085 200.604 148.793 199.708 150.324C198.812 151.836 197.58 153.021 196.012 153.88C194.462 154.739 192.717 155.168 190.776 155.168ZM190.776 153.32C192.325 153.32 193.725 152.975 194.976 152.284C196.226 151.575 197.206 150.604 197.916 149.372C198.625 148.121 198.98 146.731 198.98 145.2C198.98 143.669 198.625 142.288 197.916 141.056C197.206 139.805 196.226 138.835 194.976 138.144C193.725 137.435 192.325 137.08 190.776 137.08C189.226 137.08 187.817 137.435 186.548 138.144C185.297 138.835 184.308 139.805 183.58 141.056C182.87 142.288 182.516 143.669 182.516 145.2C182.516 146.731 182.87 148.121 183.58 149.372C184.308 150.604 185.297 151.575 186.548 152.284C187.817 152.975 189.226 153.32 190.776 153.32ZM220.592 155.168C218.053 155.168 216.075 154.44 214.656 152.984C213.237 151.528 212.528 149.409 212.528 146.628V135.4H214.6V146.544C214.6 148.821 215.113 150.52 216.14 151.64C217.167 152.76 218.651 153.32 220.592 153.32C222.552 153.32 224.045 152.76 225.072 151.64C226.099 150.52 226.612 148.821 226.612 146.544V135.4H228.628V146.628C228.628 149.409 227.919 151.528 226.5 152.984C225.1 154.44 223.131 155.168 220.592 155.168ZM255.256 155L250.776 148.7C250.272 148.756 249.749 148.784 249.208 148.784H243.944V155H241.872V135.4H249.208C251.709 135.4 253.669 135.997 255.088 137.192C256.506 138.387 257.216 140.029 257.216 142.12C257.216 143.651 256.824 144.948 256.04 146.012C255.274 147.057 254.173 147.813 252.736 148.28L257.524 155H255.256ZM249.152 147.02C251.093 147.02 252.577 146.591 253.604 145.732C254.63 144.873 255.144 143.669 255.144 142.12C255.144 140.533 254.63 139.32 253.604 138.48C252.577 137.621 251.093 137.192 249.152 137.192H243.944V147.02H249.152ZM291.946 155.168C290.005 155.168 288.25 154.739 286.682 153.88C285.133 153.021 283.91 151.836 283.014 150.324C282.137 148.793 281.698 147.085 281.698 145.2C281.698 143.315 282.137 141.616 283.014 140.104C283.91 138.573 285.142 137.379 286.71 136.52C288.278 135.661 290.033 135.232 291.974 135.232C293.43 135.232 294.774 135.475 296.006 135.96C297.238 136.445 298.284 137.155 299.142 138.088L297.826 139.404C296.296 137.855 294.364 137.08 292.03 137.08C290.481 137.08 289.072 137.435 287.802 138.144C286.533 138.853 285.534 139.824 284.806 141.056C284.097 142.288 283.742 143.669 283.742 145.2C283.742 146.731 284.097 148.112 284.806 149.344C285.534 150.576 286.533 151.547 287.802 152.256C289.072 152.965 290.481 153.32 292.03 153.32C294.382 153.32 296.314 152.536 297.826 150.968L299.142 152.284C298.284 153.217 297.229 153.936 295.978 154.44C294.746 154.925 293.402 155.168 291.946 155.168ZM318.717 155.168C316.776 155.168 315.012 154.739 313.425 153.88C311.857 153.003 310.625 151.808 309.729 150.296C308.852 148.784 308.413 147.085 308.413 145.2C308.413 143.315 308.852 141.616 309.729 140.104C310.625 138.592 311.857 137.407 313.425 136.548C315.012 135.671 316.776 135.232 318.717 135.232C320.658 135.232 322.404 135.661 323.953 136.52C325.521 137.379 326.753 138.573 327.649 140.104C328.545 141.616 328.993 143.315 328.993 145.2C328.993 147.085 328.545 148.793 327.649 150.324C326.753 151.836 325.521 153.021 323.953 153.88C322.404 154.739 320.658 155.168 318.717 155.168ZM318.717 153.32C320.266 153.32 321.666 152.975 322.917 152.284C324.168 151.575 325.148 150.604 325.857 149.372C326.566 148.121 326.921 146.731 326.921 145.2C326.921 143.669 326.566 142.288 325.857 141.056C325.148 139.805 324.168 138.835 322.917 138.144C321.666 137.435 320.266 137.08 318.717 137.08C317.168 137.08 315.758 137.435 314.489 138.144C313.238 138.835 312.249 139.805 311.521 141.056C310.812 142.288 310.457 143.669 310.457 145.2C310.457 146.731 310.812 148.121 311.521 149.372C312.249 150.604 313.238 151.575 314.489 152.284C315.758 152.975 317.168 153.32 318.717 153.32ZM340.637 135.4H342.709V153.208H353.685V155H340.637V135.4ZM364.126 135.4H366.198V153.208H377.174V155H364.126V135.4ZM401.474 153.208V155H387.614V135.4H401.054V137.192H389.686V144.164H399.822V145.928H389.686V153.208H401.474ZM421.747 155.168C419.806 155.168 418.051 154.739 416.483 153.88C414.934 153.021 413.711 151.836 412.815 150.324C411.938 148.793 411.499 147.085 411.499 145.2C411.499 143.315 411.938 141.616 412.815 140.104C413.711 138.573 414.943 137.379 416.511 136.52C418.079 135.661 419.834 135.232 421.775 135.232C423.231 135.232 424.575 135.475 425.807 135.96C427.039 136.445 428.084 137.155 428.943 138.088L427.627 139.404C426.096 137.855 424.164 137.08 421.831 137.08C420.282 137.08 418.872 137.435 417.603 138.144C416.334 138.853 415.335 139.824 414.607 141.056C413.898 142.288 413.543 143.669 413.543 145.2C413.543 146.731 413.898 148.112 414.607 149.344C415.335 150.576 416.334 151.547 417.603 152.256C418.872 152.965 420.282 153.32 421.831 153.32C424.183 153.32 426.115 152.536 427.627 150.968L428.943 152.284C428.084 153.217 427.03 153.936 425.779 154.44C424.547 154.925 423.203 155.168 421.747 155.168ZM443.922 137.192H437.034V135.4H452.882V137.192H445.994V155H443.922V137.192ZM463.192 135.4H465.264V155H463.192V135.4ZM487.209 155.168C485.268 155.168 483.504 154.739 481.917 153.88C480.349 153.003 479.117 151.808 478.221 150.296C477.344 148.784 476.905 147.085 476.905 145.2C476.905 143.315 477.344 141.616 478.221 140.104C479.117 138.592 480.349 137.407 481.917 136.548C483.504 135.671 485.268 135.232 487.209 135.232C489.151 135.232 490.896 135.661 492.445 136.52C494.013 137.379 495.245 138.573 496.141 140.104C497.037 141.616 497.485 143.315 497.485 145.2C497.485 147.085 497.037 148.793 496.141 150.324C495.245 151.836 494.013 153.021 492.445 153.88C490.896 154.739 489.151 155.168 487.209 155.168ZM487.209 153.32C488.759 153.32 490.159 152.975 491.409 152.284C492.66 151.575 493.64 150.604 494.349 149.372C495.059 148.121 495.413 146.731 495.413 145.2C495.413 143.669 495.059 142.288 494.349 141.056C493.64 139.805 492.66 138.835 491.409 138.144C490.159 137.435 488.759 137.08 487.209 137.08C485.66 137.08 484.251 137.435 482.981 138.144C481.731 138.835 480.741 139.805 480.013 141.056C479.304 142.288 478.949 143.669 478.949 145.2C478.949 146.731 479.304 148.121 480.013 149.372C480.741 150.604 481.731 151.575 482.981 152.284C484.251 152.975 485.66 153.32 487.209 153.32ZM525.51 135.4V155H523.802L511.202 139.096V155H509.13V135.4H510.838L523.466 151.304V135.4H525.51Z" fill="white"/>
<defs>
<linearGradient id="paint0_linear_577_1745" x1="500.5" y1="-2.25371e-06" x2="510.438" y2="236.191" gradientUnits="userSpaceOnUse">
<stop stop-color="#ABFC4F"/>
<stop offset="1" stop-color="#3DBF69" stop-opacity="0.47"/>
</linearGradient>
</defs>
</svg>
