<svg width="422" height="233" viewBox="0 0 422 233" fill="none" xmlns="http://www.w3.org/2000/svg">
<path d="M32.4 97.96L30.9741 100.599L30.9804 100.603L30.9867 100.606L32.4 97.96ZM12.672 79.384L10.0886 80.9091L10.0995 80.9276L10.1106 80.9458L12.672 79.384ZM12.672 25.96L10.1022 24.4119L10.0968 24.4211L12.672 25.96ZM32.4 7.24L30.9867 4.59377L30.9804 4.59714L30.9741 4.60053L32.4 7.24ZM108.72 25.96L106.15 27.508L106.154 27.5149L106.159 27.5218L108.72 25.96ZM108.72 79.384L111.281 80.9458L111.286 80.9389L111.29 80.932L108.72 79.384ZM88.992 97.96L90.4179 100.599L88.992 97.96ZM76.896 80.824L78.3618 83.4415L78.3816 83.4305L78.4012 83.4191L76.896 80.824ZM88.128 69.304L85.5201 67.8211L85.5091 67.8406L85.4983 67.8602L88.128 69.304ZM88.128 35.896L85.4983 37.3398L85.5091 37.3594L85.5201 37.3789L88.128 35.896ZM76.896 24.52L75.3909 27.1151L75.4104 27.1265L75.4302 27.1375L76.896 24.52ZM44.64 24.52L46.1058 27.1375L46.1256 27.1265L46.1452 27.1151L44.64 24.52ZM33.264 35.896L30.6561 34.4131L30.6451 34.4326L30.6343 34.4522L33.264 35.896ZM33.264 69.304L30.6343 70.7478L30.6451 70.7674L30.6561 70.7869L33.264 69.304ZM44.64 80.824L43.1348 83.4191L43.1544 83.4305L43.1742 83.4415L44.64 80.824ZM60.768 101.728C50.7504 101.728 41.7871 99.5725 33.8133 95.3138L30.9867 100.606C39.9089 105.372 49.8576 107.728 60.768 107.728V101.728ZM33.8259 95.3205C25.9266 91.0531 19.7485 85.227 15.2334 77.8222L10.1106 80.9458C15.1955 89.285 22.1694 95.8429 30.9741 100.599L33.8259 95.3205ZM15.2554 77.8589C10.8429 70.3847 8.616 61.9897 8.616 52.6H2.616C2.616 62.9863 5.09308 72.4473 10.0886 80.9091L15.2554 77.8589ZM8.616 52.6C8.616 43.21 10.8429 34.8694 15.2472 27.4989L10.0968 24.4211C5.09308 32.7946 2.616 42.214 2.616 52.6H8.616ZM15.2417 27.508C19.759 20.0094 25.9358 14.142 33.8259 9.87946L30.9741 4.60053C22.1602 9.36203 15.185 15.9746 10.1023 24.412L15.2417 27.508ZM33.8133 9.88622C41.7871 5.62752 50.7504 3.472 60.768 3.472V-2.528C49.8576 -2.528 39.9089 -0.171528 30.9867 4.59377L33.8133 9.88622ZM60.768 3.472C70.7861 3.472 79.6957 5.62764 87.5661 9.87946L90.4179 4.60053C81.5843 -0.17164 71.6779 -2.528 60.768 -2.528V3.472ZM87.5661 9.87946C95.4562 14.142 101.633 20.0094 106.15 27.508L111.29 24.412C106.207 15.9746 99.2318 9.36203 90.4179 4.60053L87.5661 9.87946ZM106.159 27.5218C110.651 34.8892 112.92 43.2215 112.92 52.6H118.92C118.92 42.2025 116.389 32.7748 111.281 24.3982L106.159 27.5218ZM112.92 52.6C112.92 61.9782 110.651 70.365 106.15 77.836L111.29 80.932C116.389 72.467 118.92 62.9978 118.92 52.6H112.92ZM106.159 77.8222C101.644 85.227 95.4654 91.0531 87.5661 95.3205L90.4179 100.599C99.2226 95.8429 106.197 89.285 111.281 80.9458L106.159 77.8222ZM87.5661 95.3205C79.6957 99.5724 70.7861 101.728 60.768 101.728V107.728C71.6779 107.728 81.5843 105.372 90.4179 100.599L87.5661 95.3205ZM60.768 87.856C67.19 87.856 73.0777 86.4006 78.3618 83.4415L75.4302 78.2065C71.1143 80.6234 66.25 81.856 60.768 81.856V87.856ZM78.4012 83.4191C83.6772 80.359 87.8086 76.1195 90.7577 70.7478L85.4983 67.8602C83.0714 72.2805 79.7149 75.721 75.3909 78.2289L78.4012 83.4191ZM90.7359 70.7869C93.8039 65.3915 95.304 59.3025 95.304 52.6H89.304C89.304 58.3775 88.0202 63.4245 85.5201 67.8211L90.7359 70.7869ZM95.304 52.6C95.304 45.8975 93.8039 39.8085 90.7359 34.4131L85.5201 37.3789C88.0202 41.7755 89.304 46.8225 89.304 52.6H95.304ZM90.7577 34.4522C87.8037 29.0716 83.6599 24.8694 78.3618 21.9025L75.4302 27.1375C79.7321 29.5466 83.0763 32.9284 85.4983 37.3398L90.7577 34.4522ZM78.4012 21.9249C73.1107 18.8564 67.2089 17.344 60.768 17.344V23.344C66.2311 23.344 71.0813 24.6156 75.3909 27.1151L78.4012 21.9249ZM60.768 17.344C54.3271 17.344 48.4253 18.8564 43.1348 21.9249L46.1452 27.1151C50.4547 24.6156 55.3049 23.344 60.768 23.344V17.344ZM43.1742 21.9025C37.8855 24.8642 33.7036 29.0538 30.6561 34.4131L35.8719 37.3789C38.3924 32.9462 41.7945 29.5518 46.1058 27.1375L43.1742 21.9025ZM30.6343 34.4522C27.6759 39.8406 26.232 45.9155 26.232 52.6H32.232C32.232 46.8045 33.4761 41.7434 35.8937 37.3398L30.6343 34.4522ZM26.232 52.6C26.232 59.2845 27.6759 65.3594 30.6343 70.7478L35.8937 67.8602C33.4761 63.4566 32.232 58.3955 32.232 52.6H26.232ZM30.6561 70.7869C33.6986 76.1375 37.8681 80.3644 43.1348 83.4191L46.1452 78.2289C41.8119 75.7156 38.3974 72.2625 35.8719 67.8211L30.6561 70.7869ZM43.1742 83.4415C48.4583 86.4006 54.346 87.856 60.768 87.856V81.856C55.286 81.856 50.4217 80.6234 46.1058 78.2065L43.1742 83.4415ZM144.54 92.776L142.419 94.8973L142.425 94.9037L142.431 94.91L144.54 92.776ZM132.588 2.19999V-0.800007H129.588V2.19999H132.588ZM155.916 2.19999H158.916V-0.800007H155.916V2.19999ZM195.084 78.376L197.326 80.3691L197.337 80.3569L197.348 80.3445L195.084 78.376ZM200.844 2.19999V-0.800007H197.844V2.19999H200.844ZM223.884 2.19999H226.884V-0.800007H223.884V2.19999ZM211.788 92.776L209.679 90.642L209.673 90.6483L209.667 90.6547L211.788 92.776ZM178.236 101.728C164.402 101.728 154.01 97.9156 146.649 90.642L142.431 94.91C151.198 103.572 163.27 107.728 178.236 107.728V101.728ZM146.661 90.6547C139.415 83.4086 135.588 72.8943 135.588 58.648H129.588C129.588 73.9697 133.729 86.2074 142.419 94.8973L146.661 90.6547ZM135.588 58.648V2.19999H129.588V58.648H135.588ZM132.588 5.19999H155.916V-0.800007H132.588V5.19999ZM152.916 2.19999V57.784H158.916V2.19999H152.916ZM152.916 57.784C152.916 67.1483 154.847 74.7298 159.223 80.0037C163.689 85.3849 170.267 87.856 178.38 87.856V81.856C171.517 81.856 166.863 79.8151 163.841 76.1723C160.729 72.4222 158.916 66.4677 158.916 57.784H152.916ZM178.38 87.856C186.292 87.856 192.774 85.4901 197.326 80.3691L192.842 76.3829C189.714 79.9019 185.06 81.856 178.38 81.856V87.856ZM197.348 80.3445C201.874 75.1398 203.844 67.4151 203.844 57.784H197.844C197.844 66.7769 195.974 72.7802 192.82 76.4075L197.348 80.3445ZM203.844 57.784V2.19999H197.844V57.784H203.844ZM200.844 5.19999H223.884V-0.800007H200.844V5.19999ZM220.884 2.19999V58.648H226.884V2.19999H220.884ZM220.884 58.648C220.884 72.8845 217.014 83.3943 209.679 90.642L213.897 94.91C222.69 86.2217 226.884 73.9795 226.884 58.648H220.884ZM209.667 90.6547C202.406 97.915 192.072 101.728 178.236 101.728V107.728C193.2 107.728 205.234 103.573 213.909 94.8973L209.667 90.6547ZM311.16 103L308.694 104.708L309.589 106H311.16V103ZM291.72 74.92L294.187 73.2124L293.292 71.92H291.72V74.92ZM270.264 74.92V71.92H267.264V74.92H270.264ZM270.264 103V106H273.264V103H270.264ZM246.936 103H243.936V106H246.936V103ZM246.936 2.19999V-0.800007H243.936V2.19999H246.936ZM313.752 6.664L312.508 9.39372L312.515 9.39713L312.523 9.4005L313.752 6.664ZM328.872 58.216L326.376 56.5519L326.369 56.5622L328.872 58.216ZM313.608 70.6L312.412 67.8488L309.05 69.3104L311.148 72.3167L313.608 70.6ZM336.216 103V106H341.968L338.677 101.283L336.216 103ZM305.256 25.816L303.324 28.1107L303.342 28.1258L303.36 28.1406L305.256 25.816ZM270.264 21.208V18.208H267.264V21.208H270.264ZM270.264 56.344H267.264V59.344H270.264V56.344ZM305.256 51.736L307.189 54.0307L307.189 54.0307L305.256 51.736ZM313.627 101.292L294.187 73.2124L289.254 76.6276L308.694 104.708L313.627 101.292ZM291.72 71.92H290.568V77.92H291.72V71.92ZM290.568 71.92H270.264V77.92H290.568V71.92ZM267.264 74.92V103H273.264V74.92H267.264ZM270.264 100H246.936V106H270.264V100ZM249.936 103V2.19999H243.936V103H249.936ZM246.936 5.19999H290.568V-0.800007H246.936V5.19999ZM290.568 5.19999C299.169 5.19999 306.454 6.63379 312.508 9.39372L314.997 3.93427C307.995 0.742198 299.824 -0.800007 290.568 -0.800007V5.19999ZM312.523 9.4005C318.682 12.1678 323.297 16.0348 326.5 20.9694L331.533 17.7026C327.632 11.6932 322.07 7.11219 314.982 3.92749L312.523 9.4005ZM326.5 20.9694C329.692 25.8863 331.344 31.7799 331.344 38.776H337.344C337.344 30.7961 335.445 23.7297 331.533 17.7026L326.5 20.9694ZM331.344 38.776C331.344 45.7564 329.652 51.6387 326.376 56.5519L331.369 59.8801C335.389 53.8493 337.344 46.7716 337.344 38.776H331.344ZM326.369 56.5622C323.175 61.3964 318.57 65.1714 312.412 67.8488L314.805 73.3512C321.895 70.2686 327.465 65.7876 331.375 59.8698L326.369 56.5622ZM311.148 72.3167L333.756 104.717L338.677 101.283L316.069 68.8833L311.148 72.3167ZM336.216 100H311.16V106H336.216V100ZM313.728 38.776C313.728 32.4132 311.642 27.1539 307.153 23.4914L303.36 28.1406C306.167 30.4301 307.728 33.8108 307.728 38.776H313.728ZM307.189 23.5213C302.796 19.822 296.665 18.208 289.272 18.208V24.208C295.896 24.208 300.421 25.666 303.324 28.1107L307.189 23.5213ZM289.272 18.208H270.264V24.208H289.272V18.208ZM267.264 21.208V56.344H273.264V21.208H267.264ZM270.264 59.344H289.272V53.344H270.264V59.344ZM289.272 59.344C296.665 59.344 302.796 57.73 307.189 54.0307L303.324 49.4413C300.421 51.886 295.896 53.344 289.272 53.344V59.344ZM307.189 54.0307C311.63 50.2906 313.728 45.0643 313.728 38.776H307.728C307.728 43.6237 306.179 47.0374 303.324 49.4413L307.189 54.0307ZM32.832 151.208H35.832V148.208H32.832V151.208ZM0.576 151.208H-2.424V154.208H0.576V151.208ZM0.576 132.2V129.2H-2.424V132.2H0.576ZM88.416 132.2H91.416V129.2H88.416V132.2ZM88.416 151.208V154.208H91.416V151.208H88.416ZM56.16 151.208V148.208H53.16V151.208H56.16ZM56.16 233V236H59.16V233H56.16ZM32.832 233H29.832V236H32.832V233ZM32.832 148.208H0.576V154.208H32.832V148.208ZM3.576 151.208V132.2H-2.424V151.208H3.576ZM0.576 135.2H88.416V129.2H0.576V135.2ZM85.416 132.2V151.208H91.416V132.2H85.416ZM88.416 148.208H56.16V154.208H88.416V148.208ZM53.16 151.208V233H59.16V151.208H53.16ZM56.16 230H32.832V236H56.16V230ZM35.832 233V151.208H29.832V233H35.832ZM179.016 214.28H182.016V211.28H179.016V214.28ZM179.016 233V236H182.016V233H179.016ZM100.968 233H97.9676V236H100.968V233ZM100.968 132.2V129.2H97.9676V132.2H100.968ZM177.144 132.2H180.144V129.2H177.144V132.2ZM177.144 150.92V153.92H180.144V150.92H177.144ZM124.152 150.92V147.92H121.152V150.92H124.152ZM124.152 172.808H121.152V175.808H124.152V172.808ZM170.952 172.808H173.952V169.808H170.952V172.808ZM170.952 190.952V193.952H173.952V190.952H170.952ZM124.152 190.952V187.952H121.152V190.952H124.152ZM124.152 214.28H121.152V217.28H124.152V214.28ZM176.016 214.28V233H182.016V214.28H176.016ZM179.016 230H100.968V236H179.016V230ZM103.968 233V132.2H97.9676V233H103.968ZM100.968 135.2H177.144V129.2H100.968V135.2ZM174.144 132.2V150.92H180.144V132.2H174.144ZM177.144 147.92H124.152V153.92H177.144V147.92ZM121.152 150.92V172.808H127.152V150.92H121.152ZM124.152 175.808H170.952V169.808H124.152V175.808ZM167.952 172.808V190.952H173.952V172.808H167.952ZM170.952 187.952H124.152V193.952H170.952V187.952ZM121.152 190.952V214.28H127.152V190.952H121.152ZM124.152 217.28H179.016V211.28H124.152V217.28ZM263.961 211.4L266.734 210.254L265.967 208.4H263.961V211.4ZM217.161 211.4V208.4H215.155L214.389 210.254L217.161 211.4ZM208.233 233V236H210.239L211.006 234.146L208.233 233ZM184.329 233L181.589 231.779L179.707 236H184.329V233ZM229.257 132.2V129.2H227.31L226.517 130.979L229.257 132.2ZM252.297 132.2L255.036 130.975L254.242 129.2H252.297V132.2ZM297.369 233V236H301.997L300.108 231.775L297.369 233ZM272.889 233L270.117 234.146L270.883 236H272.889V233ZM256.617 193.688V196.688H261.107L259.389 192.54L256.617 193.688ZM240.633 155.096L243.405 153.948L240.633 147.256L237.861 153.948L240.633 155.096ZM224.649 193.688L221.877 192.54L220.159 196.688H224.649V193.688ZM263.961 208.4H217.161V214.4H263.961V208.4ZM214.389 210.254L205.461 231.854L211.006 234.146L219.934 212.546L214.389 210.254ZM208.233 230H184.329V236H208.233V230ZM187.069 234.221L231.997 133.421L226.517 130.979L181.589 231.779L187.069 234.221ZM229.257 135.2H252.297V129.2H229.257V135.2ZM249.558 133.425L294.63 234.225L300.108 231.775L255.036 130.975L249.558 133.425ZM297.369 230H272.889V236H297.369V230ZM275.662 231.854L266.734 210.254L261.189 212.546L270.117 234.146L275.662 231.854ZM259.389 192.54L243.405 153.948L237.861 156.244L253.845 194.836L259.389 192.54ZM237.861 153.948L221.877 192.54L227.421 194.836L243.405 156.244L237.861 153.948ZM224.649 196.688H256.617V190.688H224.649V196.688ZM399.555 233L396.555 233.007L396.562 236H399.555V233ZM399.411 172.52L402.411 172.513L402.385 161.66L396.833 170.985L399.411 172.52ZM369.747 222.344V225.344H371.452L372.325 223.879L369.747 222.344ZM359.235 222.344L356.672 223.903L357.548 225.344H359.235V222.344ZM329.715 173.816L332.278 172.257L326.715 163.112V173.816H329.715ZM329.715 233V236H332.715V233H329.715ZM307.827 233H304.827V236H307.827V233ZM307.827 132.2V129.2H304.827V132.2H307.827ZM327.123 132.2L329.693 130.652L328.818 129.2H327.123V132.2ZM364.851 194.84L362.281 196.388L364.871 200.687L367.431 196.37L364.851 194.84ZM402.003 132.2V129.2H400.294L399.423 130.67L402.003 132.2ZM421.155 132.2L424.155 132.191L424.146 129.2H421.155V132.2ZM421.443 233V236H424.452L424.443 232.991L421.443 233ZM402.555 232.993L402.411 172.513L396.411 172.527L396.555 233.007L402.555 232.993ZM396.833 170.985L367.169 220.809L372.325 223.879L401.989 174.055L396.833 170.985ZM369.747 219.344H359.235V225.344H369.747V219.344ZM361.798 220.785L332.278 172.257L327.152 175.375L356.672 223.903L361.798 220.785ZM326.715 173.816V233H332.715V173.816H326.715ZM329.715 230H307.827V236H329.715V230ZM310.827 233V132.2H304.827V233H310.827ZM307.827 135.2H327.123V129.2H307.827V135.2ZM324.553 133.748L362.281 196.388L367.421 193.292L329.693 130.652L324.553 133.748ZM367.431 196.37L404.583 133.73L399.423 130.67L362.271 193.31L367.431 196.37ZM402.003 135.2H421.155V129.2H402.003V135.2ZM418.155 132.209L418.443 233.009L424.443 232.991L424.155 132.191L418.155 132.209ZM421.443 230H399.555V236H421.443V230Z" fill="url(#paint0_linear_161_58)" fill-opacity="0.24"/>
<defs>
<linearGradient id="paint0_linear_161_58" x1="232.5" y1="-14" x2="253.757" y2="220.684" gradientUnits="userSpaceOnUse">
<stop stop-color="#ABFC4F"/>
<stop offset="1" stop-color="#3DBF69" stop-opacity="0.47"/>
</linearGradient>
</defs>
</svg>
