<svg width="1208" height="260" viewBox="0 0 1208 260" fill="none" xmlns="http://www.w3.org/2000/svg">
<path d="M32.4 111.96L30.9741 114.599L30.9804 114.603L30.9867 114.606L32.4 111.96ZM12.672 93.384L10.0886 94.9091L10.0995 94.9276L10.1106 94.9458L12.672 93.384ZM12.672 39.96L10.1022 38.4119L10.0968 38.4211L12.672 39.96ZM32.4 21.24L30.9867 18.5938L30.9804 18.5971L30.9741 18.6005L32.4 21.24ZM108.72 39.96L106.15 41.508L106.154 41.5149L106.159 41.5218L108.72 39.96ZM108.72 93.384L111.281 94.9458L111.286 94.9389L111.29 94.932L108.72 93.384ZM88.992 111.96L90.4179 114.599L88.992 111.96ZM76.896 94.824L78.3618 97.4415L78.3816 97.4305L78.4012 97.4191L76.896 94.824ZM88.128 83.304L85.5201 81.8211L85.5091 81.8406L85.4983 81.8602L88.128 83.304ZM88.128 49.896L85.4983 51.3398L85.5091 51.3594L85.5201 51.3789L88.128 49.896ZM76.896 38.52L75.3909 41.1151L75.4104 41.1265L75.4302 41.1375L76.896 38.52ZM44.64 38.52L46.1058 41.1375L46.1256 41.1265L46.1452 41.1151L44.64 38.52ZM33.264 49.896L30.6561 48.4131L30.6451 48.4326L30.6343 48.4522L33.264 49.896ZM33.264 83.304L30.6343 84.7478L30.6451 84.7674L30.6561 84.7869L33.264 83.304ZM44.64 94.824L43.1348 97.4191L43.1544 97.4305L43.1742 97.4415L44.64 94.824ZM60.768 115.728C50.7504 115.728 41.7871 113.572 33.8133 109.314L30.9867 114.606C39.9089 119.372 49.8576 121.728 60.768 121.728V115.728ZM33.8259 109.321C25.9266 105.053 19.7485 99.227 15.2334 91.8222L10.1106 94.9458C15.1955 103.285 22.1694 109.843 30.9741 114.599L33.8259 109.321ZM15.2554 91.8589C10.8429 84.3847 8.616 75.9897 8.616 66.6H2.616C2.616 76.9863 5.09308 86.4473 10.0886 94.9091L15.2554 91.8589ZM8.616 66.6C8.616 57.21 10.8429 48.8694 15.2472 41.4989L10.0968 38.4211C5.09308 46.7946 2.616 56.214 2.616 66.6H8.616ZM15.2417 41.508C19.759 34.0094 25.9358 28.142 33.8259 23.8795L30.9741 18.6005C22.1602 23.362 15.185 29.9746 10.1023 38.412L15.2417 41.508ZM33.8133 23.8862C41.7871 19.6275 50.7504 17.472 60.768 17.472V11.472C49.8576 11.472 39.9089 13.8285 30.9867 18.5938L33.8133 23.8862ZM60.768 17.472C70.7861 17.472 79.6957 19.6276 87.5661 23.8795L90.4179 18.6005C81.5843 13.8284 71.6779 11.472 60.768 11.472V17.472ZM87.5661 23.8795C95.4562 28.142 101.633 34.0094 106.15 41.508L111.29 38.412C106.207 29.9746 99.2318 23.362 90.4179 18.6005L87.5661 23.8795ZM106.159 41.5218C110.651 48.8892 112.92 57.2215 112.92 66.6H118.92C118.92 56.2025 116.389 46.7748 111.281 38.3982L106.159 41.5218ZM112.92 66.6C112.92 75.9782 110.651 84.365 106.15 91.836L111.29 94.932C116.389 86.467 118.92 76.9978 118.92 66.6H112.92ZM106.159 91.8222C101.644 99.227 95.4654 105.053 87.5661 109.321L90.4179 114.599C99.2226 109.843 106.197 103.285 111.281 94.9458L106.159 91.8222ZM87.5661 109.321C79.6957 113.572 70.7861 115.728 60.768 115.728V121.728C71.6779 121.728 81.5843 119.372 90.4179 114.599L87.5661 109.321ZM60.768 101.856C67.19 101.856 73.0777 100.401 78.3618 97.4415L75.4302 92.2065C71.1143 94.6234 66.25 95.856 60.768 95.856V101.856ZM78.4012 97.4191C83.6772 94.359 87.8086 90.1195 90.7577 84.7478L85.4983 81.8602C83.0714 86.2805 79.7149 89.721 75.3909 92.2289L78.4012 97.4191ZM90.7359 84.7869C93.8039 79.3915 95.304 73.3025 95.304 66.6H89.304C89.304 72.3775 88.0202 77.4245 85.5201 81.8211L90.7359 84.7869ZM95.304 66.6C95.304 59.8975 93.8039 53.8085 90.7359 48.4131L85.5201 51.3789C88.0202 55.7755 89.304 60.8225 89.304 66.6H95.304ZM90.7577 48.4522C87.8037 43.0716 83.6599 38.8694 78.3618 35.9025L75.4302 41.1375C79.7321 43.5466 83.0763 46.9284 85.4983 51.3398L90.7577 48.4522ZM78.4012 35.9249C73.1107 32.8564 67.2089 31.344 60.768 31.344V37.344C66.2311 37.344 71.0813 38.6156 75.3909 41.1151L78.4012 35.9249ZM60.768 31.344C54.3271 31.344 48.4253 32.8564 43.1348 35.9249L46.1452 41.1151C50.4547 38.6156 55.3049 37.344 60.768 37.344V31.344ZM43.1742 35.9025C37.8855 38.8642 33.7036 43.0538 30.6561 48.4131L35.8719 51.3789C38.3924 46.9462 41.7945 43.5518 46.1058 41.1375L43.1742 35.9025ZM30.6343 48.4522C27.6759 53.8406 26.232 59.9155 26.232 66.6H32.232C32.232 60.8045 33.4761 55.7434 35.8937 51.3398L30.6343 48.4522ZM26.232 66.6C26.232 73.2845 27.6759 79.3594 30.6343 84.7478L35.8937 81.8602C33.4761 77.4566 32.232 72.3955 32.232 66.6H26.232ZM30.6561 84.7869C33.6986 90.1375 37.8681 94.3644 43.1348 97.4191L46.1452 92.2289C41.8119 89.7156 38.3974 86.2625 35.8719 81.8211L30.6561 84.7869ZM43.1742 97.4415C48.4583 100.401 54.346 101.856 60.768 101.856V95.856C55.286 95.856 50.4217 94.6234 46.1058 92.2065L43.1742 97.4415ZM282.429 16.2L285.28 17.1328L286.567 13.2H282.429V16.2ZM249.453 117V120H251.628L252.304 117.933L249.453 117ZM224.397 117L221.544 117.927L222.217 120H224.397V117ZM202.221 48.744L205.074 47.817L202.267 39.1752L199.377 47.7899L202.221 48.744ZM179.325 117V120H181.483L182.169 117.954L179.325 117ZM154.413 117L151.563 117.936L152.241 120H154.413V117ZM121.293 16.2V13.2H117.149L118.443 17.1365L121.293 16.2ZM145.485 16.2L148.341 15.2827L147.672 13.2H145.485V16.2ZM168.237 87.048L165.381 87.9653L168.175 96.6673L171.081 88.0019L168.237 87.048ZM191.997 16.2V13.2H189.839L189.153 15.2461L191.997 16.2ZM213.597 16.2L216.452 15.279L215.781 13.2H213.597V16.2ZM236.637 87.624L233.782 88.545L236.611 97.3138L239.487 88.5606L236.637 87.624ZM260.109 16.2V13.2H257.937L257.259 15.2634L260.109 16.2ZM279.578 15.2672L246.602 116.067L252.304 117.933L285.28 17.1328L279.578 15.2672ZM249.453 114H224.397V120H249.453V114ZM227.25 116.073L205.074 47.817L199.368 49.671L221.544 117.927L227.25 116.073ZM199.377 47.7899L176.481 116.046L182.169 117.954L205.065 49.6981L199.377 47.7899ZM179.325 114H154.413V120H179.325V114ZM157.263 116.064L124.143 15.2635L118.443 17.1365L151.563 117.936L157.263 116.064ZM121.293 19.2H145.485V13.2H121.293V19.2ZM142.629 17.1173L165.381 87.9653L171.093 86.1307L148.341 15.2827L142.629 17.1173ZM171.081 88.0019L194.841 17.1539L189.153 15.2461L165.393 86.0941L171.081 88.0019ZM191.997 19.2H213.597V13.2H191.997V19.2ZM210.742 17.121L233.782 88.545L239.492 86.703L216.452 15.279L210.742 17.121ZM239.487 88.5606L262.959 17.1366L257.259 15.2634L233.787 86.6874L239.487 88.5606ZM260.109 19.2H282.429V13.2H260.109V19.2ZM387.9 16.2H390.9V13.2H387.9V16.2ZM387.9 117V120H390.9V117H387.9ZM368.748 117L366.43 118.904L367.33 120H368.748V117ZM318.492 55.8L320.81 53.8961L315.492 47.4195V55.8H318.492ZM318.492 117V120H321.492V117H318.492ZM295.452 117H292.452V120H295.452V117ZM295.452 16.2V13.2H292.452V16.2H295.452ZM314.748 16.2L317.069 14.2994L316.169 13.2H314.748V16.2ZM364.86 77.4L362.539 79.3006L367.86 85.7991V77.4H364.86ZM364.86 16.2V13.2H361.86V16.2H364.86ZM384.9 16.2V117H390.9V16.2H384.9ZM387.9 114H368.748V120H387.9V114ZM371.066 115.096L320.81 53.8961L316.174 57.7039L366.43 118.904L371.066 115.096ZM315.492 55.8V117H321.492V55.8H315.492ZM318.492 114H295.452V120H318.492V114ZM298.452 117V16.2H292.452V117H298.452ZM295.452 19.2H314.748V13.2H295.452V19.2ZM312.427 18.1006L362.539 79.3006L367.181 75.4994L317.069 14.2994L312.427 18.1006ZM367.86 77.4V16.2H361.86V77.4H367.86ZM364.86 19.2H387.9V13.2H364.86V19.2ZM32.256 242.104L30.8173 244.737L30.8355 244.746L30.8537 244.756L32.256 242.104ZM12.672 223.528L10.0886 225.053L10.0995 225.072L10.1106 225.09L12.672 223.528ZM12.672 169.816L10.1022 168.268L10.0968 168.277L12.672 169.816ZM32.256 151.24L33.671 153.885L33.6819 153.879L32.256 151.24ZM83.952 149.08L82.7476 151.828L82.7544 151.831L82.7613 151.834L83.952 149.08ZM101.808 162.328L103.843 164.532L105.938 162.598L104.113 160.407L101.808 162.328ZM86.832 176.152L84.564 178.116L86.5912 180.457L88.8668 178.356L86.832 176.152ZM44.784 168.52L46.2278 171.15L46.2474 171.139L46.2669 171.128L44.784 168.52ZM33.264 179.896L30.6561 178.413L30.6451 178.433L30.6343 178.452L33.264 179.896ZM33.264 213.304L30.6343 214.748L30.6451 214.767L30.6561 214.787L33.264 213.304ZM44.784 224.824L43.3011 227.432L43.3206 227.443L43.3402 227.454L44.784 224.824ZM86.832 216.904L88.8668 214.7L86.5775 212.586L84.5523 214.954L86.832 216.904ZM101.808 230.728L104.128 232.63L105.921 230.442L103.843 228.524L101.808 230.728ZM83.952 244.12L82.7613 241.366L83.952 244.12ZM60.192 245.728C50.3651 245.728 41.5412 243.62 33.6583 239.452L30.8537 244.756C39.6748 249.42 49.4749 251.728 60.192 251.728V245.728ZM33.6947 239.471C25.8904 235.206 19.7537 229.379 15.2334 221.966L10.1106 225.09C15.1903 233.421 22.1096 239.978 30.8173 244.737L33.6947 239.471ZM15.2554 222.003C10.8456 214.533 8.616 206.091 8.616 196.6H2.616C2.616 207.077 5.0904 216.587 10.0886 225.053L15.2554 222.003ZM8.616 196.6C8.616 187.108 10.8456 178.721 15.2472 171.355L10.0968 168.277C5.09036 176.655 2.616 186.124 2.616 196.6H8.616ZM15.2417 171.364C19.7608 163.862 25.8885 158.048 33.671 153.885L30.841 148.595C22.1115 153.264 15.1832 159.834 10.1023 168.268L15.2417 171.364ZM33.6819 153.879C41.5563 149.625 50.4189 147.472 60.336 147.472V141.472C49.5171 141.472 39.6597 143.831 30.8301 148.601L33.6819 153.879ZM60.336 147.472C68.7159 147.472 76.1695 148.944 82.7476 151.828L85.1564 146.332C77.7185 143.072 69.4281 141.472 60.336 141.472V147.472ZM82.7613 151.834C89.4482 154.725 95.0141 158.862 99.5033 164.249L104.113 160.407C99.0019 154.274 92.6638 149.579 85.1427 146.326L82.7613 151.834ZM99.7732 160.124L84.7972 173.948L88.8668 178.356L103.843 164.532L99.7732 160.124ZM89.1 174.188C81.7357 165.683 72.4709 161.344 61.488 161.344V167.344C70.6651 167.344 78.2963 170.877 84.564 178.116L89.1 174.188ZM61.488 161.344C54.7855 161.344 48.6965 162.844 43.3011 165.912L46.2669 171.128C50.6635 168.628 55.7105 167.344 61.488 167.344V161.344ZM43.3402 165.89C37.9533 168.848 33.7121 173.039 30.6561 178.413L35.8719 181.379C38.3839 176.961 41.8228 173.568 46.2278 171.15L43.3402 165.89ZM30.6343 178.452C27.6759 183.841 26.232 189.915 26.232 196.6H32.232C32.232 190.804 33.4761 185.743 35.8937 181.34L30.6343 178.452ZM26.232 196.6C26.232 203.284 27.6759 209.359 30.6343 214.748L35.8937 211.86C33.4761 207.457 32.232 202.395 32.232 196.6H26.232ZM30.6561 214.787C33.707 220.152 37.9357 224.381 43.3011 227.432L46.2669 222.216C41.8403 219.699 38.389 216.248 35.8719 211.821L30.6561 214.787ZM43.3402 227.454C48.7286 230.412 54.8035 231.856 61.488 231.856V225.856C55.6925 225.856 50.6314 224.612 46.2278 222.194L43.3402 227.454ZM61.488 231.856C72.4844 231.856 81.752 227.458 89.1117 218.854L84.5523 214.954C78.28 222.286 70.6516 225.856 61.488 225.856V231.856ZM84.7972 219.108L99.7732 232.932L103.843 228.524L88.8668 214.7L84.7972 219.108ZM99.4878 228.826C94.9979 234.304 89.4364 238.48 82.7613 241.366L85.1427 246.874C92.6756 243.616 99.0181 238.864 104.128 232.63L99.4878 228.826ZM82.7613 241.366C76.0787 244.256 68.5711 245.728 60.192 245.728V251.728C69.2849 251.728 77.6173 250.128 85.1427 246.874L82.7613 241.366ZM181.977 225.4L184.749 224.254L183.983 222.4H181.977V225.4ZM135.177 225.4V222.4H133.17L132.404 224.254L135.177 225.4ZM126.249 247V250H128.255L129.021 248.146L126.249 247ZM102.345 247L99.6045 245.779L97.723 250H102.345V247ZM147.273 146.2V143.2H145.325L144.532 144.979L147.273 146.2ZM170.313 146.2L173.051 144.975L172.257 143.2H170.313V146.2ZM215.385 247V250H220.012L218.123 245.775L215.385 247ZM190.905 247L188.132 248.146L188.898 250H190.905V247ZM174.633 207.688V210.688H179.122L177.404 206.54L174.633 207.688ZM158.649 169.096L161.42 167.948L158.649 161.256L155.877 167.948L158.649 169.096ZM142.665 207.688L139.893 206.54L138.175 210.688H142.665V207.688ZM181.977 222.4H135.177V228.4H181.977V222.4ZM132.404 224.254L123.476 245.854L129.021 248.146L137.949 226.546L132.404 224.254ZM126.249 244H102.345V250H126.249V244ZM105.085 248.221L150.013 147.421L144.532 144.979L99.6045 245.779L105.085 248.221ZM147.273 149.2H170.313V143.2H147.273V149.2ZM167.574 147.425L212.646 248.225L218.123 245.775L173.051 144.975L167.574 147.425ZM215.385 244H190.905V250H215.385V244ZM193.677 245.854L184.749 224.254L179.204 226.546L188.132 248.146L193.677 245.854ZM177.404 206.54L161.42 167.948L155.877 170.244L171.861 208.836L177.404 206.54ZM155.877 167.948L139.893 206.54L145.436 208.836L161.42 170.244L155.877 167.948ZM142.665 210.688H174.633V204.688H142.665V210.688ZM235.779 245.56L234.92 248.435L234.942 248.441L234.964 248.447L235.779 245.56ZM217.923 237.064L215.188 235.831L214.21 237.999L216.098 239.446L217.923 237.064ZM225.843 219.496L227.617 217.077L224.63 214.886L223.108 218.263L225.843 219.496ZM241.251 227.128L242.172 224.273L242.172 224.273L241.251 227.128ZM273.795 227.128L275.35 229.694L275.378 229.677L275.405 229.659L273.795 227.128ZM275.667 213.304L273.666 215.54L273.728 215.595L273.793 215.647L275.667 213.304ZM268.467 209.416L267.518 212.262L267.532 212.267L267.546 212.271L268.467 209.416ZM256.659 206.248L255.965 209.167L255.975 209.169L255.984 209.171L256.659 206.248ZM237.795 200.776L238.842 197.965L238.842 197.965L237.795 200.776ZM225.123 191.992L222.845 193.944L222.858 193.96L222.872 193.975L225.123 191.992ZM224.691 160.024L227.179 161.7L227.187 161.688L227.194 161.677L224.691 160.024ZM238.947 148.648L237.755 145.895L237.747 145.898L237.74 145.901L238.947 148.648ZM281.283 146.776L282.01 143.866L282.01 143.866L281.283 146.776ZM297.411 153.4L300.19 154.53L301.14 152.193L299.001 150.856L297.411 153.4ZM290.211 171.112L288.731 173.722L291.703 175.407L292.99 172.242L290.211 171.112ZM247.731 166.36L246.067 163.864L246.049 163.876L246.031 163.888L247.731 166.36ZM248.451 182.488L247.138 185.186L247.182 185.207L247.226 185.226L248.451 182.488ZM265.011 187.384L265.704 184.465L265.681 184.46L265.657 184.455L265.011 187.384ZM283.875 192.856L284.922 190.045L284.922 190.045L283.875 192.856ZM296.403 201.496L294.148 203.475L294.162 203.491L294.175 203.506L296.403 201.496ZM296.835 233.32L294.354 231.633L294.346 231.644L296.835 233.32ZM282.435 244.552L281.243 241.799L281.243 241.799L282.435 244.552ZM258.963 245.728C251.263 245.728 243.81 244.708 236.593 242.673L234.964 248.447C242.724 250.636 250.726 251.728 258.963 251.728V245.728ZM236.637 242.685C229.478 240.547 223.887 237.853 219.747 234.682L216.098 239.446C220.983 243.187 227.296 246.157 234.92 248.435L236.637 242.685ZM220.658 238.297L228.578 220.729L223.108 218.263L215.188 235.831L220.658 238.297ZM224.069 221.915C228.687 225.302 234.122 227.981 240.33 229.983L242.172 224.273C236.475 222.435 231.638 220.026 227.617 217.077L224.069 221.915ZM240.33 229.983C246.564 231.994 252.826 233.008 259.107 233.008V227.008C253.483 227.008 247.841 226.102 242.172 224.273L240.33 229.983ZM259.107 233.008C265.906 233.008 271.472 232.043 275.35 229.694L272.24 224.562C269.781 226.053 265.555 227.008 259.107 227.008V233.008ZM275.405 229.659C279.286 227.19 281.547 223.667 281.547 219.208H275.547C275.547 221.277 274.64 223.034 272.184 224.597L275.405 229.659ZM281.547 219.208C281.547 215.871 280.152 213.05 277.541 210.961L273.793 215.647C275.021 216.63 275.547 217.745 275.547 219.208H281.547ZM277.667 211.068C275.457 209.09 272.656 207.615 269.388 206.561L267.546 212.271C270.229 213.137 272.229 214.254 273.666 215.54L277.667 211.068ZM269.415 206.57C266.405 205.566 262.364 204.486 257.333 203.325L255.984 209.171C260.937 210.314 264.768 211.346 267.518 212.262L269.415 206.57ZM257.352 203.329C249.738 201.521 243.58 199.73 238.842 197.965L236.747 203.587C241.801 205.47 248.219 207.327 255.965 209.167L257.352 203.329ZM238.842 197.965C234.423 196.318 230.609 193.681 227.374 190.009L222.872 193.975C226.741 198.367 231.374 201.586 236.747 203.587L238.842 197.965ZM227.4 190.04C224.524 186.683 222.939 182.063 222.939 175.864H216.939C216.939 183.105 218.81 189.237 222.845 193.944L227.4 190.04ZM222.939 175.864C222.939 170.584 224.356 165.892 227.179 161.7L222.202 158.348C218.689 163.564 216.939 169.432 216.939 175.864H222.939ZM227.194 161.677C229.985 157.449 234.237 153.994 240.153 151.395L237.74 145.901C230.984 148.87 225.732 152.999 222.187 158.371L227.194 161.677ZM240.138 151.401C246.096 148.823 253.49 147.472 262.419 147.472V141.472C252.916 141.472 244.662 142.905 237.755 145.895L240.138 151.401ZM262.419 147.472C268.609 147.472 274.653 148.211 280.555 149.686L282.01 143.866C275.625 142.269 269.092 141.472 262.419 141.472V147.472ZM280.555 149.686C286.443 151.159 291.519 153.255 295.821 155.944L299.001 150.856C294.086 147.785 288.41 145.465 282.01 143.866L280.555 149.686ZM294.631 152.27L287.431 169.982L292.99 172.242L300.19 154.53L294.631 152.27ZM291.69 168.502C281.995 163.005 272.179 160.192 262.275 160.192V166.192C270.995 166.192 279.802 168.659 288.731 173.722L291.69 168.502ZM262.275 160.192C255.53 160.192 249.967 161.263 246.067 163.864L249.395 168.856C251.83 167.233 255.963 166.192 262.275 166.192V160.192ZM246.031 163.888C242.221 166.508 240.123 170.18 240.123 174.712H246.123C246.123 172.332 247.097 170.436 249.43 168.832L246.031 163.888ZM240.123 174.712C240.123 176.982 240.716 179.099 241.98 180.944C243.228 182.766 245.013 184.152 247.138 185.186L249.763 179.79C248.336 179.096 247.457 178.322 246.929 177.552C246.418 176.805 246.123 175.898 246.123 174.712H240.123ZM247.226 185.226C251.157 186.985 256.916 188.669 264.364 190.313L265.657 184.455C258.321 182.835 253.04 181.255 249.676 179.75L247.226 185.226ZM264.317 190.303C271.931 192.111 278.089 193.902 282.827 195.667L284.922 190.045C279.868 188.162 273.45 186.305 265.704 184.465L264.317 190.303ZM282.827 195.667C287.257 197.318 291.019 199.911 294.148 203.475L298.657 199.517C294.874 195.209 290.284 192.042 284.922 190.045L282.827 195.667ZM294.175 203.506C297.108 206.755 298.731 211.297 298.731 217.48H304.731C304.731 210.223 302.802 204.109 298.63 199.486L294.175 203.506ZM298.731 217.48C298.731 222.633 297.282 227.326 294.354 231.633L299.315 235.007C302.915 229.714 304.731 223.847 304.731 217.48H298.731ZM294.346 231.644C291.567 235.771 287.273 239.189 281.243 241.799L283.626 247.305C290.46 244.347 295.767 240.277 299.323 234.996L294.346 231.644ZM281.243 241.799C275.286 244.377 267.892 245.728 258.963 245.728V251.728C268.466 251.728 276.72 250.295 283.626 247.305L281.243 241.799ZM327.607 245.56L326.748 248.435L326.77 248.441L326.792 248.447L327.607 245.56ZM309.751 237.064L307.016 235.831L306.038 237.999L307.927 239.446L309.751 237.064ZM317.671 219.496L319.445 217.077L316.458 214.886L314.936 218.263L317.671 219.496ZM333.079 227.128L334 224.273L334 224.273L333.079 227.128ZM365.623 227.128L367.178 229.694L367.206 229.677L367.233 229.659L365.623 227.128ZM367.495 213.304L365.494 215.54L365.556 215.595L365.621 215.647L367.495 213.304ZM360.295 209.416L359.346 212.262L359.36 212.267L359.374 212.271L360.295 209.416ZM348.487 206.248L347.794 209.167L347.803 209.169L347.812 209.171L348.487 206.248ZM329.623 200.776L330.67 197.965L330.67 197.965L329.623 200.776ZM316.951 191.992L314.673 193.944L314.686 193.96L314.7 193.975L316.951 191.992ZM316.519 160.024L319.007 161.7L319.015 161.688L319.023 161.677L316.519 160.024ZM330.775 148.648L329.583 145.895L329.575 145.898L329.568 145.901L330.775 148.648ZM373.111 146.776L373.838 143.866L373.838 143.866L373.111 146.776ZM389.239 153.4L392.018 154.53L392.968 152.193L390.829 150.856L389.239 153.4ZM382.039 171.112L380.559 173.722L383.531 175.407L384.818 172.242L382.039 171.112ZM339.559 166.36L337.895 163.864L337.877 163.876L337.859 163.888L339.559 166.36ZM340.279 182.488L338.966 185.186L339.01 185.207L339.054 185.226L340.279 182.488ZM356.839 187.384L357.532 184.465L357.509 184.46L357.486 184.455L356.839 187.384ZM375.703 192.856L376.75 190.045L376.75 190.045L375.703 192.856ZM388.231 201.496L385.976 203.475L385.99 203.491L386.004 203.506L388.231 201.496ZM388.663 233.32L386.182 231.633L386.174 231.644L388.663 233.32ZM374.263 244.552L373.071 241.799L373.071 241.799L374.263 244.552ZM350.791 245.728C343.091 245.728 335.638 244.708 328.421 242.673L326.792 248.447C334.552 250.636 342.554 251.728 350.791 251.728V245.728ZM328.465 242.685C321.306 240.547 315.715 237.853 311.575 234.682L307.927 239.446C312.811 243.187 319.124 246.157 326.748 248.435L328.465 242.685ZM312.486 238.297L320.406 220.729L314.936 218.263L307.016 235.831L312.486 238.297ZM315.897 221.915C320.515 225.302 325.95 227.981 332.158 229.983L334 224.273C328.304 222.435 323.466 220.026 319.445 217.077L315.897 221.915ZM332.158 229.983C338.392 231.994 344.655 233.008 350.935 233.008V227.008C345.311 227.008 339.669 226.102 334 224.273L332.158 229.983ZM350.935 233.008C357.734 233.008 363.301 232.043 367.178 229.694L364.068 224.562C361.609 226.053 357.384 227.008 350.935 227.008V233.008ZM367.233 229.659C371.114 227.19 373.375 223.667 373.375 219.208H367.375C367.375 221.277 366.468 223.034 364.012 224.597L367.233 229.659ZM373.375 219.208C373.375 215.871 371.98 213.05 369.369 210.961L365.621 215.647C366.849 216.63 367.375 217.745 367.375 219.208H373.375ZM369.495 211.068C367.285 209.09 364.484 207.615 361.216 206.561L359.374 212.271C362.057 213.137 364.057 214.254 365.494 215.54L369.495 211.068ZM361.243 206.57C358.233 205.566 354.192 204.486 349.161 203.325L347.812 209.171C352.765 210.314 356.596 211.346 359.346 212.262L361.243 206.57ZM349.18 203.329C341.566 201.521 335.408 199.73 330.67 197.965L328.575 203.587C333.63 205.47 340.047 207.327 347.794 209.167L349.18 203.329ZM330.67 197.965C326.251 196.318 322.437 193.681 319.202 190.009L314.7 193.975C318.569 198.367 323.203 201.586 328.575 203.587L330.67 197.965ZM319.229 190.04C316.352 186.683 314.767 182.063 314.767 175.864H308.767C308.767 183.105 310.638 189.237 314.673 193.944L319.229 190.04ZM314.767 175.864C314.767 170.584 316.184 165.892 319.007 161.7L314.03 158.348C310.518 163.564 308.767 169.432 308.767 175.864H314.767ZM319.023 161.677C321.813 157.449 326.066 153.994 331.982 151.395L329.568 145.901C322.812 148.87 317.561 152.999 314.015 158.371L319.023 161.677ZM331.966 151.401C337.924 148.823 345.318 147.472 354.247 147.472V141.472C344.744 141.472 336.49 142.905 329.583 145.895L331.966 151.401ZM354.247 147.472C360.437 147.472 366.481 148.211 372.383 149.686L373.838 143.866C367.453 142.269 360.92 141.472 354.247 141.472V147.472ZM372.383 149.686C378.272 151.159 383.347 153.255 387.649 155.944L390.829 150.856C385.914 147.785 380.238 145.465 373.838 143.866L372.383 149.686ZM386.46 152.27L379.26 169.982L384.818 172.242L392.018 154.53L386.46 152.27ZM383.518 168.502C373.824 163.005 364.007 160.192 354.103 160.192V166.192C362.823 166.192 371.63 168.659 380.559 173.722L383.518 168.502ZM354.103 160.192C347.358 160.192 341.795 161.263 337.895 163.864L341.223 168.856C343.658 167.233 347.791 166.192 354.103 166.192V160.192ZM337.859 163.888C334.049 166.508 331.951 170.18 331.951 174.712H337.951C337.951 172.332 338.925 170.436 341.258 168.832L337.859 163.888ZM331.951 174.712C331.951 176.982 332.544 179.099 333.808 180.944C335.056 182.766 336.841 184.152 338.966 185.186L341.591 179.79C340.164 179.096 339.285 178.322 338.758 177.552C338.246 176.805 337.951 175.898 337.951 174.712H331.951ZM339.054 185.226C342.985 186.985 348.744 188.669 356.192 190.313L357.486 184.455C350.149 182.835 344.868 181.255 341.504 179.75L339.054 185.226ZM356.146 190.303C363.759 192.111 369.918 193.902 374.655 195.667L376.75 190.045C371.696 188.162 365.278 186.305 357.532 184.465L356.146 190.303ZM374.655 195.667C379.085 197.318 382.847 199.911 385.976 203.475L390.485 199.517C386.703 195.209 382.112 192.042 376.75 190.045L374.655 195.667ZM386.004 203.506C388.936 206.755 390.559 211.297 390.559 217.48H396.559C396.559 210.223 394.63 204.109 390.458 199.486L386.004 203.506ZM390.559 217.48C390.559 222.633 389.11 227.326 386.182 231.633L391.144 235.007C394.743 229.714 396.559 223.847 396.559 217.48H390.559ZM386.174 231.644C383.395 235.771 379.101 239.189 373.071 241.799L375.454 247.305C382.288 244.347 387.595 240.277 391.151 234.996L386.174 231.644ZM373.071 241.799C367.114 244.377 359.72 245.728 350.791 245.728V251.728C360.294 251.728 368.548 250.295 375.454 247.305L373.071 241.799ZM409.499 146.2V143.2H406.499V146.2H409.499ZM432.827 146.2H435.827V143.2H432.827V146.2ZM432.827 247V250H435.827V247H432.827ZM409.499 247H406.499V250H409.499V247ZM409.499 149.2H432.827V143.2H409.499V149.2ZM429.827 146.2V247H435.827V146.2H429.827ZM432.827 244H409.499V250H432.827V244ZM412.499 247V146.2H406.499V247H412.499ZM549.197 146.2H552.197V143.2H549.197V146.2ZM549.197 247V250H552.197V247H549.197ZM530.045 247L527.726 248.904L528.627 250H530.045V247ZM479.789 185.8L482.107 183.896L476.789 177.419V185.8H479.789ZM479.789 247V250H482.789V247H479.789ZM456.749 247H453.749V250H456.749V247ZM456.749 146.2V143.2H453.749V146.2H456.749ZM476.045 146.2L478.366 144.299L477.466 143.2H476.045V146.2ZM526.157 207.4L523.836 209.301L529.157 215.799V207.4H526.157ZM526.157 146.2V143.2H523.157V146.2H526.157ZM546.197 146.2V247H552.197V146.2H546.197ZM549.197 244H530.045V250H549.197V244ZM532.363 245.096L482.107 183.896L477.47 187.704L527.726 248.904L532.363 245.096ZM476.789 185.8V247H482.789V185.8H476.789ZM479.789 244H456.749V250H479.789V244ZM459.749 247V146.2H453.749V247H459.749ZM456.749 149.2H476.045V143.2H456.749V149.2ZM473.724 148.101L523.836 209.301L528.478 205.499L478.366 144.299L473.724 148.101ZM529.157 207.4V146.2H523.157V207.4H529.157ZM526.157 149.2H549.197V143.2H526.157V149.2ZM593.494 241.96L592.068 244.599L592.074 244.603L592.08 244.606L593.494 241.96ZM573.766 223.384L571.182 224.909L571.193 224.928L571.204 224.946L573.766 223.384ZM573.766 169.96L571.196 168.412L571.191 168.421L573.766 169.96ZM593.494 151.24L592.08 148.594L592.074 148.597L592.068 148.601L593.494 151.24ZM669.814 169.96L667.244 171.508L667.248 171.515L667.252 171.522L669.814 169.96ZM669.814 223.384L672.375 224.946L672.379 224.939L672.384 224.932L669.814 223.384ZM650.086 241.96L651.512 244.599L650.086 241.96ZM637.99 224.824L639.456 227.442L639.475 227.43L639.495 227.419L637.99 224.824ZM649.222 213.304L646.614 211.821L646.603 211.841L646.592 211.86L649.222 213.304ZM649.222 179.896L646.592 181.34L646.603 181.359L646.614 181.379L649.222 179.896ZM637.99 168.52L636.485 171.115L636.504 171.126L636.524 171.138L637.99 168.52ZM605.734 168.52L607.2 171.138L607.219 171.126L607.239 171.115L605.734 168.52ZM594.358 179.896L591.75 178.413L591.739 178.433L591.728 178.452L594.358 179.896ZM594.358 213.304L591.728 214.748L591.739 214.767L591.75 214.787L594.358 213.304ZM605.734 224.824L604.229 227.419L604.248 227.43L604.268 227.442L605.734 224.824ZM621.862 245.728C611.844 245.728 602.881 243.572 594.907 239.314L592.08 244.606C601.003 249.372 610.951 251.728 621.862 251.728V245.728ZM594.92 239.321C587.02 235.053 580.842 229.227 576.327 221.822L571.204 224.946C576.289 233.285 583.263 239.843 592.068 244.599L594.92 239.321ZM576.349 221.859C571.937 214.385 569.71 205.99 569.71 196.6H563.71C563.71 206.986 566.187 216.447 571.182 224.909L576.349 221.859ZM569.71 196.6C569.71 187.21 571.937 178.869 576.341 171.499L571.191 168.421C566.187 176.795 563.71 186.214 563.71 196.6H569.71ZM576.335 171.508C580.853 164.009 587.03 158.142 594.92 153.879L592.068 148.601C583.254 153.362 576.279 159.975 571.196 168.412L576.335 171.508ZM594.907 153.886C602.881 149.628 611.844 147.472 621.862 147.472V141.472C610.951 141.472 601.003 143.828 592.08 148.594L594.907 153.886ZM621.862 147.472C631.88 147.472 640.789 149.628 648.66 153.879L651.512 148.601C642.678 143.828 632.772 141.472 621.862 141.472V147.472ZM648.66 153.879C656.55 158.142 662.727 164.009 667.244 171.508L672.384 168.412C667.301 159.975 660.326 153.362 651.512 148.601L648.66 153.879ZM667.252 171.522C671.745 178.889 674.014 187.222 674.014 196.6H680.014C680.014 186.202 677.483 176.775 672.375 168.398L667.252 171.522ZM674.014 196.6C674.014 205.978 671.745 214.365 667.244 221.836L672.384 224.932C677.483 216.467 680.014 206.998 680.014 196.6H674.014ZM667.252 221.822C662.737 229.227 656.559 235.053 648.66 239.321L651.512 244.599C660.316 239.843 667.29 233.285 672.375 224.946L667.252 221.822ZM648.66 239.321C640.789 243.572 631.88 245.728 621.862 245.728V251.728C632.772 251.728 642.678 249.372 651.512 244.599L648.66 239.321ZM621.862 231.856C628.284 231.856 634.171 230.401 639.456 227.442L636.524 222.206C632.208 224.623 627.344 225.856 621.862 225.856V231.856ZM639.495 227.419C644.771 224.359 648.902 220.119 651.851 214.748L646.592 211.86C644.165 216.281 640.809 219.721 636.485 222.229L639.495 227.419ZM651.83 214.787C654.898 209.391 656.398 203.302 656.398 196.6H650.398C650.398 202.378 649.114 207.425 646.614 211.821L651.83 214.787ZM656.398 196.6C656.398 189.898 654.898 183.809 651.83 178.413L646.614 181.379C649.114 185.775 650.398 190.822 650.398 196.6H656.398ZM651.851 178.452C648.897 173.072 644.754 168.869 639.456 165.902L636.524 171.138C640.826 173.547 644.17 176.928 646.592 181.34L651.851 178.452ZM639.495 165.925C634.204 162.856 628.303 161.344 621.862 161.344V167.344C627.325 167.344 632.175 168.616 636.485 171.115L639.495 165.925ZM621.862 161.344C615.421 161.344 609.519 162.856 604.229 165.925L607.239 171.115C611.548 168.616 616.399 167.344 621.862 167.344V161.344ZM604.268 165.902C598.979 168.864 594.797 173.054 591.75 178.413L596.966 181.379C599.486 176.946 602.888 173.552 607.2 171.138L604.268 165.902ZM591.728 178.452C588.77 183.841 587.326 189.915 587.326 196.6H593.326C593.326 190.804 594.57 185.743 596.987 181.34L591.728 178.452ZM587.326 196.6C587.326 203.284 588.77 209.359 591.728 214.748L596.987 211.86C594.57 207.457 593.326 202.395 593.326 196.6H587.326ZM591.75 214.787C594.792 220.137 598.962 224.364 604.229 227.419L607.239 222.229C602.906 219.716 599.491 216.263 596.966 211.821L591.75 214.787ZM604.268 227.442C609.552 230.401 615.44 231.856 621.862 231.856V225.856C616.38 225.856 611.515 224.623 607.2 222.206L604.268 227.442Z" fill="url(#paint0_linear_646_1754)" fill-opacity="0.24"/>
<path d="M105.76 208.168C103.819 208.168 102.055 207.739 100.468 206.88C98.9 206.003 97.668 204.808 96.772 203.296C95.8947 201.784 95.456 200.085 95.456 198.2C95.456 196.315 95.8947 194.616 96.772 193.104C97.668 191.592 98.9 190.407 100.468 189.548C102.055 188.671 103.819 188.232 105.76 188.232C107.701 188.232 109.447 188.661 110.996 189.52C112.564 190.379 113.796 191.573 114.692 193.104C115.588 194.616 116.036 196.315 116.036 198.2C116.036 200.085 115.588 201.793 114.692 203.324C113.796 204.836 112.564 206.021 110.996 206.88C109.447 207.739 107.701 208.168 105.76 208.168ZM105.76 206.32C107.309 206.32 108.709 205.975 109.96 205.284C111.211 204.575 112.191 203.604 112.9 202.372C113.609 201.121 113.964 199.731 113.964 198.2C113.964 196.669 113.609 195.288 112.9 194.056C112.191 192.805 111.211 191.835 109.96 191.144C108.709 190.435 107.309 190.08 105.76 190.08C104.211 190.08 102.801 190.435 101.532 191.144C100.281 191.835 99.292 192.805 98.564 194.056C97.8547 195.288 97.5 196.669 97.5 198.2C97.5 199.731 97.8547 201.121 98.564 202.372C99.292 203.604 100.281 204.575 101.532 205.284C102.801 205.975 104.211 206.32 105.76 206.32ZM153.987 188.4L147.379 208H145.195L139.455 191.284L133.687 208H131.531L124.923 188.4H127.051L132.707 205.256L138.559 188.4H140.491L146.259 205.34L151.999 188.4H153.987ZM181.166 188.4V208H179.458L166.858 192.096V208H164.786V188.4H166.494L179.122 204.304V188.4H181.166ZM217.403 208.168C215.462 208.168 213.707 207.739 212.139 206.88C210.59 206.021 209.367 204.836 208.471 203.324C207.594 201.793 207.155 200.085 207.155 198.2C207.155 196.315 207.594 194.616 208.471 193.104C209.367 191.573 210.599 190.379 212.167 189.52C213.735 188.661 215.49 188.232 217.431 188.232C218.887 188.232 220.231 188.475 221.463 188.96C222.695 189.445 223.741 190.155 224.599 191.088L223.283 192.404C221.753 190.855 219.821 190.08 217.487 190.08C215.938 190.08 214.529 190.435 213.259 191.144C211.99 191.853 210.991 192.824 210.263 194.056C209.554 195.288 209.199 196.669 209.199 198.2C209.199 199.731 209.554 201.112 210.263 202.344C210.991 203.576 211.99 204.547 213.259 205.256C214.529 205.965 215.938 206.32 217.487 206.32C219.839 206.32 221.771 205.536 223.283 203.968L224.599 205.284C223.741 206.217 222.686 206.936 221.435 207.44C220.203 207.925 218.859 208.168 217.403 208.168ZM247.816 202.764H236.896L234.544 208H232.388L241.348 188.4H243.392L252.352 208H250.168L247.816 202.764ZM247.06 201.084L242.356 190.556L237.652 201.084H247.06ZM267.998 208.168C266.542 208.168 265.142 207.935 263.798 207.468C262.473 207.001 261.446 206.385 260.718 205.62L261.53 204.024C262.24 204.733 263.182 205.312 264.358 205.76C265.534 206.189 266.748 206.404 267.998 206.404C269.753 206.404 271.069 206.087 271.946 205.452C272.824 204.799 273.262 203.959 273.262 202.932C273.262 202.148 273.02 201.523 272.534 201.056C272.068 200.589 271.489 200.235 270.798 199.992C270.108 199.731 269.146 199.451 267.914 199.152C266.44 198.779 265.264 198.424 264.386 198.088C263.509 197.733 262.753 197.201 262.118 196.492C261.502 195.783 261.194 194.821 261.194 193.608C261.194 192.619 261.456 191.723 261.978 190.92C262.501 190.099 263.304 189.445 264.386 188.96C265.469 188.475 266.813 188.232 268.418 188.232C269.538 188.232 270.63 188.391 271.694 188.708C272.777 189.007 273.71 189.427 274.494 189.968L273.794 191.62C272.973 191.079 272.096 190.677 271.162 190.416C270.229 190.136 269.314 189.996 268.418 189.996C266.701 189.996 265.404 190.332 264.526 191.004C263.668 191.657 263.238 192.507 263.238 193.552C263.238 194.336 263.472 194.971 263.938 195.456C264.424 195.923 265.021 196.287 265.73 196.548C266.458 196.791 267.429 197.061 268.642 197.36C270.08 197.715 271.237 198.069 272.114 198.424C273.01 198.76 273.766 199.283 274.382 199.992C274.998 200.683 275.306 201.625 275.306 202.82C275.306 203.809 275.036 204.715 274.494 205.536C273.972 206.339 273.16 206.983 272.058 207.468C270.957 207.935 269.604 208.168 267.998 208.168ZM292.225 208.168C290.769 208.168 289.369 207.935 288.025 207.468C286.7 207.001 285.673 206.385 284.945 205.62L285.757 204.024C286.466 204.733 287.409 205.312 288.585 205.76C289.761 206.189 290.974 206.404 292.225 206.404C293.98 206.404 295.296 206.087 296.173 205.452C297.05 204.799 297.489 203.959 297.489 202.932C297.489 202.148 297.246 201.523 296.761 201.056C296.294 200.589 295.716 200.235 295.025 199.992C294.334 199.731 293.373 199.451 292.141 199.152C290.666 198.779 289.49 198.424 288.613 198.088C287.736 197.733 286.98 197.201 286.345 196.492C285.729 195.783 285.421 194.821 285.421 193.608C285.421 192.619 285.682 191.723 286.205 190.92C286.728 190.099 287.53 189.445 288.613 188.96C289.696 188.475 291.04 188.232 292.645 188.232C293.765 188.232 294.857 188.391 295.921 188.708C297.004 189.007 297.937 189.427 298.721 189.968L298.021 191.62C297.2 191.079 296.322 190.677 295.389 190.416C294.456 190.136 293.541 189.996 292.645 189.996C290.928 189.996 289.63 190.332 288.753 191.004C287.894 191.657 287.465 192.507 287.465 193.552C287.465 194.336 287.698 194.971 288.165 195.456C288.65 195.923 289.248 196.287 289.957 196.548C290.685 196.791 291.656 197.061 292.869 197.36C294.306 197.715 295.464 198.069 296.341 198.424C297.237 198.76 297.993 199.283 298.609 199.992C299.225 200.683 299.533 201.625 299.533 202.82C299.533 203.809 299.262 204.715 298.721 205.536C298.198 206.339 297.386 206.983 296.285 207.468C295.184 207.935 293.83 208.168 292.225 208.168ZM311.047 188.4H313.119V208H311.047V188.4ZM342.877 188.4V208H341.169L328.569 192.096V208H326.497V188.4H328.205L340.833 204.304V188.4H342.877ZM364.842 208.168C362.901 208.168 361.137 207.739 359.55 206.88C357.982 206.003 356.75 204.808 355.854 203.296C354.977 201.784 354.538 200.085 354.538 198.2C354.538 196.315 354.977 194.616 355.854 193.104C356.75 191.592 357.982 190.407 359.55 189.548C361.137 188.671 362.901 188.232 364.842 188.232C366.783 188.232 368.529 188.661 370.078 189.52C371.646 190.379 372.878 191.573 373.774 193.104C374.67 194.616 375.118 196.315 375.118 198.2C375.118 200.085 374.67 201.793 373.774 203.324C372.878 204.836 371.646 206.021 370.078 206.88C368.529 207.739 366.783 208.168 364.842 208.168ZM364.842 206.32C366.391 206.32 367.791 205.975 369.042 205.284C370.293 204.575 371.273 203.604 371.982 202.372C372.691 201.121 373.046 199.731 373.046 198.2C373.046 196.669 372.691 195.288 371.982 194.056C371.273 192.805 370.293 191.835 369.042 191.144C367.791 190.435 366.391 190.08 364.842 190.08C363.293 190.08 361.883 190.435 360.614 191.144C359.363 191.835 358.374 192.805 357.646 194.056C356.937 195.288 356.582 196.669 356.582 198.2C356.582 199.731 356.937 201.121 357.646 202.372C358.374 203.604 359.363 204.575 360.614 205.284C361.883 205.975 363.293 206.32 364.842 206.32Z" fill="white"/>
<defs>
<linearGradient id="paint0_linear_646_1754" x1="604" y1="-2.25371e-06" x2="612.24" y2="236.322" gradientUnits="userSpaceOnUse">
<stop stop-color="#ABFC4F"/>
<stop offset="1" stop-color="#3DBF69" stop-opacity="0.47"/>
</linearGradient>
</defs>
</svg>
