<svg width="1208" height="260" viewBox="0 0 1208 260" fill="none" xmlns="http://www.w3.org/2000/svg">
<path d="M32.4 111.96L30.9741 114.599L30.9804 114.603L30.9867 114.606L32.4 111.96ZM12.672 93.384L10.0886 94.9091L10.0995 94.9276L10.1106 94.9458L12.672 93.384ZM12.672 39.96L10.1022 38.4119L10.0968 38.4211L12.672 39.96ZM32.4 21.24L30.9867 18.5938L30.9804 18.5971L30.9741 18.6005L32.4 21.24ZM108.72 39.96L106.15 41.508L106.154 41.5149L106.159 41.5218L108.72 39.96ZM108.72 93.384L111.281 94.9458L111.286 94.9389L111.29 94.932L108.72 93.384ZM88.992 111.96L90.4179 114.599L88.992 111.96ZM76.896 94.824L78.3618 97.4415L78.3816 97.4305L78.4012 97.4191L76.896 94.824ZM88.128 83.304L85.5201 81.8211L85.5091 81.8406L85.4983 81.8602L88.128 83.304ZM88.128 49.896L85.4983 51.3398L85.5091 51.3594L85.5201 51.3789L88.128 49.896ZM76.896 38.52L75.3909 41.1151L75.4104 41.1265L75.4302 41.1375L76.896 38.52ZM44.64 38.52L46.1058 41.1375L46.1256 41.1265L46.1452 41.1151L44.64 38.52ZM33.264 49.896L30.6561 48.4131L30.6451 48.4326L30.6343 48.4522L33.264 49.896ZM33.264 83.304L30.6343 84.7478L30.6451 84.7674L30.6561 84.7869L33.264 83.304ZM44.64 94.824L43.1348 97.4191L43.1544 97.4305L43.1742 97.4415L44.64 94.824ZM60.768 115.728C50.7504 115.728 41.7871 113.572 33.8133 109.314L30.9867 114.606C39.9089 119.372 49.8577 121.728 60.768 121.728V115.728ZM33.8259 109.321C25.9266 105.053 19.7485 99.227 15.2334 91.8222L10.1106 94.9458C15.1955 103.285 22.1694 109.843 30.9741 114.599L33.8259 109.321ZM15.2554 91.8589C10.8429 84.3847 8.616 75.9897 8.616 66.6H2.616C2.616 76.9863 5.09308 86.4473 10.0886 94.9091L15.2554 91.8589ZM8.616 66.6C8.616 57.21 10.8429 48.8694 15.2472 41.4989L10.0968 38.4211C5.09308 46.7946 2.616 56.214 2.616 66.6H8.616ZM15.2417 41.508C19.759 34.0094 25.9358 28.142 33.8259 23.8795L30.9741 18.6005C22.1602 23.362 15.185 29.9746 10.1023 38.412L15.2417 41.508ZM33.8133 23.8862C41.7871 19.6275 50.7504 17.472 60.768 17.472V11.472C49.8577 11.472 39.9089 13.8285 30.9867 18.5938L33.8133 23.8862ZM60.768 17.472C70.7861 17.472 79.6957 19.6276 87.5661 23.8795L90.4179 18.6005C81.5843 13.8284 71.6779 11.472 60.768 11.472V17.472ZM87.5661 23.8795C95.4563 28.142 101.633 34.0094 106.15 41.508L111.29 38.412C106.207 29.9746 99.2318 23.362 90.4179 18.6005L87.5661 23.8795ZM106.159 41.5218C110.651 48.8892 112.92 57.2215 112.92 66.6H118.92C118.92 56.2025 116.389 46.7748 111.281 38.3982L106.159 41.5218ZM112.92 66.6C112.92 75.9782 110.651 84.365 106.15 91.836L111.29 94.932C116.389 86.467 118.92 76.9978 118.92 66.6H112.92ZM106.159 91.8222C101.644 99.227 95.4654 105.053 87.5661 109.321L90.4179 114.599C99.2226 109.843 106.197 103.285 111.281 94.9458L106.159 91.8222ZM87.5661 109.321C79.6957 113.572 70.7861 115.728 60.768 115.728V121.728C71.6779 121.728 81.5843 119.372 90.4179 114.599L87.5661 109.321ZM60.768 101.856C67.19 101.856 73.0777 100.401 78.3618 97.4415L75.4302 92.2065C71.1143 94.6234 66.25 95.856 60.768 95.856V101.856ZM78.4012 97.4191C83.6772 94.359 87.8086 90.1195 90.7577 84.7478L85.4983 81.8602C83.0714 86.2805 79.7149 89.721 75.3909 92.2289L78.4012 97.4191ZM90.7359 84.7869C93.8039 79.3915 95.304 73.3025 95.304 66.6H89.304C89.304 72.3775 88.0202 77.4245 85.5201 81.8211L90.7359 84.7869ZM95.304 66.6C95.304 59.8975 93.8039 53.8085 90.7359 48.4131L85.5201 51.3789C88.0202 55.7755 89.304 60.8225 89.304 66.6H95.304ZM90.7577 48.4522C87.8037 43.0716 83.6599 38.8694 78.3618 35.9025L75.4302 41.1375C79.7321 43.5466 83.0763 46.9284 85.4983 51.3398L90.7577 48.4522ZM78.4012 35.9249C73.1107 32.8564 67.2089 31.344 60.768 31.344V37.344C66.2311 37.344 71.0813 38.6156 75.3909 41.1151L78.4012 35.9249ZM60.768 31.344C54.3271 31.344 48.4253 32.8564 43.1348 35.9249L46.1452 41.1151C50.4547 38.6156 55.3049 37.344 60.768 37.344V31.344ZM43.1742 35.9025C37.8855 38.8642 33.7036 43.0538 30.6561 48.4131L35.8719 51.3789C38.3924 46.9462 41.7945 43.5518 46.1058 41.1375L43.1742 35.9025ZM30.6343 48.4522C27.6759 53.8406 26.232 59.9155 26.232 66.6H32.232C32.232 60.8045 33.4761 55.7434 35.8937 51.3398L30.6343 48.4522ZM26.232 66.6C26.232 73.2845 27.6759 79.3594 30.6343 84.7478L35.8937 81.8602C33.4761 77.4566 32.232 72.3955 32.232 66.6H26.232ZM30.6561 84.7869C33.6986 90.1375 37.8681 94.3644 43.1348 97.4191L46.1452 92.2289C41.8119 89.7156 38.3974 86.2625 35.8719 81.8211L30.6561 84.7869ZM43.1742 97.4415C48.4583 100.401 54.346 101.856 60.768 101.856V95.856C55.286 95.856 50.4217 94.6234 46.1058 92.2065L43.1742 97.4415ZM282.429 16.2L285.28 17.1328L286.567 13.2H282.429V16.2ZM249.453 117V120H251.628L252.304 117.933L249.453 117ZM224.397 117L221.544 117.927L222.217 120H224.397V117ZM202.221 48.744L205.074 47.817L202.267 39.1752L199.377 47.7899L202.221 48.744ZM179.325 117V120H181.483L182.169 117.954L179.325 117ZM154.413 117L151.563 117.936L152.241 120H154.413V117ZM121.293 16.2V13.2H117.149L118.443 17.1365L121.293 16.2ZM145.485 16.2L148.341 15.2827L147.672 13.2H145.485V16.2ZM168.237 87.048L165.381 87.9653L168.175 96.6673L171.081 88.0019L168.237 87.048ZM191.997 16.2V13.2H189.839L189.153 15.2461L191.997 16.2ZM213.597 16.2L216.452 15.279L215.781 13.2H213.597V16.2ZM236.637 87.624L233.782 88.545L236.611 97.3138L239.487 88.5606L236.637 87.624ZM260.109 16.2V13.2H257.937L257.259 15.2634L260.109 16.2ZM279.578 15.2672L246.602 116.067L252.304 117.933L285.28 17.1328L279.578 15.2672ZM249.453 114H224.397V120H249.453V114ZM227.25 116.073L205.074 47.817L199.368 49.671L221.544 117.927L227.25 116.073ZM199.377 47.7899L176.481 116.046L182.169 117.954L205.065 49.6981L199.377 47.7899ZM179.325 114H154.413V120H179.325V114ZM157.263 116.064L124.143 15.2635L118.443 17.1365L151.563 117.936L157.263 116.064ZM121.293 19.2H145.485V13.2H121.293V19.2ZM142.629 17.1173L165.381 87.9653L171.093 86.1307L148.341 15.2827L142.629 17.1173ZM171.081 88.0019L194.841 17.1539L189.153 15.2461L165.393 86.0941L171.081 88.0019ZM191.997 19.2H213.597V13.2H191.997V19.2ZM210.742 17.121L233.782 88.545L239.492 86.703L216.452 15.279L210.742 17.121ZM239.487 88.5606L262.959 17.1366L257.259 15.2634L233.787 86.6874L239.487 88.5606ZM260.109 19.2H282.429V13.2H260.109V19.2ZM387.9 16.2H390.9V13.2H387.9V16.2ZM387.9 117V120H390.9V117H387.9ZM368.748 117L366.43 118.904L367.33 120H368.748V117ZM318.492 55.8L320.81 53.8961L315.492 47.4195V55.8H318.492ZM318.492 117V120H321.492V117H318.492ZM295.452 117H292.452V120H295.452V117ZM295.452 16.2V13.2H292.452V16.2H295.452ZM314.748 16.2L317.069 14.2994L316.169 13.2H314.748V16.2ZM364.86 77.4L362.539 79.3006L367.86 85.7991V77.4H364.86ZM364.86 16.2V13.2H361.86V16.2H364.86ZM384.9 16.2V117H390.9V16.2H384.9ZM387.9 114H368.748V120H387.9V114ZM371.066 115.096L320.81 53.8961L316.174 57.7039L366.43 118.904L371.066 115.096ZM315.492 55.8V117H321.492V55.8H315.492ZM318.492 114H295.452V120H318.492V114ZM298.452 117V16.2H292.452V117H298.452ZM295.452 19.2H314.748V13.2H295.452V19.2ZM312.427 18.1006L362.539 79.3006L367.181 75.4994L317.069 14.2994L312.427 18.1006ZM367.86 77.4V16.2H361.86V77.4H367.86ZM364.86 19.2H387.9V13.2H364.86V19.2ZM80.064 195.016V192.016H77.064V195.016H80.064ZM101.376 195.016H104.376V192.016H101.376V195.016ZM101.376 235.912L103.183 238.307L104.376 237.407V235.912H101.376ZM82.368 245.416L83.2476 248.284L82.368 245.416ZM32.4 242.104L30.9741 244.743L30.9859 244.75L30.9977 244.756L32.4 242.104ZM12.672 223.528L10.0886 225.053L10.0995 225.072L10.1106 225.09L12.672 223.528ZM12.672 169.816L10.1022 168.268L10.0968 168.277L12.672 169.816ZM32.544 151.24L33.9338 153.899L33.9456 153.893L33.9573 153.886L32.544 151.24ZM85.104 148.936L86.25 146.163L85.104 148.936ZM103.248 161.896L105.283 164.1L107.416 162.131L105.518 159.934L103.248 161.896ZM88.272 175.72L86.0963 177.786L88.1331 179.931L90.3068 177.924L88.272 175.72ZM45.072 168.376L46.4943 171.017H46.4943L45.072 168.376ZM33.408 213.304L30.8001 214.787L33.408 213.304ZM44.928 224.824L43.4451 227.432L43.4752 227.449L43.5057 227.465L44.928 224.824ZM80.064 224.536L81.4807 227.18L83.064 226.332V224.536H80.064ZM80.064 198.016H101.376V192.016H80.064V198.016ZM98.376 195.016V235.912H104.376V195.016H98.376ZM99.5693 233.517C94.4026 237.415 88.3871 240.432 81.4884 242.548L83.2476 248.284C90.7489 245.984 97.4054 242.665 103.183 238.307L99.5693 233.517ZM81.4884 242.548C74.5642 244.671 67.6124 245.728 60.624 245.728V251.728C68.2276 251.728 75.7718 250.577 83.2476 248.284L81.4884 242.548ZM60.624 245.728C50.5953 245.728 41.6772 243.616 33.8023 239.452L30.9977 244.756C39.8268 249.424 49.7247 251.728 60.624 251.728V245.728ZM33.8259 239.465C25.9266 235.197 19.7485 229.371 15.2334 221.966L10.1106 225.09C15.1955 233.429 22.1694 239.987 30.9741 244.743L33.8259 239.465ZM15.2554 222.003C10.8456 214.533 8.616 206.091 8.616 196.6H2.616C2.616 207.077 5.0904 216.587 10.0886 225.053L15.2554 222.003ZM8.616 196.6C8.616 187.108 10.8456 178.721 15.2472 171.355L10.0968 168.277C5.09036 176.655 2.616 186.124 2.616 196.6H8.616ZM15.2417 171.364C19.7504 163.88 25.9608 158.066 33.9338 153.899L31.1542 148.581C22.2312 153.246 15.1936 159.816 10.1023 168.268L15.2417 171.364ZM33.9573 153.886C41.9271 149.63 50.9374 147.472 61.056 147.472V141.472C50.0546 141.472 40.0569 143.826 31.1307 148.594L33.9573 153.886ZM61.056 147.472C69.5471 147.472 77.1668 148.901 83.958 151.708L86.25 146.163C78.6412 143.019 70.2289 141.472 61.056 141.472V147.472ZM83.958 151.708C90.7435 154.513 96.4011 158.563 100.978 163.858L105.518 159.934C100.303 153.901 93.8645 149.311 86.25 146.163L83.958 151.708ZM101.213 159.692L86.2372 173.516L90.3068 177.924L105.283 164.1L101.213 159.692ZM90.4477 173.654C82.6989 165.492 73.232 161.344 62.208 161.344V167.344C71.536 167.344 79.4451 170.78 86.0963 177.786L90.4477 173.654ZM62.208 161.344C55.3471 161.344 49.1347 162.781 43.6497 165.735L46.4943 171.017C50.9933 168.595 56.2049 167.344 62.208 167.344V161.344ZM43.6497 165.735C38.1651 168.688 33.8646 172.88 30.8001 178.269L36.0159 181.235C38.5194 176.832 41.9949 173.44 46.4943 171.017L43.6497 165.735ZM30.8001 178.269C27.7283 183.671 26.232 189.81 26.232 196.6H32.232C32.232 190.718 33.5197 185.625 36.0159 181.235L30.8001 178.269ZM26.232 196.6C26.232 203.302 27.7322 209.391 30.8001 214.787L36.0159 211.821C33.5159 207.424 32.232 202.378 32.232 196.6H26.232ZM30.8001 214.787C33.851 220.152 38.0797 224.381 43.4451 227.432L46.4109 222.216C41.9843 219.699 38.533 216.248 36.0159 211.821L30.8001 214.787ZM43.5057 227.465C48.9842 230.415 55.1469 231.856 61.92 231.856V225.856C56.0212 225.856 50.8558 224.609 46.3503 222.183L43.5057 227.465ZM61.92 231.856C69.0829 231.856 75.6258 230.317 81.4807 227.18L78.6473 221.892C73.7502 224.515 68.1971 225.856 61.92 225.856V231.856ZM83.064 224.536V195.016H77.064V224.536H83.064ZM189.43 225.4L192.202 224.254L191.436 222.4H189.43V225.4ZM142.63 225.4V222.4H140.624L139.857 224.254L142.63 225.4ZM133.702 247V250H135.708L136.474 248.146L133.702 247ZM109.798 247L107.058 245.779L105.176 250H109.798V247ZM154.726 146.2V143.2H152.778L151.986 144.979L154.726 146.2ZM177.766 146.2L180.504 144.975L179.711 143.2H177.766V146.2ZM222.838 247V250H227.465L225.576 245.775L222.838 247ZM198.358 247L195.585 248.146L196.352 250H198.358V247ZM182.086 207.688V210.688H186.575L184.857 206.54L182.086 207.688ZM166.102 169.096L168.873 167.948L166.102 161.256L163.33 167.948L166.102 169.096ZM150.118 207.688L147.346 206.54L145.628 210.688H150.118V207.688ZM189.43 222.4H142.63V228.4H189.43V222.4ZM139.857 224.254L130.929 245.854L136.474 248.146L145.402 226.546L139.857 224.254ZM133.702 244H109.798V250H133.702V244ZM112.538 248.221L157.466 147.421L151.986 144.979L107.058 245.779L112.538 248.221ZM154.726 149.2H177.766V143.2H154.726V149.2ZM175.027 147.425L220.099 248.225L225.576 245.775L180.504 144.975L175.027 147.425ZM222.838 244H198.358V250H222.838V244ZM201.13 245.854L192.202 224.254L186.657 226.546L195.585 248.146L201.13 245.854ZM184.857 206.54L168.873 167.948L163.33 170.244L179.314 208.836L184.857 206.54ZM163.33 167.948L147.346 206.54L152.889 208.836L168.873 170.244L163.33 167.948ZM150.118 210.688H182.086V204.688H150.118V210.688ZM325.024 247L322.024 247.007L322.031 250H325.024V247ZM324.88 186.52L327.88 186.513L327.854 175.66L322.302 184.985L324.88 186.52ZM295.216 236.344V239.344H296.921L297.793 237.879L295.216 236.344ZM284.704 236.344L282.141 237.903L283.017 239.344H284.704V236.344ZM255.184 187.816L257.747 186.257L252.184 177.112V187.816H255.184ZM255.184 247V250H258.184V247H255.184ZM233.296 247H230.296V250H233.296V247ZM233.296 146.2V143.2H230.296V146.2H233.296ZM252.592 146.2L255.162 144.652L254.287 143.2H252.592V146.2ZM290.32 208.84L287.75 210.388L290.34 214.687L292.9 210.37L290.32 208.84ZM327.472 146.2V143.2H325.763L324.891 144.67L327.472 146.2ZM346.624 146.2L349.624 146.191L349.615 143.2H346.624V146.2ZM346.912 247V250H349.92L349.912 246.991L346.912 247ZM328.024 246.993L327.88 186.513L321.88 186.527L322.024 247.007L328.024 246.993ZM322.302 184.985L292.638 234.809L297.793 237.879L327.457 188.055L322.302 184.985ZM295.216 233.344H284.704V239.344H295.216V233.344ZM287.267 234.785L257.747 186.257L252.621 189.375L282.141 237.903L287.267 234.785ZM252.184 187.816V247H258.184V187.816H252.184ZM255.184 244H233.296V250H255.184V244ZM236.296 247V146.2H230.296V247H236.296ZM233.296 149.2H252.592V143.2H233.296V149.2ZM250.022 147.748L287.75 210.388L292.89 207.292L255.162 144.652L250.022 147.748ZM292.9 210.37L330.052 147.73L324.891 144.67L287.739 207.31L292.9 210.37ZM327.472 149.2H346.624V143.2H327.472V149.2ZM343.624 146.209L343.912 247.009L349.912 246.991L349.624 146.191L343.624 146.209ZM346.912 244H325.024V250H346.912V244ZM448.875 228.28H451.875V225.28H448.875V228.28ZM448.875 247V250H451.875V247H448.875ZM370.827 247H367.827V250H370.827V247ZM370.827 146.2V143.2H367.827V146.2H370.827ZM447.003 146.2H450.003V143.2H447.003V146.2ZM447.003 164.92V167.92H450.003V164.92H447.003ZM394.011 164.92V161.92H391.011V164.92H394.011ZM394.011 186.808H391.011V189.808H394.011V186.808ZM440.811 186.808H443.811V183.808H440.811V186.808ZM440.811 204.952V207.952H443.811V204.952H440.811ZM394.011 204.952V201.952H391.011V204.952H394.011ZM394.011 228.28H391.011V231.28H394.011V228.28ZM445.875 228.28V247H451.875V228.28H445.875ZM448.875 244H370.827V250H448.875V244ZM373.827 247V146.2H367.827V247H373.827ZM370.827 149.2H447.003V143.2H370.827V149.2ZM444.003 146.2V164.92H450.003V146.2H444.003ZM447.003 161.92H394.011V167.92H447.003V161.92ZM391.011 164.92V186.808H397.011V164.92H391.011ZM394.011 189.808H440.811V183.808H394.011V189.808ZM437.811 186.808V204.952H443.811V186.808H437.811ZM440.811 201.952H394.011V207.952H440.811V201.952ZM391.011 204.952V228.28H397.011V204.952H391.011ZM394.011 231.28H448.875V225.28H394.011V231.28ZM477.372 245.56L476.514 248.435L476.536 248.441L476.558 248.447L477.372 245.56ZM459.516 237.064L456.781 235.831L455.804 237.999L457.692 239.446L459.516 237.064ZM467.436 219.496L469.21 217.077L466.224 214.886L464.701 218.263L467.436 219.496ZM482.844 227.128L483.765 224.273L482.844 227.128ZM515.388 227.128L516.943 229.694L516.971 229.677L516.999 229.659L515.388 227.128ZM517.26 213.304L515.26 215.54L515.322 215.595L515.386 215.647L517.26 213.304ZM510.06 209.416L509.112 212.262L509.126 212.267L509.139 212.271L510.06 209.416ZM498.252 206.248L497.559 209.167L497.568 209.169L497.578 209.171L498.252 206.248ZM479.388 200.776L480.436 197.965L479.388 200.776ZM466.716 191.992L464.439 193.944L464.452 193.96L464.465 193.975L466.716 191.992ZM466.284 160.024L468.773 161.7L468.78 161.688L468.788 161.677L466.284 160.024ZM480.54 148.648L479.349 145.895L479.341 145.898L479.334 145.901L480.54 148.648ZM522.876 146.776L523.604 143.866L522.876 146.776ZM539.004 153.4L541.784 154.53L542.733 152.193L540.594 150.856L539.004 153.4ZM531.804 171.112L530.325 173.722L533.297 175.407L534.584 172.242L531.804 171.112ZM489.324 166.36L487.66 163.864L487.642 163.876L487.625 163.888L489.324 166.36ZM490.044 182.488L488.732 185.186L488.775 185.207L488.819 185.226L490.044 182.488ZM506.604 187.384L507.298 184.465L507.274 184.46L507.251 184.455L506.604 187.384ZM525.468 192.856L526.516 190.045L525.468 192.856ZM537.996 201.496L535.742 203.475L535.755 203.491L535.769 203.506L537.996 201.496ZM538.428 233.32L535.948 231.633L535.94 231.644L538.428 233.32ZM524.028 244.552L522.837 241.799L524.028 244.552ZM500.556 245.728C492.857 245.728 485.403 244.708 478.187 242.673L476.558 248.447C484.317 250.636 492.32 251.728 500.556 251.728V245.728ZM478.231 242.686C471.071 240.547 465.48 237.853 461.341 234.682L457.692 239.446C462.576 243.187 468.889 246.157 476.514 248.435L478.231 242.686ZM462.251 238.297L470.171 220.729L464.701 218.263L456.781 235.831L462.251 238.297ZM465.662 221.915C470.281 225.302 475.716 227.981 481.923 229.983L483.765 224.273C478.069 222.435 473.232 220.026 469.21 217.077L465.662 221.915ZM481.923 229.983C488.158 231.994 494.42 233.008 500.7 233.008V227.008C495.077 227.008 489.435 226.102 483.765 224.273L481.923 229.983ZM500.7 233.008C507.5 233.008 513.066 232.043 516.943 229.694L513.833 224.562C511.375 226.053 507.149 227.008 500.7 227.008V233.008ZM516.999 229.659C520.879 227.19 523.14 223.667 523.14 219.208H517.14C517.14 221.277 516.233 223.034 513.778 224.597L516.999 229.659ZM523.14 219.208C523.14 215.871 521.746 213.05 519.134 210.961L515.386 215.647C516.615 216.63 517.14 217.745 517.14 219.208H523.14ZM519.261 211.068C517.05 209.09 514.25 207.615 510.981 206.561L509.139 212.271C511.823 213.137 513.822 214.254 515.26 215.54L519.261 211.068ZM511.009 206.57C507.999 205.566 503.958 204.486 498.927 203.325L497.578 209.171C502.531 210.314 506.362 211.346 509.112 212.262L511.009 206.57ZM498.946 203.329C491.332 201.521 485.174 199.73 480.436 197.965L478.341 203.587C483.395 205.47 489.813 207.327 497.559 209.167L498.946 203.329ZM480.436 197.965C476.017 196.318 472.202 193.681 468.967 190.009L464.465 193.975C468.335 198.367 472.968 201.586 478.341 203.587L480.436 197.965ZM468.994 190.04C466.117 186.683 464.532 182.063 464.532 175.864H458.532C458.532 183.105 460.403 189.237 464.439 193.944L468.994 190.04ZM464.532 175.864C464.532 170.584 465.95 165.892 468.773 161.7L463.796 158.348C460.283 163.564 458.532 169.432 458.532 175.864H464.532ZM468.788 161.677C471.579 157.449 475.831 153.994 481.747 151.395L479.334 145.901C472.578 148.87 467.326 152.999 463.781 158.371L468.788 161.677ZM481.732 151.401C487.689 148.823 495.083 147.472 504.012 147.472V141.472C494.509 141.472 486.255 142.905 479.349 145.895L481.732 151.401ZM504.012 147.472C510.203 147.472 516.246 148.211 522.149 149.686L523.604 143.866C517.218 142.269 510.686 141.472 504.012 141.472V147.472ZM522.149 149.686C528.037 151.159 533.113 153.255 537.414 155.944L540.594 150.856C535.68 147.785 530.004 145.465 523.604 143.866L522.149 149.686ZM536.225 152.27L529.025 169.982L534.584 172.242L541.784 154.53L536.225 152.27ZM533.284 168.502C523.589 163.005 513.772 160.192 503.868 160.192V166.192C512.588 166.192 521.396 168.659 530.325 173.722L533.284 168.502ZM503.868 160.192C497.124 160.192 491.561 161.263 487.66 163.864L490.988 168.856C493.424 167.233 497.557 166.192 503.868 166.192V160.192ZM487.625 163.888C483.814 166.508 481.716 170.18 481.716 174.712H487.716C487.716 172.332 488.69 170.436 491.024 168.832L487.625 163.888ZM481.716 174.712C481.716 176.982 482.309 179.099 483.574 180.944C484.822 182.766 486.607 184.152 488.732 185.186L491.357 179.79C489.93 179.096 489.051 178.322 488.523 177.552C488.011 176.805 487.716 175.898 487.716 174.712H481.716ZM488.819 185.226C492.751 186.985 498.51 188.669 505.958 190.313L507.251 184.455C499.915 182.835 494.634 181.255 491.269 179.75L488.819 185.226ZM505.911 190.303C513.525 192.111 519.683 193.902 524.421 195.667L526.516 190.045C521.462 188.162 515.044 186.305 507.298 184.465L505.911 190.303ZM524.421 195.667C528.851 197.318 532.613 199.911 535.742 203.475L540.251 199.517C536.468 195.209 531.878 192.042 526.516 190.045L524.421 195.667ZM535.769 203.506C538.701 206.755 540.324 211.297 540.324 217.48H546.324C546.324 210.223 544.395 204.109 540.224 199.486L535.769 203.506ZM540.324 217.48C540.324 222.633 538.876 227.326 535.948 231.633L540.909 235.007C544.509 229.714 546.324 223.847 546.324 217.48H540.324ZM535.94 231.644C533.16 235.771 528.867 239.189 522.837 241.799L525.22 247.305C532.054 244.347 537.36 240.277 540.917 234.996L535.94 231.644ZM522.837 241.799C516.879 244.377 509.485 245.728 500.556 245.728V251.728C510.059 251.728 518.313 250.295 525.22 247.305L522.837 241.799Z" fill="url(#paint0_linear_646_1754)" fill-opacity="0.24"/>
<path d="M105.76 208.168C103.819 208.168 102.055 207.739 100.468 206.88C98.9 206.003 97.668 204.808 96.772 203.296C95.8947 201.784 95.456 200.085 95.456 198.2C95.456 196.315 95.8947 194.616 96.772 193.104C97.668 191.592 98.9 190.407 100.468 189.548C102.055 188.671 103.819 188.232 105.76 188.232C107.701 188.232 109.447 188.661 110.996 189.52C112.564 190.379 113.796 191.573 114.692 193.104C115.588 194.616 116.036 196.315 116.036 198.2C116.036 200.085 115.588 201.793 114.692 203.324C113.796 204.836 112.564 206.021 110.996 206.88C109.447 207.739 107.701 208.168 105.76 208.168ZM105.76 206.32C107.309 206.32 108.709 205.975 109.96 205.284C111.211 204.575 112.191 203.604 112.9 202.372C113.609 201.121 113.964 199.731 113.964 198.2C113.964 196.669 113.609 195.288 112.9 194.056C112.191 192.805 111.211 191.835 109.96 191.144C108.709 190.435 107.309 190.08 105.76 190.08C104.211 190.08 102.801 190.435 101.532 191.144C100.281 191.835 99.292 192.805 98.564 194.056C97.8547 195.288 97.5 196.669 97.5 198.2C97.5 199.731 97.8547 201.121 98.564 202.372C99.292 203.604 100.281 204.575 101.532 205.284C102.801 205.975 104.211 206.32 105.76 206.32ZM153.987 188.4L147.379 208H145.195L139.455 191.284L133.687 208H131.531L124.923 188.4H127.051L132.707 205.256L138.559 188.4H140.491L146.259 205.34L151.999 188.4H153.987ZM181.166 188.4V208H179.458L166.858 192.096V208H164.786V188.4H166.494L179.122 204.304V188.4H181.166ZM221.239 197.892C222.527 198.172 223.517 198.732 224.207 199.572C224.917 200.393 225.271 201.457 225.271 202.764C225.271 204.444 224.646 205.741 223.395 206.656C222.163 207.552 220.334 208 217.907 208H208.891V188.4H217.347C219.531 188.4 221.221 188.839 222.415 189.716C223.629 190.593 224.235 191.835 224.235 193.44C224.235 194.523 223.965 195.447 223.423 196.212C222.901 196.959 222.173 197.519 221.239 197.892ZM210.963 190.108V197.22H217.207C218.794 197.22 220.017 196.921 220.875 196.324C221.734 195.708 222.163 194.821 222.163 193.664C222.163 192.507 221.734 191.629 220.875 191.032C220.017 190.416 218.794 190.108 217.207 190.108H210.963ZM217.879 206.292C219.634 206.292 220.959 205.993 221.855 205.396C222.751 204.799 223.199 203.865 223.199 202.596C223.199 200.151 221.426 198.928 217.879 198.928H210.963V206.292H217.879ZM237.001 188.4H239.073V208H237.001V188.4ZM259.786 188.4C262.287 188.4 264.247 188.997 265.666 190.192C267.084 191.387 267.794 193.029 267.794 195.12C267.794 197.211 267.084 198.853 265.666 200.048C264.247 201.224 262.287 201.812 259.786 201.812H254.522V208H252.45V188.4H259.786ZM259.73 199.992C261.671 199.992 263.155 199.572 264.182 198.732C265.208 197.873 265.722 196.669 265.722 195.12C265.722 193.533 265.208 192.32 264.182 191.48C263.155 190.621 261.671 190.192 259.73 190.192H254.522V199.992H259.73ZM307.68 198.2H309.668V205.676C308.753 206.479 307.67 207.095 306.42 207.524C305.169 207.953 303.853 208.168 302.472 208.168C300.512 208.168 298.748 207.739 297.18 206.88C295.612 206.021 294.38 204.836 293.484 203.324C292.588 201.793 292.14 200.085 292.14 198.2C292.14 196.315 292.588 194.616 293.484 193.104C294.38 191.573 295.612 190.379 297.18 189.52C298.748 188.661 300.521 188.232 302.5 188.232C303.993 188.232 305.365 188.475 306.616 188.96C307.866 189.427 308.921 190.127 309.78 191.06L308.492 192.376C306.942 190.845 304.973 190.08 302.584 190.08C300.997 190.08 299.56 190.435 298.272 191.144C297.002 191.835 296.004 192.805 295.276 194.056C294.548 195.288 294.184 196.669 294.184 198.2C294.184 199.731 294.548 201.112 295.276 202.344C296.004 203.576 297.002 204.547 298.272 205.256C299.541 205.965 300.969 206.32 302.556 206.32C304.572 206.32 306.28 205.816 307.68 204.808V198.2ZM334.824 202.764H323.904L321.552 208H319.396L328.356 188.4H330.4L339.36 208H337.176L334.824 202.764ZM334.068 201.084L329.364 190.556L324.66 201.084H334.068ZM369.958 188.4V208H367.97V192.32L360.27 205.508H359.29L351.59 192.404V208H349.602V188.4H351.31L359.822 202.932L368.25 188.4H369.958ZM397.204 206.208V208H383.344V188.4H396.784V190.192H385.416V197.164H395.552V198.928H385.416V206.208H397.204ZM414.479 208.168C413.023 208.168 411.623 207.935 410.279 207.468C408.953 207.001 407.927 206.385 407.199 205.62L408.011 204.024C408.72 204.733 409.663 205.312 410.839 205.76C412.015 206.189 413.228 206.404 414.479 206.404C416.233 206.404 417.549 206.087 418.427 205.452C419.304 204.799 419.743 203.959 419.743 202.932C419.743 202.148 419.5 201.523 419.015 201.056C418.548 200.589 417.969 200.235 417.279 199.992C416.588 199.731 415.627 199.451 414.395 199.152C412.92 198.779 411.744 198.424 410.867 198.088C409.989 197.733 409.233 197.201 408.599 196.492C407.983 195.783 407.675 194.821 407.675 193.608C407.675 192.619 407.936 191.723 408.459 190.92C408.981 190.099 409.784 189.445 410.867 188.96C411.949 188.475 413.293 188.232 414.899 188.232C416.019 188.232 417.111 188.391 418.175 188.708C419.257 189.007 420.191 189.427 420.975 189.968L420.275 191.62C419.453 191.079 418.576 190.677 417.643 190.416C416.709 190.136 415.795 189.996 414.899 189.996C413.181 189.996 411.884 190.332 411.007 191.004C410.148 191.657 409.719 192.507 409.719 193.552C409.719 194.336 409.952 194.971 410.419 195.456C410.904 195.923 411.501 196.287 412.211 196.548C412.939 196.791 413.909 197.061 415.123 197.36C416.56 197.715 417.717 198.069 418.595 198.424C419.491 198.76 420.247 199.283 420.863 199.992C421.479 200.683 421.787 201.625 421.787 202.82C421.787 203.809 421.516 204.715 420.975 205.536C420.452 206.339 419.64 206.983 418.539 207.468C417.437 207.935 416.084 208.168 414.479 208.168Z" fill="white"/>
<defs>
<linearGradient id="paint0_linear_646_1754" x1="604" y1="-2.25371e-06" x2="612.24" y2="236.322" gradientUnits="userSpaceOnUse">
<stop stop-color="#ABFC4F"/>
<stop offset="1" stop-color="#3DBF69" stop-opacity="0.47"/>
</linearGradient>
</defs>
</svg>
