<svg width="1138" height="235" viewBox="0 0 1138 235" fill="none" xmlns="http://www.w3.org/2000/svg">
<path d="M27.4 97.96L25.9741 100.599L25.9804 100.603L25.9867 100.606L27.4 97.96ZM7.672 79.384L5.0886 80.9091L5.09948 80.9276L5.11061 80.9458L7.672 79.384ZM7.672 25.96L5.10224 24.4119L5.09676 24.4211L7.672 25.96ZM27.4 7.24L25.9867 4.59377L25.9804 4.59714L25.9741 4.60053L27.4 7.24ZM103.72 25.96L101.15 27.508L101.154 27.5149L101.159 27.5218L103.72 25.96ZM103.72 79.384L106.281 80.9458L106.286 80.9389L106.29 80.932L103.72 79.384ZM83.992 97.96L85.4179 100.599L83.992 97.96ZM71.896 80.824L73.3618 83.4415L73.3816 83.4305L73.4012 83.4191L71.896 80.824ZM83.128 69.304L80.5201 67.8211L80.5091 67.8406L80.4983 67.8602L83.128 69.304ZM83.128 35.896L80.4983 37.3398L80.5091 37.3594L80.5201 37.3789L83.128 35.896ZM71.896 24.52L70.3909 27.1151L70.4104 27.1265L70.4302 27.1375L71.896 24.52ZM39.64 24.52L41.1058 27.1375L41.1256 27.1265L41.1452 27.1151L39.64 24.52ZM28.264 35.896L25.6561 34.4131L25.6451 34.4326L25.6343 34.4522L28.264 35.896ZM28.264 69.304L25.6343 70.7478L25.6451 70.7674L25.6561 70.7869L28.264 69.304ZM39.64 80.824L38.1348 83.4191L38.1544 83.4305L38.1742 83.4415L39.64 80.824ZM55.768 101.728C45.7504 101.728 36.7871 99.5725 28.8133 95.3138L25.9867 100.606C34.9089 105.372 44.8577 107.728 55.768 107.728V101.728ZM28.8259 95.3205C20.9266 91.0531 14.7485 85.227 10.2334 77.8222L5.11061 80.9458C10.1955 89.285 17.1694 95.8429 25.9741 100.599L28.8259 95.3205ZM10.2554 77.8589C5.84293 70.3847 3.616 61.9897 3.616 52.6H-2.384C-2.384 62.9863 0.0930762 72.4473 5.0886 80.9091L10.2554 77.8589ZM3.616 52.6C3.616 43.21 5.84292 34.8694 10.2472 27.4989L5.09676 24.4211C0.0930781 32.7946 -2.384 42.214 -2.384 52.6H3.616ZM10.2417 27.508C14.759 20.0094 20.9358 14.142 28.8259 9.87946L25.9741 4.60053C17.1602 9.36203 10.185 15.9746 5.10226 24.412L10.2417 27.508ZM28.8133 9.88622C36.7871 5.62752 45.7504 3.472 55.768 3.472V-2.528C44.8577 -2.528 34.9089 -0.171528 25.9867 4.59377L28.8133 9.88622ZM55.768 3.472C65.7861 3.472 74.6957 5.62764 82.5661 9.87946L85.4179 4.60053C76.5843 -0.17164 66.6779 -2.528 55.768 -2.528V3.472ZM82.5661 9.87946C90.4563 14.142 96.633 20.0094 101.15 27.508L106.29 24.412C101.207 15.9746 94.2318 9.36203 85.4179 4.60053L82.5661 9.87946ZM101.159 27.5218C105.651 34.8892 107.92 43.2215 107.92 52.6H113.92C113.92 42.2025 111.389 32.7748 106.281 24.3982L101.159 27.5218ZM107.92 52.6C107.92 61.9782 105.651 70.365 101.15 77.836L106.29 80.932C111.389 72.467 113.92 62.9978 113.92 52.6H107.92ZM101.159 77.8222C96.6435 85.227 90.4654 91.0531 82.5661 95.3205L85.4179 100.599C94.2226 95.8429 101.197 89.285 106.281 80.9458L101.159 77.8222ZM82.5661 95.3205C74.6957 99.5724 65.7861 101.728 55.768 101.728V107.728C66.6779 107.728 76.5843 105.372 85.4179 100.599L82.5661 95.3205ZM55.768 87.856C62.19 87.856 68.0777 86.4006 73.3618 83.4415L70.4302 78.2065C66.1143 80.6234 61.25 81.856 55.768 81.856V87.856ZM73.4012 83.4191C78.6772 80.359 82.8086 76.1195 85.7577 70.7478L80.4983 67.8602C78.0714 72.2805 74.7149 75.721 70.3909 78.2289L73.4012 83.4191ZM85.7359 70.7869C88.8039 65.3915 90.304 59.3025 90.304 52.6H84.304C84.304 58.3775 83.0202 63.4245 80.5201 67.8211L85.7359 70.7869ZM90.304 52.6C90.304 45.8975 88.8039 39.8085 85.7359 34.4131L80.5201 37.3789C83.0202 41.7755 84.304 46.8225 84.304 52.6H90.304ZM85.7577 34.4522C82.8037 29.0716 78.6599 24.8694 73.3618 21.9025L70.4302 27.1375C74.7321 29.5466 78.0763 32.9284 80.4983 37.3398L85.7577 34.4522ZM73.4012 21.9249C68.1107 18.8564 62.2089 17.344 55.768 17.344V23.344C61.2311 23.344 66.0813 24.6156 70.3909 27.1151L73.4012 21.9249ZM55.768 17.344C49.3271 17.344 43.4253 18.8564 38.1348 21.9249L41.1452 27.1151C45.4547 24.6156 50.3049 23.344 55.768 23.344V17.344ZM38.1742 21.9025C32.8855 24.8642 28.7036 29.0538 25.6561 34.4131L30.8719 37.3789C33.3924 32.9462 36.7945 29.5518 41.1058 27.1375L38.1742 21.9025ZM25.6343 34.4522C22.6759 39.8406 21.232 45.9155 21.232 52.6H27.232C27.232 46.8045 28.4761 41.7434 30.8937 37.3398L25.6343 34.4522ZM21.232 52.6C21.232 59.2845 22.6759 65.3594 25.6343 70.7478L30.8937 67.8602C28.4761 63.4566 27.232 58.3955 27.232 52.6H21.232ZM25.6561 70.7869C28.6986 76.1375 32.8681 80.3644 38.1348 83.4191L41.1452 78.2289C36.8119 75.7156 33.3974 72.2625 30.8719 67.8211L25.6561 70.7869ZM38.1742 83.4415C43.4583 86.4006 49.346 87.856 55.768 87.856V81.856C50.286 81.856 45.4217 80.6234 41.1058 78.2065L38.1742 83.4415ZM277.429 2.19999L280.28 3.13278L281.567 -0.800007H277.429V2.19999ZM244.453 103V106H246.628L247.304 103.933L244.453 103ZM219.397 103L216.544 103.927L217.217 106H219.397V103ZM197.221 34.744L200.074 33.817L197.267 25.1752L194.377 33.7899L197.221 34.744ZM174.325 103V106H176.483L177.169 103.954L174.325 103ZM149.413 103L146.563 103.936L147.241 106H149.413V103ZM116.293 2.19999V-0.800007H112.149L113.443 3.13645L116.293 2.19999ZM140.485 2.19999L143.341 1.28272L142.672 -0.800007H140.485V2.19999ZM163.237 73.048L160.381 73.9653L163.175 82.6673L166.081 74.0019L163.237 73.048ZM186.997 2.19999V-0.800007H184.839L184.153 1.24611L186.997 2.19999ZM208.597 2.19999L211.452 1.27899L210.781 -0.800007H208.597V2.19999ZM231.637 73.624L228.782 74.545L231.611 83.3138L234.487 74.5606L231.637 73.624ZM255.109 2.19999V-0.800007H252.937L252.259 1.26338L255.109 2.19999ZM274.578 1.26721L241.602 102.067L247.304 103.933L280.28 3.13278L274.578 1.26721ZM244.453 100H219.397V106H244.453V100ZM222.25 102.073L200.074 33.817L194.368 35.671L216.544 103.927L222.25 102.073ZM194.377 33.7899L171.481 102.046L177.169 103.954L200.065 35.6981L194.377 33.7899ZM174.325 100H149.413V106H174.325V100ZM152.263 102.064L119.143 1.26353L113.443 3.13645L146.563 103.936L152.263 102.064ZM116.293 5.19999H140.485V-0.800007H116.293V5.19999ZM137.629 3.11727L160.381 73.9653L166.093 72.1307L143.341 1.28272L137.629 3.11727ZM166.081 74.0019L189.841 3.15388L184.153 1.24611L160.393 72.0941L166.081 74.0019ZM186.997 5.19999H208.597V-0.800007H186.997V5.19999ZM205.742 3.121L228.782 74.545L234.492 72.703L211.452 1.27899L205.742 3.121ZM234.487 74.5606L257.959 3.1366L252.259 1.26338L228.787 72.6874L234.487 74.5606ZM255.109 5.19999H277.429V-0.800007H255.109V5.19999ZM382.9 2.19999H385.9V-0.800007H382.9V2.19999ZM382.9 103V106H385.9V103H382.9ZM363.748 103L361.43 104.904L362.33 106H363.748V103ZM313.492 41.8L315.81 39.8961L310.492 33.4195V41.8H313.492ZM313.492 103V106H316.492V103H313.492ZM290.452 103H287.452V106H290.452V103ZM290.452 2.19999V-0.800007H287.452V2.19999H290.452ZM309.748 2.19999L312.069 0.299388L311.169 -0.800007H309.748V2.19999ZM359.86 63.4L357.539 65.3006L362.86 71.7991V63.4H359.86ZM359.86 2.19999V-0.800007H356.86V2.19999H359.86ZM379.9 2.19999V103H385.9V2.19999H379.9ZM382.9 100H363.748V106H382.9V100ZM366.066 101.096L315.81 39.8961L311.174 43.7039L361.43 104.904L366.066 101.096ZM310.492 41.8V103H316.492V41.8H310.492ZM313.492 100H290.452V106H313.492V100ZM293.452 103V2.19999H287.452V103H293.452ZM290.452 5.19999H309.748V-0.800007H290.452V5.19999ZM307.427 4.1006L357.539 65.3006L362.181 61.4994L312.069 0.299388L307.427 4.1006ZM362.86 63.4V2.19999H356.86V63.4H362.86ZM359.86 5.19999H382.9V-0.800007H359.86V5.19999ZM98.68 233L95.68 233.007L95.6871 236H98.68V233ZM98.536 172.52L101.536 172.513L101.51 161.66L95.9583 170.985L98.536 172.52ZM68.872 222.344V225.344H70.5773L71.4497 223.879L68.872 222.344ZM58.36 222.344L55.797 223.903L56.6735 225.344H58.36V222.344ZM28.84 173.816L31.403 172.257L25.84 163.112V173.816H28.84ZM28.84 233V236H31.84V233H28.84ZM6.952 233H3.952V236H6.952V233ZM6.952 132.2V129.2H3.952V132.2H6.952ZM26.248 132.2L28.8179 130.652L27.9432 129.2H26.248V132.2ZM63.976 194.84L61.4061 196.388L63.9958 200.687L66.5563 196.37L63.976 194.84ZM101.128 132.2V129.2H99.4193L98.5477 130.67L101.128 132.2ZM120.28 132.2L123.28 132.191L123.271 129.2H120.28V132.2ZM120.568 233V236H123.577L123.568 232.991L120.568 233ZM101.68 232.993L101.536 172.513L95.536 172.527L95.68 233.007L101.68 232.993ZM95.9583 170.985L66.2943 220.809L71.4497 223.879L101.114 174.055L95.9583 170.985ZM68.872 219.344H58.36V225.344H68.872V219.344ZM60.923 220.785L31.403 172.257L26.277 175.375L55.797 223.903L60.923 220.785ZM25.84 173.816V233H31.84V173.816H25.84ZM28.84 230H6.952V236H28.84V230ZM9.952 233V132.2H3.952V233H9.952ZM6.952 135.2H26.248V129.2H6.952V135.2ZM23.6781 133.748L61.4061 196.388L66.5459 193.292L28.8179 130.652L23.6781 133.748ZM66.5563 196.37L103.708 133.73L98.5477 130.67L61.3957 193.31L66.5563 196.37ZM101.128 135.2H120.28V129.2H101.128V135.2ZM117.28 132.209L117.568 233.009L123.568 232.991L123.28 132.191L117.28 132.209ZM120.568 230H98.68V236H120.568V230ZM210.867 211.4L213.64 210.254L212.873 208.4H210.867V211.4ZM164.067 211.4V208.4H162.061L161.295 210.254L164.067 211.4ZM155.139 233V236H157.145L157.912 234.146L155.139 233ZM131.235 233L128.495 231.779L126.614 236H131.235V233ZM176.163 132.2V129.2H174.216L173.423 130.979L176.163 132.2ZM199.203 132.2L201.942 130.975L201.148 129.2H199.203V132.2ZM244.275 233V236H248.903L247.014 231.775L244.275 233ZM219.795 233L217.023 234.146L217.789 236H219.795V233ZM203.523 193.688V196.688H208.013L206.295 192.54L203.523 193.688ZM187.539 155.096L190.311 153.948L187.539 147.256L184.768 153.948L187.539 155.096ZM171.555 193.688L168.784 192.54L167.066 196.688H171.555V193.688ZM210.867 208.4H164.067V214.4H210.867V208.4ZM161.295 210.254L152.367 231.854L157.912 234.146L166.84 212.546L161.295 210.254ZM155.139 230H131.235V236H155.139V230ZM133.975 234.221L178.903 133.421L173.423 130.979L128.495 231.779L133.975 234.221ZM176.163 135.2H199.203V129.2H176.163V135.2ZM196.465 133.425L241.537 234.225L247.014 231.775L201.942 130.975L196.465 133.425ZM244.275 230H219.795V236H244.275V230ZM222.568 231.854L213.64 210.254L208.095 212.546L217.023 234.146L222.568 231.854ZM206.295 192.54L190.311 153.948L184.768 156.244L200.752 194.836L206.295 192.54ZM184.768 153.948L168.784 192.54L174.327 194.836L190.311 156.244L184.768 153.948ZM171.555 196.688H203.523V190.688H171.555V196.688ZM318.957 233L316.491 234.708L317.385 236H318.957V233ZM299.517 204.92L301.984 203.212L301.089 201.92H299.517V204.92ZM278.061 204.92V201.92H275.061V204.92H278.061ZM278.061 233V236H281.061V233H278.061ZM254.733 233H251.733V236H254.733V233ZM254.733 132.2V129.2H251.733V132.2H254.733ZM321.549 136.664L320.305 139.394L320.312 139.397L320.32 139.4L321.549 136.664ZM336.669 188.216L334.173 186.552L334.166 186.562L336.669 188.216ZM321.405 200.6L320.209 197.849L316.847 199.31L318.945 202.317L321.405 200.6ZM344.013 233V236H349.765L346.474 231.283L344.013 233ZM313.053 155.816L311.121 158.111L311.139 158.126L311.157 158.141L313.053 155.816ZM278.061 151.208V148.208H275.061V151.208H278.061ZM278.061 186.344H275.061V189.344H278.061V186.344ZM313.053 181.736L314.986 184.031L313.053 181.736ZM321.424 231.292L301.984 203.212L297.051 206.628L316.491 234.708L321.424 231.292ZM299.517 201.92H298.365V207.92H299.517V201.92ZM298.365 201.92H278.061V207.92H298.365V201.92ZM275.061 204.92V233H281.061V204.92H275.061ZM278.061 230H254.733V236H278.061V230ZM257.733 233V132.2H251.733V233H257.733ZM254.733 135.2H298.365V129.2H254.733V135.2ZM298.365 135.2C306.966 135.2 314.251 136.634 320.305 139.394L322.794 133.934C315.792 130.742 307.621 129.2 298.365 129.2V135.2ZM320.32 139.4C326.479 142.168 331.094 146.035 334.297 150.969L339.33 147.703C335.429 141.693 329.867 137.112 322.779 133.927L320.32 139.4ZM334.297 150.969C337.489 155.886 339.141 161.78 339.141 168.776H345.141C345.141 160.796 343.242 153.73 339.33 147.703L334.297 150.969ZM339.141 168.776C339.141 175.756 337.449 181.639 334.173 186.552L339.165 189.88C343.186 183.849 345.141 176.772 345.141 168.776H339.141ZM334.166 186.562C330.972 191.396 326.367 195.171 320.209 197.849L322.601 203.351C329.691 200.269 335.262 195.788 339.172 189.87L334.166 186.562ZM318.945 202.317L341.553 234.717L346.474 231.283L323.866 198.883L318.945 202.317ZM344.013 230H318.957V236H344.013V230ZM321.525 168.776C321.525 162.413 319.439 157.154 314.95 153.491L311.157 158.141C313.963 160.43 315.525 163.811 315.525 168.776H321.525ZM314.986 153.521C310.593 149.822 304.462 148.208 297.069 148.208V154.208C303.693 154.208 308.218 155.666 311.121 158.111L314.986 153.521ZM297.069 148.208H278.061V154.208H297.069V148.208ZM275.061 151.208V186.344H281.061V151.208H275.061ZM278.061 189.344H297.069V183.344H278.061V189.344ZM297.069 189.344C304.462 189.344 310.593 187.73 314.986 184.031L311.121 179.441C308.218 181.886 303.693 183.344 297.069 183.344V189.344ZM314.986 184.031C319.427 180.291 321.525 175.064 321.525 168.776H315.525C315.525 173.624 313.975 177.037 311.121 179.441L314.986 184.031ZM397.344 193.4L399.67 191.505L397.527 188.875L395.179 191.323L397.344 193.4ZM383.808 207.512L381.643 205.435L380.808 206.306V207.512H383.808ZM383.808 233V236H386.808V233H383.808ZM360.624 233H357.624V236H360.624V233ZM360.624 132.2V129.2H357.624V132.2H360.624ZM383.808 132.2H386.808V129.2H383.808V132.2ZM383.808 179.288H380.808V186.813L385.985 181.352L383.808 179.288ZM428.448 132.2V129.2H427.158L426.271 130.136L428.448 132.2ZM454.368 132.2L456.565 134.242L461.252 129.2H454.368V132.2ZM412.608 177.128L410.41 175.086L408.658 176.971L410.255 178.989L412.608 177.128ZM456.816 233V236H463.015L459.169 231.139L456.816 233ZM429.6 233L427.274 234.895L428.174 236H429.6V233ZM395.179 191.323L381.643 205.435L385.973 209.589L399.509 195.477L395.179 191.323ZM380.808 207.512V233H386.808V207.512H380.808ZM383.808 230H360.624V236H383.808V230ZM363.624 233V132.2H357.624V233H363.624ZM360.624 135.2H383.808V129.2H360.624V135.2ZM380.808 132.2V179.288H386.808V132.2H380.808ZM385.985 181.352L430.625 134.264L426.271 130.136L381.631 177.224L385.985 181.352ZM428.448 135.2H454.368V129.2H428.448V135.2ZM452.171 130.158L410.41 175.086L414.805 179.17L456.565 134.242L452.171 130.158ZM410.255 178.989L454.463 234.861L459.169 231.139L414.961 175.267L410.255 178.989ZM456.816 230H429.6V236H456.816V230ZM431.926 231.105L399.67 191.505L395.018 195.295L427.274 234.895L431.926 231.105ZM545.266 214.28H548.266V211.28H545.266V214.28ZM545.266 233V236H548.266V233H545.266ZM467.218 233H464.218V236H467.218V233ZM467.218 132.2V129.2H464.218V132.2H467.218ZM543.394 132.2H546.394V129.2H543.394V132.2ZM543.394 150.92V153.92H546.394V150.92H543.394ZM490.402 150.92V147.92H487.402V150.92H490.402ZM490.402 172.808H487.402V175.808H490.402V172.808ZM537.202 172.808H540.202V169.808H537.202V172.808ZM537.202 190.952V193.952H540.202V190.952H537.202ZM490.402 190.952V187.952H487.402V190.952H490.402ZM490.402 214.28H487.402V217.28H490.402V214.28ZM542.266 214.28V233H548.266V214.28H542.266ZM545.266 230H467.218V236H545.266V230ZM470.218 233V132.2H464.218V233H470.218ZM467.218 135.2H543.394V129.2H467.218V135.2ZM540.394 132.2V150.92H546.394V132.2H540.394ZM543.394 147.92H490.402V153.92H543.394V147.92ZM487.402 150.92V172.808H493.402V150.92H487.402ZM490.402 175.808H537.202V169.808H490.402V175.808ZM534.202 172.808V190.952H540.202V172.808H534.202ZM537.202 187.952H490.402V193.952H537.202V187.952ZM487.402 190.952V214.28H493.402V190.952H487.402ZM490.402 217.28H545.266V211.28H490.402V217.28ZM584.707 151.208H587.707V148.208H584.707V151.208ZM552.451 151.208H549.451V154.208H552.451V151.208ZM552.451 132.2V129.2H549.451V132.2H552.451ZM640.291 132.2H643.291V129.2H640.291V132.2ZM640.291 151.208V154.208H643.291V151.208H640.291ZM608.035 151.208V148.208H605.035V151.208H608.035ZM608.035 233V236H611.035V233H608.035ZM584.707 233H581.707V236H584.707V233ZM584.707 148.208H552.451V154.208H584.707V148.208ZM555.451 151.208V132.2H549.451V151.208H555.451ZM552.451 135.2H640.291V129.2H552.451V135.2ZM637.291 132.2V151.208H643.291V132.2H637.291ZM640.291 148.208H608.035V154.208H640.291V148.208ZM605.035 151.208V233H611.035V151.208H605.035ZM608.035 230H584.707V236H608.035V230ZM587.707 233V151.208H581.707V233H587.707ZM719.659 136.664L718.414 139.394L718.422 139.397L718.429 139.4L719.659 136.664ZM734.923 188.216L737.439 189.849L737.445 189.839L737.452 189.829L734.923 188.216ZM719.659 200.888L720.87 203.633L720.879 203.629L720.888 203.625L719.659 200.888ZM676.171 205.208V202.208H673.171V205.208H676.171ZM676.171 233V236H679.171V233H676.171ZM652.843 233H649.843V236H652.843V233ZM652.843 132.2V129.2H649.843V132.2H652.843ZM711.163 181.736L713.059 184.061L713.077 184.046L713.095 184.031L711.163 181.736ZM711.163 155.816L709.23 158.111L709.248 158.126L709.266 158.141L711.163 155.816ZM676.171 151.208V148.208H673.171V151.208H676.171ZM676.171 186.2H673.171V189.2H676.171V186.2ZM696.475 135.2C705.075 135.2 712.36 136.634 718.414 139.394L720.903 133.934C713.901 130.742 705.73 129.2 696.475 129.2V135.2ZM718.429 139.4C724.589 142.168 729.203 146.035 732.406 150.969L737.439 147.703C733.538 141.693 727.977 137.112 720.888 133.927L718.429 139.4ZM732.406 150.969C735.598 155.886 737.251 161.78 737.251 168.776H743.251C743.251 160.796 741.351 153.73 737.439 147.703L732.406 150.969ZM737.251 168.776C737.251 175.667 735.602 181.573 732.393 186.603L737.452 189.829C741.347 183.723 743.251 176.669 743.251 168.776H737.251ZM732.406 186.583C729.203 191.517 724.589 195.384 718.429 198.151L720.888 203.625C727.977 200.44 733.538 195.859 737.439 189.849L732.406 186.583ZM718.448 198.143C712.384 200.818 705.087 202.208 696.475 202.208V208.208C705.718 208.208 713.877 206.718 720.87 203.633L718.448 198.143ZM696.475 202.208H676.171V208.208H696.475V202.208ZM673.171 205.208V233H679.171V205.208H673.171ZM676.171 230H652.843V236H676.171V230ZM655.843 233V132.2H649.843V233H655.843ZM652.843 135.2H696.475V129.2H652.843V135.2ZM695.179 189.2C702.552 189.2 708.669 187.642 713.059 184.061L709.266 179.411C706.361 181.782 701.821 183.2 695.179 183.2V189.2ZM713.095 184.031C717.536 180.291 719.635 175.064 719.635 168.776H713.635C713.635 173.624 712.085 177.037 709.23 179.441L713.095 184.031ZM719.635 168.776C719.635 162.413 717.549 157.154 713.059 153.491L709.266 158.141C712.073 160.43 713.635 163.811 713.635 168.776H719.635ZM713.095 153.521C708.702 149.822 702.571 148.208 695.179 148.208V154.208C701.802 154.208 706.327 155.666 709.23 158.111L713.095 153.521ZM695.179 148.208H676.171V154.208H695.179V148.208ZM673.171 151.208V186.2H679.171V151.208H673.171ZM676.171 189.2H695.179V183.2H676.171V189.2ZM756.905 132.2V129.2H753.905V132.2H756.905ZM780.233 132.2H783.233V129.2H780.233V132.2ZM780.233 213.992H777.233V216.992H780.233V213.992ZM830.777 213.992H833.777V210.992H830.777V213.992ZM830.777 233V236H833.777V233H830.777ZM756.905 233H753.905V236H756.905V233ZM756.905 135.2H780.233V129.2H756.905V135.2ZM777.233 132.2V213.992H783.233V132.2H777.233ZM780.233 216.992H830.777V210.992H780.233V216.992ZM827.777 213.992V233H833.777V213.992H827.777ZM830.777 230H756.905V236H830.777V230ZM759.905 233V132.2H753.905V233H759.905ZM911.039 211.4L913.812 210.254L913.045 208.4H911.039V211.4ZM864.239 211.4V208.4H862.233L861.467 210.254L864.239 211.4ZM855.311 233V236H857.317L858.084 234.146L855.311 233ZM831.407 233L828.667 231.779L826.785 236H831.407V233ZM876.335 132.2V129.2H874.388L873.595 130.979L876.335 132.2ZM899.375 132.2L902.114 130.975L901.32 129.2H899.375V132.2ZM944.447 233V236H949.075L947.186 231.775L944.447 233ZM919.967 233L917.195 234.146L917.961 236H919.967V233ZM903.695 193.688V196.688H908.185L906.467 192.54L903.695 193.688ZM887.711 155.096L890.483 153.948L887.711 147.256L884.939 153.948L887.711 155.096ZM871.727 193.688L868.955 192.54L867.237 196.688H871.727V193.688ZM911.039 208.4H864.239V214.4H911.039V208.4ZM861.467 210.254L852.539 231.854L858.084 234.146L867.012 212.546L861.467 210.254ZM855.311 230H831.407V236H855.311V230ZM834.147 234.221L879.075 133.421L873.595 130.979L828.667 231.779L834.147 234.221ZM876.335 135.2H899.375V129.2H876.335V135.2ZM896.636 133.425L941.708 234.225L947.186 231.775L902.114 130.975L896.636 133.425ZM944.447 230H919.967V236H944.447V230ZM922.74 231.854L913.812 210.254L908.267 212.546L917.195 234.146L922.74 231.854ZM906.467 192.54L890.483 153.948L884.939 156.244L900.923 194.836L906.467 192.54ZM884.939 153.948L868.955 192.54L874.499 194.836L890.483 156.244L884.939 153.948ZM871.727 196.688H903.695V190.688H871.727V196.688ZM973.803 228.104L972.364 230.737L972.382 230.746L972.401 230.756L973.803 228.104ZM954.219 209.528L951.635 211.053L951.646 211.072L951.657 211.09L954.219 209.528ZM954.219 155.816L951.649 154.268L951.644 154.277L954.219 155.816ZM973.803 137.24L975.218 139.885L975.229 139.879L973.803 137.24ZM1025.5 135.08L1024.29 137.828L1024.3 137.831L1024.31 137.834L1025.5 135.08ZM1043.35 148.328L1045.39 150.532L1047.49 148.598L1045.66 146.407L1043.35 148.328ZM1028.38 162.152L1026.11 164.116L1028.14 166.457L1030.41 164.356L1028.38 162.152ZM986.331 154.52L987.775 157.15L987.794 157.139L987.814 157.128L986.331 154.52ZM974.811 165.896L972.203 164.413L972.192 164.433L972.181 164.452L974.811 165.896ZM974.811 199.304L972.181 200.748L972.192 200.767L972.203 200.787L974.811 199.304ZM986.331 210.824L984.848 213.432L984.867 213.443L984.887 213.454L986.331 210.824ZM1028.38 202.904L1030.41 200.7L1028.12 198.586L1026.1 200.954L1028.38 202.904ZM1043.35 216.728L1045.68 218.63L1047.47 216.442L1045.39 214.524L1043.35 216.728ZM1025.5 230.12L1024.31 227.366L1025.5 230.12ZM1001.74 231.728C991.912 231.728 983.088 229.62 975.205 225.452L972.401 230.756C981.222 235.42 991.022 237.728 1001.74 237.728V231.728ZM975.242 225.471C967.437 221.206 961.301 215.379 956.78 207.966L951.657 211.09C956.737 219.421 963.656 225.978 972.364 230.737L975.242 225.471ZM956.802 208.003C952.392 200.533 950.163 192.091 950.163 182.6H944.163C944.163 193.077 946.637 202.587 951.635 211.053L956.802 208.003ZM950.163 182.6C950.163 173.108 952.393 164.721 956.794 157.355L951.644 154.277C946.637 162.655 944.163 172.124 944.163 182.6H950.163ZM956.789 157.364C961.308 149.862 967.435 144.048 975.218 139.885L972.388 134.595C963.658 139.264 956.73 145.834 951.649 154.268L956.789 157.364ZM975.229 139.879C983.103 135.625 991.966 133.472 1001.88 133.472V127.472C991.064 127.472 981.207 129.831 972.377 134.601L975.229 139.879ZM1001.88 133.472C1010.26 133.472 1017.72 134.944 1024.29 137.828L1026.7 132.332C1019.27 129.072 1010.97 127.472 1001.88 127.472V133.472ZM1024.31 137.834C1031 140.725 1036.56 144.862 1041.05 150.249L1045.66 146.407C1040.55 140.274 1034.21 135.579 1026.69 132.326L1024.31 137.834ZM1041.32 146.124L1026.34 159.948L1030.41 164.356L1045.39 150.532L1041.32 146.124ZM1030.65 160.188C1023.28 151.683 1014.02 147.344 1003.03 147.344V153.344C1012.21 153.344 1019.84 156.877 1026.11 164.116L1030.65 160.188ZM1003.03 147.344C996.332 147.344 990.243 148.844 984.848 151.912L987.814 157.128C992.21 154.628 997.257 153.344 1003.03 153.344V147.344ZM984.887 151.89C979.5 154.848 975.259 159.039 972.203 164.413L977.419 167.379C979.931 162.961 983.37 159.568 987.775 157.15L984.887 151.89ZM972.181 164.452C969.223 169.841 967.779 175.915 967.779 182.6H973.779C973.779 176.805 975.023 171.743 977.441 167.34L972.181 164.452ZM967.779 182.6C967.779 189.285 969.223 195.359 972.181 200.748L977.441 197.86C975.023 193.457 973.779 188.395 973.779 182.6H967.779ZM972.203 200.787C975.254 206.152 979.483 210.381 984.848 213.432L987.814 208.216C983.387 205.699 979.936 202.248 977.419 197.821L972.203 200.787ZM984.887 213.454C990.276 216.412 996.35 217.856 1003.03 217.856V211.856C997.239 211.856 992.178 210.612 987.775 208.194L984.887 213.454ZM1003.03 217.856C1014.03 217.856 1023.3 213.458 1030.66 204.854L1026.1 200.954C1019.83 208.286 1012.2 211.856 1003.03 211.856V217.856ZM1026.34 205.108L1041.32 218.932L1045.39 214.524L1030.41 200.7L1026.34 205.108ZM1041.03 214.826C1036.54 220.304 1030.98 224.48 1024.31 227.366L1026.69 232.874C1034.22 229.616 1040.56 224.864 1045.68 218.63L1041.03 214.826ZM1024.31 227.366C1017.63 230.256 1010.12 231.728 1001.74 231.728V237.728C1010.83 237.728 1019.16 236.128 1026.69 232.874L1024.31 227.366ZM1137.16 214.28H1140.16V211.28H1137.16V214.28ZM1137.16 233V236H1140.16V233H1137.16ZM1059.11 233H1056.11V236H1059.11V233ZM1059.11 132.2V129.2H1056.11V132.2H1059.11ZM1135.28 132.2H1138.28V129.2H1135.28V132.2ZM1135.28 150.92V153.92H1138.28V150.92H1135.28ZM1082.29 150.92V147.92H1079.29V150.92H1082.29ZM1082.29 172.808H1079.29V175.808H1082.29V172.808ZM1129.09 172.808H1132.09V169.808H1129.09V172.808ZM1129.09 190.952V193.952H1132.09V190.952H1129.09ZM1082.29 190.952V187.952H1079.29V190.952H1082.29ZM1082.29 214.28H1079.29V217.28H1082.29V214.28ZM1134.16 214.28V233H1140.16V214.28H1134.16ZM1137.16 230H1059.11V236H1137.16V230ZM1062.11 233V132.2H1056.11V233H1062.11ZM1059.11 135.2H1135.28V129.2H1059.11V135.2ZM1132.28 132.2V150.92H1138.28V132.2H1132.28ZM1135.28 147.92H1082.29V153.92H1135.28V147.92ZM1079.29 150.92V172.808H1085.29V150.92H1079.29ZM1082.29 175.808H1129.09V169.808H1082.29V175.808ZM1126.09 172.808V190.952H1132.09V172.808H1126.09ZM1129.09 187.952H1082.29V193.952H1129.09V187.952ZM1079.29 190.952V214.28H1085.29V190.952H1079.29ZM1082.29 217.28H1137.16V211.28H1082.29V217.28Z" fill="url(#paint0_linear_0_1)" fill-opacity="0.24"/>
<path d="M100.76 194.168C98.8187 194.168 97.0547 193.739 95.468 192.88C93.9 192.003 92.668 190.808 91.772 189.296C90.8947 187.784 90.456 186.085 90.456 184.2C90.456 182.315 90.8947 180.616 91.772 179.104C92.668 177.592 93.9 176.407 95.468 175.548C97.0547 174.671 98.8187 174.232 100.76 174.232C102.701 174.232 104.447 174.661 105.996 175.52C107.564 176.379 108.796 177.573 109.692 179.104C110.588 180.616 111.036 182.315 111.036 184.2C111.036 186.085 110.588 187.793 109.692 189.324C108.796 190.836 107.564 192.021 105.996 192.88C104.447 193.739 102.701 194.168 100.76 194.168ZM100.76 192.32C102.309 192.32 103.709 191.975 104.96 191.284C106.211 190.575 107.191 189.604 107.9 188.372C108.609 187.121 108.964 185.731 108.964 184.2C108.964 182.669 108.609 181.288 107.9 180.056C107.191 178.805 106.211 177.835 104.96 177.144C103.709 176.435 102.309 176.08 100.76 176.08C99.2107 176.08 97.8013 176.435 96.532 177.144C95.2813 177.835 94.292 178.805 93.564 180.056C92.8547 181.288 92.5 182.669 92.5 184.2C92.5 185.731 92.8547 187.121 93.564 188.372C94.292 189.604 95.2813 190.575 96.532 191.284C97.8013 191.975 99.2107 192.32 100.76 192.32ZM148.987 174.4L142.379 194H140.195L134.455 177.284L128.687 194H126.531L119.923 174.4H122.051L127.707 191.256L133.559 174.4H135.491L141.259 191.34L146.999 174.4H148.987ZM176.166 174.4V194H174.458L161.858 178.096V194H159.786V174.4H161.494L174.122 190.304V174.4H176.166ZM224.247 174.4V194H222.259V178.32L214.559 191.508H213.579L205.879 178.404V194H203.891V174.4H205.599L214.111 188.932L222.539 174.4H224.247ZM249.925 188.764H239.005L236.653 194H234.497L243.457 174.4H245.501L254.461 194H252.277L249.925 188.764ZM249.169 187.084L244.465 176.556L239.761 187.084H249.169ZM278.088 194L273.608 187.7C273.104 187.756 272.581 187.784 272.04 187.784H266.776V194H264.704V174.4H272.04C274.541 174.4 276.501 174.997 277.92 176.192C279.338 177.387 280.048 179.029 280.048 181.12C280.048 182.651 279.656 183.948 278.872 185.012C278.106 186.057 277.005 186.813 275.568 187.28L280.356 194H278.088ZM271.984 186.02C273.925 186.02 275.409 185.591 276.436 184.732C277.462 183.873 277.976 182.669 277.976 181.12C277.976 179.533 277.462 178.32 276.436 177.48C275.409 176.621 273.925 176.192 271.984 176.192H266.776V186.02H271.984ZM298.014 184.788L294.01 188.848V194H291.938V174.4H294.01V186.244L305.518 174.4H307.898L299.414 183.276L308.486 194H306.022L298.014 184.788ZM332.704 192.208V194H318.844V174.4H332.284V176.192H320.916V183.164H331.052V184.928H320.916V192.208H332.704ZM348.383 176.192H341.495V174.4H357.343V176.192H350.455V194H348.383V176.192ZM374.989 174.4C377.49 174.4 379.45 174.997 380.869 176.192C382.288 177.387 382.997 179.029 382.997 181.12C382.997 183.211 382.288 184.853 380.869 186.048C379.45 187.224 377.49 187.812 374.989 187.812H369.725V194H367.653V174.4H374.989ZM374.933 185.992C376.874 185.992 378.358 185.572 379.385 184.732C380.412 183.873 380.925 182.669 380.925 181.12C380.925 179.533 380.412 178.32 379.385 177.48C378.358 176.621 376.874 176.192 374.933 176.192H369.725V185.992H374.933ZM394.477 174.4H396.549V192.208H407.525V194H394.477V174.4ZM430.312 188.764H419.392L417.04 194H414.884L423.844 174.4H425.888L434.848 194H432.664L430.312 188.764ZM429.556 187.084L424.852 176.556L420.148 187.084H429.556ZM453.329 194.168C451.388 194.168 449.633 193.739 448.065 192.88C446.516 192.021 445.293 190.836 444.397 189.324C443.52 187.793 443.081 186.085 443.081 184.2C443.081 182.315 443.52 180.616 444.397 179.104C445.293 177.573 446.525 176.379 448.093 175.52C449.661 174.661 451.416 174.232 453.357 174.232C454.813 174.232 456.157 174.475 457.389 174.96C458.621 175.445 459.666 176.155 460.525 177.088L459.209 178.404C457.678 176.855 455.746 176.08 453.413 176.08C451.864 176.08 450.454 176.435 449.185 177.144C447.916 177.853 446.917 178.824 446.189 180.056C445.48 181.288 445.125 182.669 445.125 184.2C445.125 185.731 445.48 187.112 446.189 188.344C446.917 189.576 447.916 190.547 449.185 191.256C450.454 191.965 451.864 192.32 453.413 192.32C455.765 192.32 457.697 191.536 459.209 189.968L460.525 191.284C459.666 192.217 458.612 192.936 457.361 193.44C456.129 193.925 454.785 194.168 453.329 194.168ZM485.802 192.208V194H471.942V174.4H485.382V176.192H474.014V183.164H484.15V184.928H474.014V192.208H485.802Z" fill="white"/>
<defs>
<linearGradient id="paint0_linear_0_1" x1="599" y1="-14" x2="607.24" y2="222.322" gradientUnits="userSpaceOnUse">
<stop stop-color="#ABFC4F"/>
<stop offset="1" stop-color="#3DBF69" stop-opacity="0.47"/>
</linearGradient>
</defs>
</svg>
