<svg width="225" height="315" viewBox="0 0 225 315" fill="none" xmlns="http://www.w3.org/2000/svg">
<rect width="225" height="315" rx="20" fill="#0D1624"/>
<mask id="mask0_15_336" style="mask-type:alpha" maskUnits="userSpaceOnUse" x="15" y="15" width="195" height="285">
<rect x="16.5" y="16.5" width="192" height="282" rx="8.5" fill="#D9D9D9" stroke="url(#paint0_linear_15_336)" stroke-width="3"/>
</mask>
<g mask="url(#mask0_15_336)">
<path d="M212.976 138.205C213.996 137.647 214.275 136.346 213.718 135.416C213.162 134.486 211.863 134.114 210.936 134.672L195.541 143.599L180.98 135.137V118.584L195.541 110.122L210.936 119.049C211.956 119.607 213.162 119.328 213.718 118.305C214.275 117.282 213.996 116.073 212.976 115.515L197.674 106.681V88.6409C197.674 87.525 196.746 86.595 195.633 86.595C194.521 86.595 193.593 87.525 193.593 88.6409V106.495L179.033 114.957L164.658 106.681V89.9427L180.145 81.0155C181.166 80.4576 181.444 79.1557 180.887 78.2258C180.331 77.2029 179.033 76.9239 178.105 77.4819L162.617 86.4091L147.964 77.9468V59.6275C147.964 58.5116 147.036 57.5817 145.924 57.5817C144.811 57.5817 143.883 58.5116 143.883 59.6275V77.5749L129.415 85.9441L114.948 77.5749V60.8364L130.436 51.9092C131.456 51.3512 131.734 50.0494 131.178 49.1194C130.621 48.0965 129.323 47.8176 128.395 48.3755L112.907 57.3027L97.3265 48.2825C96.3064 47.7246 95.1007 48.0035 94.5443 49.0265C93.9878 50.0494 94.266 51.2582 95.2862 51.8162L110.774 60.7434V77.4819L96.3064 85.8511L81.8386 77.4819V59.6275C81.8386 58.5116 80.9111 57.5817 79.7982 57.5817C78.6853 57.5817 77.7579 58.5116 77.7579 59.6275V77.9468L63.4756 86.2231L47.9876 77.2959C46.9674 76.7379 45.7618 77.0169 45.2053 78.0398C44.6489 79.0627 44.9271 80.2716 45.9472 80.8296L61.4352 89.7567V106.402L46.9674 114.771L32.4996 106.402V88.5479C32.4996 87.432 31.5722 86.502 30.4593 86.502C29.3464 86.502 28.4189 87.432 28.4189 88.5479V106.588L13.1164 115.422C12.0963 115.98 11.818 117.282 12.3745 118.212C12.931 119.235 14.2294 119.514 15.1568 118.956L30.552 110.029L44.7416 118.212V135.137L30.552 143.32L15.1568 134.579C14.1366 134.021 12.931 134.3 12.3745 135.323C11.818 136.346 12.0963 137.554 13.1164 138.112L28.4189 146.947V163.871L13.0237 172.891C12.0035 173.449 11.7253 174.751 12.2818 175.681C12.8382 176.704 14.1366 176.983 15.064 176.425L30.4593 167.498L44.6489 175.681V192.698L30.552 200.882L15.1568 191.954C14.1366 191.397 12.931 191.675 12.3745 192.698C11.818 193.721 12.0963 194.93 13.1164 195.488L28.4189 204.322V222.921C28.4189 224.037 29.3464 224.966 30.4593 224.966C31.5722 224.966 32.4996 224.037 32.4996 222.921V204.973L46.9674 196.604L61.4352 204.973V221.712L45.9472 230.639C44.9271 231.197 44.6489 232.499 45.2053 233.429C45.5763 234.08 46.3182 234.452 46.9674 234.452C47.3384 234.452 47.7094 234.359 47.9876 234.173L63.4756 225.245L77.7579 233.522V251.562C77.7579 252.678 78.6853 253.608 79.7982 253.608C80.9111 253.608 81.8386 252.678 81.8386 251.562V233.708L96.3991 225.245L110.774 233.522V250.26L95.2862 259.187C94.266 259.745 93.9878 261.047 94.5443 261.977C94.9152 262.628 95.6572 263 96.3064 263C96.6773 263 97.0483 262.907 97.3265 262.721L112.815 253.794L128.302 262.721C128.673 262.907 128.952 263 129.323 263C130.065 263 130.714 262.628 131.085 261.977C131.641 260.954 131.363 259.745 130.343 259.187L114.855 250.26V233.615L129.415 225.152L143.79 233.429V251.376C143.79 252.492 144.718 253.422 145.831 253.422C146.944 253.422 147.871 252.492 147.871 251.376V233.522L162.524 225.059L178.012 233.987C178.383 234.173 178.662 234.266 179.033 234.266C179.775 234.266 180.424 233.894 180.795 233.243C181.351 232.22 181.073 231.011 180.053 230.453L164.565 221.526V204.787L179.033 196.418L193.5 204.787V222.735C193.5 223.851 194.428 224.78 195.541 224.78C196.654 224.78 197.581 223.851 197.581 222.735V204.136L212.884 195.302C213.904 194.744 214.182 193.442 213.625 192.512C213.069 191.582 211.771 191.211 210.843 191.768L195.355 200.696L180.887 192.326V175.681L195.448 167.219L210.843 176.146C211.863 176.704 213.069 176.425 213.625 175.402C214.182 174.379 213.904 173.17 212.884 172.612L197.581 163.778V146.854L212.976 138.205ZM176.807 192.605L162.339 200.975L147.871 192.605V175.96L162.432 167.498L176.807 175.774V192.605ZM127.468 221.712L112.907 230.174L98.5322 221.898V205.159L113 196.79L127.468 205.159V221.712ZM63.3828 110.215L77.7579 118.491V135.23L63.3828 143.506L49.1932 135.323V118.398L63.3828 110.215ZM127.468 106.402L112.907 114.864L98.5322 106.588V89.8497L113 81.4805L127.468 89.8497V106.402ZM112.907 172.24L98.5322 163.964V147.226L112.907 138.949L127.468 147.412V163.964L112.907 172.24ZM114.855 175.96L129.415 167.498L143.79 175.774V192.512L129.323 200.882L114.855 192.512V175.96ZM143.79 135.23L129.415 143.506L114.855 135.044V118.491L129.415 110.029L143.79 118.305V135.23ZM96.3991 110.215L110.774 118.491V135.23L96.3991 143.506L81.8386 135.044V118.491L96.3991 110.215ZM65.5159 147.133L79.891 138.856L94.4515 147.319V163.871L79.891 172.333L65.5159 164.057V147.133ZM81.8386 175.96L96.3991 167.498L110.774 175.774V192.512L96.3064 200.882L81.8386 192.512V175.96ZM145.924 172.24L131.548 163.964V147.226L145.924 138.949L160.484 147.412V163.964L145.924 172.24ZM49.1932 175.774L63.3828 167.591L77.7579 175.867V192.605L63.2901 200.975L49.1932 192.791V175.774ZM176.807 135.23L162.432 143.506L147.871 135.044V118.491L162.432 110.029L176.807 118.305V135.23ZM94.4515 89.8497V106.495L79.891 114.957L65.5159 106.681V89.9427L79.9837 81.5735L94.4515 89.8497ZM46.9674 138.949L61.4352 147.319V163.871L46.9674 172.24L32.4996 163.871V147.319L46.9674 138.949ZM131.548 221.805V205.066L146.016 196.697L160.484 205.066V221.805L146.016 230.174L131.548 221.805ZM178.94 172.24L164.565 163.964V147.226L178.94 138.949L193.5 147.412V163.964L178.94 172.24ZM160.484 106.402L145.924 114.864L131.548 106.588V89.8497L146.016 81.4805L160.484 89.8497V106.402ZM65.5159 205.066L79.9837 196.697L94.4515 205.066V221.712L79.891 230.174L65.5159 221.898V205.066Z" fill="url(#paint1_radial_15_336)"/>
</g>
<rect x="16" y="16" width="193" height="283" rx="9" stroke="url(#paint2_linear_15_336)" stroke-width="2"/>
<path d="M100.097 90.9064C98.4897 87.8808 96.2534 86.0071 93.4091 85.527C86.2931 84.2666 77.3744 91.571 73.1435 96.0863C72.868 96.4151 72.5373 96.8098 72.2066 97.2044C67.1366 103.256 62.3315 112.999 63.9064 119.804C64.525 122.673 66.244 124.897 68.9976 126.421C68.5852 128.65 68.4803 130.913 68.8483 133.012C69.4544 136.431 71.1503 139.083 73.6728 140.749C74.023 145.408 76.2966 149.776 77.9924 152.428C80.618 156.643 85.5279 161.205 90.4912 162.229C93.6537 162.863 96.5567 161.937 98.3201 159.832C98.9263 159.109 99.401 158.275 99.6783 157.276C103.991 159.21 109.21 158.993 112.407 155.178C112.462 155.113 112.517 155.047 112.572 154.981C115.453 157.955 117.388 161.927 119.19 165.788C121.801 171.222 124.555 176.888 129.952 180.066C135.217 183.135 141.713 182.196 145.295 177.921C146.838 176.079 147.723 173.686 147.917 171.05C148.23 164.931 143.685 159.667 138.985 154.722C138.787 154.557 138.579 154.27 138.25 153.995C133.243 149.015 125.3 140.458 125.812 137.976C130.155 136.801 134.224 139.427 138.425 142.163C138.875 142.427 139.269 142.758 139.719 143.023L140.103 143.233C144.359 145.903 148.625 148.694 153.222 151.09C160.123 154.745 165.554 153.474 169.218 147.364C173.456 140.168 166.5 132.437 160.84 129.038C156.726 126.599 152.085 124.389 146.169 122.231C145.664 122.032 145.225 121.888 144.72 121.689C140.187 120.018 134.962 118.103 132.347 114.009C132.914 107.32 130.483 100.469 125.288 95.445C120.828 91.1483 114.725 88.9457 108.055 89.2905C105.275 89.5358 102.637 90.0122 100.097 90.9064ZM64.7419 119.608C63.3092 113.035 67.9046 103.675 72.8644 97.7555C73.195 97.3609 73.4706 97.032 73.8012 96.6373C77.8562 92.1985 86.5438 85.0363 93.2971 86.3288C95.8339 86.775 97.8071 88.4283 99.327 91.157C98.8541 91.3206 98.5021 91.4734 98.0293 91.637C96.0347 89.742 93.6864 88.67 91.1817 88.5864C84.4692 88.4477 77.849 94.8793 74.4661 98.6497C74.3559 98.7812 74.1905 98.9786 74.0252 99.1759C70.1125 103.846 64.8362 113.083 66.413 119.217C66.8805 121.064 67.9862 122.551 69.6643 123.621C69.4759 124.246 69.2874 124.872 69.1648 125.553C66.7845 124.118 65.3286 122.115 64.7419 119.608ZM98.6977 92.3089C99.0497 92.1561 99.3465 92.069 99.6985 91.9161C99.8407 92.1472 99.9278 92.4441 100.07 92.6752C100.146 92.8512 100.091 92.9169 100.036 92.9827C99.9812 93.0485 99.8052 93.1249 99.6843 93.1356C99.5634 93.1462 99.4976 93.0911 99.3661 92.9809C99.103 92.7605 98.8399 92.54 98.6977 92.3089ZM89.3345 101.48C95.7094 96.41 104.557 91.0611 115.776 94.6397C120.913 96.2574 124.815 99.7506 126.813 104.447C128.964 109.496 128.762 115.483 126.243 120.761C125.679 121.968 124.874 123.196 123.992 124.249C118.426 130.892 107.376 134.06 99.7995 128.271C98.1658 127.015 97.181 125.518 97.0423 123.946C96.8166 122.078 97.613 120.059 99.3214 118.02C103.399 113.152 111.616 109.625 115.865 110.834C116.238 110.923 116.656 110.825 116.876 110.562C117.096 110.299 117.185 109.926 117.153 109.563C117.066 109.266 116.858 108.98 116.595 108.76C110.528 105.579 101.124 109.455 96.55 114.914C94.7314 117.084 93.7146 119.367 93.4337 121.706C91.0054 121.799 88.7282 122.913 87.0198 124.952C86.1932 125.939 85.5087 127.157 85.011 128.419C81.9249 127.96 78.3393 129.434 76.0799 132.131C75.4737 132.854 74.999 133.688 74.6453 134.511C74.5457 134.763 74.5013 134.95 74.4017 135.202C71.4846 129.064 72.4073 120.881 77.2569 115.093C77.4222 114.896 77.5875 114.699 77.808 114.436C78.2488 113.909 78.1297 113.25 77.6693 112.864C77.264 112.413 76.5938 112.411 76.1974 112.75C75.5699 113.232 74.9637 113.956 74.3575 114.679C72.6491 116.718 71.0154 119.603 69.9523 122.743C68.5924 121.827 67.6289 120.572 67.3036 118.956C65.6824 113.008 71.476 103.421 75.0687 99.2666C78.3308 95.5068 84.8514 89.3276 91.1355 89.4433C93.3327 89.4931 95.3521 90.2895 97.2044 91.9534C93.4535 93.6244 89.9532 96.0651 87.2974 99.1013L87.2422 99.1671C86.6912 99.8249 86.8316 100.726 87.4235 101.222C87.9053 101.85 88.707 101.962 89.3345 101.48ZM122.314 139.747C122.545 139.604 122.655 139.473 122.831 139.396C123.187 142.045 125.876 146.985 135.2 156.7C135.671 157.207 136.066 157.538 136.274 157.824C138.158 159.851 139.593 161.612 140.851 163.45C142.952 166.554 143.868 169.336 143.74 172.028C143.626 173.5 143.183 174.696 142.412 175.617C139.877 178.642 133.989 178.187 130.546 175.75C126.192 172.662 123.744 167.701 121.318 162.981C119.329 159.075 117.329 155.049 114.25 151.909C116.518 145.862 113.152 139.458 110.121 134.792C114.89 134.31 119.674 132.609 122.998 130.245C124.605 129.129 126.015 127.847 127.227 126.4C129.266 123.966 130.669 121.223 131.512 118.347C134.402 122.112 139.506 124.037 143.797 125.73L144.489 125.973C149.351 127.92 153.345 129.699 156.987 131.632C161.464 134.039 164.313 136.65 165.865 139.742C167.045 142.074 166.587 145.16 164.768 147.331C163.39 148.975 161.631 149.739 159.599 149.492C155.238 149.085 150.424 145.611 145.292 141.983C136.651 135.862 127.681 129.466 120.55 137.709C120.109 138.236 120.118 139.027 120.589 139.533C121.005 140.106 121.741 140.163 122.314 139.747ZM107.829 132.984C108.103 133.325 108.322 133.733 108.595 134.074C107.87 134.138 107.134 134.081 106.464 134.079C106.464 134.079 106.464 134.079 106.398 134.024C106.048 133.507 106.324 133.178 106.489 132.981C106.709 132.717 107.006 132.63 107.248 132.609C107.49 132.588 107.687 132.753 107.829 132.984ZM105.765 132.374C105.38 132.835 105.246 133.395 105.41 133.868C103.751 133.709 102.192 133.299 100.743 132.757C97.1329 131.187 94.998 128.39 94.3385 124.368C94.5696 124.225 94.7456 124.149 94.9767 124.007C95.5598 123.712 95.8584 122.954 95.6291 122.426C95.4762 122.074 95.1474 121.799 94.7189 121.776C94.5981 121.786 94.4114 121.742 94.2905 121.753C94.6159 119.227 96.006 117.033 97.2184 115.586C101.627 110.324 110.492 106.557 116.241 109.583C116.307 109.638 116.373 109.693 116.318 109.759C116.329 109.88 116.273 109.945 116.218 110.011C116.218 110.011 116.163 110.077 116.097 110.022C111.465 108.603 103.017 112.272 98.6637 117.468C96.79 119.705 95.894 121.977 96.1962 124.021C96.4219 125.889 97.4174 127.507 99.3142 128.984C101.474 130.682 103.933 131.622 106.524 132.003C106.162 132.035 105.931 132.177 105.765 132.374ZM100.455 133.635C102.102 134.342 103.968 134.787 105.989 134.913C108.101 138.138 110.245 141.725 111.123 146.155C111.708 149.332 110.657 151.922 107.795 154.002C104.537 156.421 100.741 154.137 97.8029 151.899C92.7704 148.018 88.9751 141.591 88.3636 136.042C87.8819 131.272 89.6721 127.398 93.535 124.926C94.3811 128.993 96.7134 131.955 100.455 133.635ZM94.6069 122.577C94.7936 122.622 94.8594 122.677 94.8043 122.743C94.8149 122.864 94.7705 123.05 94.6603 123.182C94.6052 123.248 94.6052 123.248 94.55 123.313C94.3741 123.39 94.3189 123.456 94.143 123.532C94.111 123.169 94.0896 122.928 94.1234 122.62C94.3652 122.599 94.4861 122.588 94.6069 122.577ZM86.4686 129.752C86.7211 129.852 86.9184 130.017 86.9397 130.259C87.0268 130.556 86.8722 130.874 86.6517 131.137C86.5415 131.268 86.1451 131.608 85.6402 131.409C85.4536 131.364 85.2012 131.265 85.0145 131.22C85.1478 130.66 85.3363 130.035 85.4696 129.475C85.898 129.498 86.1504 129.597 86.4686 129.752ZM84.2679 131.043C82.0049 130.938 79.6281 132.305 78.1953 134.015C77.7544 134.541 77.3793 135.122 77.1251 135.693C76.782 136.637 76.494 137.515 76.4478 138.372C76.382 138.317 76.3713 138.196 76.3713 138.196C75.8896 137.568 75.4079 136.941 75.047 136.303C75.191 135.864 75.2692 135.369 75.5341 134.92C75.8328 134.162 76.3181 133.45 76.8692 132.792C78.9082 130.358 82.1418 129.037 84.8439 129.286C84.4688 129.868 84.3354 130.428 84.2679 131.043ZM96.7932 155.642C96.8589 155.697 96.8589 155.697 96.9247 155.753C96.6492 156.081 96.4394 156.465 96.219 156.728C94.8412 158.373 93.5098 159.16 90.7544 158.307C88.0647 157.509 85.752 155.459 83.8783 153.553C81.7522 151.548 80.2537 149.061 78.9774 145.641L78.8902 145.344C77.701 142.221 76.6647 139.449 78.0691 136.036C78.2682 135.531 78.533 135.081 78.9739 134.555C80.2414 133.043 82.3871 131.818 84.3425 131.889C84.2643 132.383 84.2412 132.811 84.2287 133.361C83.9318 141.732 90.3793 150.604 96.7932 155.642ZM75.4327 139.984C75.2123 140.247 74.8052 140.466 74.487 140.311C74.4674 139.399 74.4479 138.487 74.6701 137.554C74.9545 138.016 75.2941 138.413 75.6336 138.809C75.9074 139.151 75.7083 139.655 75.4327 139.984ZM71.1344 124.405C71.3869 124.504 71.5842 124.67 71.6713 124.966C71.7584 125.263 71.6695 125.637 71.394 125.965C71.2286 126.163 70.8873 126.437 70.3167 126.182C70.13 126.138 69.9985 126.028 69.9327 125.973C70.0554 125.292 70.1887 124.732 70.3772 124.106C70.6296 124.206 70.882 124.305 71.1344 124.405ZM71.4882 123.582C71.17 123.427 70.9176 123.327 70.6651 123.228C71.6731 120.154 73.2517 117.335 74.9601 115.296C75.5112 114.638 76.1281 114.036 76.6898 113.499C76.8 113.367 76.9316 113.477 76.9973 113.532C77.0631 113.588 77.2053 113.819 77.0951 113.95C76.9298 114.148 76.7093 114.411 76.544 114.608C74.2295 117.37 72.8144 120.663 72.1353 124.012C71.938 123.846 71.7406 123.681 71.4882 123.582ZM69.6287 132.882C69.2714 130.904 69.3976 128.883 69.6998 126.785C69.7656 126.84 69.8314 126.895 69.9523 126.885C70.5887 127.194 71.2482 127.075 71.7548 126.604C71.5699 130.031 72.297 133.439 73.8933 136.344C73.6266 137.464 73.5359 138.507 73.511 139.606C71.4934 138.139 70.1371 135.883 69.6287 132.882ZM97.6731 159.402C96.13 161.244 93.4582 162.028 90.669 161.482C85.9581 160.557 81.2349 156.04 78.6964 152.122C77.1321 149.58 75.0113 145.564 74.5723 141.278C75.1216 141.291 75.7154 141.117 76.1562 140.59C76.2664 140.459 76.3216 140.393 76.4318 140.262C76.5917 142.075 77.2352 143.845 78.0103 145.726L78.0974 146.023C79.3844 149.564 81.0803 152.217 83.2721 154.277C85.2667 156.172 87.6452 158.277 90.5321 159.24C93.9133 160.282 95.5647 158.979 96.8874 157.4C97.1629 157.072 97.4384 156.743 97.6482 156.359C98.098 156.624 98.5477 156.888 98.9975 157.153C98.633 157.856 98.2793 158.679 97.6731 159.402ZM98.0571 155.47C98.1673 155.338 98.2775 155.207 98.3877 155.075L98.5531 154.878C98.6633 154.746 98.7291 154.801 98.8499 154.791C99.0366 154.835 99.2446 155.121 99.2001 155.308C99.2215 155.55 99.1219 155.802 99.0881 156.11C98.7042 155.9 98.386 155.745 98.0571 155.47ZM111.759 154.748C108.784 158.3 103.861 158.43 99.9219 156.585C100.011 156.211 100.034 155.783 100.068 155.475C100.08 154.926 99.7192 154.288 99.1593 154.154C98.7202 154.01 98.2367 154.053 97.906 154.448C97.906 154.448 97.8509 154.514 97.7958 154.579L97.6856 154.711C97.5753 154.842 97.4651 154.974 97.41 155.04L97.3442 154.985C91.062 150.057 84.8224 141.471 84.8989 133.363C84.922 132.934 84.9451 132.506 85.0234 132.012C85.21 132.056 85.2758 132.111 85.4625 132.155C86.2198 132.454 86.9344 132.269 87.4855 131.612C87.8712 131.151 88.0597 130.525 87.8855 129.932C87.777 129.393 87.3824 129.062 86.9326 128.797C86.6144 128.643 86.3069 128.609 85.9887 128.454C86.4971 127.313 87.0713 126.227 87.8428 125.306C89.0001 123.925 90.8169 122.425 93.5528 122.366C93.5297 122.794 93.5723 123.278 93.615 123.761C89.2792 126.398 87.1584 130.666 87.6827 135.919C88.3155 141.711 92.1873 148.313 97.4172 152.359C100.553 154.762 104.611 157.267 108.387 154.498C111.47 152.155 112.741 149.302 112.069 145.828C111.256 141.453 109.244 137.976 107.198 134.806C107.868 134.808 108.604 134.865 109.33 134.801C112.721 140.106 115.606 145.881 113.768 151.282C113.516 151.182 113.263 151.083 112.956 151.049C112.472 151.092 112.065 151.31 111.735 151.705C111.183 152.363 111.093 153.406 111.827 154.133C111.893 154.188 111.959 154.243 112.024 154.299C111.804 154.562 111.815 154.683 111.759 154.748ZM113.239 152.181C113.039 152.686 112.719 153.202 112.399 153.717L112.344 153.783C112.279 153.728 112.213 153.673 112.213 153.673C111.687 153.232 111.941 152.661 112.161 152.398C112.327 152.201 112.558 152.059 112.744 152.103C112.986 152.082 113.107 152.071 113.239 152.181ZM137.523 154.729C137.852 155.005 138.126 155.346 138.258 155.456C142.815 160.171 147.229 165.324 146.95 171.135C146.801 173.585 145.96 175.791 144.527 177.501C141.221 181.448 135.264 182.278 130.327 179.485C125.127 176.472 122.45 170.982 119.905 165.603C117.971 161.632 116.026 157.539 113.013 154.455C113.068 154.389 113.123 154.323 113.178 154.258C113.443 153.808 113.708 153.358 113.852 152.919C116.733 155.893 118.657 159.744 120.57 163.473C123.007 168.314 125.52 173.331 130.005 176.529C133.778 179.241 140.149 179.654 143.014 176.234C143.896 175.181 144.438 173.732 144.541 172.14C144.703 169.141 143.722 166.304 141.544 163.024C140.286 161.186 138.851 159.424 136.956 157.276C136.748 156.99 136.354 156.66 135.883 156.153C132.727 152.838 123.819 143.695 123.766 138.948C124.173 138.73 124.525 138.577 124.877 138.424C124.98 140.973 129.097 146.214 137.523 154.729ZM125.442 136.547C125.442 136.547 125.585 136.778 125.419 136.975L125.364 137.041C125.254 137.173 125.144 137.304 125.034 137.436C124.616 137.533 124.264 137.686 123.857 137.905C123.99 137.345 124.376 136.885 125.014 136.524C125.3 136.316 125.377 136.492 125.442 136.547ZM144.256 122.644C144.761 122.843 145.2 122.987 145.705 123.186C151.5 125.355 156.196 127.499 160.189 129.948C165.652 133.182 172.258 140.396 168.34 147.076C167.92 147.844 167.435 148.557 166.939 149.149C163.632 153.096 159.225 153.545 153.542 150.575C149.066 148.168 144.876 145.553 140.489 142.772L140.105 142.563C139.655 142.298 139.205 142.033 138.811 141.702C134.807 139.132 130.738 136.506 126.353 137.197C126.441 136.824 126.409 136.461 126.136 136.12C125.73 135.669 125.17 135.535 124.653 135.885C124.246 136.104 123.905 136.378 123.684 136.641C123.409 136.97 122.968 137.496 122.877 138.54C122.591 138.748 122.184 138.966 121.843 139.24C121.501 139.514 121.228 139.172 121.162 139.117C120.964 138.952 120.877 138.655 121.098 138.392C127.732 130.741 136.373 136.862 144.696 142.828C149.894 146.511 154.895 150.029 159.442 150.481C161.716 150.706 163.828 149.789 165.316 148.013C167.355 145.58 167.847 142.186 166.514 139.502C164.951 136.289 161.904 133.513 157.242 131.061C153.599 129.129 149.605 127.349 144.677 125.348L143.986 125.104C139.573 123.422 134.272 121.332 131.668 117.359C131.801 116.799 131.869 116.184 132.002 115.624C134.937 119.202 139.844 120.962 144.256 122.644ZM131.128 113.995C131.204 114.171 131.27 114.226 131.346 114.402C131.279 115.017 131.201 115.512 131.133 116.127C130.904 115.599 130.609 115.016 130.434 114.422C130.358 114.246 130.468 114.114 130.523 114.049C130.633 113.917 130.809 113.841 130.93 113.83C130.93 113.83 130.996 113.885 131.128 113.995ZM124.506 96.245C129.295 100.817 131.608 107.009 131.361 113.183C131.229 113.073 131.108 113.083 130.921 113.039C130.493 113.016 130.086 113.234 129.81 113.563C129.535 113.892 129.391 114.331 129.489 114.749C129.761 115.76 130.143 116.64 130.701 117.444C129.935 120.496 128.543 123.36 126.394 125.925C125.236 127.306 123.827 128.588 122.34 129.694C119.126 131.927 114.288 133.693 109.452 134.12C109.102 133.603 108.752 133.085 108.467 132.623C108.391 132.447 108.194 132.282 108.062 132.172C114.236 132.419 120.671 129.415 124.474 124.876C125.411 123.758 126.271 122.464 126.89 121.191C129.563 115.595 129.81 109.421 127.517 104.141C125.377 99.2137 121.344 95.6103 115.954 93.893C104.296 90.1705 95.217 95.6616 88.7319 100.863C88.3355 101.203 87.9409 100.872 87.9302 100.751C87.7329 100.586 87.5142 100.179 87.8449 99.784L87.516 99.5084L87.8449 99.784C90.5008 96.7477 94.001 94.307 97.8177 92.6911C98.1466 92.9667 98.3546 93.2529 98.6283 93.5942C98.8363 93.8804 99.2203 94.0902 99.5829 94.0582C100.011 94.0813 100.363 93.9284 100.639 93.5996C100.914 93.2707 100.938 92.8423 100.774 92.3694C100.632 92.1383 100.61 91.8965 100.468 91.6654C102.898 90.9028 105.416 90.4371 107.965 90.334C114.393 90.0106 120.309 92.1687 124.506 96.245Z" fill="black"/>
<path d="M131.099 116.434C130.086 121.518 127.272 126.213 122.516 129.617C118.389 132.54 113.726 134.23 108.858 134.294C112.371 139.588 115.925 146.036 113.359 152.171C113.425 152.226 113.425 152.226 113.491 152.281C120.603 159.024 121.935 170.662 130.126 176.518C134.743 179.826 144.136 179.972 144.607 172.195C144.792 168.767 143.493 165.776 141.61 163.079C140.143 160.954 138.709 159.193 136.956 157.276C134.94 155.14 122.82 143.417 123.757 138.157C123.174 138.452 122.657 138.803 122.029 139.284C121.402 139.766 120.525 138.808 121.087 138.271C132.26 126.138 147.514 149.218 159.497 150.415C165.088 150.957 168.951 144.342 166.58 139.557C164.656 135.706 161.071 133.038 157.362 131.05C153.336 128.908 149.155 127.084 144.864 125.392C139.936 123.39 133.767 121.133 131.099 116.434Z" fill="white"/>
<path d="M111.838 145.97C110.949 141.419 108.871 137.887 106.343 134.09C105.42 133.988 104.432 133.832 103.378 133.62C99.2715 132.643 93.9972 128.783 94.1856 124.015C94.175 123.895 94.1643 123.774 94.2194 123.708C81.5036 129.398 88.7439 145.876 97.2412 152.435C100.18 154.673 104.38 157.409 108.156 154.64C111.073 152.494 112.586 149.62 111.838 145.97Z" fill="white"/>
<path d="M88.9185 100.907C88.1807 101.521 87.1621 100.331 87.8341 99.6631C90.7869 96.5397 94.4631 94.0226 98.5216 92.3854C91.1176 83.7191 80.5155 91.9639 74.5424 98.8257C69.7817 104.24 61.0514 119.203 70.3006 123.93C71.5646 119.616 73.8934 115.634 76.4924 113.333C76.9439 112.928 77.6781 113.655 77.2372 114.181C71.5521 120.165 69.7992 130.675 74.5385 137.444C74.7056 136.576 74.9385 135.764 75.2265 134.886C76.7855 131.155 81.4733 128.365 85.4588 129.354C86.8206 125.457 89.8942 122.323 94.4095 122.412C96.0593 113.495 107.618 105.044 116.22 109.341C116.791 109.595 116.437 110.418 115.811 110.23C105.657 106.984 87.7912 124.032 101.321 130.33C110.528 134.573 122.449 130.232 126.879 121.07C131.972 110.449 127.919 97.6494 116.074 93.8824C105.668 90.5367 96.8577 94.2377 88.9185 100.907Z" fill="white"/>
<path d="M84.8332 133.307C84.835 132.637 84.8919 131.901 85.0145 131.22C82.0831 130.443 79.0557 132.721 77.6105 134.98C75.6354 138.139 76.3305 141.184 77.5748 144.242C78.7534 147.244 79.8004 150.137 81.9034 152.57C83.9406 154.949 86.472 157.406 89.5011 158.6C93.6715 160.303 95.7959 158.837 97.9914 155.415C97.794 155.249 97.5416 155.15 97.3443 154.984C91.0727 150.178 84.7122 141.602 84.8332 133.307Z" fill="white"/>
<path d="M97.2891 155.05C97.4864 155.216 97.6837 155.381 97.9362 155.481C95.8065 158.958 93.6715 160.303 89.4459 158.666C86.4826 157.527 83.8854 155.015 81.8482 152.636C79.7452 150.202 78.6431 147.376 77.5196 144.308C76.3304 141.184 75.5802 138.205 77.5553 135.046C79.0557 132.721 82.028 130.509 84.9594 131.286C84.8367 131.967 84.7798 132.703 84.778 133.373C84.7121 141.602 91.0726 150.178 97.2891 155.05ZM108.156 154.64C104.38 157.409 100.124 154.739 97.2411 152.435C88.7439 145.876 81.5036 129.398 94.2194 123.708C94.23 123.829 94.2407 123.95 94.1856 124.016C93.9971 128.783 99.2714 132.643 103.378 133.62C104.311 133.843 105.3 133.999 106.343 134.09C108.871 137.887 110.949 141.419 111.838 145.97C112.586 149.62 111.073 152.494 108.156 154.64ZM144.666 125.227C148.958 126.919 153.139 128.743 157.165 130.885C160.873 132.873 164.459 135.541 166.382 139.391C168.819 144.232 164.957 150.847 159.3 150.249C147.317 149.053 132.063 125.973 120.89 138.106C120.394 138.698 121.149 139.667 121.832 139.119C122.404 138.703 122.977 138.287 123.56 137.992C122.689 143.307 134.798 154.908 136.759 157.111C138.446 158.972 140.001 160.723 141.413 162.913C143.24 165.676 144.661 168.657 144.41 172.029C143.994 179.741 134.545 179.661 129.929 176.353C121.792 170.431 120.461 158.793 113.294 152.116C113.228 152.06 113.228 152.06 113.162 152.005C115.793 145.926 112.174 139.423 108.661 134.129C113.528 134.065 118.257 132.43 122.319 129.452C127.019 126.114 129.889 121.353 130.902 116.269C133.767 121.133 139.936 123.39 144.666 125.227ZM126.934 121.005C122.504 130.167 110.583 134.508 101.376 130.264C87.9121 124.021 105.833 106.907 115.866 110.164C116.492 110.353 116.846 109.529 116.275 109.275C107.607 104.923 96.0487 113.374 94.4647 122.346C90.0045 122.192 86.8758 125.391 85.514 129.288C81.5942 128.355 76.8407 131.089 75.2816 134.82C74.9279 135.643 74.695 136.456 74.5936 137.378C69.8544 130.609 71.6073 120.099 77.2924 114.115C77.6782 113.655 76.9991 112.862 76.5475 113.268C73.9486 115.568 71.6198 119.55 70.3558 123.864C61.1066 119.137 69.8369 104.175 74.5976 98.7599C80.5707 91.8981 91.1177 83.7191 98.5768 92.3196C94.5183 93.9568 90.7763 96.4188 87.8893 99.5973C87.2173 100.266 88.2359 101.455 88.9737 100.842C96.9786 94.227 105.723 90.4709 116.13 93.8166C127.974 97.5836 132.093 110.438 126.934 121.005Z" fill="white"/>
<path d="M90.7889 87.5855C79.369 93.466 71.5631 107.86 71.6413 111.508C71.6643 115.221 77.1627 113.335 76.1388 114.156C75.1148 114.978 72.1656 120.903 71.6678 122.165C71.17 123.427 71.2518 125.734 71.2518 125.734C71.2518 125.734 62.3883 120.547 66.4238 111.054C70.4592 101.561 78.7984 93.2118 82.8159 90.4209C86.8335 87.63 90.7889 87.5855 90.7889 87.5855Z" fill="#CCCCCC"/>
<path d="M80.2379 138.525C81.2511 137.583 82.604 137.037 83.9763 137.403C85.3487 137.769 85.6313 138.902 86.7282 139.597C87.8392 134.931 94.0257 126.344 98.8982 132.554C99.3195 131.116 100.399 130.229 101.847 130.771C99.4511 127.084 99.0352 122.37 101.78 118.96C105.186 114.761 110.148 112.313 114.889 110.129C115.417 109.899 116.67 109.606 115.936 108.879C112.123 105.012 101.448 103.457 92.5467 116.485C83.0023 119.459 82.9152 123.304 82.9152 123.304C75.6569 125.955 74.5263 125.567 73.9682 120.622C73.41 115.676 69.6981 127.455 72.0126 132.977C74.3271 138.498 75.3208 140.786 75.3208 140.786C75.3208 140.786 80.067 153.159 79.1427 149.586C78.2183 146.012 76.4709 142.086 80.2379 138.525Z" fill="#CCCCCC"/>
<path d="M93.1158 88.4157C97.3965 89.9872 94.0349 93.9994 92.6571 95.6437C91.2794 97.2881 100.335 92.2253 99.151 91.2334C97.9671 90.2414 93.1158 88.4157 93.1158 88.4157Z" fill="#CCCCCC"/>
<path d="M112.522 140.61C110.316 135.628 115.509 133.038 116.63 132.634C117.752 132.231 107.514 131.489 108.025 133.82C108.469 136.095 113.374 142.667 112.522 140.61Z" fill="#CCCCCC"/>
<path d="M116.385 109.144C108.08 104.76 92.4649 114.178 93.8888 124.103C95.8405 137.94 114.304 135.946 122.724 129.903C134.304 121.694 134.688 105.336 124.902 95.9053C114.327 85.8133 96.6623 89.2601 87.5711 99.4425C86.7445 100.429 88.092 101.894 89.0608 101.138C97.0871 94.7656 105.579 90.9099 115.92 94.2004C127.578 97.923 131.665 110.415 126.616 120.85C122.031 130.33 108.274 135.259 99.5791 128.534C89.3273 120.728 108.126 108.045 116.064 110.329C116.755 110.573 117.022 109.453 116.385 109.144Z" fill="black"/>
<path d="M94.696 122.204C88.4137 121.418 84.5401 127.912 84.4156 133.405C84.3604 141.755 90.8524 150.441 97.0138 155.379C101.728 159.105 109.274 159.718 112.794 154.048C117.34 146.885 112.307 138.863 108.181 132.831C107.207 131.455 105.083 132.922 106.002 134.363C108.53 138.16 110.542 141.638 111.431 146.189C112.103 149.662 110.755 152.339 107.959 154.474C104.359 157.167 100.29 154.542 97.5382 152.348C88.7121 145.513 82.414 130.049 94.7796 123.841C95.4071 123.359 95.4977 122.316 94.696 122.204Z" fill="black"/>
<path d="M98.1141 154.734C96.0626 157.717 94.6173 159.976 90.4896 158.756C87.7342 157.903 85.4214 155.853 83.4269 153.958C81.0928 151.667 79.5729 148.938 78.3286 145.881C77.0522 142.46 75.8292 139.645 77.3883 135.913C78.494 133.257 82.5223 130.587 85.4305 131.793C87.0109 132.445 88.138 130.031 86.5576 129.379C82.3214 127.62 76.6666 130.495 74.8533 134.797C72.4427 140.613 75.0399 147.267 78.2894 152.341C80.8386 156.38 85.6276 160.952 90.5251 161.921C95.115 162.856 99.2855 160.417 99.5184 155.463C99.6304 154.661 98.6545 153.955 98.1141 154.734Z" fill="black"/>
<path d="M76.4162 113.157C69.7872 118.798 64.8771 134.946 74.1458 140.585C75.3084 141.335 76.7963 139.559 75.9093 138.48C70.3132 131.665 71.364 120.79 77.4241 114.226C77.9201 113.634 77.0988 112.61 76.4162 113.157Z" fill="black"/>
<path d="M100.422 92.522C94.7568 78.7076 80.0393 89.3256 73.4725 96.3615C67.0817 103.321 57.6633 120.842 70.1621 126.5C71.8083 127.208 72.9798 124.607 71.2785 123.965C60.8632 119.829 69.9793 104.406 74.7399 98.9908C80.889 92.0525 91.3809 83.9393 98.9698 93.3202C99.5173 94.0028 100.804 93.402 100.422 92.522Z" fill="black"/>
<path d="M130.017 114.519C131.725 120.764 139.145 123.399 144.578 125.6C148.869 127.292 153.05 129.116 157.076 131.258C160.719 133.191 164.294 135.738 166.151 139.533C168.381 144.088 164.859 150.429 159.455 149.931C147.537 148.79 131.768 125.39 120.758 137.995C120.042 138.85 121.181 140.029 122.04 139.405C128.447 134.698 134.071 139.074 139.819 142.77C144.272 145.606 148.659 148.386 153.201 150.848C159.465 154.194 164.894 153.593 168.658 147.231C172.796 140.287 165.862 132.798 160.333 129.509C155.704 126.75 150.766 124.627 145.728 122.757C140.624 120.832 134.18 118.903 131.359 113.853C131.032 112.907 129.7 113.694 130.017 114.519Z" fill="black"/>
<path d="M124.796 136.116C118.414 139.725 134.26 155.017 136.615 157.55C138.302 159.411 139.737 161.173 141.137 163.242C142.954 165.884 144.309 168.81 144.113 172.116C143.731 179.52 134.7 179.342 130.281 176.199C122.09 170.344 120.692 158.65 113.646 151.962C112.385 150.794 110.677 152.833 111.993 153.936C119.676 160.933 120.673 174.306 130.107 179.748C137.61 184.02 146.828 180.1 147.368 171.037C147.736 164.853 142.609 159.214 138.588 155.061C136.978 153.376 122.732 139.649 125.683 137.195C126.365 136.648 125.665 135.613 124.796 136.116Z" fill="black"/>
<path d="M73.7229 274.24C72.6029 274.24 71.5296 274.093 70.5029 273.8C69.4762 273.493 68.6496 273.1 68.0229 272.62L69.1229 270.18C69.7229 270.607 70.4296 270.96 71.2429 271.24C72.0696 271.507 72.9029 271.64 73.7429 271.64C74.3829 271.64 74.8962 271.58 75.2829 271.46C75.6829 271.327 75.9762 271.147 76.1629 270.92C76.3496 270.693 76.4429 270.433 76.4429 270.14C76.4429 269.767 76.2962 269.473 76.0029 269.26C75.7096 269.033 75.3229 268.853 74.8429 268.72C74.3629 268.573 73.8296 268.44 73.2429 268.32C72.6696 268.187 72.0896 268.027 71.5029 267.84C70.9296 267.653 70.4029 267.413 69.9229 267.12C69.4429 266.827 69.0496 266.44 68.7429 265.96C68.4496 265.48 68.3029 264.867 68.3029 264.12C68.3029 263.32 68.5162 262.593 68.9429 261.94C69.3829 261.273 70.0362 260.747 70.9029 260.36C71.7829 259.96 72.8829 259.76 74.2029 259.76C75.0829 259.76 75.9496 259.867 76.8029 260.08C77.6562 260.28 78.4096 260.587 79.0629 261L78.0629 263.46C77.4096 263.087 76.7562 262.813 76.1029 262.64C75.4496 262.453 74.8096 262.36 74.1829 262.36C73.5562 262.36 73.0429 262.433 72.6429 262.58C72.2429 262.727 71.9562 262.92 71.7829 263.16C71.6096 263.387 71.5229 263.653 71.5229 263.96C71.5229 264.32 71.6696 264.613 71.9629 264.84C72.2562 265.053 72.6429 265.227 73.1229 265.36C73.6029 265.493 74.1296 265.627 74.7029 265.76C75.2896 265.893 75.8696 266.047 76.4429 266.22C77.0296 266.393 77.5629 266.627 78.0429 266.92C78.5229 267.213 78.9096 267.6 79.2029 268.08C79.5096 268.56 79.6629 269.167 79.6629 269.9C79.6629 270.687 79.4429 271.407 79.0029 272.06C78.5629 272.713 77.9029 273.24 77.0229 273.64C76.1562 274.04 75.0562 274.24 73.7229 274.24ZM88.5768 274.24C87.4968 274.24 86.4901 274.067 85.5568 273.72C84.6368 273.36 83.8368 272.853 83.1568 272.2C82.4768 271.547 81.9435 270.78 81.5568 269.9C81.1835 269.02 80.9968 268.053 80.9968 267C80.9968 265.947 81.1835 264.98 81.5568 264.1C81.9435 263.22 82.4768 262.453 83.1568 261.8C83.8501 261.147 84.6568 260.647 85.5768 260.3C86.4968 259.94 87.5035 259.76 88.5968 259.76C89.8101 259.76 90.9035 259.973 91.8768 260.4C92.8635 260.813 93.6901 261.427 94.3568 262.24L92.2768 264.16C91.7968 263.613 91.2635 263.207 90.6768 262.94C90.0901 262.66 89.4501 262.52 88.7568 262.52C88.1035 262.52 87.5035 262.627 86.9568 262.84C86.4101 263.053 85.9368 263.36 85.5368 263.76C85.1368 264.16 84.8235 264.633 84.5968 265.18C84.3835 265.727 84.2768 266.333 84.2768 267C84.2768 267.667 84.3835 268.273 84.5968 268.82C84.8235 269.367 85.1368 269.84 85.5368 270.24C85.9368 270.64 86.4101 270.947 86.9568 271.16C87.5035 271.373 88.1035 271.48 88.7568 271.48C89.4501 271.48 90.0901 271.347 90.6768 271.08C91.2635 270.8 91.7968 270.38 92.2768 269.82L94.3568 271.74C93.6901 272.553 92.8635 273.173 91.8768 273.6C90.9035 274.027 89.8035 274.24 88.5768 274.24ZM96.5448 274V260H99.7848V274H96.5448ZM107.707 274.24C106.587 274.24 105.514 274.093 104.487 273.8C103.461 273.493 102.634 273.1 102.007 272.62L103.107 270.18C103.707 270.607 104.414 270.96 105.227 271.24C106.054 271.507 106.887 271.64 107.727 271.64C108.367 271.64 108.881 271.58 109.267 271.46C109.667 271.327 109.961 271.147 110.147 270.92C110.334 270.693 110.427 270.433 110.427 270.14C110.427 269.767 110.281 269.473 109.987 269.26C109.694 269.033 109.307 268.853 108.827 268.72C108.347 268.573 107.814 268.44 107.227 268.32C106.654 268.187 106.074 268.027 105.487 267.84C104.914 267.653 104.387 267.413 103.907 267.12C103.427 266.827 103.034 266.44 102.727 265.96C102.434 265.48 102.287 264.867 102.287 264.12C102.287 263.32 102.501 262.593 102.927 261.94C103.367 261.273 104.021 260.747 104.887 260.36C105.767 259.96 106.867 259.76 108.187 259.76C109.067 259.76 109.934 259.867 110.787 260.08C111.641 260.28 112.394 260.587 113.047 261L112.047 263.46C111.394 263.087 110.741 262.813 110.087 262.64C109.434 262.453 108.794 262.36 108.167 262.36C107.541 262.36 107.027 262.433 106.627 262.58C106.227 262.727 105.941 262.92 105.767 263.16C105.594 263.387 105.507 263.653 105.507 263.96C105.507 264.32 105.654 264.613 105.947 264.84C106.241 265.053 106.627 265.227 107.107 265.36C107.587 265.493 108.114 265.627 108.687 265.76C109.274 265.893 109.854 266.047 110.427 266.22C111.014 266.393 111.547 266.627 112.027 266.92C112.507 267.213 112.894 267.6 113.187 268.08C113.494 268.56 113.647 269.167 113.647 269.9C113.647 270.687 113.427 271.407 112.987 272.06C112.547 272.713 111.887 273.24 111.007 273.64C110.141 274.04 109.041 274.24 107.707 274.24ZM120.461 274.24C119.341 274.24 118.268 274.093 117.241 273.8C116.215 273.493 115.388 273.1 114.761 272.62L115.861 270.18C116.461 270.607 117.168 270.96 117.981 271.24C118.808 271.507 119.641 271.64 120.481 271.64C121.121 271.64 121.635 271.58 122.021 271.46C122.421 271.327 122.715 271.147 122.901 270.92C123.088 270.693 123.181 270.433 123.181 270.14C123.181 269.767 123.035 269.473 122.741 269.26C122.448 269.033 122.061 268.853 121.581 268.72C121.101 268.573 120.568 268.44 119.981 268.32C119.408 268.187 118.828 268.027 118.241 267.84C117.668 267.653 117.141 267.413 116.661 267.12C116.181 266.827 115.788 266.44 115.481 265.96C115.188 265.48 115.041 264.867 115.041 264.12C115.041 263.32 115.255 262.593 115.681 261.94C116.121 261.273 116.775 260.747 117.641 260.36C118.521 259.96 119.621 259.76 120.941 259.76C121.821 259.76 122.688 259.867 123.541 260.08C124.395 260.28 125.148 260.587 125.801 261L124.801 263.46C124.148 263.087 123.495 262.813 122.841 262.64C122.188 262.453 121.548 262.36 120.921 262.36C120.295 262.36 119.781 262.433 119.381 262.58C118.981 262.727 118.695 262.92 118.521 263.16C118.348 263.387 118.261 263.653 118.261 263.96C118.261 264.32 118.408 264.613 118.701 264.84C118.995 265.053 119.381 265.227 119.861 265.36C120.341 265.493 120.868 265.627 121.441 265.76C122.028 265.893 122.608 266.047 123.181 266.22C123.768 266.393 124.301 266.627 124.781 266.92C125.261 267.213 125.648 267.6 125.941 268.08C126.248 268.56 126.401 269.167 126.401 269.9C126.401 270.687 126.181 271.407 125.741 272.06C125.301 272.713 124.641 273.24 123.761 273.64C122.895 274.04 121.795 274.24 120.461 274.24ZM135.415 274.24C134.308 274.24 133.282 274.06 132.335 273.7C131.402 273.34 130.588 272.833 129.895 272.18C129.215 271.527 128.682 270.76 128.295 269.88C127.922 269 127.735 268.04 127.735 267C127.735 265.96 127.922 265 128.295 264.12C128.682 263.24 129.222 262.473 129.915 261.82C130.608 261.167 131.422 260.66 132.355 260.3C133.288 259.94 134.302 259.76 135.395 259.76C136.502 259.76 137.515 259.94 138.435 260.3C139.368 260.66 140.175 261.167 140.855 261.82C141.548 262.473 142.088 263.24 142.475 264.12C142.862 264.987 143.055 265.947 143.055 267C143.055 268.04 142.862 269.007 142.475 269.9C142.088 270.78 141.548 271.547 140.855 272.2C140.175 272.84 139.368 273.34 138.435 273.7C137.515 274.06 136.508 274.24 135.415 274.24ZM135.395 271.48C136.022 271.48 136.595 271.373 137.115 271.16C137.648 270.947 138.115 270.64 138.515 270.24C138.915 269.84 139.222 269.367 139.435 268.82C139.662 268.273 139.775 267.667 139.775 267C139.775 266.333 139.662 265.727 139.435 265.18C139.222 264.633 138.915 264.16 138.515 263.76C138.128 263.36 137.668 263.053 137.135 262.84C136.602 262.627 136.022 262.52 135.395 262.52C134.768 262.52 134.188 262.627 133.655 262.84C133.135 263.053 132.675 263.36 132.275 263.76C131.875 264.16 131.562 264.633 131.335 265.18C131.122 265.727 131.015 266.333 131.015 267C131.015 267.653 131.122 268.26 131.335 268.82C131.562 269.367 131.868 269.84 132.255 270.24C132.655 270.64 133.122 270.947 133.655 271.16C134.188 271.373 134.768 271.48 135.395 271.48ZM145.49 274V260H151.55C152.803 260 153.883 260.207 154.79 260.62C155.697 261.02 156.397 261.6 156.89 262.36C157.383 263.12 157.63 264.027 157.63 265.08C157.63 266.12 157.383 267.02 156.89 267.78C156.397 268.527 155.697 269.1 154.79 269.5C153.883 269.9 152.803 270.1 151.55 270.1H147.29L148.73 268.68V274H145.49ZM154.39 274L150.89 268.92H154.35L157.89 274H154.39ZM148.73 269.04L147.29 267.52H151.37C152.37 267.52 153.117 267.307 153.61 266.88C154.103 266.44 154.35 265.84 154.35 265.08C154.35 264.307 154.103 263.707 153.61 263.28C153.117 262.853 152.37 262.64 151.37 262.64H147.29L148.73 261.1V269.04Z" fill="white"/>
<defs>
<linearGradient id="paint0_linear_15_336" x1="112.5" y1="15" x2="112.5" y2="300" gradientUnits="userSpaceOnUse">
<stop stop-color="#FF0074"/>
<stop offset="1" stop-color="#9000E6"/>
</linearGradient>
<radialGradient id="paint1_radial_15_336" cx="0" cy="0" r="1" gradientUnits="userSpaceOnUse" gradientTransform="translate(113 155.5) rotate(90) scale(107.5 101)">
<stop stop-color="#FF0074"/>
<stop offset="1" stop-color="#9000E6" stop-opacity="0"/>
</radialGradient>
<linearGradient id="paint2_linear_15_336" x1="112.5" y1="15" x2="112.5" y2="300" gradientUnits="userSpaceOnUse">
<stop stop-color="#FF0074"/>
<stop offset="1" stop-color="#9000E6"/>
</linearGradient>
</defs>
</svg>
