<svg width="72" height="32" viewBox="0 0 72 32" fill="none" xmlns="http://www.w3.org/2000/svg">
<rect x="0.5" y="0.5" width="21" height="31" rx="3.5" stroke="#ABFC4F"/>
<path d="M36.896 27.176C35.872 27.176 35.0453 27.0213 34.416 26.712C33.7973 26.4027 33.216 25.8907 32.672 25.176L33.696 24.296C34.144 24.9147 34.6027 25.352 35.072 25.608C35.5413 25.8533 36.1333 25.976 36.848 25.976C37.7973 25.976 38.5173 25.8107 39.008 25.48C39.5093 25.1387 39.76 24.6427 39.76 23.992C39.76 23.6187 39.6587 23.3147 39.456 23.08C39.264 22.8453 38.9227 22.6427 38.432 22.472C37.9413 22.2907 37.216 22.104 36.256 21.912C35.1787 21.6987 34.384 21.336 33.872 20.824C33.36 20.312 33.104 19.6347 33.104 18.792C33.104 17.8107 33.456 17.0373 34.16 16.472C34.8747 15.9067 35.8507 15.624 37.088 15.624C38.912 15.624 40.2027 16.2267 40.96 17.432L39.936 18.264C39.5627 17.784 39.1467 17.4267 38.688 17.192C38.24 16.9467 37.7013 16.824 37.072 16.824C36.304 16.824 35.7013 17 35.264 17.352C34.8373 17.6933 34.624 18.1627 34.624 18.76C34.624 19.2933 34.8373 19.7147 35.264 20.024C35.6907 20.3227 36.336 20.5573 37.2 20.728C38.192 20.9307 38.976 21.1547 39.552 21.4C40.128 21.6453 40.56 21.9707 40.848 22.376C41.136 22.7813 41.28 23.3147 41.28 23.976C41.28 25.032 40.9067 25.832 40.16 26.376C39.424 26.9093 38.336 27.176 36.896 27.176ZM46.1768 27.176C45.0994 27.176 44.2728 26.9307 43.6968 26.44C43.1314 25.9493 42.8488 25.2453 42.8488 24.328V22.152C42.8488 21.2453 43.1368 20.5467 43.7128 20.056C44.2994 19.5547 45.1261 19.304 46.1927 19.304C47.4728 19.304 48.4274 19.7147 49.0568 20.536L48.0968 21.336C47.7981 20.9947 47.5101 20.7547 47.2328 20.616C46.9554 20.4773 46.6088 20.408 46.1927 20.408C45.5741 20.408 45.0941 20.5627 44.7528 20.872C44.4221 21.1707 44.2568 21.5973 44.2568 22.152V24.328C44.2568 24.8827 44.4221 25.3147 44.7528 25.624C45.0834 25.9227 45.5581 26.072 46.1768 26.072C46.6141 26.072 46.9821 25.9973 47.2808 25.848C47.5901 25.6987 47.8728 25.464 48.1288 25.144L49.0888 25.944C48.7794 26.36 48.3901 26.6693 47.9208 26.872C47.4514 27.0747 46.8701 27.176 46.1768 27.176ZM54.6966 19.304C55.1553 19.304 55.5393 19.416 55.8486 19.64L55.4966 20.872C55.134 20.6587 54.75 20.552 54.3446 20.552C53.8646 20.552 53.454 20.7547 53.1126 21.16C52.7713 21.5653 52.5206 22.1093 52.3606 22.792V27H50.9526V21.16C50.9526 20.936 50.91 20.7547 50.8246 20.616C50.7393 20.4667 50.5846 20.3067 50.3606 20.136L51.3046 19.304C51.678 19.5067 51.9393 19.7307 52.0886 19.976C52.2486 20.2107 52.3393 20.5413 52.3606 20.968C52.5953 20.4453 52.91 20.04 53.3046 19.752C53.6993 19.4533 54.1633 19.304 54.6966 19.304ZM59.8631 27.176C58.8178 27.176 58.0071 26.9253 57.4311 26.424C56.8658 25.912 56.5831 25.192 56.5831 24.264V22.216C56.5831 21.288 56.8658 20.5733 57.4311 20.072C58.0071 19.56 58.8178 19.304 59.8631 19.304C60.9085 19.304 61.7138 19.56 62.2791 20.072C62.8445 20.5733 63.1271 21.288 63.1271 22.216V24.264C63.1271 25.192 62.8445 25.912 62.2791 26.424C61.7138 26.9253 60.9085 27.176 59.8631 27.176ZM59.8631 26.072C60.4498 26.072 60.9031 25.9173 61.2231 25.608C61.5538 25.288 61.7191 24.84 61.7191 24.264V22.216C61.7191 21.64 61.5538 21.1973 61.2231 20.888C60.9031 20.568 60.4498 20.408 59.8631 20.408C59.2658 20.408 58.8018 20.568 58.4711 20.888C58.1511 21.1973 57.9911 21.64 57.9911 22.216V24.264C57.9911 24.84 58.1511 25.288 58.4711 25.608C58.8018 25.9173 59.2658 26.072 59.8631 26.072ZM66.2899 27.176C65.8952 26.9627 65.6179 26.7227 65.4579 26.456C65.3085 26.1787 65.2339 25.8 65.2339 25.32V17.128C65.2339 16.904 65.1912 16.7227 65.1059 16.584C65.0205 16.4347 64.8659 16.2747 64.6419 16.104L65.5699 15.272C65.9752 15.4853 66.2525 15.7307 66.4019 16.008C66.5619 16.2747 66.6419 16.648 66.6419 17.128V25.32C66.6419 25.544 66.6792 25.7307 66.7539 25.88C66.8392 26.0187 66.9939 26.1733 67.2179 26.344L66.2899 27.176ZM70.2274 27.176C69.8327 26.9627 69.5554 26.7227 69.3954 26.456C69.246 26.1787 69.1714 25.8 69.1714 25.32V17.128C69.1714 16.904 69.1287 16.7227 69.0434 16.584C68.958 16.4347 68.8034 16.2747 68.5794 16.104L69.5074 15.272C69.9127 15.4853 70.19 15.7307 70.3394 16.008C70.4994 16.2747 70.5794 16.648 70.5794 17.128V25.32C70.5794 25.544 70.6167 25.7307 70.6914 25.88C70.7767 26.0187 70.9314 26.1733 71.1554 26.344L70.2274 27.176Z" fill="white"/>
<line x1="11.5" y1="6" x2="11.5" y2="14" stroke="#ABFC4F"/>
</svg>
