<svg width="850" height="255" viewBox="0 0 850 255" fill="none" xmlns="http://www.w3.org/2000/svg">
<path d="M32.832 35.208H35.832V32.208H32.832V35.208ZM0.576 35.208H-2.424V38.208H0.576V35.208ZM0.576 16.2V13.2H-2.424V16.2H0.576ZM88.416 16.2H91.416V13.2H88.416V16.2ZM88.416 35.208V38.208H91.416V35.208H88.416ZM56.16 35.208V32.208H53.16V35.208H56.16ZM56.16 117V120H59.16V117H56.16ZM32.832 117H29.832V120H32.832V117ZM32.832 32.208H0.576V38.208H32.832V32.208ZM3.576 35.208V16.2H-2.424V35.208H3.576ZM0.576 19.2H88.416V13.2H0.576V19.2ZM85.416 16.2V35.208H91.416V16.2H85.416ZM88.416 32.208H56.16V38.208H88.416V32.208ZM53.16 35.208V117H59.16V35.208H53.16ZM56.16 114H32.832V120H56.16V114ZM35.832 117V35.208H29.832V117H35.832ZM193.416 16.2H196.416V13.2H193.416V16.2ZM193.416 117V120H196.416V117H193.416ZM170.088 117H167.088V120H170.088V117ZM170.088 75.672H173.088V72.672H170.088V75.672ZM124.296 75.672V72.672H121.296V75.672H124.296ZM124.296 117V120H127.296V117H124.296ZM100.968 117H97.9676V120H100.968V117ZM100.968 16.2V13.2H97.9676V16.2H100.968ZM124.296 16.2H127.296V13.2H124.296V16.2ZM124.296 55.944H121.296V58.944H124.296V55.944ZM170.088 55.944V58.944H173.088V55.944H170.088ZM170.088 16.2V13.2H167.088V16.2H170.088ZM190.416 16.2V117H196.416V16.2H190.416ZM193.416 114H170.088V120H193.416V114ZM173.088 117V75.672H167.088V117H173.088ZM170.088 72.672H124.296V78.672H170.088V72.672ZM121.296 75.672V117H127.296V75.672H121.296ZM124.296 114H100.968V120H124.296V114ZM103.968 117V16.2H97.9676V117H103.968ZM100.968 19.2H124.296V13.2H100.968V19.2ZM121.296 16.2V55.944H127.296V16.2H121.296ZM124.296 58.944H170.088V52.944H124.296V58.944ZM173.088 55.944V16.2H167.088V55.944H173.088ZM170.088 19.2H193.416V13.2H170.088V19.2ZM295.312 98.28H298.312V95.28H295.312V98.28ZM295.312 117V120H298.312V117H295.312ZM217.264 117H214.264V120H217.264V117ZM217.264 16.2V13.2H214.264V16.2H217.264ZM293.441 16.2H296.441V13.2H293.441V16.2ZM293.441 34.92V37.92H296.441V34.92H293.441ZM240.449 34.92V31.92H237.449V34.92H240.449ZM240.449 56.808H237.449V59.808H240.449V56.808ZM287.249 56.808H290.249V53.808H287.249V56.808ZM287.249 74.952V77.952H290.249V74.952H287.249ZM240.449 74.952V71.952H237.449V74.952H240.449ZM240.449 98.28H237.449V101.28H240.449V98.28ZM292.312 98.28V117H298.312V98.28H292.312ZM295.312 114H217.264V120H295.312V114ZM220.264 117V16.2H214.264V117H220.264ZM217.264 19.2H293.441V13.2H217.264V19.2ZM290.441 16.2V34.92H296.441V16.2H290.441ZM293.441 31.92H240.449V37.92H293.441V31.92ZM237.449 34.92V56.808H243.449V34.92H237.449ZM240.449 59.808H287.249V53.808H240.449V59.808ZM284.249 56.808V74.952H290.249V56.808H284.249ZM287.249 71.952H240.449V77.952H287.249V71.952ZM237.449 74.952V98.28H243.449V74.952H237.449ZM240.449 101.28H295.312V95.28H240.449V101.28ZM78.768 150.664L77.5236 153.394L77.5311 153.397L77.5386 153.4L78.768 150.664ZM94.032 202.216L96.5483 203.849L96.5548 203.839L96.5612 203.829L94.032 202.216ZM78.768 214.888L79.9789 217.633L79.9882 217.629L79.9975 217.625L78.768 214.888ZM35.28 219.208V216.208H32.28V219.208H35.28ZM35.28 247V250H38.28V247H35.28ZM11.952 247H8.952V250H11.952V247ZM11.952 146.2V143.2H8.952V146.2H11.952ZM70.272 195.736L72.1684 198.061L72.1865 198.046L72.2044 198.031L70.272 195.736ZM70.272 169.816L68.3396 172.111L68.3575 172.126L68.3756 172.141L70.272 169.816ZM35.28 165.208V162.208H32.28V165.208H35.28ZM35.28 200.2H32.28V203.2H35.28V200.2ZM55.584 149.2C64.1847 149.2 71.4695 150.634 77.5236 153.394L80.0124 147.934C73.0105 144.742 64.8393 143.2 55.584 143.2V149.2ZM77.5386 153.4C83.6981 156.168 88.3125 160.035 91.5157 164.969L96.5483 161.703C92.6475 155.693 87.086 151.112 79.9975 147.927L77.5386 153.4ZM91.5157 164.969C94.7073 169.886 96.36 175.78 96.36 182.776H102.36C102.36 174.796 100.461 167.73 96.5483 161.703L91.5157 164.969ZM96.36 182.776C96.36 189.667 94.7116 195.573 91.5028 200.603L96.5612 203.829C100.456 197.723 102.36 190.669 102.36 182.776H96.36ZM91.5157 200.583C88.3125 205.517 83.6981 209.384 77.5386 212.151L79.9975 217.625C87.086 214.44 92.6475 209.859 96.5483 203.849L91.5157 200.583ZM77.5571 212.143C71.4937 214.818 64.1965 216.208 55.584 216.208V222.208C64.8275 222.208 72.9864 220.718 79.9789 217.633L77.5571 212.143ZM55.584 216.208H35.28V222.208H55.584V216.208ZM32.28 219.208V247H38.28V219.208H32.28ZM35.28 244H11.952V250H35.28V244ZM14.952 247V146.2H8.952V247H14.952ZM11.952 149.2H55.584V143.2H11.952V149.2ZM54.288 203.2C61.6618 203.2 67.7779 201.642 72.1684 198.061L68.3756 193.411C65.4701 195.782 60.9302 197.2 54.288 197.2V203.2ZM72.2044 198.031C76.6459 194.291 78.744 189.064 78.744 182.776H72.744C72.744 187.624 71.1941 191.037 68.3396 193.441L72.2044 198.031ZM78.744 182.776C78.744 176.413 76.6579 171.154 72.1684 167.491L68.3756 172.141C71.1821 174.43 72.744 177.811 72.744 182.776H78.744ZM72.2044 167.521C67.8115 163.822 61.6804 162.208 54.288 162.208V168.208C60.9116 168.208 65.4365 169.666 68.3396 172.111L72.2044 167.521ZM54.288 162.208H35.28V168.208H54.288V162.208ZM32.28 165.208V200.2H38.28V165.208H32.28ZM35.28 203.2H54.288V197.2H35.28V203.2ZM180.239 247L177.772 248.708L178.667 250H180.239V247ZM160.799 218.92L163.265 217.212L162.37 215.92H160.799V218.92ZM139.342 218.92V215.92H136.342V218.92H139.342ZM139.342 247V250H142.342V247H139.342ZM116.015 247H113.015V250H116.015V247ZM116.015 146.2V143.2H113.015V146.2H116.015ZM182.831 150.664L181.586 153.394L181.594 153.397L181.601 153.4L182.831 150.664ZM197.951 202.216L195.454 200.552L195.447 200.562L197.951 202.216ZM182.686 214.6L181.49 211.849L178.129 213.31L180.226 216.317L182.686 214.6ZM205.294 247V250H211.046L207.755 245.283L205.294 247ZM174.335 169.816L172.402 172.111L172.42 172.126L172.438 172.141L174.335 169.816ZM139.342 165.208V162.208H136.342V165.208H139.342ZM139.342 200.344H136.342V203.344H139.342V200.344ZM174.335 195.736L176.267 198.031L174.335 195.736ZM182.705 245.292L163.265 217.212L158.332 220.628L177.772 248.708L182.705 245.292ZM160.799 215.92H159.646V221.92H160.799V215.92ZM159.646 215.92H139.342V221.92H159.646V215.92ZM136.342 218.92V247H142.342V218.92H136.342ZM139.342 244H116.015V250H139.342V244ZM119.015 247V146.2H113.015V247H119.015ZM116.015 149.2H159.646V143.2H116.015V149.2ZM159.646 149.2C168.247 149.2 175.532 150.634 181.586 153.394L184.075 147.934C177.073 144.742 168.902 143.2 159.646 143.2V149.2ZM181.601 153.4C187.761 156.168 192.375 160.035 195.578 164.969L200.611 161.703C196.71 155.693 191.148 151.112 184.06 147.927L181.601 153.4ZM195.578 164.969C198.77 169.886 200.423 175.78 200.423 182.776H206.423C206.423 174.796 204.523 167.73 200.611 161.703L195.578 164.969ZM200.423 182.776C200.423 189.756 198.73 195.639 195.454 200.552L200.447 203.88C204.467 197.849 206.423 190.772 206.423 182.776H200.423ZM195.447 200.562C192.253 205.396 187.648 209.171 181.49 211.849L183.883 217.351C190.973 214.269 196.544 209.788 200.454 203.87L195.447 200.562ZM180.226 216.317L202.834 248.717L207.755 245.283L185.147 212.883L180.226 216.317ZM205.294 244H180.239V250H205.294V244ZM182.807 182.776C182.807 176.413 180.72 171.154 176.231 167.491L172.438 172.141C175.245 174.43 176.807 177.811 176.807 182.776H182.807ZM176.267 167.521C171.874 163.822 165.743 162.208 158.35 162.208V168.208C164.974 168.208 169.499 169.666 172.402 172.111L176.267 167.521ZM158.35 162.208H139.342V168.208H158.35V162.208ZM136.342 165.208V200.344H142.342V165.208H136.342ZM139.342 203.344H158.35V197.344H139.342V203.344ZM158.35 203.344C165.743 203.344 171.874 201.73 176.267 198.031L172.402 193.441C169.499 195.886 164.974 197.344 158.35 197.344V203.344ZM176.267 198.031C180.708 194.291 182.807 189.064 182.807 182.776H176.807C176.807 187.624 175.257 191.037 172.402 193.441L176.267 198.031ZM242.353 241.96L240.927 244.599L240.934 244.603L240.94 244.606L242.353 241.96ZM222.625 223.384L220.042 224.909L220.053 224.928L220.064 224.946L222.625 223.384ZM222.625 169.96L220.055 168.412L220.05 168.421L222.625 169.96ZM242.353 151.24L240.94 148.594L240.934 148.597L240.927 148.601L242.353 151.24ZM318.673 169.96L316.103 171.508L316.108 171.515L316.112 171.522L318.673 169.96ZM318.673 223.384L321.235 224.946L321.239 224.939L321.243 224.932L318.673 223.384ZM298.945 241.96L300.371 244.599L298.945 241.96ZM286.849 224.824L288.315 227.442L288.335 227.43L288.354 227.419L286.849 224.824ZM298.081 213.304L295.473 211.821L295.462 211.841L295.451 211.86L298.081 213.304ZM298.081 179.896L295.451 181.34L295.462 181.359L295.473 181.379L298.081 179.896ZM286.849 168.52L285.344 171.115L285.364 171.126L285.383 171.138L286.849 168.52ZM254.593 168.52L256.059 171.138L256.079 171.126L256.098 171.115L254.593 168.52ZM243.217 179.896L240.609 178.413L240.598 178.433L240.587 178.452L243.217 179.896ZM243.217 213.304L240.587 214.748L240.598 214.767L240.609 214.787L243.217 213.304ZM254.593 224.824L253.088 227.419L253.108 227.43L253.127 227.442L254.593 224.824ZM270.721 245.728C260.703 245.728 251.74 243.572 243.766 239.314L240.94 244.606C249.862 249.372 259.811 251.728 270.721 251.728V245.728ZM243.779 239.321C235.88 235.053 229.702 229.227 225.187 221.822L220.064 224.946C225.149 233.285 232.122 239.843 240.927 244.599L243.779 239.321ZM225.209 221.859C220.796 214.385 218.569 205.99 218.569 196.6H212.569C212.569 206.986 215.046 216.447 220.042 224.909L225.209 221.859ZM218.569 196.6C218.569 187.21 220.796 178.869 225.2 171.499L220.05 168.421C215.046 176.795 212.569 186.214 212.569 196.6H218.569ZM225.195 171.508C229.712 164.009 235.889 158.142 243.779 153.879L240.927 148.601C232.113 153.362 225.138 159.975 220.055 168.412L225.195 171.508ZM243.766 153.886C251.74 149.628 260.703 147.472 270.721 147.472V141.472C259.811 141.472 249.862 143.828 240.94 148.594L243.766 153.886ZM270.721 147.472C280.739 147.472 289.649 149.628 297.519 153.879L300.371 148.601C291.537 143.828 281.631 141.472 270.721 141.472V147.472ZM297.519 153.879C305.409 158.142 311.586 164.009 316.103 171.508L321.243 168.412C316.16 159.975 309.185 153.362 300.371 148.601L297.519 153.879ZM316.112 171.522C320.604 178.889 322.873 187.222 322.873 196.6H328.873C328.873 186.202 326.342 176.775 321.235 168.398L316.112 171.522ZM322.873 196.6C322.873 205.978 320.604 214.365 316.103 221.836L321.243 224.932C326.342 216.467 328.873 206.998 328.873 196.6H322.873ZM316.112 221.822C311.597 229.227 305.418 235.053 297.519 239.321L300.371 244.599C309.176 239.843 316.15 233.285 321.235 224.946L316.112 221.822ZM297.519 239.321C289.649 243.572 280.739 245.728 270.721 245.728V251.728C281.631 251.728 291.537 249.372 300.371 244.599L297.519 239.321ZM270.721 231.856C277.143 231.856 283.031 230.401 288.315 227.442L285.383 222.206C281.067 224.623 276.203 225.856 270.721 225.856V231.856ZM288.354 227.419C293.63 224.359 297.762 220.119 300.711 214.748L295.451 211.86C293.025 216.281 289.668 219.721 285.344 222.229L288.354 227.419ZM300.689 214.787C303.757 209.391 305.257 203.302 305.257 196.6H299.257C299.257 202.378 297.973 207.424 295.473 211.821L300.689 214.787ZM305.257 196.6C305.257 189.898 303.757 183.809 300.689 178.413L295.473 181.379C297.973 185.775 299.257 190.822 299.257 196.6H305.257ZM300.711 178.452C297.757 173.072 293.613 168.869 288.315 165.902L285.383 171.138C289.685 173.547 293.029 176.928 295.451 181.34L300.711 178.452ZM288.354 165.925C283.064 162.856 277.162 161.344 270.721 161.344V167.344C276.184 167.344 281.034 168.616 285.344 171.115L288.354 165.925ZM270.721 161.344C264.28 161.344 258.378 162.856 253.088 165.925L256.098 171.115C260.408 168.616 265.258 167.344 270.721 167.344V161.344ZM253.127 165.902C247.839 168.864 243.657 173.054 240.609 178.413L245.825 181.379C248.346 176.946 251.748 173.552 256.059 171.138L253.127 165.902ZM240.587 178.452C237.629 183.841 236.185 189.915 236.185 196.6H242.185C242.185 190.805 243.429 185.743 245.847 181.34L240.587 178.452ZM236.185 196.6C236.185 203.285 237.629 209.359 240.587 214.748L245.847 211.86C243.429 207.457 242.185 202.395 242.185 196.6H236.185ZM240.609 214.787C243.652 220.137 247.821 224.364 253.088 227.419L256.098 222.229C251.765 219.716 248.351 216.263 245.825 211.821L240.609 214.787ZM253.127 227.442C258.411 230.401 264.299 231.856 270.721 231.856V225.856C265.239 225.856 260.375 224.623 256.059 222.206L253.127 227.442ZM341.008 244.984L339.759 247.712L339.787 247.725L339.815 247.737L341.008 244.984ZM327.04 234.04L324.735 232.119L323.191 233.972L324.669 235.878L327.04 234.04ZM340 218.488L342.411 216.703L340.139 213.634L337.695 216.567L340 218.488ZM372.976 164.92H375.976V161.92H372.976V164.92ZM337.552 164.92H334.552V167.92H337.552V164.92ZM337.552 146.2V143.2H334.552V146.2H337.552ZM396.16 146.2H399.16V143.2H396.16V146.2ZM386.944 239.512L389.065 241.633L389.073 241.625L389.081 241.617L386.944 239.512ZM359.872 245.728C353.431 245.728 347.553 244.551 342.201 242.231L339.815 247.737C345.983 250.409 352.681 251.728 359.872 251.728V245.728ZM342.256 242.256C337.011 239.856 332.748 236.505 329.41 232.202L324.669 235.878C328.628 240.983 333.676 244.928 339.759 247.712L342.256 242.256ZM329.344 235.961L342.304 220.409L337.695 216.567L324.735 232.119L329.344 235.961ZM337.589 220.273C343.433 228.168 350.477 232.576 358.72 232.576V226.576C352.946 226.576 347.51 223.592 342.411 216.703L337.589 220.273ZM358.72 232.576C364.069 232.576 368.588 230.987 371.694 227.348C374.722 223.799 375.976 218.796 375.976 212.872H369.976C369.976 218.084 368.854 221.433 367.13 223.452C365.484 225.381 362.874 226.576 358.72 226.576V232.576ZM375.976 212.872V164.92H369.976V212.872H375.976ZM372.976 161.92H337.552V167.92H372.976V161.92ZM340.552 164.92V146.2H334.552V164.92H340.552ZM337.552 149.2H396.16V143.2H337.552V149.2ZM393.16 146.2V211.576H399.16V146.2H393.16ZM393.16 211.576C393.16 223.501 390.203 231.926 384.806 237.407L389.081 241.617C395.972 234.618 399.16 224.419 399.16 211.576H393.16ZM384.822 237.391C379.423 242.79 371.281 245.728 359.872 245.728V251.728C372.27 251.728 382.176 248.522 389.065 241.633L384.822 237.391ZM497.25 228.28H500.25V225.28H497.25V228.28ZM497.25 247V250H500.25V247H497.25ZM419.202 247H416.202V250H419.202V247ZM419.202 146.2V143.2H416.202V146.2H419.202ZM495.378 146.2H498.378V143.2H495.378V146.2ZM495.378 164.92V167.92H498.378V164.92H495.378ZM442.386 164.92V161.92H439.386V164.92H442.386ZM442.386 186.808H439.386V189.808H442.386V186.808ZM489.186 186.808H492.186V183.808H489.186V186.808ZM489.186 204.952V207.952H492.186V204.952H489.186ZM442.386 204.952V201.952H439.386V204.952H442.386ZM442.386 228.28H439.386V231.28H442.386V228.28ZM494.25 228.28V247H500.25V228.28H494.25ZM497.25 244H419.202V250H497.25V244ZM422.202 247V146.2H416.202V247H422.202ZM419.202 149.2H495.378V143.2H419.202V149.2ZM492.378 146.2V164.92H498.378V146.2H492.378ZM495.378 161.92H442.386V167.92H495.378V161.92ZM439.386 164.92V186.808H445.386V164.92H439.386ZM442.386 189.808H489.186V183.808H442.386V189.808ZM486.186 186.808V204.952H492.186V186.808H486.186ZM489.186 201.952H442.386V207.952H489.186V201.952ZM439.386 204.952V228.28H445.386V204.952H439.386ZM442.386 231.28H497.25V225.28H442.386V231.28ZM535.834 242.104L534.395 244.737L534.414 244.746L534.432 244.756L535.834 242.104ZM516.25 223.528L513.667 225.053L513.678 225.072L513.689 225.09L516.25 223.528ZM516.25 169.816L513.68 168.268L513.675 168.277L516.25 169.816ZM535.834 151.24L537.249 153.885L537.26 153.879L535.834 151.24ZM587.53 149.08L586.326 151.828L586.333 151.831L586.339 151.834L587.53 149.08ZM605.386 162.328L607.421 164.532L609.516 162.598L607.691 160.407L605.386 162.328ZM590.41 176.152L588.142 178.116L590.169 180.457L592.445 178.356L590.41 176.152ZM548.362 168.52L549.806 171.15L549.826 171.139L549.845 171.128L548.362 168.52ZM536.842 179.896L534.234 178.413L534.223 178.433L534.212 178.452L536.842 179.896ZM536.842 213.304L534.212 214.748L534.223 214.767L534.234 214.787L536.842 213.304ZM548.362 224.824L546.879 227.432L546.899 227.443L546.918 227.454L548.362 224.824ZM590.41 216.904L592.445 214.7L590.156 212.586L588.13 214.954L590.41 216.904ZM605.386 230.728L607.706 232.63L609.499 230.442L607.421 228.524L605.386 230.728ZM587.53 244.12L586.339 241.366L587.53 244.12ZM563.77 245.728C553.943 245.728 545.119 243.62 537.236 239.452L534.432 244.756C543.253 249.42 553.053 251.728 563.77 251.728V245.728ZM537.273 239.471C529.469 235.206 523.332 229.379 518.812 221.966L513.689 225.09C518.768 233.421 525.688 239.978 534.395 244.737L537.273 239.471ZM518.833 222.003C514.424 214.533 512.194 206.091 512.194 196.6H506.194C506.194 207.077 508.669 216.587 513.667 225.053L518.833 222.003ZM512.194 196.6C512.194 187.108 514.424 178.721 518.825 171.355L513.675 168.277C508.668 176.655 506.194 186.124 506.194 196.6H512.194ZM518.82 171.364C523.339 163.862 529.467 158.048 537.249 153.885L534.419 148.595C525.69 153.264 518.761 159.834 513.68 168.268L518.82 171.364ZM537.26 153.879C545.134 149.625 553.997 147.472 563.914 147.472V141.472C553.095 141.472 543.238 143.831 534.408 148.601L537.26 153.879ZM563.914 147.472C572.294 147.472 579.748 148.944 586.326 151.828L588.735 146.332C581.297 143.072 573.006 141.472 563.914 141.472V147.472ZM586.339 151.834C593.026 154.725 598.592 158.862 603.081 164.249L607.691 160.407C602.58 154.274 596.242 149.579 588.721 146.326L586.339 151.834ZM603.351 160.124L588.375 173.948L592.445 178.356L607.421 164.532L603.351 160.124ZM592.678 174.188C585.314 165.683 576.049 161.344 565.066 161.344V167.344C574.243 167.344 581.874 170.877 588.142 178.116L592.678 174.188ZM565.066 161.344C558.364 161.344 552.275 162.844 546.879 165.912L549.845 171.128C554.242 168.628 559.289 167.344 565.066 167.344V161.344ZM546.918 165.89C541.531 168.848 537.29 173.039 534.234 178.413L539.45 181.379C541.962 176.961 545.401 173.568 549.806 171.15L546.918 165.89ZM534.212 178.452C531.254 183.841 529.81 189.915 529.81 196.6H535.81C535.81 190.805 537.054 185.743 539.472 181.34L534.212 178.452ZM529.81 196.6C529.81 203.285 531.254 209.359 534.212 214.748L539.472 211.86C537.054 207.457 535.81 202.395 535.81 196.6H529.81ZM534.234 214.787C537.285 220.152 541.514 224.381 546.879 227.432L549.845 222.216C545.418 219.699 541.967 216.248 539.45 211.821L534.234 214.787ZM546.918 227.454C552.307 230.412 558.382 231.856 565.066 231.856V225.856C559.271 225.856 554.209 224.612 549.806 222.194L546.918 227.454ZM565.066 231.856C576.063 231.856 585.33 227.458 592.69 218.854L588.13 214.954C581.858 222.286 574.23 225.856 565.066 225.856V231.856ZM588.375 219.108L603.351 232.932L607.421 228.524L592.445 214.7L588.375 219.108ZM603.066 228.826C598.576 234.304 593.015 238.48 586.339 241.366L588.721 246.874C596.254 243.616 602.596 238.864 607.706 232.63L603.066 228.826ZM586.339 241.366C579.657 244.256 572.149 245.728 563.77 245.728V251.728C572.863 251.728 581.195 250.128 588.721 246.874L586.339 241.366ZM641.035 165.208H644.035V162.208H641.035V165.208ZM608.779 165.208H605.779V168.208H608.779V165.208ZM608.779 146.2V143.2H605.779V146.2H608.779ZM696.619 146.2H699.619V143.2H696.619V146.2ZM696.619 165.208V168.208H699.619V165.208H696.619ZM664.363 165.208V162.208H661.363V165.208H664.363ZM664.363 247V250H667.363V247H664.363ZM641.035 247H638.035V250H641.035V247ZM641.035 162.208H608.779V168.208H641.035V162.208ZM611.779 165.208V146.2H605.779V165.208H611.779ZM608.779 149.2H696.619V143.2H608.779V149.2ZM693.619 146.2V165.208H699.619V146.2H693.619ZM696.619 162.208H664.363V168.208H696.619V162.208ZM661.363 165.208V247H667.363V165.208H661.363ZM664.363 244H641.035V250H664.363V244ZM644.035 247V165.208H638.035V247H644.035Z" fill="url(#paint0_linear_577_1743)" fill-opacity="0.24"/>
<path d="M88 189.192H81.112V187.4H96.96V189.192H90.072V207H88V189.192ZM123.65 187.4V207H121.606V197.956H109.342V207H107.27V187.4H109.342V196.136H121.606V187.4H123.65ZM150.907 205.208V207H137.047V187.4H150.487V189.192H139.119V196.164H149.255V197.928H139.119V205.208H150.907ZM184.442 187.4C186.943 187.4 188.903 187.997 190.322 189.192C191.741 190.387 192.45 192.029 192.45 194.12C192.45 196.211 191.741 197.853 190.322 199.048C188.903 200.224 186.943 200.812 184.442 200.812H179.178V207H177.106V187.4H184.442ZM184.386 198.992C186.327 198.992 187.811 198.572 188.838 197.732C189.865 196.873 190.378 195.669 190.378 194.12C190.378 192.533 189.865 191.32 188.838 190.48C187.811 189.621 186.327 189.192 184.386 189.192H179.178V198.992H184.386ZM217.314 207L212.834 200.7C212.33 200.756 211.808 200.784 211.266 200.784H206.002V207H203.93V187.4H211.266C213.768 187.4 215.728 187.997 217.146 189.192C218.565 190.387 219.274 192.029 219.274 194.12C219.274 195.651 218.882 196.948 218.098 198.012C217.333 199.057 216.232 199.813 214.794 200.28L219.582 207H217.314ZM211.21 199.02C213.152 199.02 214.636 198.591 215.662 197.732C216.689 196.873 217.202 195.669 217.202 194.12C217.202 192.533 216.689 191.32 215.662 190.48C214.636 189.621 213.152 189.192 211.21 189.192H206.002V199.02H211.21ZM239.733 207.168C237.791 207.168 236.027 206.739 234.441 205.88C232.873 205.003 231.641 203.808 230.745 202.296C229.867 200.784 229.429 199.085 229.429 197.2C229.429 195.315 229.867 193.616 230.745 192.104C231.641 190.592 232.873 189.407 234.441 188.548C236.027 187.671 237.791 187.232 239.733 187.232C241.674 187.232 243.419 187.661 244.969 188.52C246.537 189.379 247.769 190.573 248.665 192.104C249.561 193.616 250.009 195.315 250.009 197.2C250.009 199.085 249.561 200.793 248.665 202.324C247.769 203.836 246.537 205.021 244.969 205.88C243.419 206.739 241.674 207.168 239.733 207.168ZM239.733 205.32C241.282 205.32 242.682 204.975 243.933 204.284C245.183 203.575 246.163 202.604 246.873 201.372C247.582 200.121 247.937 198.731 247.937 197.2C247.937 195.669 247.582 194.288 246.873 193.056C246.163 191.805 245.183 190.835 243.933 190.144C242.682 189.435 241.282 189.08 239.733 189.08C238.183 189.08 236.774 189.435 235.505 190.144C234.254 190.835 233.265 191.805 232.537 193.056C231.827 194.288 231.473 195.669 231.473 197.2C231.473 198.731 231.827 200.121 232.537 201.372C233.265 202.604 234.254 203.575 235.505 204.284C236.774 204.975 238.183 205.32 239.733 205.32ZM263.343 207.168C262.223 207.168 261.187 206.925 260.235 206.44C259.283 205.955 258.508 205.264 257.911 204.368L259.143 202.968C260.225 204.573 261.635 205.376 263.371 205.376C265.797 205.376 267.011 203.939 267.011 201.064V189.192H259.843V187.4H269.055V200.98C269.055 203.033 268.569 204.583 267.599 205.628C266.647 206.655 265.228 207.168 263.343 207.168ZM296.13 205.208V207H282.27V187.4H295.71V189.192H284.342V196.164H294.478V197.928H284.342V205.208H296.13ZM316.403 207.168C314.462 207.168 312.707 206.739 311.139 205.88C309.59 205.021 308.367 203.836 307.471 202.324C306.594 200.793 306.155 199.085 306.155 197.2C306.155 195.315 306.594 193.616 307.471 192.104C308.367 190.573 309.599 189.379 311.167 188.52C312.735 187.661 314.49 187.232 316.431 187.232C317.887 187.232 319.231 187.475 320.463 187.96C321.695 188.445 322.741 189.155 323.599 190.088L322.283 191.404C320.753 189.855 318.821 189.08 316.487 189.08C314.938 189.08 313.529 189.435 312.259 190.144C310.99 190.853 309.991 191.824 309.263 193.056C308.554 194.288 308.199 195.669 308.199 197.2C308.199 198.731 308.554 200.112 309.263 201.344C309.991 202.576 310.99 203.547 312.259 204.256C313.529 204.965 314.938 205.32 316.487 205.32C318.839 205.32 320.771 204.536 322.283 202.968L323.599 204.284C322.741 205.217 321.686 205.936 320.435 206.44C319.203 206.925 317.859 207.168 316.403 207.168ZM338.578 189.192H331.69V187.4H347.538V189.192H340.65V207H338.578V189.192Z" fill="white"/>
<defs>
<linearGradient id="paint0_linear_577_1743" x1="425" y1="-2.21037e-06" x2="436.251" y2="231.512" gradientUnits="userSpaceOnUse">
<stop stop-color="#ABFC4F"/>
<stop offset="1" stop-color="#3DBF69" stop-opacity="0.47"/>
</linearGradient>
</defs>
</svg>
