<svg width="850" height="260" viewBox="0 0 850 260" fill="none" xmlns="http://www.w3.org/2000/svg">
<path d="M32.832 35.208H35.832V32.208H32.832V35.208ZM0.576 35.208H-2.424V38.208H0.576V35.208ZM0.576 16.2V13.2H-2.424V16.2H0.576ZM88.416 16.2H91.416V13.2H88.416V16.2ZM88.416 35.208V38.208H91.416V35.208H88.416ZM56.16 35.208V32.208H53.16V35.208H56.16ZM56.16 117V120H59.16V117H56.16ZM32.832 117H29.832V120H32.832V117ZM32.832 32.208H0.576V38.208H32.832V32.208ZM3.576 35.208V16.2H-2.424V35.208H3.576ZM0.576 19.2H88.416V13.2H0.576V19.2ZM85.416 16.2V35.208H91.416V16.2H85.416ZM88.416 32.208H56.16V38.208H88.416V32.208ZM53.16 35.208V117H59.16V35.208H53.16ZM56.16 114H32.832V120H56.16V114ZM35.832 117V35.208H29.832V117H35.832ZM193.416 16.2H196.416V13.2H193.416V16.2ZM193.416 117V120H196.416V117H193.416ZM170.088 117H167.088V120H170.088V117ZM170.088 75.672H173.088V72.672H170.088V75.672ZM124.296 75.672V72.672H121.296V75.672H124.296ZM124.296 117V120H127.296V117H124.296ZM100.968 117H97.9676V120H100.968V117ZM100.968 16.2V13.2H97.9676V16.2H100.968ZM124.296 16.2H127.296V13.2H124.296V16.2ZM124.296 55.944H121.296V58.944H124.296V55.944ZM170.088 55.944V58.944H173.088V55.944H170.088ZM170.088 16.2V13.2H167.088V16.2H170.088ZM190.416 16.2V117H196.416V16.2H190.416ZM193.416 114H170.088V120H193.416V114ZM173.088 117V75.672H167.088V117H173.088ZM170.088 72.672H124.296V78.672H170.088V72.672ZM121.296 75.672V117H127.296V75.672H121.296ZM124.296 114H100.968V120H124.296V114ZM103.968 117V16.2H97.9676V117H103.968ZM100.968 19.2H124.296V13.2H100.968V19.2ZM121.296 16.2V55.944H127.296V16.2H121.296ZM124.296 58.944H170.088V52.944H124.296V58.944ZM173.088 55.944V16.2H167.088V55.944H173.088ZM170.088 19.2H193.416V13.2H170.088V19.2ZM295.312 98.28H298.312V95.28H295.312V98.28ZM295.312 117V120H298.312V117H295.312ZM217.265 117H214.265V120H217.265V117ZM217.265 16.2V13.2H214.265V16.2H217.265ZM293.441 16.2H296.441V13.2H293.441V16.2ZM293.441 34.92V37.92H296.441V34.92H293.441ZM240.449 34.92V31.92H237.449V34.92H240.449ZM240.449 56.808H237.449V59.808H240.449V56.808ZM287.249 56.808H290.249V53.808H287.249V56.808ZM287.249 74.952V77.952H290.249V74.952H287.249ZM240.449 74.952V71.952H237.449V74.952H240.449ZM240.449 98.28H237.449V101.28H240.449V98.28ZM292.312 98.28V117H298.312V98.28H292.312ZM295.312 114H217.265V120H295.312V114ZM220.265 117V16.2H214.265V117H220.265ZM217.265 19.2H293.441V13.2H217.265V19.2ZM290.441 16.2V34.92H296.441V16.2H290.441ZM293.441 31.92H240.449V37.92H293.441V31.92ZM237.449 34.92V56.808H243.449V34.92H237.449ZM240.449 59.808H287.249V53.808H240.449V59.808ZM284.249 56.808V74.952H290.249V56.808H284.249ZM287.249 71.952H240.449V77.952H287.249V71.952ZM237.449 74.952V98.28H243.449V74.952H237.449ZM240.449 101.28H295.312V95.28H240.449V101.28ZM76.176 247L73.7094 248.708L74.6041 250H76.176V247ZM56.736 218.92L59.2026 217.212L58.3079 215.92H56.736V218.92ZM35.28 218.92V215.92H32.28V218.92H35.28ZM35.28 247V250H38.28V247H35.28ZM11.952 247H8.952V250H11.952V247ZM11.952 146.2V143.2H8.952V146.2H11.952ZM78.768 150.664L77.5236 153.394L77.5311 153.397L77.5386 153.401L78.768 150.664ZM93.888 202.216L91.3918 200.552L91.385 200.562L93.888 202.216ZM78.624 214.6L77.4278 211.849L74.066 213.31L76.1637 216.317L78.624 214.6ZM101.232 247V250H106.983L103.692 245.283L101.232 247ZM70.272 169.816L68.3396 172.111L68.3575 172.126L68.3756 172.141L70.272 169.816ZM35.28 165.208V162.208H32.28V165.208H35.28ZM35.28 200.344H32.28V203.344H35.28V200.344ZM70.272 195.736L72.2044 198.031L72.2044 198.031L70.272 195.736ZM78.6426 245.292L59.2026 217.212L54.2694 220.628L73.7094 248.708L78.6426 245.292ZM56.736 215.92H55.584V221.92H56.736V215.92ZM55.584 215.92H35.28V221.92H55.584V215.92ZM32.28 218.92V247H38.28V218.92H32.28ZM35.28 244H11.952V250H35.28V244ZM14.952 247V146.2H8.952V247H14.952ZM11.952 149.2H55.584V143.2H11.952V149.2ZM55.584 149.2C64.1847 149.2 71.4695 150.634 77.5236 153.394L80.0124 147.934C73.0105 144.742 64.8393 143.2 55.584 143.2V149.2ZM77.5386 153.401C83.6981 156.168 88.3125 160.035 91.5157 164.969L96.5483 161.703C92.6475 155.693 87.086 151.112 79.9975 147.927L77.5386 153.401ZM91.5157 164.969C94.7073 169.886 96.36 175.78 96.36 182.776H102.36C102.36 174.796 100.461 167.73 96.5483 161.703L91.5157 164.969ZM96.36 182.776C96.36 189.756 94.6673 195.639 91.3919 200.552L96.3842 203.88C100.405 197.849 102.36 190.772 102.36 182.776H96.36ZM91.385 200.562C88.191 205.396 83.5857 209.171 77.4278 211.849L79.8202 217.351C86.9103 214.269 92.481 209.788 96.391 203.87L91.385 200.562ZM76.1637 216.317L98.7717 248.717L103.692 245.283L81.0843 212.883L76.1637 216.317ZM101.232 244H76.176V250H101.232V244ZM78.744 182.776C78.744 176.413 76.6579 171.154 72.1684 167.491L68.3756 172.141C71.1821 174.43 72.744 177.811 72.744 182.776H78.744ZM72.2044 167.521C67.8115 163.822 61.6804 162.208 54.288 162.208V168.208C60.9116 168.208 65.4365 169.666 68.3396 172.111L72.2044 167.521ZM54.288 162.208H35.28V168.208H54.288V162.208ZM32.28 165.208V200.344H38.28V165.208H32.28ZM35.28 203.344H54.288V197.344H35.28V203.344ZM54.288 203.344C61.6804 203.344 67.8115 201.73 72.2044 198.031L68.3396 193.441C65.4365 195.886 60.9116 197.344 54.288 197.344V203.344ZM72.2044 198.031C76.6459 194.291 78.744 189.064 78.744 182.776H72.744C72.744 187.624 71.1941 191.037 68.3396 193.441L72.2044 198.031ZM138.291 241.96L136.865 244.599L136.871 244.603L136.877 244.606L138.291 241.96ZM118.563 223.384L115.979 224.909L115.99 224.928L116.001 224.946L118.563 223.384ZM118.563 169.96L115.993 168.412L115.987 168.421L118.563 169.96ZM138.291 151.24L136.877 148.594L136.871 148.597L136.865 148.601L138.291 151.24ZM214.611 169.96L212.041 171.508L212.045 171.515L212.049 171.522L214.611 169.96ZM214.611 223.384L217.172 224.946L217.176 224.939L217.18 224.932L214.611 223.384ZM194.883 241.96L196.309 244.599L194.883 241.96ZM182.787 224.824L184.252 227.442L184.272 227.43L184.292 227.419L182.787 224.824ZM194.019 213.304L191.411 211.821L191.4 211.841L191.389 211.86L194.019 213.304ZM194.019 179.896L191.389 181.34L191.4 181.359L191.411 181.379L194.019 179.896ZM182.787 168.52L181.281 171.115L181.301 171.126L181.321 171.138L182.787 168.52ZM150.531 168.52L151.996 171.138L152.016 171.126L152.036 171.115L150.531 168.52ZM139.155 179.896L136.547 178.413L136.536 178.433L136.525 178.452L139.155 179.896ZM139.155 213.304L136.525 214.748L136.536 214.767L136.547 214.787L139.155 213.304ZM150.531 224.824L149.025 227.419L149.045 227.43L149.065 227.442L150.531 224.824ZM166.659 245.728C156.641 245.728 147.678 243.572 139.704 239.314L136.877 244.606C145.8 249.372 155.748 251.728 166.659 251.728V245.728ZM139.717 239.321C131.817 235.053 125.639 229.227 121.124 221.822L116.001 224.946C121.086 233.285 128.06 239.843 136.865 244.599L139.717 239.321ZM121.146 221.859C116.734 214.385 114.507 205.99 114.507 196.6H108.507C108.507 206.986 110.984 216.447 115.979 224.909L121.146 221.859ZM114.507 196.6C114.507 187.21 116.734 178.869 121.138 171.499L115.987 168.421C110.984 176.795 108.507 186.214 108.507 196.6H114.507ZM121.132 171.508C125.65 164.009 131.826 158.142 139.717 153.879L136.865 148.601C128.051 153.362 121.076 159.975 115.993 168.412L121.132 171.508ZM139.704 153.886C147.678 149.628 156.641 147.472 166.659 147.472V141.472C155.748 141.472 145.8 143.828 136.877 148.594L139.704 153.886ZM166.659 147.472C176.677 147.472 185.586 149.628 193.457 153.879L196.309 148.601C187.475 143.828 177.568 141.472 166.659 141.472V147.472ZM193.457 153.879C201.347 158.142 207.524 164.009 212.041 171.508L217.18 168.412C212.098 159.975 205.122 153.362 196.309 148.601L193.457 153.879ZM212.049 171.522C216.542 178.889 218.811 187.222 218.811 196.6H224.811C224.811 186.202 222.28 176.775 217.172 168.398L212.049 171.522ZM218.811 196.6C218.811 205.978 216.541 214.365 212.041 221.836L217.18 224.932C222.28 216.467 224.811 206.998 224.811 196.6H218.811ZM212.049 221.822C207.534 229.227 201.356 235.053 193.457 239.321L196.309 244.599C205.113 239.843 212.087 233.285 217.172 224.946L212.049 221.822ZM193.457 239.321C185.586 243.572 176.677 245.728 166.659 245.728V251.728C177.568 251.728 187.475 249.372 196.309 244.599L193.457 239.321ZM166.659 231.856C173.081 231.856 178.968 230.401 184.252 227.442L181.321 222.206C177.005 224.623 172.141 225.856 166.659 225.856V231.856ZM184.292 227.419C189.568 224.359 193.699 220.119 196.648 214.748L191.389 211.86C188.962 216.281 185.605 219.721 181.281 222.229L184.292 227.419ZM196.627 214.787C199.694 209.391 201.195 203.302 201.195 196.6H195.195C195.195 202.378 193.911 207.425 191.411 211.821L196.627 214.787ZM201.195 196.6C201.195 189.898 199.694 183.809 196.627 178.413L191.411 181.379C193.911 185.775 195.195 190.822 195.195 196.6H201.195ZM196.648 178.452C193.694 173.072 189.551 168.869 184.252 165.902L181.321 171.138C185.623 173.547 188.967 176.928 191.389 181.34L196.648 178.452ZM184.292 165.925C179.001 162.856 173.1 161.344 166.659 161.344V167.344C172.122 167.344 176.972 168.616 181.281 171.115L184.292 165.925ZM166.659 161.344C160.218 161.344 154.316 162.856 149.025 165.925L152.036 171.115C156.345 168.616 161.196 167.344 166.659 167.344V161.344ZM149.065 165.902C143.776 168.864 139.594 173.054 136.547 178.413L141.762 181.379C144.283 176.946 147.685 173.552 151.996 171.138L149.065 165.902ZM136.525 178.452C133.567 183.841 132.123 189.915 132.123 196.6H138.123C138.123 190.804 139.367 185.743 141.784 181.34L136.525 178.452ZM132.123 196.6C132.123 203.284 133.567 209.359 136.525 214.748L141.784 211.86C139.367 207.457 138.123 202.395 138.123 196.6H132.123ZM136.547 214.787C139.589 220.137 143.759 224.364 149.025 227.419L152.036 222.229C147.703 219.716 144.288 216.263 141.762 211.821L136.547 214.787ZM149.065 227.442C154.349 230.401 160.237 231.856 166.659 231.856V225.856C161.177 225.856 156.312 224.623 151.996 222.206L149.065 227.442ZM304.32 225.4L307.093 224.254L306.327 222.4H304.32V225.4ZM257.52 225.4V222.4H255.514L254.748 224.254L257.52 225.4ZM248.592 247V250H250.599L251.365 248.146L248.592 247ZM224.688 247L221.948 245.779L220.067 250H224.688V247ZM269.616 146.2V143.2H267.669L266.876 144.979L269.616 146.2ZM292.656 146.2L295.395 144.975L294.601 143.2H292.656V146.2ZM337.728 247V250H342.356L340.467 245.775L337.728 247ZM313.248 247L310.476 248.146L311.242 250H313.248V247ZM296.976 207.688V210.688H301.466L299.748 206.54L296.976 207.688ZM280.992 169.096L283.764 167.948L280.992 161.256L278.221 167.948L280.992 169.096ZM265.008 207.688L262.237 206.54L260.519 210.688H265.008V207.688ZM304.32 222.4H257.52V228.4H304.32V222.4ZM254.748 224.254L245.82 245.854L251.365 248.146L260.293 226.546L254.748 224.254ZM248.592 244H224.688V250H248.592V244ZM227.429 248.221L272.357 147.421L266.876 144.979L221.948 245.779L227.429 248.221ZM269.616 149.2H292.656V143.2H269.616V149.2ZM289.918 147.425L334.99 248.225L340.467 245.775L295.395 144.975L289.918 147.425ZM337.728 244H313.248V250H337.728V244ZM316.021 245.854L307.093 224.254L301.548 226.546L310.476 248.146L316.021 245.854ZM299.748 206.54L283.764 167.948L278.221 170.244L294.205 208.836L299.748 206.54ZM278.221 167.948L262.237 206.54L267.78 208.836L283.764 170.244L278.221 167.948ZM265.008 210.688H296.976V204.688H265.008V210.688ZM348.186 146.2V143.2H345.186V146.2H348.186ZM422.922 152.536L421.568 155.213L421.587 155.222L421.605 155.231L422.922 152.536ZM442.506 170.104L439.943 171.662L439.95 171.674L439.957 171.685L442.506 170.104ZM442.506 223.096L439.957 221.515L439.95 221.526L439.943 221.538L442.506 223.096ZM422.922 240.808L424.252 243.497L424.264 243.491L422.922 240.808ZM348.186 247H345.186V250H348.186V247ZM416.874 219.496L418.924 221.687L418.925 221.686L416.874 219.496ZM416.874 173.848L414.806 176.021L414.824 176.038L414.842 176.055L416.874 173.848ZM371.514 165.352V162.352H368.514V165.352H371.514ZM371.514 227.848H368.514V230.848H371.514V227.848ZM348.186 149.2H393.978V143.2H348.186V149.2ZM393.978 149.2C404.532 149.2 413.702 151.235 421.568 155.213L424.276 149.859C415.439 145.389 405.313 143.2 393.978 143.2V149.2ZM421.605 155.231C429.57 159.123 435.651 164.598 439.943 171.662L445.07 168.546C440.146 160.442 433.171 154.205 424.239 149.841L421.605 155.231ZM439.957 171.685C444.33 178.735 446.562 187.005 446.562 196.6H452.562C452.562 186.035 450.091 176.641 445.056 168.523L439.957 171.685ZM446.562 196.6C446.562 206.195 444.33 214.465 439.957 221.515L445.056 224.677C450.091 216.559 452.562 207.165 452.562 196.6H446.562ZM439.943 221.538C435.647 228.608 429.557 234.136 421.581 238.125L424.264 243.491C433.183 239.032 440.15 232.752 445.07 224.654L439.943 221.538ZM421.593 238.119C413.721 242.009 404.541 244 393.978 244V250C405.303 250 415.42 247.863 424.252 243.497L421.593 238.119ZM393.978 244H348.186V250H393.978V244ZM351.186 247V146.2H345.186V247H351.186ZM392.826 230.848C403.478 230.848 412.292 227.891 418.924 221.687L414.825 217.305C409.553 222.237 402.334 224.848 392.826 224.848V230.848ZM418.925 221.686C425.676 215.363 428.946 206.886 428.946 196.6H422.946C422.946 205.514 420.168 212.301 414.824 217.306L418.925 221.686ZM428.946 196.6C428.946 186.315 425.676 177.873 418.906 171.641L414.842 176.055C420.169 180.959 422.946 187.685 422.946 196.6H428.946ZM418.942 171.675C412.312 165.365 403.492 162.352 392.826 162.352V168.352C402.321 168.352 409.533 171.003 414.806 176.021L418.942 171.675ZM392.826 162.352H371.514V168.352H392.826V162.352ZM368.514 165.352V227.848H374.514V165.352H368.514ZM371.514 230.848H392.826V224.848H371.514V230.848ZM558.883 247L555.883 247.007L555.89 250H558.883V247ZM558.739 186.52L561.739 186.513L561.713 175.66L556.161 184.985L558.739 186.52ZM529.075 236.344V239.344H530.78L531.653 237.879L529.075 236.344ZM518.563 236.344L516 237.903L516.877 239.344H518.563V236.344ZM489.043 187.816L491.606 186.257L486.043 177.112V187.816H489.043ZM489.043 247V250H492.043V247H489.043ZM467.155 247H464.155V250H467.155V247ZM467.155 146.2V143.2H464.155V146.2H467.155ZM486.451 146.2L489.021 144.652L488.146 143.2H486.451V146.2ZM524.179 208.84L521.609 210.388L524.199 214.687L526.759 210.37L524.179 208.84ZM561.331 146.2V143.2H559.622L558.751 144.67L561.331 146.2ZM580.483 146.2L583.483 146.191L583.475 143.2H580.483V146.2ZM580.771 247V250H583.78L583.771 246.991L580.771 247ZM561.883 246.993L561.739 186.513L555.739 186.527L555.883 247.007L561.883 246.993ZM556.161 184.985L526.497 234.809L531.653 237.879L561.317 188.055L556.161 184.985ZM529.075 233.344H518.563V239.344H529.075V233.344ZM521.126 234.785L491.606 186.257L486.48 189.375L516 237.903L521.126 234.785ZM486.043 187.816V247H492.043V187.816H486.043ZM489.043 244H467.155V250H489.043V244ZM470.155 247V146.2H464.155V247H470.155ZM467.155 149.2H486.451V143.2H467.155V149.2ZM483.881 147.748L521.609 210.388L526.749 207.292L489.021 144.652L483.881 147.748ZM526.759 210.37L563.911 147.73L558.751 144.67L521.599 207.31L526.759 210.37ZM561.331 149.2H580.483V143.2H561.331V149.2ZM577.483 146.209L577.771 247.009L583.771 246.991L583.483 146.191L577.483 146.209ZM580.771 244H558.883V250H580.771V244ZM671.07 225.4L673.843 224.254L673.077 222.4H671.07V225.4ZM624.27 225.4V222.4H622.264L621.498 224.254L624.27 225.4ZM615.342 247V250H617.349L618.115 248.146L615.342 247ZM591.438 247L588.698 245.779L586.817 250H591.438V247ZM636.366 146.2V143.2H634.419L633.626 144.979L636.366 146.2ZM659.406 146.2L662.145 144.975L661.351 143.2H659.406V146.2ZM704.478 247V250H709.106L707.217 245.775L704.478 247ZM679.998 247L677.226 248.146L677.992 250H679.998V247ZM663.726 207.688V210.688H668.216L666.498 206.54L663.726 207.688ZM647.742 169.096L650.514 167.948L647.742 161.256L644.971 167.948L647.742 169.096ZM631.758 207.688L628.987 206.54L627.269 210.688H631.758V207.688ZM671.07 222.4H624.27V228.4H671.07V222.4ZM621.498 224.254L612.57 245.854L618.115 248.146L627.043 226.546L621.498 224.254ZM615.342 244H591.438V250H615.342V244ZM594.179 248.221L639.107 147.421L633.626 144.979L588.698 245.779L594.179 248.221ZM636.366 149.2H659.406V143.2H636.366V149.2ZM656.668 147.425L701.74 248.225L707.217 245.775L662.145 144.975L656.668 147.425ZM704.478 244H679.998V250H704.478V244ZM682.771 245.854L673.843 224.254L668.298 226.546L677.226 248.146L682.771 245.854ZM666.498 206.54L650.514 167.948L644.971 170.244L660.955 208.836L666.498 206.54ZM644.971 167.948L628.987 206.54L634.53 208.836L650.514 170.244L644.971 167.948ZM631.758 210.688H663.726V204.688H631.758V210.688ZM781.752 150.664L780.508 153.394L780.515 153.397L780.523 153.401L781.752 150.664ZM797.016 202.216L799.533 203.849L799.539 203.839L799.546 203.829L797.016 202.216ZM781.752 214.888L782.963 217.633L782.973 217.629L782.982 217.625L781.752 214.888ZM738.264 219.208V216.208H735.264V219.208H738.264ZM738.264 247V250H741.264V247H738.264ZM714.936 247H711.936V250H714.936V247ZM714.936 146.2V143.2H711.936V146.2H714.936ZM773.256 195.736L775.153 198.061L775.171 198.046L775.189 198.031L773.256 195.736ZM773.256 169.816L771.324 172.111L771.342 172.126L771.36 172.141L773.256 169.816ZM738.264 165.208V162.208H735.264V165.208H738.264ZM738.264 200.2H735.264V203.2H738.264V200.2ZM758.568 149.2C767.169 149.2 774.454 150.634 780.508 153.394L782.997 147.934C775.995 144.742 767.824 143.2 758.568 143.2V149.2ZM780.523 153.401C786.682 156.168 791.297 160.035 794.5 164.969L799.533 161.703C795.632 155.693 790.07 151.112 782.982 147.927L780.523 153.401ZM794.5 164.969C797.692 169.886 799.344 175.78 799.344 182.776H805.344C805.344 174.796 803.445 167.73 799.533 161.703L794.5 164.969ZM799.344 182.776C799.344 189.667 797.696 195.573 794.487 200.603L799.546 203.829C803.441 197.723 805.344 190.669 805.344 182.776H799.344ZM794.5 200.583C791.297 205.517 786.682 209.384 780.523 212.151L782.982 217.625C790.07 214.44 795.632 209.859 799.533 203.849L794.5 200.583ZM780.541 212.143C774.478 214.818 767.181 216.208 758.568 216.208V222.208C767.812 222.208 775.971 220.718 782.963 217.633L780.541 212.143ZM758.568 216.208H738.264V222.208H758.568V216.208ZM735.264 219.208V247H741.264V219.208H735.264ZM738.264 244H714.936V250H738.264V244ZM717.936 247V146.2H711.936V247H717.936ZM714.936 149.2H758.568V143.2H714.936V149.2ZM757.272 203.2C764.646 203.2 770.762 201.642 775.153 198.061L771.36 193.411C768.454 195.782 763.915 197.2 757.272 197.2V203.2ZM775.189 198.031C779.63 194.291 781.728 189.064 781.728 182.776H775.728C775.728 187.624 774.179 191.037 771.324 193.441L775.189 198.031ZM781.728 182.776C781.728 176.413 779.642 171.154 775.153 167.491L771.36 172.141C774.167 174.43 775.728 177.811 775.728 182.776H781.728ZM775.189 167.521C770.796 163.822 764.665 162.208 757.272 162.208V168.208C763.896 168.208 768.421 169.666 771.324 172.111L775.189 167.521ZM757.272 162.208H738.264V168.208H757.272V162.208ZM735.264 165.208V200.2H741.264V165.208H735.264ZM738.264 203.2H757.272V197.2H738.264V203.2Z" fill="url(#paint0_linear_577_1744)" fill-opacity="0.24"/>
<path d="M96 171.192H89.112V169.4H104.96V171.192H98.072V189H96V171.192ZM131.65 169.4V189H129.606V179.956H117.342V189H115.27V169.4H117.342V178.136H129.606V169.4H131.65ZM158.907 187.208V189H145.047V169.4H158.487V171.192H147.119V178.164H157.255V179.928H147.119V187.208H158.907ZM198.49 189L194.01 182.7C193.506 182.756 192.983 182.784 192.442 182.784H187.178V189H185.106V169.4H192.442C194.943 169.4 196.903 169.997 198.322 171.192C199.741 172.387 200.45 174.029 200.45 176.12C200.45 177.651 200.058 178.948 199.274 180.012C198.509 181.057 197.407 181.813 195.97 182.28L200.758 189H198.49ZM192.386 181.02C194.327 181.02 195.811 180.591 196.838 179.732C197.865 178.873 198.378 177.669 198.378 176.12C198.378 174.533 197.865 173.32 196.838 172.48C195.811 171.621 194.327 171.192 192.386 171.192H187.178V181.02H192.386ZM220.908 189.168C218.967 189.168 217.203 188.739 215.616 187.88C214.048 187.003 212.816 185.808 211.92 184.296C211.043 182.784 210.604 181.085 210.604 179.2C210.604 177.315 211.043 175.616 211.92 174.104C212.816 172.592 214.048 171.407 215.616 170.548C217.203 169.671 218.967 169.232 220.908 169.232C222.85 169.232 224.595 169.661 226.144 170.52C227.712 171.379 228.944 172.573 229.84 174.104C230.736 175.616 231.184 177.315 231.184 179.2C231.184 181.085 230.736 182.793 229.84 184.324C228.944 185.836 227.712 187.021 226.144 187.88C224.595 188.739 222.85 189.168 220.908 189.168ZM220.908 187.32C222.458 187.32 223.858 186.975 225.108 186.284C226.359 185.575 227.339 184.604 228.048 183.372C228.758 182.121 229.112 180.731 229.112 179.2C229.112 177.669 228.758 176.288 228.048 175.056C227.339 173.805 226.359 172.835 225.108 172.144C223.858 171.435 222.458 171.08 220.908 171.08C219.359 171.08 217.95 171.435 216.68 172.144C215.43 172.835 214.44 173.805 213.712 175.056C213.003 176.288 212.648 177.669 212.648 179.2C212.648 180.731 213.003 182.121 213.712 183.372C214.44 184.604 215.43 185.575 216.68 186.284C217.95 186.975 219.359 187.32 220.908 187.32ZM254.847 183.764H243.927L241.575 189H239.419L248.379 169.4H250.423L259.383 189H257.199L254.847 183.764ZM254.091 182.084L249.387 171.556L244.683 182.084H254.091ZM269.626 169.4H277.606C279.678 169.4 281.507 169.82 283.094 170.66C284.68 171.481 285.912 172.639 286.79 174.132C287.667 175.607 288.106 177.296 288.106 179.2C288.106 181.104 287.667 182.803 286.79 184.296C285.912 185.771 284.68 186.928 283.094 187.768C281.507 188.589 279.678 189 277.606 189H269.626V169.4ZM277.494 187.208C279.211 187.208 280.714 186.872 282.002 186.2C283.29 185.509 284.288 184.567 284.998 183.372C285.707 182.159 286.062 180.768 286.062 179.2C286.062 177.632 285.707 176.251 284.998 175.056C284.288 173.843 283.29 172.9 282.002 172.228C280.714 171.537 279.211 171.192 277.494 171.192H271.698V187.208H277.494ZM320.114 169.4V189H318.126V173.32L310.426 186.508H309.446L301.746 173.404V189H299.758V169.4H301.466L309.978 183.932L318.406 169.4H320.114ZM345.793 183.764H334.873L332.521 189H330.365L339.325 169.4H341.369L350.329 189H348.145L345.793 183.764ZM345.037 182.084L340.333 171.556L335.629 182.084H345.037ZM367.907 169.4C370.408 169.4 372.368 169.997 373.787 171.192C375.206 172.387 375.915 174.029 375.915 176.12C375.915 178.211 375.206 179.853 373.787 181.048C372.368 182.224 370.408 182.812 367.907 182.812H362.643V189H360.571V169.4H367.907ZM367.851 180.992C369.792 180.992 371.276 180.572 372.303 179.732C373.33 178.873 373.843 177.669 373.843 176.12C373.843 174.533 373.33 173.32 372.303 172.48C371.276 171.621 369.792 171.192 367.851 171.192H362.643V180.992H367.851Z" fill="white"/>
<defs>
<linearGradient id="paint0_linear_577_1744" x1="425" y1="-2.25371e-06" x2="436.696" y2="236.03" gradientUnits="userSpaceOnUse">
<stop stop-color="#ABFC4F"/>
<stop offset="1" stop-color="#3DBF69" stop-opacity="0.47"/>
</linearGradient>
</defs>
</svg>
